<?xml version="1.0" encoding="utf-8"?>
<!-- Generator: Adobe Illustrator 16.0.0, SVG Export Plug-In . SVG Version: 6.00 Build 0)  -->
<!DOCTYPE svg PUBLIC "-//W3C//DTD SVG 1.1//EN" "http://www.w3.org/Graphics/SVG/1.1/DTD/svg11.dtd">
<svg version="1.1" id="Layer_1" xmlns="http://www.w3.org/2000/svg" xmlns:xlink="http://www.w3.org/1999/xlink" x="0px" y="0px"
	 width="64.3px" height="26.3px" viewBox="0 0 64.3 26.3" enable-background="new 0 0 64.3 26.3" xml:space="preserve">
<g>
	<path fill="#DB0F0F" d="M29.7,8.1c-8.2,0-16.2,0.8-23.9,2.4c0,0.6,0.1,1.2,0.1,1.9c0,1.5-0.1,2.9-0.4,4.3
		c7.8-1.7,15.9-2.6,24.3-2.6c9.1,0,17.9,1,26.3,3c0.3-2,0.8-4,1.6-5.8C48.7,9.2,39.3,8.1,29.7,8.1z"/>
</g>
<polyline fill="#DB0F0F" points="52.9,1.4 62.6,14.8 49.2,24.6 "/>
<polyline fill="#DB0F0F" points="14.6,24.7 1.5,14.5 11.7,1.3 "/>
</svg>
