<?xml version="1.0" encoding="utf-8"?>
<!-- Generator: Adobe Illustrator 16.0.0, SVG Export Plug-In . SVG Version: 6.00 Build 0)  -->
<!DOCTYPE svg PUBLIC "-//W3C//DTD SVG 1.1//EN" "http://www.w3.org/Graphics/SVG/1.1/DTD/svg11.dtd">
<svg version="1.1" id="Layer_1" xmlns="http://www.w3.org/2000/svg" xmlns:xlink="http://www.w3.org/1999/xlink" x="0px" y="0px"
	 width="700px" height="700px" viewBox="0 0 700 700" enable-background="new 0 0 700 700" xml:space="preserve">
<path fill-rule="evenodd" clip-rule="evenodd" fill="none" stroke="#999999" stroke-width="3.5" stroke-linecap="round" stroke-linejoin="round" stroke-miterlimit="3" d="
	M352.4,147.1c0,0.7,0,1.3,0,1.9c-0.1,4.4-0.3,8.8-0.8,13c-1.1,9.1-3.1,17.7-6.2,26c-1.6,4.5-3.6,8.8-5.8,13
	c-5.4,10.3-12.5,19.8-21.4,28.7c-0.5,0.5-0.9,0.9-1.4,1.3c-22.5,21.9-49.6,32.9-81.2,32.9S176.9,253,154.4,231
	c-0.5-0.4-0.9-0.9-1.4-1.3c-0.5-0.5-1.1-1.1-1.6-1.7c-8.1-8.4-14.7-17.4-19.8-27c-2.2-4.2-4.2-8.5-5.8-13c-3-8.3-5.1-16.9-6.2-26
	c-0.5-4.2-0.8-8.6-0.8-13c0-0.6,0-1.3,0-1.9c0-4.1,0.2-8.1,0.5-12.1c1.6-16.7,6.4-32.1,14.6-46c5.1-8.7,11.5-16.9,19.1-24.5
	c22.8-22.8,50.3-34.3,82.6-34.3c8.1,0,15.9,0.7,23.4,2.2c22.4,4.3,42.1,15,59.2,32.1c7.6,7.6,14,15.8,19.1,24.5
	c8.2,14,13,29.3,14.6,46C352.2,139,352.4,143,352.4,147.1z"/>
<linearGradient id="SVGID_1_" gradientUnits="userSpaceOnUse" x1="352.5" y1="971.5996" x2="352.5" y2="271.6001">
	<stop  offset="0" style="stop-color:#B1A49F"/>
	<stop  offset="1" style="stop-color:#605551"/>
</linearGradient>
<rect fill-rule="evenodd" clip-rule="evenodd" fill="url(#SVGID_1_)" width="705" height="700"/>
<g>
	<g>
		
			<linearGradient id="SVGID_2_" gradientUnits="userSpaceOnUse" x1="-687.2861" y1="363.002" x2="-307.7361" y2="363.002" gradientTransform="matrix(2.634699e-006 -1 1 -9.999999e-004 1.952208e-004 2.648351e-004)">
			<stop  offset="0" style="stop-color:#D5B487"/>
			<stop  offset="1" style="stop-color:#71502F"/>
		</linearGradient>
		<rect x="-16" y="310" fill-rule="evenodd" clip-rule="evenodd" fill="url(#SVGID_2_)" width="758" height="429"/>
	</g>
	<g>
		<g>
			<linearGradient id="SVGID_3_" gradientUnits="userSpaceOnUse" x1="363" y1="358.2129" x2="363" y2="-89.1121">
				<stop  offset="0" style="stop-color:#777777"/>
				<stop  offset="1" style="stop-color:#E4E4E4"/>
			</linearGradient>
			<rect x="-16" y="-92" fill-rule="evenodd" clip-rule="evenodd" fill="url(#SVGID_3_)" width="758" height="374.3"/>
			<rect x="-16" y="282.3" fill-rule="evenodd" clip-rule="evenodd" fill="#8C6C39" width="758" height="3.4"/>
			<linearGradient id="SVGID_4_" gradientUnits="userSpaceOnUse" x1="-16" y1="297.7998" x2="742" y2="297.7998">
				<stop  offset="0" style="stop-color:#5D381D"/>
				<stop  offset="0.2353" style="stop-color:#5A3D1D"/>
				<stop  offset="1" style="stop-color:#583515"/>
			</linearGradient>
			<rect x="-16" y="285.6" fill-rule="evenodd" clip-rule="evenodd" fill="url(#SVGID_4_)" width="758" height="24.4"/>
		</g>
	</g>
	<g>
		<path fill-rule="evenodd" clip-rule="evenodd" fill="#FFFFFF" fill-opacity="0.5098" d="M744.3,285.6c-0.1,0.1-0.2,0.1-0.3,0.1
			H-14c-0.1,0-0.3,0-0.4-0.1c-0.1-0.1-0.1-0.2-0.1-0.3s0-0.2,0.1-0.3c0.1-0.1,0.2-0.1,0.4-0.1h758c0.1,0,0.3,0,0.3,0.1
			c0.1,0.1,0.2,0.1,0.2,0.3S744.5,285.5,744.3,285.6z"/>
	</g>
</g>
<g>
	<g>
		<radialGradient id="SVGID_5_" cx="-17.3999" cy="400.2998" r="348.7964" gradientUnits="userSpaceOnUse">
			<stop  offset="9.019607e-002" style="stop-color:#FFFFFF;stop-opacity:0.1765"/>
			<stop  offset="1" style="stop-color:#FFFFFF;stop-opacity:0"/>
		</radialGradient>
		<path fill-rule="evenodd" clip-rule="evenodd" fill="url(#SVGID_5_)" d="M174.9,263.9c-0.1-0.1-0.3-0.2-0.4-0.2
			c-0.2-0.1-0.5,0-0.7,0.1l-5.1,3.2c-0.2,0.1-0.4,0.3-0.4,0.6c0,0.2,0,0.3,0,0.5l-3.5,2.2c-0.1-0.1-0.2-0.2-0.4-0.2
			c-0.3-0.1-0.5,0-0.7,0.1l-5.1,3.2c-0.2,0.1-0.4,0.3-0.4,0.6c0,0.1,0,0.3,0,0.4l-3.6,2.3c-0.1-0.1-0.2-0.2-0.4-0.2
			c-0.2-0.1-0.5,0-0.7,0.1l-5.1,3.2c-0.2,0.1-0.4,0.3-0.4,0.6c0,0.2,0,0.3,0,0.4l-3.5,2.3c-0.1-0.1-0.3-0.2-0.4-0.2
			c-0.2-0.1-0.5,0-0.7,0.1l-5.1,3.2c-0.2,0.1-0.4,0.3-0.4,0.6c0,0.2,0,0.3,0,0.5l-3.6,2.3c-0.1-0.1-0.3-0.2-0.4-0.3
			c-0.2-0.1-0.5,0-0.7,0.1l-5.1,3.2c-0.2,0.1-0.4,0.3-0.4,0.6c0,0.2,0,0.3,0,0.5l-3.5,2.2c-0.1-0.1-0.3-0.2-0.5-0.3
			c-0.2-0.1-0.5,0-0.7,0.1l-5.1,3.2c-0.2,0.1-0.4,0.3-0.4,0.6c0,0.2,0,0.4,0,0.5l-3.5,2.2c-0.1-0.1-0.3-0.2-0.5-0.3
			c-0.2-0.1-0.5,0-0.7,0.1l-5.1,3.2c-0.2,0.1-0.4,0.3-0.4,0.6c0,0.2,0,0.4,0,0.5l-3.5,2.2c-0.1-0.2-0.3-0.3-0.5-0.3
			c-0.2-0.1-0.5,0-0.7,0.1l-5.1,3.2c-0.2,0.1-0.4,0.3-0.4,0.6c0,0.2,0,0.4,0.1,0.6l-3.5,2.2c-0.1-0.2-0.3-0.3-0.5-0.3
			c-0.2-0.1-0.5,0-0.7,0.1l-5.1,3.2c-0.2,0.1-0.4,0.3-0.4,0.6c0,0.2,0,0.4,0.1,0.6l-3.5,2.2c-0.1-0.2-0.3-0.3-0.5-0.4
			c-0.2-0.1-0.5,0-0.7,0.1l-5.1,3.2c-0.2,0.1-0.4,0.3-0.4,0.6c-0.1,0.2,0,0.4,0.1,0.6l-3.5,2.2c-0.1-0.2-0.3-0.3-0.6-0.4
			c-0.2-0.1-0.5,0-0.7,0.1l-5.1,3.2c-0.2,0.1-0.4,0.3-0.4,0.6c-0.1,0.2,0,0.4,0.1,0.7l-3.5,2.2c-0.1-0.2-0.3-0.3-0.6-0.4
			c-0.2-0.1-0.5,0-0.7,0.1l-5.1,3.2c-0.2,0.1-0.4,0.3-0.4,0.6c-0.1,0.2,0,0.5,0.1,0.7l-3.5,2.2c-0.1-0.2-0.3-0.3-0.6-0.4
			c-0.2-0.1-0.5,0-0.7,0.1l-5.1,3.2c-0.2,0.1-0.4,0.3-0.4,0.6c-0.1,0.2,0,0.5,0.1,0.7l-3.5,2.2c-0.1-0.2-0.3-0.4-0.6-0.4
			c-0.2-0.1-0.5,0-0.7,0.1l-3.9,2.4l2.6-4.1c0.1-0.2,0.2-0.5,0.1-0.7c-0.1-0.2-0.2-0.4-0.4-0.6l2.2-3.5c0.2,0.1,0.4,0.1,0.6,0.1
			c0.3-0.1,0.5-0.2,0.6-0.4l3.2-5.1c0.1-0.2,0.2-0.5,0.1-0.7c-0.1-0.2-0.2-0.4-0.4-0.6l2.2-3.5c0.2,0.1,0.4,0.1,0.6,0
			c0.3-0.1,0.5-0.2,0.6-0.4l3.2-5.1c0.1-0.2,0.2-0.5,0.1-0.7c0-0.2-0.1-0.4-0.3-0.5l2.2-3.5c0.2,0.1,0.3,0.1,0.5,0
			c0.3-0.1,0.5-0.2,0.6-0.4l3.2-5.1c0.1-0.2,0.2-0.5,0.1-0.7c0-0.2-0.1-0.4-0.3-0.5l2.2-3.5c0.2,0.1,0.4,0.1,0.6,0.1
			c0.3-0.1,0.5-0.2,0.6-0.4l3.2-5.1c0.1-0.2,0.2-0.5,0.1-0.7c0-0.2-0.1-0.4-0.3-0.5l2.2-3.5c0.2,0.1,0.4,0.1,0.6,0
			c0.3-0.1,0.5-0.2,0.6-0.4l3.2-5.1c0.1-0.2,0.2-0.5,0.1-0.7c0-0.2-0.1-0.4-0.3-0.5l2.2-3.5c0.2,0.1,0.4,0.1,0.6,0.1
			c0.3-0.1,0.5-0.2,0.6-0.4l3.2-5.1c0.1-0.2,0.2-0.5,0.1-0.7c-0.1-0.2-0.2-0.4-0.3-0.5l2.2-3.5c0.2,0.1,0.4,0.1,0.6,0.1
			c0.3-0.1,0.5-0.2,0.6-0.4l3.2-5.1c0.1-0.2,0.2-0.5,0.1-0.7c-0.1-0.2-0.2-0.4-0.4-0.5l2.2-3.5c0.2,0.1,0.4,0.1,0.6,0.1
			c0.3-0.1,0.5-0.2,0.6-0.4l3.2-5.1c0.1-0.2,0.2-0.5,0.1-0.7c-0.1-0.2-0.2-0.4-0.4-0.6l2.2-3.5c0.2,0.1,0.4,0.2,0.6,0.1
			c0.3-0.1,0.5-0.2,0.6-0.4l3.2-5.1c0.1-0.2,0.2-0.5,0.1-0.7c-0.1-0.2-0.2-0.4-0.4-0.6l2.2-3.5c0.2,0.1,0.4,0.2,0.6,0.1
			c0.3-0.1,0.5-0.2,0.6-0.4l3.2-5.1c0.1-0.2,0.2-0.5,0.1-0.7c-0.1-0.3-0.2-0.4-0.4-0.6l2.2-3.5c0.2,0.1,0.4,0.2,0.7,0.1
			c0.3-0.1,0.5-0.2,0.6-0.4l3.2-5.1c0.1-0.2,0.2-0.5,0.1-0.7c-0.1-0.3-0.2-0.5-0.4-0.6l2.2-3.5c0.2,0.1,0.5,0.2,0.7,0.1
			c0.3-0.1,0.5-0.2,0.6-0.4l3.2-5.1c0.1-0.2,0.2-0.5,0.1-0.7c-0.1-0.3-0.2-0.5-0.4-0.6l2.2-3.5c0.2,0.1,0.5,0.2,0.7,0.1
			c0.3-0.1,0.5-0.2,0.6-0.4l3.2-5.1c0.1-0.2,0.2-0.5,0.1-0.7c-0.1-0.3-0.2-0.5-0.4-0.6l2.2-3.5c0.2,0.1,0.5,0.2,0.7,0.1
			c0.3-0.1,0.5-0.2,0.6-0.4l3.2-5.1c0.1-0.2,0.2-0.5,0.1-0.7c-0.1-0.3-0.2-0.5-0.4-0.6l2.2-3.5c0.2,0.1,0.5,0.2,0.7,0.1
			c0.3-0.1,0.5-0.2,0.6-0.4l3-4.8L197,249l-1,1h0.9l-1.6,1c-0.1-0.2-0.3-0.3-0.5-0.4c-0.2-0.1-0.5,0-0.7,0.1l-5.1,3.2
			c-0.2,0.1-0.4,0.3-0.4,0.6c-0.1,0.2,0,0.4,0.1,0.6l-3.5,2.2c-0.1-0.1-0.3-0.2-0.5-0.3c-0.2-0.1-0.5,0-0.7,0.1l-5.1,3.2
			c-0.2,0.1-0.4,0.3-0.4,0.6c0,0.2,0,0.4,0,0.5L174.9,263.9z M35.6,350.7c0.1,0,0.1,0.1,0.2,0.1c-0.1,0.2,0,0.5,0.1,0.7v0l-1.4,0.9
			L35.6,350.7z"/>
		<path fill-rule="evenodd" clip-rule="evenodd" fill="#999999" d="M122.7,211.4c0.2,0.1,0.4,0.3,0.4,0.6c0.1,0.2,0,0.5-0.1,0.7
			l-3.2,5.1c-0.1,0.2-0.3,0.4-0.6,0.4c-0.2,0.1-0.5,0-0.7-0.1c-0.2-0.1-0.4-0.3-0.4-0.6c-0.1-0.2,0-0.5,0.1-0.7l3.2-5.1
			c0.1-0.2,0.3-0.4,0.6-0.4C122.2,211.2,122.5,211.2,122.7,211.4z M124.9,207.9c-0.2-0.1-0.4-0.3-0.4-0.6c-0.1-0.2,0-0.5,0.1-0.7
			l3.2-5.1c0.1-0.2,0.3-0.4,0.6-0.4c0.2-0.1,0.5,0,0.7,0.1c0.2,0.1,0.4,0.3,0.4,0.6c0.1,0.2,0,0.5-0.1,0.7l-3.2,5.1
			c-0.1,0.2-0.3,0.4-0.6,0.4C125.4,208,125.1,208,124.9,207.9z M135.6,192.5l-3,4.8c-0.1,0.2-0.3,0.4-0.6,0.4
			c-0.2,0.1-0.5,0-0.7-0.1c-0.2-0.1-0.4-0.3-0.4-0.6c-0.1-0.2,0-0.5,0.1-0.7l3.2-5.1c0.1-0.2,0.3-0.4,0.6-0.4c0.2-0.1,0.5,0,0.7,0.1
			c0.2,0.1,0.4,0.3,0.4,0.6c0.1,0.2,0,0.5-0.1,0.7L135.6,192.5z M116.3,221.5c0.2,0.1,0.4,0.3,0.4,0.6c0.1,0.2,0,0.5-0.1,0.7
			l-3.2,5.1c-0.1,0.2-0.3,0.4-0.6,0.4c-0.2,0.1-0.5,0-0.7-0.1c-0.2-0.1-0.4-0.3-0.4-0.6c-0.1-0.2,0-0.5,0.1-0.7l3.2-5.1
			c0.1-0.2,0.3-0.4,0.6-0.4C115.8,221.4,116.1,221.4,116.3,221.5z M105.7,238.5L105.7,238.5c-0.2-0.1-0.4-0.3-0.5-0.6
			c-0.1-0.2,0-0.5,0.1-0.7l3.2-5.1c0.1-0.2,0.3-0.4,0.6-0.4c0.2-0.1,0.5,0,0.7,0.1c0.2,0.1,0.4,0.3,0.4,0.6c0.1,0.2,0,0.5-0.1,0.7
			l-3.2,5.1c-0.1,0.2-0.3,0.4-0.6,0.4C106.2,238.6,105.9,238.6,105.7,238.5z M99.4,248.7L99.4,248.7c-0.3-0.2-0.4-0.4-0.5-0.6
			c-0.1-0.2,0-0.5,0.1-0.7l3.2-5.1c0.1-0.2,0.3-0.4,0.6-0.4c0.2-0.1,0.5,0,0.7,0.1l0,0c0.2,0.1,0.3,0.3,0.4,0.6
			c0.1,0.2,0,0.5-0.1,0.7l-3.2,5.1c-0.1,0.2-0.3,0.4-0.6,0.4C99.8,248.8,99.5,248.8,99.4,248.7z M97.1,252.2
			c0.2,0.1,0.3,0.3,0.4,0.6c0.1,0.2,0,0.5-0.1,0.7l-3.2,5.1c-0.1,0.2-0.3,0.4-0.6,0.4c-0.2,0.1-0.4,0-0.6-0.1l-0.1,0
			c-0.2-0.1-0.4-0.3-0.4-0.6c-0.1-0.2,0-0.5,0.1-0.7l3.2-5.1c0.1-0.2,0.3-0.4,0.6-0.4C96.6,252,96.9,252,97.1,252.2L97.1,252.2z
			 M90.8,262.4c0.2,0.1,0.3,0.3,0.4,0.6c0.1,0.2,0,0.5-0.1,0.7l-3.2,5.1c-0.1,0.2-0.3,0.4-0.6,0.4c-0.2,0.1-0.4,0-0.6-0.1
			c0,0-0.1,0-0.1-0.1c-0.2-0.1-0.4-0.3-0.4-0.6c-0.1-0.2,0-0.5,0.1-0.7l3.2-5.1c0.1-0.2,0.3-0.4,0.6-0.4
			C90.2,262.2,90.5,262.2,90.8,262.4C90.7,262.4,90.7,262.4,90.8,262.4z M84.4,272.6c0.2,0.1,0.3,0.3,0.4,0.5c0.1,0.2,0,0.5-0.1,0.7
			l-3.2,5.1c-0.1,0.2-0.3,0.4-0.6,0.4c-0.2,0-0.4,0-0.6-0.1c0,0-0.1,0-0.1,0c-0.2-0.1-0.4-0.3-0.4-0.6c-0.1-0.2,0-0.5,0.1-0.7
			l3.2-5.1c0.1-0.2,0.3-0.4,0.6-0.4C83.8,272.4,84.1,272.4,84.4,272.6C84.3,272.6,84.4,272.6,84.4,272.6z M124.1,295.9
			c0,0.1,0.1,0.1,0.1,0.2c0.1,0.2,0.2,0.5,0.1,0.7c-0.1,0.3-0.2,0.5-0.4,0.6l-5.1,3.2c-0.2,0.1-0.5,0.2-0.7,0.1
			c-0.3-0.1-0.5-0.2-0.6-0.4c0-0.1-0.1-0.1-0.1-0.2c-0.1-0.2-0.1-0.3,0-0.5c0.1-0.3,0.2-0.5,0.4-0.6l5.1-3.2
			c0.2-0.1,0.5-0.2,0.7-0.1C123.8,295.7,124,295.8,124.1,295.9z M134.3,289.5c0.1,0,0.1,0.1,0.2,0.2c0.1,0.2,0.2,0.5,0.1,0.7
			c-0.1,0.3-0.2,0.5-0.4,0.6l-5.1,3.2c-0.2,0.1-0.5,0.2-0.7,0.1c-0.3-0.1-0.5-0.2-0.6-0.4c0-0.1-0.1-0.1-0.1-0.2
			c-0.1-0.2-0.1-0.3,0-0.5c0.1-0.3,0.2-0.5,0.4-0.6l5.1-3.2c0.2-0.1,0.5-0.2,0.7-0.1C134,289.3,134.2,289.3,134.3,289.5z
			 M137.9,287.2c-0.1-0.2-0.1-0.3,0-0.5c0.1-0.3,0.2-0.5,0.4-0.6l5.1-3.2c0.2-0.1,0.5-0.2,0.7-0.1c0.2,0,0.3,0.1,0.4,0.2
			c0.1,0.1,0.1,0.1,0.2,0.2c0.1,0.2,0.2,0.5,0.1,0.7c-0.1,0.3-0.2,0.5-0.4,0.6l-5.1,3.2c-0.2,0.1-0.5,0.2-0.7,0.1
			c-0.3-0.1-0.5-0.2-0.6-0.4C137.9,287.4,137.9,287.3,137.9,287.2z M158.2,274.4c0-0.1,0-0.3,0-0.4c0.1-0.3,0.2-0.5,0.4-0.6l5.1-3.2
			c0.2-0.1,0.4-0.2,0.7-0.1c0.2,0,0.3,0.1,0.4,0.2c0.1,0.1,0.1,0.1,0.2,0.2c0.1,0.2,0.2,0.4,0.1,0.7c-0.1,0.3-0.2,0.5-0.4,0.6
			l-5.1,3.2c-0.2,0.1-0.5,0.2-0.7,0.1c-0.3-0.1-0.5-0.2-0.6-0.4C158.3,274.6,158.3,274.5,158.2,274.4z M148,280.8c0-0.1,0-0.3,0-0.4
			c0.1-0.3,0.2-0.5,0.4-0.6l5.1-3.2c0.2-0.1,0.5-0.2,0.7-0.1c0.2,0,0.3,0.1,0.4,0.2c0.1,0.1,0.1,0.1,0.2,0.2
			c0.1,0.2,0.2,0.5,0.1,0.7c-0.1,0.3-0.2,0.5-0.4,0.6l-5.1,3.2c-0.2,0.1-0.5,0.2-0.7,0.1c-0.3-0.1-0.5-0.2-0.6-0.4
			C148.1,281,148.1,280.9,148,280.8z M78,282.8c0.2,0.1,0.3,0.3,0.3,0.5c0.1,0.2,0,0.5-0.1,0.7l-3.2,5.1c-0.1,0.2-0.3,0.4-0.6,0.4
			c-0.2,0-0.4,0-0.6-0.1c0,0-0.1,0-0.1-0.1c-0.2-0.1-0.4-0.3-0.4-0.6c-0.1-0.2,0-0.5,0.1-0.7l3.2-5.1c0.1-0.2,0.3-0.4,0.6-0.4
			c0.2-0.1,0.5,0,0.7,0.1C77.9,282.8,78,282.8,78,282.8z M71.6,293c0.2,0.1,0.3,0.3,0.3,0.5c0.1,0.2,0,0.5-0.1,0.7l-3.2,5.1
			c-0.1,0.2-0.3,0.4-0.6,0.4c-0.2,0-0.4,0-0.6,0c0,0-0.1,0-0.1-0.1c-0.2-0.1-0.4-0.3-0.4-0.6c-0.1-0.2,0-0.5,0.1-0.7l3.2-5.1
			c0.1-0.2,0.3-0.4,0.6-0.4c0.2-0.1,0.5,0,0.7,0.1C71.5,293,71.6,293,71.6,293z M65.2,303.3c0.2,0.1,0.3,0.3,0.3,0.5
			c0.1,0.2,0,0.5-0.1,0.7l-3.2,5.1c-0.1,0.2-0.3,0.4-0.6,0.4c-0.2,0-0.4,0-0.6-0.1c-0.1,0-0.1,0-0.1-0.1c-0.2-0.1-0.4-0.3-0.4-0.6
			c-0.1-0.2,0-0.5,0.1-0.7l3.2-5.1c0.1-0.2,0.3-0.4,0.6-0.4c0.2-0.1,0.5,0,0.7,0.1C65.1,303.2,65.2,303.2,65.2,303.3z M52.5,323.6
			c0.2,0.1,0.3,0.3,0.3,0.5c0.1,0.2,0,0.5-0.1,0.7l-3.2,5.1c-0.1,0.2-0.3,0.4-0.6,0.4c-0.2,0-0.4,0-0.6,0c0,0-0.1,0-0.1-0.1
			c-0.2-0.1-0.4-0.3-0.4-0.6c-0.1-0.2,0-0.5,0.1-0.7l3.2-5.1c0.1-0.2,0.3-0.4,0.6-0.4c0.2-0.1,0.5,0,0.7,0.1
			C52.4,323.6,52.4,323.6,52.5,323.6z M54.7,320.1c-0.1,0-0.1-0.1-0.2-0.1c-0.2-0.1-0.4-0.3-0.4-0.6c-0.1-0.2,0-0.5,0.1-0.7l3.2-5.1
			c0.1-0.2,0.3-0.4,0.6-0.4c0.2-0.1,0.5,0,0.7,0.1c0.1,0,0.1,0.1,0.1,0.1c0.1,0.1,0.2,0.3,0.3,0.5c0.1,0.2,0,0.5-0.1,0.7l-3.2,5.1
			c-0.1,0.2-0.3,0.4-0.6,0.4C55,320.2,54.8,320.2,54.7,320.1z M46.1,333.8c0.2,0.1,0.3,0.3,0.4,0.6c0.1,0.2,0,0.5-0.1,0.7l-3.2,5.1
			c-0.1,0.2-0.3,0.4-0.6,0.4c-0.2,0-0.4,0-0.6-0.1c0,0-0.1,0-0.1,0c-0.2-0.1-0.4-0.3-0.4-0.6c-0.1-0.2,0-0.5,0.1-0.7l3.2-5.1
			c0.1-0.2,0.3-0.4,0.6-0.4C45.6,333.6,45.8,333.6,46.1,333.8C46.1,333.8,46.1,333.8,46.1,333.8z M56.3,338.6
			c-0.1-0.2-0.2-0.4-0.1-0.7c0.1-0.3,0.2-0.5,0.4-0.6l5.1-3.2c0.2-0.1,0.5-0.2,0.7-0.1c0.2,0.1,0.4,0.2,0.6,0.4c0,0,0,0,0,0.1
			c0.1,0.2,0.2,0.5,0.1,0.7c-0.1,0.3-0.2,0.5-0.4,0.6l-5.1,3.2c-0.2,0.1-0.5,0.2-0.7,0.1C56.7,339,56.5,338.9,56.3,338.6L56.3,338.6
			z M52.8,340.8L52.8,340.8c0.2,0.2,0.2,0.5,0.1,0.7c-0.1,0.3-0.2,0.5-0.4,0.6l-5.1,3.2c-0.2,0.1-0.5,0.2-0.7,0.1
			c-0.3-0.1-0.5-0.2-0.6-0.4c-0.1-0.2-0.2-0.5-0.1-0.7c0.1-0.3,0.2-0.5,0.4-0.6l5.1-3.2c0.2-0.1,0.5-0.2,0.7-0.1
			C52.5,340.5,52.7,340.6,52.8,340.8z M73.2,328C73.2,328,73.2,328,73.2,328c0.2,0.3,0.2,0.5,0.2,0.8c-0.1,0.3-0.2,0.5-0.4,0.6
			l-5.1,3.2c-0.2,0.1-0.5,0.2-0.7,0.1c-0.3-0.1-0.5-0.2-0.6-0.4l0,0c-0.1-0.2-0.2-0.4-0.1-0.7c0.1-0.3,0.2-0.5,0.4-0.6l5.1-3.2
			c0.2-0.1,0.5-0.2,0.7-0.1C72.9,327.7,73.1,327.8,73.2,328z M76.7,325.8c-0.1-0.2-0.1-0.4-0.1-0.6c0.1-0.3,0.2-0.5,0.4-0.6l5.1-3.2
			c0.2-0.1,0.5-0.2,0.7-0.1c0.2,0.1,0.4,0.2,0.5,0.4c0,0,0,0,0.1,0.1c0.1,0.2,0.2,0.5,0.1,0.7c-0.1,0.3-0.2,0.5-0.4,0.6l-5.1,3.2
			c-0.2,0.1-0.5,0.2-0.7,0.1C77.1,326.2,76.9,326.1,76.7,325.8C76.7,325.8,76.7,325.8,76.7,325.8z M39.8,344
			c0.2,0.1,0.3,0.3,0.4,0.6c0.1,0.2,0,0.5-0.1,0.7l-2.6,4.1l3.9-2.4c0.2-0.1,0.5-0.2,0.7-0.1c0.3,0.1,0.5,0.2,0.6,0.4
			c0.1,0.2,0.2,0.5,0.1,0.7c-0.1,0.3-0.2,0.5-0.4,0.6l-5.1,3.2c-0.2,0.1-0.5,0.2-0.7,0.1c-0.3-0.1-0.5-0.2-0.6-0.4v0
			c-0.1-0.2-0.2-0.4-0.1-0.7c-0.1,0-0.2-0.1-0.2-0.1c0,0,0,0-0.1,0c-0.2-0.1-0.4-0.3-0.4-0.6c-0.1-0.2,0-0.5,0.1-0.7l3.2-5.1
			c0.1-0.2,0.3-0.4,0.6-0.4C39.3,343.8,39.5,343.8,39.8,344L39.8,344z M107.3,306.5c-0.1-0.2-0.1-0.4,0-0.5c0.1-0.3,0.2-0.5,0.4-0.6
			l5.1-3.2c0.2-0.1,0.5-0.2,0.7-0.1c0.2,0,0.4,0.1,0.5,0.3c0,0,0.1,0.1,0.1,0.2c0.1,0.2,0.2,0.5,0.1,0.7c-0.1,0.3-0.2,0.5-0.4,0.6
			l-5.1,3.2c-0.2,0.1-0.5,0.2-0.7,0.1c-0.3-0.1-0.5-0.2-0.6-0.4C107.3,306.6,107.3,306.5,107.3,306.5z M103.8,308.7
			c0,0,0.1,0.1,0.1,0.1c0.1,0.2,0.2,0.5,0.1,0.7c-0.1,0.3-0.2,0.5-0.4,0.6l-5.1,3.2c-0.2,0.1-0.5,0.2-0.7,0.1
			c-0.3-0.1-0.5-0.2-0.6-0.4c0,0-0.1-0.1-0.1-0.1c-0.1-0.2-0.1-0.4-0.1-0.6c0.1-0.3,0.2-0.5,0.4-0.6l5.1-3.2
			c0.2-0.1,0.5-0.2,0.7-0.1C103.5,308.5,103.6,308.6,103.8,308.7z M86.9,319.4c-0.1-0.2-0.1-0.4-0.1-0.6c0.1-0.3,0.2-0.5,0.4-0.6
			l5.1-3.2c0.2-0.1,0.5-0.2,0.7-0.1c0.2,0,0.4,0.2,0.5,0.3c0,0,0,0.1,0.1,0.1c0.1,0.2,0.2,0.5,0.1,0.7c-0.1,0.3-0.2,0.5-0.4,0.6
			l-5.1,3.2c-0.2,0.1-0.5,0.2-0.7,0.1c-0.3-0.1-0.5-0.2-0.6-0.4C86.9,319.4,86.9,319.4,86.9,319.4z M188.6,255.3
			c-0.1-0.2-0.2-0.4-0.1-0.6c0.1-0.3,0.2-0.5,0.4-0.6l5.1-3.2c0.2-0.1,0.5-0.2,0.7-0.1c0.2,0.1,0.4,0.2,0.5,0.4c0,0,0,0,0,0.1
			c0.1,0.2,0.2,0.5,0.1,0.7c-0.1,0.3-0.2,0.5-0.4,0.6l-5.1,3.2c-0.2,0.1-0.5,0.2-0.7,0.1C188.9,255.7,188.7,255.5,188.6,255.3
			L188.6,255.3z M185.1,257.5c0,0,0.1,0.1,0.1,0.1c0.1,0.2,0.2,0.5,0.1,0.7c-0.1,0.3-0.2,0.5-0.4,0.6l-5.1,3.2
			c-0.2,0.1-0.5,0.2-0.7,0.1c-0.3-0.1-0.5-0.2-0.6-0.4c0-0.1-0.1-0.1-0.1-0.1c-0.1-0.2-0.1-0.4,0-0.5c0.1-0.3,0.2-0.5,0.4-0.6
			l5.1-3.2c0.2-0.1,0.5-0.2,0.7-0.1C184.8,257.2,185,257.3,185.1,257.5z M168.3,268c-0.1-0.1-0.1-0.3,0-0.5c0.1-0.3,0.2-0.5,0.4-0.6
			l5.1-3.2c0.2-0.1,0.5-0.2,0.7-0.1c0.2,0,0.3,0.1,0.4,0.2c0.1,0.1,0.1,0.1,0.2,0.2c0.1,0.2,0.2,0.5,0.1,0.7
			c-0.1,0.3-0.2,0.5-0.4,0.6l-5.1,3.2c-0.2,0.1-0.5,0.2-0.7,0.1c-0.3-0.1-0.5-0.2-0.6-0.4C168.4,268.2,168.3,268.1,168.3,268z"/>
	</g>
</g>
<g>
	<g>
		<g>
			<path fill-rule="evenodd" clip-rule="evenodd" fill-opacity="0.498" d="M249.4,553.9l239.1-18.8l12.4,15.3
				c2.5,4.7-6,10.5-25.3,17.3c-23.9,9.9-51.5,21.5-82.7,34.9c-0.2,0.1-0.5,0.3-0.8,0.4c-22.6,5.2-44.4,6.8-65.4,5
				c-1.2,1.1-2.7,2.1-4.3,3.1c-6.6,4-14.6,6-23.9,6c-9.3,0-17.3-2-23.9-6c-6.6-4-9.9-8.9-9.9-14.5c0-2.8,0.8-5.5,2.5-7.9
				C256.8,579.9,250.8,568.3,249.4,553.9z"/>
		</g>
		<g>
			<g>
				<linearGradient id="SVGID_6_" gradientUnits="userSpaceOnUse" x1="266.5" y1="583.9004" x2="330.5" y2="583.9004">
					<stop  offset="0" style="stop-color:#525252"/>
					<stop  offset="1" style="stop-color:#2C2C2C"/>
				</linearGradient>
				<path fill-rule="evenodd" clip-rule="evenodd" fill="url(#SVGID_6_)" d="M330.5,582.4l0,2.3c-0.1,1.7-0.5,3.3-1.3,4.9
					c-0.1,0.3-0.2,0.5-0.3,0.8c-1.5,2.9-4.1,5.5-7.8,7.8c-6.3,3.9-13.8,5.9-22.7,5.9c-8.9,0-16.4-2-22.6-5.9c-4-2.6-6.7-5.4-8.2-8.6
					c-0.1-0.2-0.1-0.4-0.2-0.5c-0.6-1.5-0.9-3.1-1-4.7v-0.6c0.1-5.4,3.3-10.1,9.4-13.9c6.2-3.9,13.8-5.9,22.6-5.9
					c8.8,0,16.4,2,22.7,5.9C326.8,573.3,329.9,577.5,330.5,582.4z"/>
				<linearGradient id="SVGID_7_" gradientUnits="userSpaceOnUse" x1="266.5" y1="599.6748" x2="330.5" y2="599.6748">
					<stop  offset="0" style="stop-color:#000000"/>
					<stop  offset="0.4235" style="stop-color:#333333"/>
					<stop  offset="1" style="stop-color:#030303"/>
				</linearGradient>
				<path fill-rule="evenodd" clip-rule="evenodd" fill="url(#SVGID_7_)" d="M330.5,584.7l-0.2,12.7c-0.7,4.6-3.8,8.6-9.2,11.9
					c-6.2,3.9-13.8,5.8-22.6,5.8s-16.4-1.9-22.6-5.8c-5.9-3.6-9-8-9.4-13.1c0-0.3,0-0.6,0-1v-10.9c0.1,1.6,0.4,3.2,1,4.7
					c0.1,0.2,0.1,0.3,0.2,0.5c1.5,3.2,4.2,6,8.2,8.6c6.2,3.9,13.8,5.9,22.6,5.9c8.8,0,16.4-2,22.7-5.9c3.7-2.3,6.3-4.9,7.8-7.8
					c0.1-0.2,0.2-0.5,0.3-0.8C330,588,330.4,586.3,330.5,584.7z"/>
				<path fill-rule="evenodd" clip-rule="evenodd" fill="#2C2C2C" d="M330.5,584.7l0-2.3c0,0.4,0,0.8,0,1.2V584.7z"/>
			</g>
		</g>
		<g>
			<path fill-rule="evenodd" clip-rule="evenodd" d="M248,560.1l2-30.9l240,1.3l8.4,17.8c-0.8,6.9-7.9,12.4-21.3,16.6l-88.5,36.5
				c-8.3,2-16.4,3.5-24.3,4.6c-3.5,0.5-7,0.8-10.4,1.1h0c0,0-0.1,0-0.1,0c-5,0.4-9.9,0.6-14.8,0.5c-8.1,0-16-0.6-23.5-1.8
				c0,0-0.1,0-0.2,0c-0.1,0-0.2,0-0.3,0c0,0-0.1,0-0.2,0c-11.1-1.9-21.5-5-31.3-9.4l-0.8-0.4c-0.4-0.1-0.8-0.3-1.1-0.5
				c-1.8-0.8-3.5-1.7-5.2-2.5C261.5,584.9,252,574,248,560.1z M315.5,602.3l-0.1,0.2l0.5,0c0.1,0,0.3,0,0.4,0.1
				C316,602.5,315.7,602.5,315.5,602.3z"/>
		</g>
		<g>
			<g>
				
					<linearGradient id="SVGID_8_" gradientUnits="userSpaceOnUse" x1="-501.3398" y1="-524.6377" x2="-248.6499" y2="-524.6377" gradientTransform="matrix(-1 0 0 -1 0 0)">
					<stop  offset="0" style="stop-color:#8EC5C0"/>
					<stop  offset="0.9412" style="stop-color:#80AFA9"/>
					<stop  offset="1" style="stop-color:#659E97"/>
					<stop  offset="1" style="stop-color:#80AFA9"/>
					<stop  offset="1" style="stop-color:#80AFA9"/>
				</linearGradient>
				<path fill-rule="evenodd" clip-rule="evenodd" fill="url(#SVGID_8_)" d="M501.3,511.2c0,0.4,0,0.8-0.1,1.1
					c-0.4,1.4-1.3,2.8-2.7,4.2c-1.8,0.9-3.7,1.8-5.7,2.7c-0.2,0.1-0.4,0.2-0.7,0.3c-30.8,12.8-63.1,25.5-96.8,38.3
					c-1.5,0.6-3,1.2-4.5,1.7c-0.1,0-0.1,0.1-0.3,0.1c-6,1.7-11.9,3-17.8,4.1c-2.9,0.6-5.8,1.1-8.6,1.5c0,0,0,0,0,0h-0.1
					c-7.6,1-15,1.6-22.2,1.8c-2.5,0-4.9,0-7.3,0c-6.3-0.2-12.6-0.7-18.8-1.6c-0.3,0-0.6-0.1-0.9-0.1c-4.2-0.6-8.4-1.4-12.6-2.3
					c0,0-0.1,0-0.1,0c-2.7-0.6-5.5-1.4-8.2-2.2c-0.1,0-0.1,0-0.1,0c-2.1-0.6-4.1-1.3-6.3-2l-0.4-0.1c-0.4-0.1-0.7-0.3-1-0.4h0
					l-0.1,0c-12.6-4.2-22.7-10.6-30.3-19.2c0-0.1-0.1-0.1-0.2-0.1c-0.3-0.4-0.6-0.7-0.9-1l-0.1-0.1c0-0.1,0-0.1,0-0.1
					c-0.9-1-1.7-2-2.5-3.1c-1.2-1.7-2.3-3.4-3.3-5.2c0,0,0-0.1-0.1-0.1c0-0.2-0.1-0.4-0.3-0.6l-0.1-1l7.4-0.5c0-0.6,0.1-1.2,0.2-1.8
					l176.7-43.1l58.6,18.1c0.1,0,0.5,0.1,1.3,0.5c0.8,0.3,2.3,1.1,4.5,2.5c2.2,1.4,3.5,3.4,4,6.3
					C501.3,510.2,501.4,510.7,501.3,511.2z"/>
				
					<linearGradient id="SVGID_9_" gradientUnits="userSpaceOnUse" x1="-528.0874" y1="-558.7021" x2="-221.3124" y2="-558.7021" gradientTransform="matrix(-1 0 0 -1 0 0)">
					<stop  offset="0" style="stop-color:#416A66"/>
					<stop  offset="0.1412" style="stop-color:#94D0C8"/>
					<stop  offset="0.4392" style="stop-color:#87C3BB"/>
					<stop  offset="0.8549" style="stop-color:#84BFBB"/>
					<stop  offset="0.9098" style="stop-color:#548884"/>
					<stop  offset="0.9804" style="stop-color:#1F2E27"/>
				</linearGradient>
				<path fill-rule="evenodd" clip-rule="evenodd" fill="url(#SVGID_9_)" d="M249,529.4C249,529.4,249,529.5,249,529.4
					c1.1,1.9,2.1,3.6,3.3,5.3c0.8,1.1,1.6,2.1,2.5,3.1c0,0,0,0,0,0.1l0.1,0.1c0.3,0.3,0.6,0.7,0.9,1c0.1,0,0.2,0,0.2,0.1
					c7.6,8.6,17.6,15,30.3,19.2l0.1,0h0c0.3,0.1,0.6,0.2,1,0.4l0.4,0.1c2.1,0.7,4.2,1.4,6.3,2c0,0,0.1,0,0.1,0
					c2.7,0.8,5.5,1.5,8.2,2.2c0,0,0.1,0,0.1,0c4.2,0.9,8.4,1.7,12.6,2.3c0.3,0,0.6,0.1,0.9,0.1c6.2,0.9,12.5,1.4,18.8,1.6
					c2.4,0,4.8,0,7.3,0c7.3-0.2,14.7-0.8,22.2-1.8h0.1c0,0,0,0,0,0c2.9-0.4,5.8-0.9,8.6-1.5c5.8-1.1,11.8-2.4,17.8-4.1
					c0.1,0,0.2-0.1,0.3-0.1c1.5-0.5,3-1.1,4.5-1.7c33.7-12.8,66-25.5,96.8-38.3c0.3-0.1,0.5-0.2,0.7-0.3c1.9-0.9,3.8-1.8,5.7-2.7
					c1.4-1.4,2.3-2.8,2.7-4.2c0.1-0.4,0.1-0.8,0.1-1.1l0,1.1l-2.8,34.5c-0.8,6.8-7.9,12.4-21.3,16.6L388.7,600
					c-8.3,2-16.4,3.5-24.3,4.6c-3.5,0.4-7,0.8-10.4,1.1h0c0,0-0.1,0-0.1,0c-5,0.4-9.9,0.6-14.8,0.6c-8.1-0.1-16-0.7-23.5-1.9
					c0,0-0.1,0-0.2,0c-0.1,0-0.2,0-0.3,0c0,0-0.1,0-0.2,0c-11.1-1.8-21.5-5-31.3-9.3l-0.8-0.5c-0.4-0.2-0.8-0.3-1.1-0.5
					c-1.8-0.8-3.5-1.7-5.2-2.5c-14.8-7.9-24.3-18.9-28.3-32.8L249,529.4z M315.4,601l0.5,0.1c0.1,0,0.3,0,0.4,0
					c-0.3-0.1-0.5-0.2-0.8-0.3L315.4,601z"/>
			</g>
		</g>
		<g>
			<g>
				
					<radialGradient id="SVGID_10_" cx="-332.0498" cy="-551.2002" r="68.9" gradientTransform="matrix(-1 0 0 1 0 1102.4004)" gradientUnits="userSpaceOnUse">
					<stop  offset="0" style="stop-color:#FFFFFF;stop-opacity:0.498"/>
					<stop  offset="1" style="stop-color:#FBFBFB;stop-opacity:0"/>
				</radialGradient>
				<path fill-rule="evenodd" clip-rule="evenodd" fill="url(#SVGID_10_)" d="M263.6,546.9c0.1-0.1,0.3-0.1,0.4,0
					c38.2,24.1,83.4,26.9,135.7,8.5c0.2-0.1,0.3-0.1,0.3,0c0.1,0.1,0.2,0.2,0.3,0.3c0,0.1,0,0.3,0,0.3c-0.1,0.1-0.2,0.2-0.3,0.3
					c-52.6,18.5-98.1,15.7-136.5-8.6c-0.1-0.1-0.1-0.2-0.2-0.3c0-0.1,0-0.3,0.1-0.4C263.4,547,263.5,546.9,263.6,546.9z"/>
				
					<radialGradient id="SVGID_11_" cx="-449.6377" cy="-535.8501" r="47.6013" gradientTransform="matrix(-1 0 0 1 0 1071.7002)" gradientUnits="userSpaceOnUse">
					<stop  offset="0" style="stop-color:#FFFFFF;stop-opacity:0.498"/>
					<stop  offset="1" style="stop-color:#FBFBFB;stop-opacity:0"/>
				</radialGradient>
				<path fill-rule="evenodd" clip-rule="evenodd" fill="url(#SVGID_11_)" d="M493.4,517.9c0.3,0.1,0.4,0.3,0.5,0.5
					c0.1,0.2,0.1,0.5,0,0.7c-0.1,0.2-0.3,0.4-0.6,0.5l-86.7,34.3c-0.3,0.1-0.5,0.1-0.8,0c-0.3-0.1-0.5-0.3-0.6-0.6
					c-0.1-0.2-0.1-0.5,0-0.8c0.1-0.3,0.3-0.4,0.6-0.5l86.8-34.2C492.9,517.8,493.2,517.8,493.4,517.9z"/>
				
					<radialGradient id="SVGID_12_" cx="-443.6001" cy="-540.0498" r="63.0375" gradientTransform="matrix(-1 0 0 1 0 1080.0996)" gradientUnits="userSpaceOnUse">
					<stop  offset="0" style="stop-color:#4D9989;stop-opacity:0.2824"/>
					<stop  offset="1" style="stop-color:#FBFBFB;stop-opacity:0"/>
				</radialGradient>
				<path fill-rule="evenodd" clip-rule="evenodd" fill="url(#SVGID_12_)" d="M487.1,523c0,0,0,0.1-0.1,0.1l-2.2,0.9h-0.1
					c0-0.1-0.1-0.1-0.1-0.1c0,0,0-0.1,0-0.1c0,0,0.1,0,0.1,0l2.2-0.9c0,0,0.1,0,0.1,0C487.1,522.8,487.1,522.8,487.1,523L487.1,523z
					"/>
			</g>
		</g>
		<g>
			
				<radialGradient id="SVGID_13_" cx="-247.1694" cy="-655.3667" r="42.7667" gradientTransform="matrix(-0.9468 0.3219 0.1471 0.4326 307.3878 903.9568)" gradientUnits="userSpaceOnUse">
				<stop  offset="0" style="stop-color:#4D9989;stop-opacity:9.411765e-002"/>
				<stop  offset="1" style="stop-color:#FBFBFB;stop-opacity:0"/>
			</radialGradient>
			<polygon fill-rule="evenodd" clip-rule="evenodd" fill="url(#SVGID_13_)" points="478.3,559.5 435.3,573.4 400.5,556.8 
				484.8,523.7 			"/>
		</g>
		<g>
			
				<radialGradient id="SVGID_14_" cx="244.1021" cy="649.8145" r="59.4833" gradientTransform="matrix(0.9431 -0.3325 -0.1519 -0.431 314.7591 892.9258)" gradientUnits="userSpaceOnUse">
				<stop  offset="0" style="stop-color:#52948C;stop-opacity:0.1059"/>
				<stop  offset="1" style="stop-color:#FBFBFB;stop-opacity:0"/>
			</radialGradient>
			<polygon fill-rule="evenodd" clip-rule="evenodd" fill="url(#SVGID_14_)" points="455.6,501.5 490.5,517.6 406.8,551.8 
				412.8,515.9 			"/>
		</g>
	</g>
	<g>
		<g>
			<g>
				
					<linearGradient id="SVGID_15_" gradientUnits="userSpaceOnUse" x1="533.9248" y1="-128.2739" x2="550.8408" y2="-128.2739" gradientTransform="matrix(0.1435 0.9897 -0.9942 0.1122 -4.272163e-004 1.219064e-004)">
					<stop  offset="0" style="stop-color:#716857"/>
					<stop  offset="0.4392" style="stop-color:#F1EEEB"/>
					<stop  offset="1" style="stop-color:#9A9FA2"/>
				</linearGradient>
				<path fill-rule="evenodd" clip-rule="evenodd" fill="url(#SVGID_15_)" d="M211.1,516.8c1.2,3.1,1.6,6.3,1.4,9.7
					c-0.2,0.1-0.4,1.4-0.6,3.7l-12.3,1.3c0.1-0.4,0.2-1.2,0.1-2.3c0-1.3-0.1-2.7-0.3-4.4l-0.5-3.4c-0.3-1.6-0.6-3-0.9-4.3
					c-0.3-1.2-0.6-1.9-0.9-2.3l12.3-1.3C210.1,514.5,210.6,515.6,211.1,516.8z"/>
				
					<linearGradient id="SVGID_16_" gradientUnits="userSpaceOnUse" x1="537.1807" y1="-147.7158" x2="547.059" y2="-147.7158" gradientTransform="matrix(0.1443 0.9895 -0.9945 0.1105 4.414022e-004 2.368093e-004)">
					<stop  offset="0" style="stop-color:#716857"/>
					<stop  offset="0.3137" style="stop-color:#C1B6A4"/>
					<stop  offset="0.5059" style="stop-color:#FFFFFA"/>
					<stop  offset="0.698" style="stop-color:#B3AEA4"/>
					<stop  offset="1" style="stop-color:#9A9FA2"/>
				</linearGradient>
				<path fill-rule="evenodd" clip-rule="evenodd" fill="url(#SVGID_16_)" d="M212.5,526.5c0.3-3.4-0.2-6.6-1.4-9.7l26.6-3v9.9
					L212.5,526.5z"/>
				
					<linearGradient id="SVGID_17_" gradientUnits="userSpaceOnUse" x1="534.2764" y1="-121.1704" x2="551.3283" y2="-121.1704" gradientTransform="matrix(0.1437 0.9896 -0.9938 0.1147 3.789067e-004 -2.503246e-004)">
					<stop  offset="0" style="stop-color:#5C5345"/>
					<stop  offset="1" style="stop-color:#C8C8D9"/>
				</linearGradient>
				<path fill-rule="evenodd" clip-rule="evenodd" fill="url(#SVGID_17_)" d="M199.6,531.5c-0.1,0.2-0.1,0.3-0.2,0.3
					c-1.2-4.2-2.1-9.8-2.6-16.8l0.4-0.1c0.3,0.4,0.6,1.1,0.9,2.3c0.3,1.3,0.6,2.7,0.9,4.3l0.5,3.4c0.2,1.6,0.3,3.1,0.3,4.4
					C199.8,530.3,199.7,531.1,199.6,531.5z"/>
				
					<linearGradient id="SVGID_18_" gradientUnits="userSpaceOnUse" x1="533.9102" y1="-120.7178" x2="550.8101" y2="-120.7178" gradientTransform="matrix(0.1435 0.9897 -0.9942 0.1122 -4.272163e-004 1.219064e-004)">
					<stop  offset="0" style="stop-color:#716857"/>
					<stop  offset="0.4" style="stop-color:#C1B6A4"/>
					<stop  offset="1" style="stop-color:#9A9FA2"/>
				</linearGradient>
				<path fill-rule="evenodd" clip-rule="evenodd" fill="url(#SVGID_18_)" d="M199,531.5C199,531.5,199,531.5,199,531.5
					c0-0.1,0.1,0,0.1,0H199z"/>
			</g>
		</g>
	</g>
	<g>
		<g>
			<g>
				
					<linearGradient id="SVGID_19_" gradientUnits="userSpaceOnUse" x1="-431.6748" y1="-516.207" x2="-175.7248" y2="-516.207" gradientTransform="matrix(-1 0 0 -1 0 0)">
					<stop  offset="0" style="stop-color:#60938A"/>
					<stop  offset="0.1451" style="stop-color:#90D4C9"/>
					<stop  offset="0.5686" style="stop-color:#89C9C1"/>
					<stop  offset="0.6667" style="stop-color:#6EABA4"/>
					<stop  offset="0.6941" style="stop-color:#77B3A9"/>
					<stop  offset="0.7216" style="stop-color:#9FE0D8"/>
					<stop  offset="1" style="stop-color:#528C90"/>
				</linearGradient>
				<path fill-rule="evenodd" clip-rule="evenodd" fill="url(#SVGID_19_)" d="M399.8,469.5c-0.2-0.2-0.3-0.4-0.5-0.5l4.9,1.4
					c0.2-0.1,0.4-0.1,0.6-0.2c0,0.1,0,0.3,0,0.4l29,7.4v0l0-0.4l1.6,36.5c-3.1,19-16.8,32.7-41.1,41c-6.6,2.3-13.9,4.2-22,5.7
					c-2.7,0.5-5.5,0.9-8.6,1.4c-17.8,1.6-33.6,1.5-47.5-0.2c-4.6-0.6-9.1-1.3-13.4-2.2c-2.7-0.6-5.4-1.3-8.1-2.1s-5.2-1.6-7.6-2.5
					c-11.6-4.5-21.1-10.8-28.3-19c-0.2-0.3-0.3-0.5-0.5-0.8c-0.1-0.1-0.1-0.2-0.1-0.3c-1.2-1.9-1.8-3.8-1.8-5.9
					c0-0.7,0.1-1.4,0.3-2.1l0.3,0l0.5-7.5l-10.6-15.7l-50.9,1.5c-0.4,0-0.7,0-1,0c-14.2,0.1-21.9-3.3-23-10.3l0.1-14.2
					c0.1,5,6.8,8,20,9.2l63.3-2.8l0.7-0.7c0.5-0.1,0.9-0.2,1.3-0.3c0.1,0.1,0.1,0.2,0.1,0.3c1.2,1.5,2.4,3,3.5,4.5
					c3.6-1.3,17.1-3.6,40.3-6.8c47.3-6.5,71.3-9.9,71.8-10.2c4.7-0.2,8.9-0.4,12.5-0.6c1.5-0.1,3-0.2,4.3-0.3c1-0.1,1.9-0.2,2.8-0.2
					c4.4-0.4,7.5-0.8,9.2-1.2c-0.2-0.2-0.4-0.4-0.6-0.7C400.9,470.6,400.3,470.1,399.8,469.5z"/>
				
					<linearGradient id="SVGID_20_" gradientUnits="userSpaceOnUse" x1="406.3379" y1="-365.5264" x2="437.2833" y2="-365.5264" gradientTransform="matrix(-0.1742 0.9847 -0.9847 -0.1742 1.260042e-004 8.434057e-005)">
					<stop  offset="0" style="stop-color:#59A68E"/>
					<stop  offset="1" style="stop-color:#84B9AF"/>
				</linearGradient>
				<path fill-rule="evenodd" clip-rule="evenodd" fill="url(#SVGID_20_)" d="M172.1,480.9L172.1,480.9l0.6-3.9
					c1.2-7,9.5-12,24.9-14.8l52.5-2.8c86.3,4.1,136.2,7.5,149.6,10c0.6,0.5,1.1,1,1.5,1.5c0.2,0.2,0.4,0.5,0.6,0.7
					c-1.7,0.4-4.8,0.8-9.2,1.2c-0.9,0-1.8,0.1-2.8,0.2c-1.3,0-2.8,0.1-4.3,0.3c-3.6,0.2-7.8,0.4-12.5,0.6
					c-0.5,0.3-24.5,3.7-71.8,10.2c-23.2,3.2-36.7,5.4-40.3,6.8c-1.1-1.4-2.3-2.9-3.5-4.5c0-0.1,0-0.2-0.1-0.3
					c-0.4,0.1-0.8,0.3-1.3,0.3l-0.7,0.7l-63.3,2.8C178.9,488.9,172.2,485.9,172.1,480.9z"/>
			</g>
		</g>
		<g>
			<g>
				
					<radialGradient id="SVGID_21_" cx="-229.5" cy="-488" r="31.8875" gradientTransform="matrix(-1 0 0 1 0 976)" gradientUnits="userSpaceOnUse">
					<stop  offset="0" style="stop-color:#FFFFFF;stop-opacity:0.902"/>
					<stop  offset="1" style="stop-color:#FAFAFA;stop-opacity:0"/>
				</radialGradient>
				<path fill-rule="evenodd" clip-rule="evenodd" fill="url(#SVGID_21_)" d="M249.9,488.2c-0.2,0.2-0.4,0.3-0.6,0.3l-57.1,2.1
					c-0.3,0-0.5-0.1-0.7-0.3c-0.2-0.2-0.3-0.4-0.3-0.6s0.1-0.5,0.3-0.6c0.1-0.2,0.3-0.3,0.6-0.3l57.2-2.2c0.2,0,0.4,0.1,0.6,0.3
					c0.2,0.1,0.3,0.3,0.3,0.6S250.1,488,249.9,488.2z"/>
				
					<radialGradient id="SVGID_22_" cx="-341.75" cy="-473.75" r="91" gradientTransform="matrix(-1 0 0 0.9946 0 944.962)" gradientUnits="userSpaceOnUse">
					<stop  offset="0" style="stop-color:#FFFFFF;stop-opacity:0.6431"/>
					<stop  offset="1" style="stop-color:#FAFAFA;stop-opacity:0"/>
				</radialGradient>
				<path fill-rule="evenodd" clip-rule="evenodd" fill="url(#SVGID_22_)" d="M259.5,487.6c4.3,5.1,11,9.7,20.1,13.9
					c17.1,7.8,37.9,11.7,62.1,11.7c24.3,0,45-3.9,62.1-11.7c13.6-6.2,21.7-13.4,24.4-21.6c0.1-0.3,0.3-0.5,0.5-0.6
					c0.2-0.1,0.5-0.1,0.8,0c0.2,0.1,0.4,0.3,0.5,0.5c0.1,0.2,0.1,0.5,0,0.7c-2.8,8.7-11.3,16.3-25.4,22.8
					c-17.3,7.9-38.3,11.9-62.9,11.9c-24.6,0-45.5-4-63-11.9c-9.4-4.3-16.3-9.1-20.8-14.4c-0.1-0.2-0.2-0.5-0.1-0.8
					c0-0.2,0.1-0.4,0.4-0.6c0.2-0.2,0.4-0.2,0.6-0.2C259.2,487.3,259.4,487.4,259.5,487.6z"/>
				
					<radialGradient id="SVGID_23_" cx="-180.6001" cy="-486" r="8.725" gradientTransform="matrix(-1 0 0 1 0 972)" gradientUnits="userSpaceOnUse">
					<stop  offset="0" style="stop-color:#FFFFFF;stop-opacity:0.298"/>
					<stop  offset="1" style="stop-color:#FAFAFA;stop-opacity:0"/>
				</radialGradient>
				<path fill-rule="evenodd" clip-rule="evenodd" fill="url(#SVGID_23_)" d="M172.4,481.9c0.2-0.2,0.4-0.3,0.6-0.4
					c0.2,0,0.5,0.1,0.7,0.3c0.2,0.1,0.3,0.3,0.4,0.6c0.4,3.3,5.1,5.3,14,6c0.3,0,0.5,0.1,0.6,0.3c0.2,0.2,0.3,0.4,0.3,0.7
					c0,0.3-0.1,0.5-0.3,0.6c-0.2,0.2-0.4,0.3-0.7,0.2c-10.3-0.8-15.6-3.4-15.8-7.7C172.2,482.4,172.2,482.1,172.4,481.9z"/>
			</g>
		</g>
	</g>
	<g>
		<g>
			<g>
				
					<linearGradient id="SVGID_24_" gradientUnits="userSpaceOnUse" x1="-239.2637" y1="510.2539" x2="-217.1685" y2="510.2539" gradientTransform="matrix(0.6575 -0.7534 0.7534 0.6575 -5.325079e-004 1.653433e-004)">
					<stop  offset="0" style="stop-color:#353535"/>
					<stop  offset="0.4706" style="stop-color:#2B2928"/>
					<stop  offset="1" style="stop-color:#746C6A"/>
				</linearGradient>
				<polygon fill-rule="evenodd" clip-rule="evenodd" fill="url(#SVGID_24_)" points="222.6,504.5 229.9,521.7 229.5,529.4 
					229.5,529.4 222.7,512.4 222.6,511.8 222.6,504.5 				"/>
				
					<linearGradient id="SVGID_25_" gradientUnits="userSpaceOnUse" x1="516.5635" y1="-197.6587" x2="543.1256" y2="-197.6587" gradientTransform="matrix(8.128846e-002 0.9967 -0.9967 8.128844e-002 9.417534e-005 1.711547e-004)">
					<stop  offset="0" style="stop-color:#111111"/>
					<stop  offset="0.4706" style="stop-color:#2B2928"/>
					<stop  offset="1" style="stop-color:#746C6A"/>
				</linearGradient>
				<polygon fill-rule="evenodd" clip-rule="evenodd" fill="url(#SVGID_25_)" points="257.5,519.5 229.9,521.7 222.6,504.5 
					246.9,503.8 				"/>
				<polygon fill-rule="evenodd" clip-rule="evenodd" fill="#292726" points="229.9,521.7 257.5,519.5 257,527 229.5,529.4 				"/>
			</g>
		</g>
	</g>
	<g>
		<g>
			
				<linearGradient id="SVGID_26_" gradientUnits="userSpaceOnUse" x1="-398.1655" y1="-585.2271" x2="-311.2285" y2="-585.2271" gradientTransform="matrix(-1 0 0 -1 0 0)">
				<stop  offset="0" style="stop-color:#404B45"/>
				<stop  offset="0.5647" style="stop-color:#6D817A"/>
				<stop  offset="1" style="stop-color:#404A4C"/>
			</linearGradient>
			<path fill-rule="evenodd" clip-rule="evenodd" fill="url(#SVGID_26_)" d="M311.6,582.2c0.5-3,1.5-6,3-9c7,0.7,13.8,1.2,20.5,1.4
				c0.1,0,0.2,0,0.3,0c2.5,0,4.9,0,7.3,0c11.2-0.1,22-1.1,32.3-3c6.7-1.1,13.1-2.6,19.4-4.5c5.2,7.4,5.1,16.6-0.4,27.5
				c-9.3,3.4-19,5.8-29.1,7.3c-3.4,0.5-6.8,0.9-10.3,1.1c-4.6,0.4-9.3,0.5-14,0.5c-0.2,0-0.4,0-0.5,0c-7.5-0.1-15.2-0.6-23.2-1.5
				l-0.5-0.1l0.1-0.2C312,595.3,310.4,588.8,311.6,582.2z"/>
		</g>
		<g>
			<g>
				<path fill-rule="evenodd" clip-rule="evenodd" fill-opacity="0.2431" d="M389.5,575.8c-0.7-0.6-1-1.3-1-2.3c0-0.9,0.3-1.8,1-2.5
					c0.6-0.7,1.4-1,2.3-1.1c0.9-0.1,1.7,0.1,2.4,0.7c0.7,0.6,1,1.4,1,2.4c0,1-0.3,1.8-1,2.5c-0.7,0.7-1.5,1.1-2.4,1.2
					C390.9,576.7,390.1,576.5,389.5,575.8z"/>
			</g>
			<g>
				
					<radialGradient id="SVGID_27_" cx="-392.374" cy="-602.6528" r="4.9931" gradientTransform="matrix(-0.9964 8.511712e-002 0 1.1941 -1.405478e-004 1324.5011)" gradientUnits="userSpaceOnUse">
					<stop  offset="0" style="stop-color:#FFFFFF"/>
					<stop  offset="0.7608" style="stop-color:#4A4A4A"/>
					<stop  offset="0.8549" style="stop-color:#919191"/>
					<stop  offset="1" style="stop-color:#444444"/>
				</radialGradient>
				<path fill-rule="evenodd" clip-rule="evenodd" fill="url(#SVGID_27_)" d="M388.3,576c-0.7-0.6-1-1.3-1-2.3c0-1,0.3-1.8,1-2.5
					c0.6-0.6,1.4-1,2.4-1.1c0.9-0.1,1.7,0.2,2.3,0.8c0.7,0.6,1,1.4,1,2.4c0,1-0.3,1.8-1,2.4c-0.6,0.7-1.4,1.1-2.3,1.2
					C389.8,576.9,389,576.6,388.3,576z"/>
			</g>
		</g>
		<g>
			<g>
				<path fill-rule="evenodd" clip-rule="evenodd" fill-opacity="0.2431" d="M392.8,587.7c0.6,0.6,1,1.4,1,2.3s-0.3,1.8-1,2.5
					c-0.7,0.7-1.5,1.1-2.4,1.2c-1,0.1-1.8-0.1-2.4-0.8c-0.7-0.6-1-1.3-1-2.3c0-1,0.3-1.9,1-2.6c0.6-0.7,1.4-1.1,2.4-1.2
					C391.3,586.8,392.1,587.1,392.8,587.7z"/>
			</g>
			<g>
				
					<radialGradient id="SVGID_28_" cx="-391.019" cy="-619.5757" r="4.9931" gradientTransform="matrix(-0.9964 8.511712e-002 0 1.1941 -1.405478e-004 1361.694)" gradientUnits="userSpaceOnUse">
					<stop  offset="0" style="stop-color:#FFFFFF"/>
					<stop  offset="0.7608" style="stop-color:#4A4A4A"/>
					<stop  offset="0.8549" style="stop-color:#919191"/>
					<stop  offset="1" style="stop-color:#444444"/>
				</radialGradient>
				<path fill-rule="evenodd" clip-rule="evenodd" fill="url(#SVGID_28_)" d="M386,590.8c0-1,0.3-1.8,1-2.5c0.6-0.7,1.4-1.1,2.3-1.2
					c1-0.1,1.8,0.2,2.4,0.8c0.7,0.6,1,1.4,1,2.3s-0.3,1.8-1,2.5c-0.6,0.7-1.4,1.1-2.4,1.2c-0.9,0.1-1.7-0.2-2.3-0.8
					C386.3,592.5,386,591.7,386,590.8z"/>
			</g>
		</g>
		<g>
			<g>
				<path fill-rule="evenodd" clip-rule="evenodd" fill-opacity="0.2431" d="M317.8,599.8c-0.7-0.6-1-1.3-1-2.3c0-1,0.4-1.8,1-2.5
					c0.6-0.7,1.4-1,2.4-1.2c0.9-0.1,1.7,0.1,2.4,0.8c0.6,0.6,0.9,1.4,0.9,2.4s-0.3,1.8-0.9,2.5c-0.7,0.7-1.5,1-2.4,1.1
					C319.2,600.7,318.4,600.4,317.8,599.8z"/>
			</g>
			<g>
				
					<radialGradient id="SVGID_29_" cx="-320.5132" cy="-620.521" r="4.9931" gradientTransform="matrix(-0.9964 8.511712e-002 0 1.1941 -1.405478e-004 1363.7716)" gradientUnits="userSpaceOnUse">
					<stop  offset="0" style="stop-color:#FFFFFF"/>
					<stop  offset="0.7608" style="stop-color:#4A4A4A"/>
					<stop  offset="0.8549" style="stop-color:#919191"/>
					<stop  offset="1" style="stop-color:#444444"/>
				</radialGradient>
				<path fill-rule="evenodd" clip-rule="evenodd" fill="url(#SVGID_29_)" d="M316.7,595.2c0.6-0.6,1.4-1,2.3-1.1
					c1-0.1,1.8,0.1,2.4,0.8c0.7,0.6,1,1.4,1,2.3c0,1-0.3,1.8-1,2.5c-0.6,0.7-1.4,1.1-2.4,1.2c-0.9,0.1-1.7-0.2-2.3-0.8
					c-0.7-0.6-1-1.4-1-2.3C315.7,596.7,316,595.9,316.7,595.2z"/>
			</g>
		</g>
		<g>
			<g>
				<path fill-rule="evenodd" clip-rule="evenodd" fill-opacity="0.2431" d="M316.2,575.8c0.6-0.6,1.4-1,2.3-1.1
					c1-0.1,1.8,0.2,2.5,0.8c0.6,0.6,0.9,1.4,0.9,2.3c0,1-0.3,1.8-0.9,2.5c-0.7,0.7-1.5,1.1-2.5,1.2c-1,0.1-1.8-0.2-2.3-0.8
					c-0.7-0.6-1.1-1.4-1.1-2.3C315.1,577.5,315.5,576.7,316.2,575.8z"/>
			</g>
			<g>
				
					<radialGradient id="SVGID_30_" cx="-318.9072" cy="-601.3042" r="4.9931" gradientTransform="matrix(-0.9964 8.511712e-002 0 1.1941 -1.405478e-004 1321.5372)" gradientUnits="userSpaceOnUse">
					<stop  offset="0" style="stop-color:#FFFFFF"/>
					<stop  offset="0.7608" style="stop-color:#4A4A4A"/>
					<stop  offset="0.8549" style="stop-color:#919191"/>
					<stop  offset="1" style="stop-color:#444444"/>
				</radialGradient>
				<path fill-rule="evenodd" clip-rule="evenodd" fill="url(#SVGID_30_)" d="M314.1,578.5c0-0.9,0.3-1.8,1-2.5
					c0.6-0.7,1.4-1,2.4-1.1c1-0.1,1.8,0.1,2.4,0.7c0.7,0.6,1,1.4,1,2.3c0,1-0.3,1.8-1,2.5c-0.6,0.7-1.4,1.1-2.4,1.2
					c-0.9,0.1-1.7-0.2-2.4-0.8C314.4,580.3,314.1,579.5,314.1,578.5z"/>
			</g>
		</g>
	</g>
	<g>
		<g>
			<g>
				
					<linearGradient id="SVGID_31_" gradientUnits="userSpaceOnUse" x1="225.7373" y1="-472.3623" x2="410.9856" y2="-472.3623" gradientTransform="matrix(-0.3261 0.9453 -0.9453 -0.3261 4.389286e-004 -2.241731e-004)">
					<stop  offset="0" style="stop-color:#111111"/>
					<stop  offset="0.4706" style="stop-color:#2B2928"/>
					<stop  offset="1" style="stop-color:#746C6A"/>
				</linearGradient>
				<path fill-rule="evenodd" clip-rule="evenodd" fill="url(#SVGID_31_)" d="M435,460c-0.3,1.2-0.7,2.3-1.2,3.5
					c-1.7,4-4.6,7.8-8.7,11.4c-4.3,3.7-9.8,7.1-16.6,10.3c-18.1,8.5-39.9,12.8-65.6,12.8c-0.7,0-1.4,0-2.1,0
					c-24.7-0.2-45.9-4.5-63.5-12.8c-5.9-2.7-10.8-5.7-14.8-8.8c-6-4.8-9.8-9.9-11.4-15.5c-0.2-0.6-0.3-1.2-0.4-1.8
					c-0.2-1.3-0.4-2.6-0.5-4v-0.5c0-0.7,0.1-1.4,0.1-2.1c0.3-3.2,1.2-6.3,2.8-9.2c0.1-0.1,0.2-0.1,0.2-0.2
					c4.1-7.2,12.1-13.6,24.1-19.2c8.6-4,18-7.1,28.3-9.2c1.1-0.2,2.3-0.5,3.4-0.7c0.5,0,1-0.1,1.5-0.2c21.6-2.6,43.2-2.6,64.7,0
					c0.6,0.1,1.1,0.2,1.6,0.2c11.6,2.1,22.2,5.4,31.7,9.9c0.2,0.1,0.5,0.3,0.7,0.3c16.3,7.8,25.1,17,26.3,27.8h0l0.2,2.5
					C435.6,456.4,435.4,458.2,435,460z M346,415.2L346,415.2c-0.2,0-0.4-0.1-0.6-0.1C345.6,415.2,345.8,415.2,346,415.2z"/>
				
					<linearGradient id="SVGID_32_" gradientUnits="userSpaceOnUse" x1="228.2441" y1="496.8574" x2="413.0761" y2="496.8574" gradientTransform="matrix(0.999 -4.441606e-002 4.441605e-002 0.999 -1.901761e-004 4.651397e-005)">
					<stop  offset="0" style="stop-color:#111111"/>
					<stop  offset="0.4706" style="stop-color:#2B2928"/>
					<stop  offset="1" style="stop-color:#746C6A"/>
				</linearGradient>
				<path fill-rule="evenodd" clip-rule="evenodd" fill="url(#SVGID_32_)" d="M250.1,455.1c0.1,1.3,0.2,2.7,0.5,4
					c0.1,0.6,0.3,1.2,0.4,1.8c1.6,5.6,5.4,10.8,11.4,15.5c4,3.1,8.9,6.1,14.8,8.8c17.6,8.3,38.8,12.5,63.5,12.8c0.7,0,1.4,0,2.1,0
					c25.7,0,47.5-4.3,65.6-12.8c6.8-3.2,12.3-6.6,16.6-10.3c4.1-3.6,7-7.4,8.7-11.4c0.5-1.2,0.9-2.4,1.2-3.5l-1.2,18v0h0l-2,3
					c-7.9,9.2-16.8,16-26.6,20.5c-17.6,7.7-38.6,11.6-63.2,11.6c-0.7,0-1.4,0-2.2,0c-24.7-0.2-45.8-4.5-63.4-12.7
					c-8.9-4.2-15.7-8.8-20.3-13.8c-2.9-3.3-4.9-6.8-6-10.5L250.1,455.1z"/>
			</g>
		</g>
		<g>
			
				<radialGradient id="SVGID_33_" cx="-343.3501" cy="-475.0498" r="88.3625" gradientTransform="matrix(-1 0 0 1.2078 0 1048.8191)" gradientUnits="userSpaceOnUse">
				<stop  offset="0" style="stop-color:#FFFFFF;stop-opacity:0.6431"/>
				<stop  offset="1" style="stop-color:#FAFAFA;stop-opacity:0"/>
			</radialGradient>
			<path fill-rule="evenodd" clip-rule="evenodd" fill="url(#SVGID_33_)" d="M260.7,476.4c-0.2-0.2-0.4-0.4-0.4-0.7
				c0-0.2,0-0.5,0.2-0.7c0.2-0.2,0.4-0.4,0.6-0.4s0.5,0,0.7,0.2c6.5,4.8,12.9,8.5,19.3,11.1c17,7,37.5,10.5,61.5,10.5
				c24,0,44.5-3.5,61.4-10.5c10.8-4.4,18.7-9.5,23.7-15.1c0.1-0.1,0.3-0.2,0.5-0.3c0.3,0,0.5,0,0.7,0.2c0.2,0.1,0.3,0.4,0.3,0.7
				c0,0.3-0.1,0.5-0.2,0.7c-5.1,5.8-13.3,11-24.3,15.5c-17.1,7.1-37.8,10.7-62.1,10.7c-24.2,0-45-3.6-62.3-10.7
				C273.8,485,267.3,481.3,260.7,476.4z"/>
		</g>
		<g>
			<path fill-rule="evenodd" clip-rule="evenodd" fill="#6A6564" d="M323,484.9c0.1,0.1,0.2,0.3,0.2,0.4c0,0.3-0.1,0.6-0.5,0.8
				c-0.3,0.2-0.8,0.3-1.5,0.3h-1.5v1.3H319v-3.1h2.2c0.3,0,0.5,0,0.8,0c0.3,0,0.5,0.1,0.7,0.1C322.8,484.7,323,484.8,323,484.9z
				 M322.4,485.1c-0.1-0.1-0.3-0.2-0.5-0.2c-0.1-0.1-0.3-0.1-0.6-0.1h-1.5v1.2h1.5c0.4,0,0.8-0.1,1-0.2c0.2-0.1,0.3-0.2,0.3-0.4
				C322.5,485.2,322.5,485.1,322.4,485.1z M316.9,484.9c-0.2-0.1-0.5-0.2-1-0.2c-0.4,0-0.7,0-0.9,0.2c-0.2,0.1-0.3,0.3-0.3,0.3
				s0.1,0.2,0.3,0.3c0.1,0.1,0.5,0.1,1.1,0.2c0.6,0.1,1,0.2,1.1,0.2c0.3,0.1,0.6,0.2,0.8,0.3c0.1,0.1,0.2,0.3,0.2,0.5
				c0,0.1-0.1,0.3-0.3,0.4c-0.2,0.2-0.4,0.3-0.8,0.4c-0.3,0-0.6,0-1,0c-0.5,0-1,0-1.3,0c-0.4-0.1-0.6-0.2-0.8-0.4
				c-0.2-0.2-0.4-0.4-0.4-0.6l0.6,0c0,0.2,0.1,0.3,0.3,0.4c0.1,0.1,0.3,0.1,0.6,0.2c0.3,0.1,0.5,0.1,0.8,0.1c0.3,0,0.5,0,0.7,0
				c0.2-0.1,0.4-0.1,0.5-0.2c0.1-0.1,0.1-0.2,0.1-0.3s0-0.2-0.1-0.2c-0.1-0.1-0.3-0.2-0.5-0.2c-0.1-0.1-0.4-0.1-1-0.1
				c-0.5-0.1-0.8-0.1-1-0.2c-0.2-0.1-0.4-0.2-0.5-0.3c-0.1-0.1-0.2-0.2-0.2-0.4s0.1-0.3,0.2-0.5c0.1-0.1,0.3-0.2,0.6-0.3
				c0.3-0.1,0.6-0.1,1-0.1c0.4,0,0.8,0.1,1,0.2c0.3,0,0.6,0.1,0.8,0.2c0.2,0.2,0.3,0.4,0.3,0.5h-0.8
				C317.2,485.2,317,485,316.9,484.9z M333.7,485.3l-0.7,0.1c-0.1-0.2-0.3-0.4-0.5-0.5c-0.3-0.1-0.6-0.2-0.9-0.2
				c-0.4,0-0.8,0-1.1,0.2c-0.3,0.1-0.5,0.3-0.6,0.5c-0.1,0.2-0.2,0.4-0.2,0.6c0,0.3,0.1,0.5,0.2,0.8c0.1,0.1,0.3,0.3,0.6,0.4
				c0.3,0.1,0.6,0.1,0.9,0.1s0.7-0.1,1-0.3c0.3-0.1,0.5-0.3,0.6-0.5l0.8,0c-0.2,0.3-0.5,0.6-0.9,0.8c-0.4,0.1-0.8,0.2-1.4,0.2
				c-0.6,0-1.1,0-1.4-0.1c-0.4-0.2-0.7-0.4-0.9-0.6c-0.2-0.3-0.4-0.5-0.4-0.8c0-0.3,0.1-0.6,0.4-0.8c0.2-0.3,0.5-0.5,0.9-0.6
				c0.4-0.1,0.8-0.2,1.3-0.2c0.6,0,1,0.1,1.4,0.3C333.3,484.8,333.6,485,333.7,485.3z M328.1,484.8h-3.2v1h3.1v0.4h-3.1v1h3.3v0.4
				h-4v-3.1h3.9V484.8z M343.5,484.8c0.2,0.2,0.3,0.4,0.3,0.5c0,0.2-0.1,0.4-0.4,0.6c-0.3,0.2-0.6,0.3-1.1,0.3
				c0.2,0,0.3,0.1,0.4,0.1c0.2,0.1,0.4,0.3,0.6,0.4l1,0.8h-1l-0.8-0.6c-0.2-0.2-0.3-0.3-0.5-0.4c-0.1-0.1-0.3-0.2-0.3-0.2
				c-0.1-0.1-0.2-0.1-0.3-0.1c-0.1,0-0.3,0-0.5,0h-0.8v1.4h-0.6v-3.1h2.3c0.5,0,0.8,0,1.1,0.1C343.2,484.6,343.4,484.7,343.5,484.8z
				 M343,485.3c0-0.1-0.1-0.3-0.3-0.3c-0.2-0.1-0.5-0.2-0.9-0.2h-1.8v1h1.5c0.3,0,0.6,0,0.8,0c0.1,0,0.3-0.1,0.4-0.2
				C343,485.5,343,485.4,343,485.3z M334.4,484.5h4.3v0.3h-1.8v2.8h-0.8v-2.8h-1.8V484.5z M349.5,486.9c-0.2,0.2-0.5,0.4-0.9,0.5
				c-0.4,0.1-0.9,0.1-1.4,0.1c-0.5,0-0.9,0-1.3-0.1c-0.4-0.2-0.8-0.4-1-0.6c-0.2-0.2-0.3-0.4-0.3-0.8c0-0.5,0.3-1,0.8-1.3
				c0.5-0.3,1.1-0.4,1.9-0.4c0.5,0,0.9,0.1,1.4,0.2c0.4,0.1,0.7,0.3,0.9,0.6c0.2,0.2,0.3,0.5,0.3,0.8
				C349.9,486.4,349.7,486.7,349.5,486.9z M350.8,487.6v-3.1h1.1l1.3,2.3c0.1,0.1,0.2,0.3,0.2,0.4c0.1-0.1,0.2-0.3,0.4-0.5l1.3-2.2
				h1v3.1h-0.7V485l-1.6,2.6H353l-1.6-2.7v2.7H350.8z M348.3,484.9c-0.3-0.1-0.6-0.2-1-0.2c-0.5,0-0.9,0.1-1.3,0.3
				c-0.4,0.2-0.6,0.5-0.6,1c0,0.4,0.2,0.7,0.6,0.9c0.4,0.2,0.8,0.3,1.3,0.3c0.6,0,1.1-0.1,1.4-0.3c0.3-0.2,0.5-0.5,0.5-1
				c0-0.2-0.1-0.5-0.3-0.7C348.7,485.2,348.5,485,348.3,484.9z M364.3,487.6h-0.8v-2.8h-1.8v-0.3h4.3v0.3h-1.8V487.6z M361,484.8
				h-3.2v1h3v0.4h-3v1h3.3v0.4h-4v-3.1h3.9V484.8z M372.5,484.8v1h1.6c0.3,0,0.5,0,0.8,0c0.2,0,0.3-0.1,0.4-0.2
				c0.1-0.1,0.2-0.2,0.2-0.3c0-0.1-0.1-0.3-0.3-0.3c-0.2-0.1-0.5-0.2-0.9-0.2H372.5z M370.7,484.8h-3.2v1h3v0.4h-3v1h3.3v0.4h-4
				v-3.1h3.9V484.8z M374.2,486.3c-0.1-0.1-0.3-0.1-0.4-0.1c-0.1,0-0.3,0-0.4,0h-0.9v1.4h-0.6v-3.1h2.4c0.5,0,0.8,0,1.1,0.1
				c0.3,0,0.5,0.1,0.6,0.2c0.1,0.2,0.2,0.4,0.2,0.5c0,0.2-0.1,0.4-0.4,0.6c-0.2,0.2-0.6,0.3-1.1,0.3c0.2,0,0.3,0.1,0.4,0.1
				c0.2,0.1,0.5,0.3,0.7,0.4l1,0.8h-1L375,487c-0.2-0.2-0.4-0.3-0.5-0.4C374.4,486.5,374.3,486.4,374.2,486.3z"/>
		</g>
		<g>
			<path fill-rule="evenodd" clip-rule="evenodd" fill-opacity="0.7922" d="M323.3,485.3c0.1,0.1,0.2,0.3,0.2,0.5
				c0,0.3-0.2,0.5-0.6,0.8c-0.3,0.1-0.8,0.2-1.5,0.2H320v1.3h-0.8v-3.1h2c0.4,0,0.6,0,0.9,0c0.3,0,0.5,0.1,0.7,0.2
				C323,485.1,323.1,485.2,323.3,485.3z M322,485.3c-0.1,0-0.4,0-0.6,0H320v1.2h1.4c0.5,0,0.8-0.1,1-0.2c0.2-0.1,0.3-0.2,0.3-0.4
				c0-0.2,0-0.3-0.1-0.3C322.4,485.4,322.2,485.3,322,485.3z M317.8,485.3c0.2,0.2,0.3,0.3,0.3,0.5h-0.8c0-0.2-0.2-0.3-0.4-0.5
				c-0.2-0.1-0.5-0.1-0.9-0.1c-0.4,0-0.7,0-0.9,0.1c-0.2,0.1-0.3,0.2-0.3,0.4c0,0.1,0.1,0.2,0.3,0.3c0.1,0.1,0.5,0.1,1.1,0.2
				c0.5,0.1,0.9,0.2,1.1,0.2c0.3,0.1,0.6,0.2,0.7,0.3c0.1,0.1,0.2,0.2,0.2,0.3c0,0.2-0.1,0.4-0.2,0.5c-0.2,0.1-0.4,0.3-0.7,0.4
				c-0.4,0-0.7,0-1,0c-0.5,0-0.9,0-1.3,0c-0.4-0.1-0.6-0.3-0.8-0.4c-0.2-0.2-0.4-0.4-0.4-0.6l0.6,0c0,0.2,0.1,0.3,0.3,0.4
				c0.1,0.1,0.3,0.2,0.6,0.3c0.3,0,0.5,0.1,0.9,0.1c0.3,0,0.5,0,0.7-0.1c0.2,0,0.4-0.1,0.5-0.1c0.1-0.1,0.1-0.2,0.1-0.3
				c0-0.1,0-0.2-0.1-0.2c-0.1-0.1-0.3-0.2-0.5-0.2c-0.1,0-0.4,0-0.9-0.2c-0.5,0-0.9-0.1-1.1-0.2c-0.3-0.1-0.5-0.2-0.6-0.3
				c-0.1-0.1-0.1-0.2-0.1-0.4c0-0.2,0.1-0.3,0.1-0.5c0.2-0.1,0.4-0.2,0.8-0.3c0.3-0.1,0.6-0.1,1-0.1c0.4,0,0.8,0,1.1,0.2
				C317.4,485,317.6,485.2,317.8,485.3z M333.1,485.1c0.4,0.1,0.6,0.4,0.8,0.7l-0.8,0.1c-0.1-0.2-0.3-0.4-0.5-0.5
				c-0.3-0.1-0.6-0.1-0.9-0.1c-0.4,0-0.8,0-1.1,0.1c-0.2,0.1-0.4,0.3-0.5,0.5c-0.1,0.2-0.1,0.4-0.1,0.6c0,0.3,0.1,0.5,0.2,0.6
				c0.1,0.2,0.3,0.4,0.6,0.5c0.3,0.1,0.6,0.2,1,0.2s0.7-0.1,1-0.3c0.3-0.1,0.4-0.3,0.5-0.5l0.7,0c-0.2,0.4-0.5,0.6-0.9,0.8
				c-0.3,0.2-0.8,0.3-1.4,0.3c-0.6,0-1.1-0.1-1.4-0.2c-0.4-0.2-0.6-0.4-0.8-0.6c-0.2-0.2-0.3-0.5-0.3-0.8c0-0.3,0.1-0.6,0.3-0.9
				c0.2-0.3,0.5-0.5,0.9-0.6c0.4-0.1,0.8-0.2,1.3-0.2C332.3,484.8,332.7,484.9,333.1,485.1z M328.2,485.3H325v1h3v0.4h-3v1h3.3v0.4
				h-4.1v-3.1h3.9V485.3z M343,485c0.3,0.1,0.5,0.2,0.6,0.3c0.2,0.2,0.3,0.3,0.3,0.5c0,0.2-0.1,0.4-0.4,0.6
				c-0.3,0.1-0.7,0.2-1.2,0.3c0.2,0.1,0.4,0.2,0.5,0.2c0.2,0.1,0.5,0.3,0.6,0.4l1,0.8h-1l-0.8-0.7c-0.2-0.2-0.4-0.3-0.5-0.4
				c-0.1-0.1-0.1-0.2-0.3-0.2c-0.1,0-0.3,0-0.4-0.1c-0.1,0-0.2,0-0.5,0h-0.8v1.3h-0.6v-3.1h2.4C342.4,484.9,342.8,484.9,343,485z
				 M342,485.3h-1.8v1h1.5c0.3,0,0.6,0,0.8,0c0.2,0,0.3-0.1,0.4-0.2c0.1-0.1,0.2-0.2,0.2-0.3c0-0.1-0.1-0.3-0.3-0.3
				C342.7,485.3,342.4,485.3,342,485.3z M334.5,484.9h4.3v0.3H337v2.8h-0.8v-2.8h-1.7V484.9z M349.6,487.3c-0.2,0.2-0.5,0.4-0.9,0.5
				c-0.4,0.1-0.9,0.2-1.4,0.2c-0.5,0-0.9-0.1-1.3-0.2c-0.5-0.2-0.8-0.4-1-0.6c-0.2-0.2-0.3-0.4-0.3-0.7c0-0.5,0.3-1,0.8-1.3
				c0.5-0.3,1.1-0.5,1.9-0.5c0.5,0,1,0.1,1.4,0.2c0.4,0.2,0.7,0.4,0.9,0.7c0.2,0.2,0.3,0.5,0.3,0.8
				C350,486.8,349.9,487.1,349.6,487.3z M350.9,488v-3.1h1.1l1.3,2.2c0.1,0.2,0.2,0.4,0.2,0.5c0.1-0.1,0.2-0.3,0.3-0.5l1.3-2.1h0.9
				v3.1h-0.6v-2.6l-1.7,2.6h-0.6l-1.7-2.7v2.7H350.9z M347.4,485.2c-0.5,0-0.9,0.1-1.3,0.3c-0.4,0.2-0.6,0.5-0.6,1
				c0,0.3,0.2,0.6,0.6,0.9s0.8,0.3,1.3,0.3c0.6,0,1.1-0.1,1.4-0.3c0.3-0.2,0.5-0.6,0.5-1c0-0.2-0.1-0.5-0.2-0.7s-0.3-0.3-0.6-0.5
				C348.1,485.3,347.8,485.2,347.4,485.2z M361.9,484.9h4.3v0.3h-1.8v2.8h-0.8v-2.8h-1.8V484.9z M361.1,485.3H358v1h2.9v0.4H358v1
				h3.3v0.4h-4v-3.1h3.8V485.3z M372.8,485.3v1h1.5c0.3,0,0.6,0,0.8,0c0.1,0,0.3-0.1,0.4-0.2c0.1-0.1,0.2-0.2,0.2-0.3
				c0-0.1-0.1-0.3-0.3-0.3c-0.2-0.1-0.5-0.2-0.9-0.2H372.8z M370.8,485.3h-3.2v1h3v0.4h-3v1h3.3v0.4h-4v-3.1h3.8V485.3z M372.8,488
				H372v-3.1h2.4c0.5,0,0.9,0,1.1,0c0.3,0.1,0.5,0.2,0.6,0.3c0.1,0.2,0.2,0.3,0.2,0.5c0,0.2-0.1,0.4-0.3,0.6
				c-0.3,0.1-0.7,0.2-1.2,0.3c0.2,0.1,0.4,0.2,0.5,0.2c0.2,0.1,0.4,0.3,0.6,0.4l1,0.8h-1l-0.7-0.7c-0.2-0.2-0.4-0.3-0.6-0.4
				c-0.1-0.1-0.2-0.2-0.3-0.2c-0.1,0-0.3,0-0.3-0.1c-0.1,0-0.3,0-0.5,0h-0.8V488z"/>
		</g>
	</g>
	<g>
		<g>
			
				<linearGradient id="SVGID_34_" gradientUnits="userSpaceOnUse" x1="-953.3213" y1="-351.9512" x2="-604.5532" y2="-351.9512" gradientTransform="matrix(-0.9709 -0.2394 1.151 -0.7461 -1.313686e-004 2.747774e-004)">
				<stop  offset="0" style="stop-color:#D5EBF8"/>
				<stop  offset="0.1176" style="stop-color:#B0BDCC"/>
				<stop  offset="0.2902" style="stop-color:#B2C2D2"/>
				<stop  offset="0.4392" style="stop-color:#B3B1B6"/>
				<stop  offset="0.5804" style="stop-color:#DDCCBB"/>
				<stop  offset="0.7255" style="stop-color:#BCB2B1"/>
				<stop  offset="1" style="stop-color:#B2A8A9"/>
			</linearGradient>
			<path fill-rule="evenodd" clip-rule="evenodd" fill="url(#SVGID_34_)" d="M426.5,448.2c0.3,2.4,0,4.6-0.9,6.8l-34.3-0.5
				l-1.3-13.3l32.6-1.6C424.8,442.3,426,445.1,426.5,448.2z M262.3,454.3c-1.1-2-1.8-4-2.1-6.1c-0.4-2.7,0-5.3,1.2-7.8l33.9,1.8
				l-0.2,13.3L262.3,454.3z"/>
		</g>
		<g>
			<path fill-rule="evenodd" clip-rule="evenodd" fill="#666666" fill-opacity="0.6824" d="M266.5,443c0,0,0,0,0.1,0
				c0,0,0.1,0,0.1,0l5.8,0.3c0.1,0,0.1,0,0.1,0.1c0,0,0,0,0,0c0,0-0.1,0-0.1,0l-0.1,0l-5.9-0.4c0,0-0.1,0-0.1,0L266.5,443z M273,442
				l-2.9-0.3c0,0-0.1,0-0.1,0l0,0c0,0,0,0,0,0c0.1,0,0.2,0,0.3,0l2.9,0.2c0.1,0,0.1,0,0.2,0.1v0h-0.1C273.2,442,273.1,442,273,442z
				 M270.4,441.2l3,0.3h0.1c0.1,0,0.1,0.1,0,0.1l-0.1,0.1h-0.1l-3.1-0.3c0,0,0,0,0,0l0-0.1c0,0,0.1,0,0.1,0
				C270.3,441.2,270.4,441.2,270.4,441.2z M269.8,442.3C269.8,442.2,269.8,442.2,269.8,442.3c0.1-0.1,0.2-0.2,0.3-0.2l3,0.4h0
				c0.1,0,0.1,0,0.1,0l-0.1,0.2c0,0-0.1,0-0.1,0l-3-0.4C269.9,442.3,269.8,442.3,269.8,442.3L269.8,442.3z M269.6,442.7
				c0.1,0,0.2,0,0.2,0l3,0.2c0.1,0,0.1,0,0.1,0.1h0.1l-0.1,0c0,0-0.1,0-0.1,0l-3.1-0.2C269.6,442.8,269.6,442.7,269.6,442.7
				L269.6,442.7z M269.3,443.7C269.3,443.7,269.4,443.7,269.3,443.7c0.1,0,0.1,0,0.2,0l3,0.1c0.1,0,0.1,0,0.1,0v0.1c0,0-0.1,0-0.1,0
				l-3-0.2C269.4,443.8,269.4,443.8,269.3,443.7L269.3,443.7z M269.3,444.1c0,0,0.1,0,0.2,0l3,0.2c0.1,0,0.1,0.1,0,0.1c0,0,0,0,0,0
				c-0.1,0-0.1,0-0.2,0l-3-0.2c0,0-0.1,0-0.1,0h0C269.2,444.2,269.2,444.1,269.3,444.1z M269.1,444.7c0.1,0,0.1,0,0.2,0l2.9,0.2
				c0.1,0,0.1,0,0.2,0l0,0.1c0,0,0,0-0.1,0c0,0-0.1,0-0.1,0l-3-0.1C269.2,444.8,269.1,444.8,269.1,444.7
				C269.1,444.8,269.1,444.7,269.1,444.7L269.1,444.7z M269.1,445.3C269.1,445.3,269,445.3,269.1,445.3l-0.1-0.1c0.1,0,0.1,0,0.2,0
				l3,0.1c0,0,0.1,0,0.1,0h0.1l-0.1,0c-0.1,0-0.1,0-0.1,0l-3,0C269.2,445.3,269.1,445.3,269.1,445.3z M273.9,441
				c0,0.1,0,0.1-0.1,0.1s-0.1,0-0.2,0l-2.8-0.4l3,0.2L273.9,441z M273.5,452.2c0,0-0.1,0-0.1,0l-2.9,0.1c-0.1,0-0.1,0-0.2,0v0
				c0,0,0,0,0.1,0l2.9-0.2c0.1,0,0.1,0,0.2,0c0,0,0,0,0,0C273.5,452.1,273.5,452.1,273.5,452.2z M273.5,452.7l-2.8,0.2
				c-0.1,0-0.1,0-0.1,0s-0.1,0-0.1,0c0-0.1,0-0.1,0-0.1c0,0,0.1,0,0.1,0l2.8-0.2c0.1,0,0.1,0,0.2,0c0,0,0.1,0,0.1,0
				c0,0.1,0,0.1,0,0.1C273.7,452.6,273.6,452.7,273.5,452.7z M273.9,453c0,0,0.1,0,0.1,0C274,453.1,274,453.1,273.9,453
				c0.1,0.1,0,0.2,0,0.2l-5.8,0.4c0,0-0.1,0-0.1,0c-0.1,0-0.1,0-0.1,0l0.1-0.1h0l5.7-0.3C273.8,453,273.8,453,273.9,453z
				 M274.3,453.5L274.3,453.5c0,0.1-0.1,0.1-0.1,0.1l-2.8,0.3c-0.1,0-0.1,0-0.1,0l-0.1,0v0c0.1-0.1,0.2-0.1,0.2-0.1l2.8-0.2
				c0,0,0.1,0,0.1,0L274.3,453.5z M274.6,454c0,0.1,0,0.1-0.1,0.1c0,0-0.1,0.1-0.1,0.1l-2.8,0.2c0,0-0.1,0-0.1,0c-0.1,0-0.1,0-0.1,0
				c0,0,0,0,0,0c0-0.1,0.1-0.1,0.1-0.1l2.8-0.2c0.1,0,0.1,0,0.2,0C274.5,454,274.5,454,274.6,454z M274.9,454.5L274.9,454.5
				c-0.1,0-0.1,0-0.1,0l-1.3,0.2l-1.3,0l2.5-0.2C274.7,454.5,274.7,454.5,274.9,454.5L274.9,454.5z M272.3,446.9c0,0-0.1,0-0.1,0
				l-2.9-0.1c-0.1,0-0.1,0-0.2,0c0,0,0,0,0,0c0,0,0,0,0-0.1c0,0,0.1,0,0.1,0l3,0.1c0.1,0,0.2,0,0.2,0c0,0,0.1,0,0.1,0L272.3,446.9z
				 M272.3,445.8L272.3,445.8L272.3,445.8c-0.1,0.1-0.1,0.2-0.1,0.2l-5.9-0.3c-0.1,0-0.1,0-0.2,0c0,0,0,0,0-0.1h0c0,0,0.1,0,0.2,0
				l5.9,0.3C272.2,445.8,272.3,445.8,272.3,445.8z M272.4,446.3c0,0,0,0-0.1,0c0,0.1-0.1,0.1-0.1,0.1l-2.9-0.2c-0.1,0-0.1,0-0.2,0
				l0,0c0,0,0,0,0,0c0.1,0,0.1,0,0.1,0l3,0.1c0.1,0,0.1,0,0.1,0C272.3,446.3,272.3,446.3,272.4,446.3z M272.4,447.3c0,0,0,0-0.1,0
				c0,0.1-0.1,0.1-0.1,0.1l-2.9-0.1c-0.1,0-0.1,0-0.2,0l0,0c0,0,0-0.1,0-0.1c0,0,0.1,0,0.2,0l2.9,0
				C272.2,447.2,272.3,447.2,272.4,447.3L272.4,447.3z M272.3,447.7L272.3,447.7C272.4,447.8,272.3,447.8,272.3,447.7
				C272.3,447.8,272.2,447.8,272.3,447.7l-3.1,0.1c0,0-0.1,0-0.2,0l0,0c0,0,0,0,0,0c0.1-0.1,0.1-0.1,0.2-0.1l2.9,0.1
				C272.2,447.7,272.2,447.7,272.3,447.7z M272.5,448.2L272.5,448.2c-0.1,0.1-0.2,0.1-0.2,0.1h-6c0,0-0.1,0-0.1,0l-0.1-0.1
				c0,0,0,0,0,0c0.1,0,0.1,0,0.2,0h6c0,0,0.1,0,0.1,0C272.4,448.2,272.4,448.2,272.5,448.2z M269.2,448.8c0.1-0.1,0.1-0.1,0.1-0.1
				h2.9c0,0,0.1,0,0.2,0l0,0.1h0c-0.1,0-0.1,0-0.2,0h-2.9C269.3,448.8,269.3,448.8,269.2,448.8L269.2,448.8L269.2,448.8z
				 M269.3,449.3C269.3,449.2,269.3,449.2,269.3,449.3c0.1-0.1,0.1-0.1,0.2-0.1h2.9c0.1,0,0.1,0,0.1,0c0.1,0,0.1,0,0.1,0
				c0,0.1,0,0.1-0.1,0.1c0,0-0.1,0-0.1,0h-2.9C269.4,449.3,269.3,449.3,269.3,449.3L269.3,449.3z M269.4,449.8
				c0-0.1,0.1-0.1,0.1-0.1h2.9c0.1,0,0.1,0,0.1,0v0.1l-3,0C269.5,449.8,269.5,449.8,269.4,449.8L269.4,449.8
				C269.4,449.8,269.4,449.8,269.4,449.8z M269.5,450.2c0,0,0.1,0,0.2,0l2.8-0.1c0,0,0.1,0,0.2,0l0.1,0.1h-0.1c0,0.1,0,0.1-0.1,0.1
				l-2.9,0.1c0,0-0.1,0-0.1,0C269.5,450.3,269.5,450.3,269.5,450.2C269.5,450.2,269.5,450.2,269.5,450.2z M270,451.3
				c-0.1,0-0.2,0-0.2,0l0.2-0.1l3-0.1c0.1,0,0.1,0,0.1,0.1l-0.1,0.1l-2.9,0C270,451.3,270,451.3,270,451.3z M272.9,450.7
				c0,0-0.1,0-0.1,0l-5.9,0.3c0,0-0.1,0-0.2,0v0c0-0.1,0-0.1,0-0.1c0,0,0,0,0.1,0l5.9-0.2c0,0,0.1,0,0.1,0c0.1,0,0.1,0,0.1,0.1
				L272.9,450.7z M273.3,451.7c0,0-0.1,0-0.1,0l-2.9,0.1c-0.1,0-0.1,0-0.1,0c0,0-0.1,0-0.1,0c0-0.1,0-0.1,0.1-0.1c0,0,0.1,0,0.1,0
				l2.8-0.1C273.1,451.5,273.2,451.5,273.3,451.7L273.3,451.7C273.3,451.6,273.3,451.7,273.3,451.7z M409.5,440.8
				C409.5,440.8,409.5,440.7,409.5,440.8c-0.1-0.1,0-0.1,0-0.2l3.8-0.4c0.1,0,0.1,0,0.2,0l0.1,0l0,0c0,0.1-0.1,0.1-0.1,0.1l-3.8,0.3
				C409.7,440.8,409.6,440.8,409.5,440.8z M410,441l6.2-0.6c0.1,0,0.1,0,0.2,0h0c0,0,0,0,0,0.1c0,0-0.1,0-0.2,0l-6.2,0.6
				c0,0-0.1,0-0.2,0h-0.1V441C409.9,441,409.9,441,410,441z M414.2,441.3l-3.7,0.4c-0.1,0-0.1,0-0.2,0c-0.1,0-0.1,0-0.1,0
				c0-0.1,0-0.1,0-0.1c0,0,0.1,0,0.1,0l3.7-0.3c0,0,0.1,0,0.2,0C414.2,441.2,414.3,441.2,414.2,441.3L414.2,441.3L414.2,441.3z
				 M414.9,442.1c0,0.1,0.1,0.1,0.1,0.1c0,0,0,0.1,0,0.1c0,0-0.1,0-0.2,0l-3.6,0.4c0,0-0.1,0-0.2,0h0c-0.1-0.1-0.1-0.2,0-0.2
				c0,0,0.1,0,0.1,0l3.7-0.4C414.7,442.1,414.8,442.1,414.9,442.1z M414.5,441.8l-3.8,0.3h-0.1c-0.1,0-0.1,0-0.1,0
				c0.1,0,0.1,0,0.2,0l3.6-0.3C414.4,441.7,414.5,441.7,414.5,441.8C414.6,441.7,414.6,441.7,414.5,441.8c0.1,0,0.2,0,0.2,0
				C414.6,441.8,414.6,441.8,414.5,441.8z M411.7,443.9C411.7,443.9,411.8,443.8,411.7,443.9l3.9-0.3c0,0,0.1,0,0.1,0l0.1,0h0
				c0,0.1,0,0.1-0.1,0.1l-3.8,0.3c0,0-0.1,0-0.2,0S411.7,444,411.7,443.9C411.6,443.9,411.6,443.9,411.7,443.9z M411.5,443.5
				C411.5,443.5,411.5,443.5,411.5,443.5L411.5,443.5C411.5,443.4,411.6,443.4,411.5,443.5l6.5-0.5c0,0,0.1,0,0.2,0s0.1,0,0.1,0l0,0
				c0,0-0.1,0-0.1,0l-6.5,0.5C411.6,443.6,411.6,443.6,411.5,443.5z M411.2,443C411.2,443,411.2,443,411.2,443c0.1,0,0.2,0,0.2,0
				l3.7-0.3c0,0,0.1,0,0.2,0l0,0v0c0,0-0.1,0-0.2,0l-3.6,0.3c-0.1,0-0.1,0-0.2,0C411.2,443,411.2,443,411.2,443z M412,444.5
				C411.9,444.5,411.9,444.4,412,444.5c-0.2-0.1-0.2-0.1-0.1-0.1c0,0,0.1,0,0.1,0l4-0.2c0,0,0.1,0.1,0.1,0.2h0c0,0-0.1,0-0.1,0
				l-3.8,0.2C412.1,444.5,412,444.5,412,444.5z M412.3,445.5l0-0.1v0c0,0,0.1,0,0.2,0l3.7-0.1c0.1,0,0.1,0,0.1,0l0.2,0
				c0,0.1,0,0.1,0,0.1s-0.1,0-0.2,0l-3.8,0.2C412.4,445.5,412.4,445.5,412.3,445.5z M412.3,444.8l3.8-0.2c0.1,0,0.1,0,0.2,0l0,0
				c0,0,0,0,0,0c0,0.1,0,0.1-0.1,0.1l-4,0.1c0,0,0,0,0.1,0C412.2,444.9,412.2,444.8,412.3,444.8z M419.5,445.5c0,0.1,0,0.1,0,0.1
				s-0.1,0-0.2,0l-6.5,0.3c-0.1,0-0.2,0-0.3,0l-0.1-0.1h0.1c0-0.1,0.1-0.1,0.1-0.1l6.6-0.3C419.3,445.5,419.3,445.5,419.5,445.5
				L419.5,445.5z M420.1,448.2v0.1c-0.1,0-0.1,0-0.1,0h-6.7c-0.1,0-0.1,0-0.2,0l0-0.1c0.1,0,0.1,0,0.2,0h6.7
				C419.9,448.2,420,448.2,420.1,448.2L420.1,448.2z M416.8,446.3L416.8,446.3l-4,0.2c0,0-0.1,0-0.1,0l-0.2-0.2c0.1,0,0.2,0,0.3,0
				l3.8-0.1C416.6,446.2,416.7,446.2,416.8,446.3C416.8,446.2,416.8,446.2,416.8,446.3z M416.7,446.8l-3.8,0.1c0,0-0.1,0-0.2,0
				l0-0.1c0,0,0,0,0,0c0,0,0.1,0,0.2,0l3.8-0.1c0,0.1,0.1,0.1,0.1,0.1c0,0,0,0-0.1,0C416.8,446.8,416.8,446.8,416.7,446.8z
				 M417,447.3L417,447.3c-0.1,0-0.2,0-0.2,0l-3.8,0.1c-0.1,0-0.1,0-0.1,0l-0.1-0.1c0,0,0-0.1,0.1-0.1c0,0,0.1,0,0.1,0l3.8,0
				C416.8,447.2,416.9,447.2,417,447.3C417,447.2,417,447.2,417,447.3z M417,447.7C417.1,447.7,417.1,447.7,417,447.7L417,447.7
				c0,0.1-0.1,0.1-0.2,0.1h-3.6c-0.1,0-0.1,0-0.2,0c0,0,0,0,0,0l0,0c0,0,0.1,0,0.2,0l3.7-0.1C417,447.6,417,447.6,417,447.7z
				 M417.3,449.3c-0.1,0-0.2,0-0.2,0l-3.8,0c-0.1,0-0.1,0-0.1,0l-0.1-0.1c0,0,0,0,0.1,0c0,0,0.1-0.1,0.1-0.1l3.7,0.1
				c0.1,0,0.2,0,0.2,0V449.3z M417.2,448.7L417.2,448.7v0.1c-0.1,0-0.1,0-0.2,0h-3.8c-0.1,0-0.1,0-0.1,0h-0.1c0-0.1,0-0.1,0.1-0.1
				c0,0,0.1,0,0.1,0h3.8C417.1,448.7,417.1,448.7,417.2,448.7z M417.2,449.8C417.2,449.8,417.3,449.8,417.2,449.8L417.2,449.8
				c0,0.1,0,0.1-0.2,0.1l-3.7,0c0,0-0.1,0-0.1,0c-0.1,0-0.1,0-0.1-0.1h0.1c0,0,0.1,0,0.1,0h3.7C417.2,449.7,417.2,449.7,417.2,449.8
				z M417.3,451.3c0,0,0,0-0.2,0c0,0-0.1,0-0.1,0l-3.8,0c-0.1,0-0.1,0-0.2-0.1c0,0,0,0,0-0.1h0c0.1,0,0.1,0,0.2,0l3.7,0.1
				c0,0,0.1,0,0.1,0.1C417.2,451.3,417.2,451.3,417.3,451.3z M417.3,450.2v0.2c-0.1,0-0.2,0-0.2,0l-3.7-0.2c-0.1,0-0.1,0-0.1,0h0
				V450c0.1,0,0.1,0,0.1,0l3.8,0.2C417.2,450.2,417.2,450.2,417.3,450.2z M420,451l-6.7-0.3c-0.1,0-0.1,0-0.1,0c0,0-0.1,0-0.1-0.1
				l0.1,0c0,0,0.1,0,0.1,0l6.6,0.2c0,0,0.1,0,0.1,0l0.1,0.1l-0.1,0C420,451,420,451,420,451z M419.5,453.5c-0.1,0-0.1,0-0.1,0
				l-6.6-0.5c-0.1,0-0.1,0-0.1,0c-0.1,0-0.1,0,0,0v-0.1c0.1,0,0.1,0,0.2,0l6.5,0.4c0.1,0,0.1,0,0.1,0V453.5z M417.1,451.8
				C417.1,451.8,417.1,451.8,417.1,451.8c-0.1,0-0.1,0-0.3,0l-3.6-0.2c0,0-0.1,0-0.1,0l-0.1-0.1l0.1-0.1c0,0,0.1,0,0.2,0l3.7,0.2
				C417,451.7,417.1,451.7,417.1,451.8C417.2,451.7,417.2,451.7,417.1,451.8z M416.8,452.3l-3.7-0.1L413,452v0c0.1,0,0.1,0,0.2,0
				L416.8,452.3c0.2-0.1,0.2-0.1,0.2,0h0c0,0,0,0,0,0C416.9,452.3,416.8,452.3,416.8,452.3z M416.8,452.8c0,0-0.1,0-0.1,0l-3.7-0.3
				c-0.1,0-0.1,0-0.1-0.1h-0.1l0.1-0.1c0.1,0,0.1,0,0.1,0l3.7,0.3c0.1,0,0.1,0,0.1,0C416.9,452.7,416.9,452.7,416.8,452.8
				C416.9,452.8,416.9,452.8,416.8,452.8z M416.2,454.7C416.3,454.7,416.3,454.7,416.2,454.7v0.1c-0.1,0-0.1,0-0.2,0l-3.7-0.3
				c0,0-0.1,0-0.1,0c0,0,0,0,0,0c0-0.1,0-0.1,0.1-0.1c0,0,0.1,0,0.1,0L416.2,454.7C416.2,454.7,416.2,454.7,416.2,454.7z
				 M416.2,454.3l-3.7-0.3c0,0-0.1,0-0.2-0.1c0,0,0.1,0,0.2,0l3.8,0.3c0.1,0,0.1,0,0.2,0.1c0,0,0.1,0,0.1,0c0,0-0.1,0-0.2,0
				C416.3,454.3,416.3,454.3,416.2,454.3z M416.6,453.8C416.6,453.8,416.7,453.8,416.6,453.8C416.6,453.8,416.6,453.8,416.6,453.8
				c-0.1,0.1-0.2,0.1-0.2,0.1l-3.7-0.3c-0.1,0-0.2,0-0.2,0c0,0,0,0,0,0v-0.1c0.1,0,0.2,0,0.3,0l3.7,0.3
				C416.5,453.7,416.6,453.7,416.6,453.8z"/>
		</g>
		<g>
			
				<linearGradient id="SVGID_35_" gradientUnits="userSpaceOnUse" x1="-352.5205" y1="-447.9253" x2="-217.6205" y2="-447.9253" gradientTransform="matrix(-1 0 -0.1279 -1 5.235672e-004 0)">
				<stop  offset="0" style="stop-color:#CECACA"/>
				<stop  offset="0.4627" style="stop-color:#000000"/>
				<stop  offset="1" style="stop-color:#CECACA"/>
			</linearGradient>
			<path fill-rule="evenodd" clip-rule="evenodd" fill="url(#SVGID_35_)" d="M274.1,447.6c-0.3-2.2,0.3-4.4,1.6-6.4h21.9l-2.6,14.3
				l-17.1-0.6C275.7,452.6,274.5,450.2,274.1,447.6z M410.5,447.6c0.4,2.5-0.3,4.9-1.9,7.1l-17.4-0.2l-4.6-14.1h19.8
				C408.9,442.6,410.3,445,410.5,447.6z"/>
		</g>
	</g>
	<g>
		<g>
			<g>
				
					<linearGradient id="SVGID_36_" gradientUnits="userSpaceOnUse" x1="-552.21" y1="-316.7666" x2="-416.619" y2="-316.7666" gradientTransform="matrix(-0.9599 -0.2804 0.1777 -0.9899 2.718866e-004 -8.358955e-004)">
					<stop  offset="0" style="stop-color:#72685F"/>
					<stop  offset="6.274510e-002" style="stop-color:#6C635B"/>
					<stop  offset="0.1412" style="stop-color:#D0CCC8"/>
					<stop  offset="0.2078" style="stop-color:#544E48"/>
					<stop  offset="0.3059" style="stop-color:#746C69"/>
					<stop  offset="0.502" style="stop-color:#FFFFFF"/>
					<stop  offset="0.6667" style="stop-color:#696664"/>
					<stop  offset="1" style="stop-color:#3F3B38"/>
				</linearGradient>
				<path fill-rule="evenodd" clip-rule="evenodd" fill="url(#SVGID_36_)" d="M428,442.5c1.9,2.6,2.8,5.1,2.8,7.5
					c-0.1,2.4-0.5,4.6-1.2,6.7c-0.5,1.2-0.9,1.9-1.3,2.3l-45.3,0l-4-22.5l44,0C424.8,438.2,426.5,440.2,428,442.5z M389.2,442.3
					l3.4,11.3l33.2,0c0.8-4,0.1-7.7-2-11.3c-0.9-1.1-1.8-2-2.8-2.7l-32.6,0.1v0.4L389.2,442.3z"/>
				
					<linearGradient id="SVGID_37_" gradientUnits="userSpaceOnUse" x1="351.9561" y1="428.3789" x2="382.3202" y2="428.3789" gradientTransform="matrix(0.9995 3.046361e-002 8.932482e-002 1.0032 2.832264e-004 6.533787e-005)">
					<stop  offset="0" style="stop-color:#6D6156"/>
					<stop  offset="1" style="stop-color:#A09C90"/>
				</linearGradient>
				<path fill-rule="evenodd" clip-rule="evenodd" fill="url(#SVGID_37_)" d="M423.8,442.3h-34.7l-0.8-2.2v-0.4l32.6-0.1
					C422,440.3,423,441.2,423.8,442.3z"/>
				
					<linearGradient id="SVGID_38_" gradientUnits="userSpaceOnUse" x1="208.3682" y1="557.5127" x2="242.5173" y2="557.5127" gradientTransform="matrix(0.9568 -0.2906 0.3641 0.9345 1.065135e-004 9.787083e-005)">
					<stop  offset="0" style="stop-color:#898685"/>
					<stop  offset="0.2824" style="stop-color:#AEADAC"/>
					<stop  offset="0.3843" style="stop-color:#FFFFFF"/>
					<stop  offset="0.7451" style="stop-color:#A09C9B"/>
					<stop  offset="1" style="stop-color:#928C8A"/>
				</linearGradient>
				<path fill-rule="evenodd" clip-rule="evenodd" fill="url(#SVGID_38_)" d="M430.8,462l-2.5-3l0.3,0.2c0-0.1-0.1-0.2-0.3-0.3
					c0.4-0.3,0.8-1.1,1.3-2.3c0.7-2.1,1.1-4.3,1.2-6.7c0-2.4-0.9-4.9-2.8-7.5c1.7,1.6,2.9,3.5,3.6,5.7c0.6,1.6,0.8,3.1,0.7,4.6
					C432.5,455.6,432,458.7,430.8,462z"/>
				
					<linearGradient id="SVGID_39_" gradientUnits="userSpaceOnUse" x1="-124.6167" y1="613.668" x2="-59.0116" y2="613.668" gradientTransform="matrix(0.7831 -0.6219 0.7943 0.6462 -5.439520e-004 -1.764297e-005)">
					<stop  offset="0" style="stop-color:#FFFFFF"/>
					<stop  offset="1" style="stop-color:#000000"/>
				</linearGradient>
				<path fill-rule="evenodd" clip-rule="evenodd" fill="url(#SVGID_39_)" d="M380.7,462l2.3-3l45.3,0c0.2,0.1,0.3,0.2,0.3,0.3
					l-0.3-0.2l2.5,3H380.7z M380.7,461.8L380.7,461.8v-0.1h0L380.7,461.8z"/>
				
					<linearGradient id="SVGID_40_" gradientUnits="userSpaceOnUse" x1="-227.2471" y1="441.7324" x2="-182.1366" y2="441.7324" gradientTransform="matrix(0.1463 -0.9892 0.929 0.5539 -2.523959e-004 0)">
					<stop  offset="0" style="stop-color:#FFFFFF"/>
					<stop  offset="1" style="stop-color:#000000"/>
				</linearGradient>
				<path fill-rule="evenodd" clip-rule="evenodd" fill="url(#SVGID_40_)" d="M383,459l-2.3,3v-0.2l0-0.1h0v0.1l-3.3-24.4
					c0.4-0.3,1-0.6,1.5-1L383,459z"/>
			</g>
		</g>
		<g>
			
				<linearGradient id="SVGID_41_" gradientUnits="userSpaceOnUse" x1="392.2686" y1="-359.5894" x2="409.8883" y2="-359.5894" gradientTransform="matrix(0.1036 0.9946 -1.0217 -0.1563 3.470331e-004 -2.638698e-004)">
				<stop  offset="0" style="stop-color:#FFFFFF;stop-opacity:0"/>
				<stop  offset="1" style="stop-color:#F9F9F9"/>
			</linearGradient>
			<path fill-rule="evenodd" clip-rule="evenodd" fill="url(#SVGID_41_)" d="M424.6,453l-31.8-0.2l-1.9-7.9l32.5-0.3
				C425.5,447.5,425.9,450.3,424.6,453z"/>
		</g>
		<g>
			<linearGradient id="SVGID_42_" gradientUnits="userSpaceOnUse" x1="403.9189" y1="412.4561" x2="405.886" y2="468.1064">
				<stop  offset="0" style="stop-color:#FFFFFF"/>
				<stop  offset="1" style="stop-color:#FFFFFF;stop-opacity:0"/>
			</linearGradient>
			<rect x="380.7" y="462.5" fill-rule="evenodd" clip-rule="evenodd" fill="url(#SVGID_42_)" width="50.2" height="6.3"/>
		</g>
		<g>
			<g>
				<path fill-rule="evenodd" clip-rule="evenodd" d="M407.8,457.2c-0.7,0-1.4,0-1.9-0.2c-0.5-0.1-0.8-0.2-0.8-0.4
					c0-0.2,0.3-0.3,0.8-0.4c0.5-0.1,1.2-0.2,1.9-0.2s1.4,0.1,1.9,0.2c0.5,0.1,0.8,0.2,0.8,0.4c0,0.2-0.3,0.3-0.8,0.4
					C409.1,457.2,408.5,457.2,407.8,457.2z"/>
			</g>
			<g>
				
					<radialGradient id="SVGID_43_" cx="392.542" cy="455.4004" r="3.7625" gradientTransform="matrix(1 0 1.328904e-002 0.3953 9.2557 275.3584)" gradientUnits="userSpaceOnUse">
					<stop  offset="0" style="stop-color:#FFFFFF"/>
					<stop  offset="0.8275" style="stop-color:#373737"/>
					<stop  offset="1" style="stop-color:#929292"/>
				</radialGradient>
				<path fill-rule="evenodd" clip-rule="evenodd" fill="url(#SVGID_43_)" d="M410.2,456.1c0,0.3-0.1,0.5-0.4,0.7
					c-0.6,0.1-1.3,0.2-2.1,0.2c-0.8,0-1.6-0.1-2.2-0.2c-0.2-0.2-0.3-0.4-0.3-0.6c0-0.3,0.2-0.6,0.7-0.9c0.5-0.3,1.1-0.4,1.8-0.4
					s1.3,0.1,1.8,0.4C410,455.5,410.2,455.8,410.2,456.1z"/>
			</g>
		</g>
		<g>
			<g>
				<path fill-rule="evenodd" clip-rule="evenodd" d="M401.4,438.5c-0.4-0.1-0.6-0.2-0.6-0.3s0.2-0.2,0.6-0.3
					c0.4-0.1,0.9-0.1,1.5-0.1c0.6,0,1,0,1.4,0.1c0.4,0.1,0.6,0.2,0.6,0.3s-0.2,0.2-0.6,0.3c-0.4,0.1-0.9,0.2-1.4,0.2
					C402.3,438.7,401.8,438.7,401.4,438.5z"/>
			</g>
			<g>
				
					<radialGradient id="SVGID_44_" cx="389.5771" cy="437.25" r="3.025" gradientTransform="matrix(1 0 1.239669e-002 0.4008 8.1027 261.9886)" gradientUnits="userSpaceOnUse">
					<stop  offset="0" style="stop-color:#FFFFFF"/>
					<stop  offset="0.8275" style="stop-color:#373737"/>
					<stop  offset="1" style="stop-color:#929292"/>
				</radialGradient>
				<path fill-rule="evenodd" clip-rule="evenodd" fill="url(#SVGID_44_)" d="M401.5,437.2c0.4-0.2,0.9-0.4,1.5-0.4s1,0.1,1.5,0.4
					c0.4,0.2,0.5,0.4,0.5,0.6c0,0.2-0.1,0.4-0.3,0.5c-0.5,0.1-1,0.2-1.7,0.2c-0.7,0-1.3-0.1-1.8-0.2c-0.2-0.1-0.3-0.3-0.3-0.4
					C401,437.6,401.1,437.3,401.5,437.2z"/>
			</g>
		</g>
	</g>
	<g>
		<g>
			<g>
				
					<linearGradient id="SVGID_45_" gradientUnits="userSpaceOnUse" x1="-586.0176" y1="151.6274" x2="-539.0649" y2="151.6274" gradientTransform="matrix(-0.311 -0.9504 0.8634 -0.577 -1.934171e-004 8.593798e-004)">
					<stop  offset="0" style="stop-color:#FFFFFF"/>
					<stop  offset="1" style="stop-color:#000000"/>
				</linearGradient>
				<path fill-rule="evenodd" clip-rule="evenodd" fill="url(#SVGID_45_)" d="M305.3,459l0.1-22.5c0.6,0.3,1.1,0.6,1.6,1l1.1,24.3h0
					l0,0.1l0.1,0.2L305.3,459z"/>
				
					<linearGradient id="SVGID_46_" gradientUnits="userSpaceOnUse" x1="-255.1738" y1="-449.2974" x2="-224.9846" y2="-449.2974" gradientTransform="matrix(-0.9995 3.064012e-002 -8.884043e-002 -0.9977 7.580221e-005 -9.948388e-005)">
					<stop  offset="0" style="stop-color:#6D6156"/>
					<stop  offset="1" style="stop-color:#A09C90"/>
				</linearGradient>
				<path fill-rule="evenodd" clip-rule="evenodd" fill="url(#SVGID_46_)" d="M296.2,442.3h-34.7c0.7-1.1,1.5-2,2.3-2.7l32.7,0.1
					l0,0.4L296.2,442.3z"/>
				
					<linearGradient id="SVGID_47_" gradientUnits="userSpaceOnUse" x1="45.8721" y1="511.3672" x2="174.9261" y2="511.3672" gradientTransform="matrix(0.9556 -0.2946 0.3373 0.9425 -1.063347e-004 -1.116991e-004)">
					<stop  offset="0" style="stop-color:#72685F"/>
					<stop  offset="6.274510e-002" style="stop-color:#6C635B"/>
					<stop  offset="0.1412" style="stop-color:#D0CCC8"/>
					<stop  offset="0.2078" style="stop-color:#544E48"/>
					<stop  offset="0.3059" style="stop-color:#746C69"/>
					<stop  offset="0.502" style="stop-color:#FFFFFF"/>
					<stop  offset="0.6667" style="stop-color:#696664"/>
					<stop  offset="1" style="stop-color:#3F3B38"/>
				</linearGradient>
				<path fill-rule="evenodd" clip-rule="evenodd" fill="url(#SVGID_47_)" d="M261.5,442.3c-1.4,3.5-1.4,7.3,0.1,11.3l33.3,0
					l1.4-11.3l0.3-2.2l0-0.4l-32.7-0.1C263,440.3,262.2,441.2,261.5,442.3z M305.4,436.5l-0.1,22.5l-45.3,0
					c-0.4-0.3-0.9-1.1-1.6-2.3c-1.1-2.1-1.9-4.3-2.4-6.7c-0.5-2.4,0-4.9,1.4-7.5c1.1-2.3,2.4-4.3,4-6L305.4,436.5z"/>
				
					<linearGradient id="SVGID_48_" gradientUnits="userSpaceOnUse" x1="-375.9658" y1="-363.1348" x2="-340.1386" y2="-363.1348" gradientTransform="matrix(-0.9609 -0.277 0.2066 -0.9812 2.137125e-004 -8.497238e-004)">
					<stop  offset="0" style="stop-color:#898685"/>
					<stop  offset="0.2824" style="stop-color:#AEADAC"/>
					<stop  offset="0.3843" style="stop-color:#FFFFFF"/>
					<stop  offset="0.7451" style="stop-color:#A09C9B"/>
					<stop  offset="1" style="stop-color:#928C8A"/>
				</linearGradient>
				<path fill-rule="evenodd" clip-rule="evenodd" fill="url(#SVGID_48_)" d="M257.5,442.5c-1.4,2.6-1.9,5.1-1.4,7.5
					c0.5,2.4,1.3,4.6,2.4,6.7c0.7,1.2,1.3,1.9,1.6,2.3c-0.1,0.1-0.2,0.2-0.2,0.3l0.3-0.2l-2,3c-1.9-3.3-2.9-6.4-3.1-9.2
					c-0.4-1.5-0.4-3,0-4.6C255.3,446,256.1,444.1,257.5,442.5z"/>
				
					<linearGradient id="SVGID_49_" gradientUnits="userSpaceOnUse" x1="-562.5415" y1="-217.1426" x2="-491.096" y2="-217.1426" gradientTransform="matrix(-0.8209 -0.5711 0.7399 -0.7035 2.182722e-004 2.226830e-004)">
					<stop  offset="0" style="stop-color:#FFFFFF"/>
					<stop  offset="1" style="stop-color:#000000"/>
				</linearGradient>
				<path fill-rule="evenodd" clip-rule="evenodd" fill="url(#SVGID_49_)" d="M308.1,461.7L308.1,461.7l0.1,0.1h-0.1V461.7
					L308.1,461.7z M305.3,459l2.9,3h-50.1l2-3l-0.3,0.2c0-0.1,0.1-0.2,0.2-0.3L305.3,459z"/>
			</g>
		</g>
		<g>
			
				<linearGradient id="SVGID_50_" gradientUnits="userSpaceOnUse" x1="485.7363" y1="-244.3267" x2="503.3095" y2="-244.3267" gradientTransform="matrix(7.397649e-002 0.9973 -0.9912 0.1557 -2.866387e-004 2.284050e-004)">
				<stop  offset="0" style="stop-color:#FFFFFF;stop-opacity:0"/>
				<stop  offset="1" style="stop-color:#F9F9F9"/>
			</linearGradient>
			<path fill-rule="evenodd" clip-rule="evenodd" fill="url(#SVGID_50_)" d="M294.6,452.8l-31.9,0.2c-1.8-2.8-1.9-5.6-0.3-8.4
				l32.5,0.3L294.6,452.8z"/>
		</g>
		<g>
			
				<linearGradient id="SVGID_51_" gradientUnits="userSpaceOnUse" x1="408.9619" y1="-214.9199" x2="465.1805" y2="-214.9199" gradientTransform="matrix(0.1419 0.9899 -1.0153 -3.550936e-002 4.665554e-004 -1.099408e-004)">
				<stop  offset="0" style="stop-color:#FFFFFF"/>
				<stop  offset="1" style="stop-color:#FFFFFF;stop-opacity:0"/>
			</linearGradient>
			<polygon fill-rule="evenodd" clip-rule="evenodd" fill="url(#SVGID_51_)" points="259.3,468.8 258.1,462.5 308.4,462.5 
				309.5,468.8 			"/>
		</g>
		<g>
			<g>
				<path fill-rule="evenodd" clip-rule="evenodd" d="M278.5,457c-0.5-0.1-0.8-0.2-0.8-0.4c0-0.2,0.3-0.3,0.8-0.4s1.1-0.2,1.8-0.2
					c0.7,0,1.3,0.1,1.8,0.2s0.8,0.2,0.8,0.4c0,0.2-0.3,0.3-0.8,0.4c-0.5,0.1-1.1,0.2-1.8,0.2C279.6,457.2,279,457.2,278.5,457z"/>
			</g>
			<g>
				
					<radialGradient id="SVGID_52_" cx="-210.9658" cy="-455.3999" r="3.7625" gradientTransform="matrix(-1 0 5.980066e-002 0.3953 96.118 635.4417)" gradientUnits="userSpaceOnUse">
					<stop  offset="0" style="stop-color:#FFFFFF"/>
					<stop  offset="0.8275" style="stop-color:#373737"/>
					<stop  offset="1" style="stop-color:#929292"/>
				</radialGradient>
				<path fill-rule="evenodd" clip-rule="evenodd" fill="url(#SVGID_52_)" d="M282.5,456.8c-0.6,0.1-1.3,0.2-2.2,0.2
					c-0.8,0-1.5-0.1-2.1-0.2c-0.3-0.2-0.5-0.4-0.5-0.7c-0.1-0.3,0.1-0.6,0.6-0.8c0.5-0.3,1.1-0.4,1.8-0.4c0.7,0,1.3,0.1,1.9,0.4
					c0.5,0.3,0.7,0.6,0.8,0.9C282.7,456.4,282.6,456.6,282.5,456.8z"/>
			</g>
		</g>
		<g>
			<g>
				<path fill-rule="evenodd" clip-rule="evenodd" d="M279.6,438.2c0-0.1,0.2-0.2,0.5-0.3c0.4-0.1,0.9-0.2,1.5-0.2
					c0.5,0,1,0,1.4,0.2c0.4,0.1,0.7,0.2,0.7,0.3c0,0.1-0.2,0.2-0.6,0.3c-0.4,0.1-0.8,0.2-1.4,0.2c-0.6,0-1.1-0.1-1.5-0.2
					S279.6,438.3,279.6,438.2z"/>
			</g>
			<g>
				
					<radialGradient id="SVGID_53_" cx="-218.3418" cy="-437.25" r="3.025" gradientTransform="matrix(-1 0 5.785123e-002 0.4008 88.4046 612.5114)" gradientUnits="userSpaceOnUse">
					<stop  offset="0" style="stop-color:#FFFFFF"/>
					<stop  offset="0.8275" style="stop-color:#373737"/>
					<stop  offset="1" style="stop-color:#929292"/>
				</radialGradient>
				<path fill-rule="evenodd" clip-rule="evenodd" fill="url(#SVGID_53_)" d="M283.5,438.3c-0.5,0.1-1,0.2-1.7,0.2
					c-0.7,0-1.3-0.1-1.8-0.2c-0.2-0.1-0.4-0.3-0.4-0.5c-0.1-0.3,0.1-0.5,0.5-0.6c0.4-0.2,0.9-0.4,1.4-0.4c0.6,0,1.1,0.1,1.5,0.4
					c0.4,0.2,0.6,0.4,0.6,0.8C283.8,438.1,283.7,438.2,283.5,438.3z"/>
			</g>
		</g>
	</g>
	
		<radialGradient id="SVGID_54_" cx="-342.0498" cy="-454.125" r="69.7873" gradientTransform="matrix(-1 0 0 0.4564 0 661.4023)" gradientUnits="userSpaceOnUse">
		<stop  offset="0" style="stop-color:#000000;stop-opacity:0.498"/>
		<stop  offset="0.4863" style="stop-color:#000000;stop-opacity:0.251"/>
		<stop  offset="1" style="stop-color:#000000;stop-opacity:0"/>
	</radialGradient>
	<path fill-rule="evenodd" clip-rule="evenodd" fill="url(#SVGID_54_)" d="M273.9,454.2c0-8.6,6.7-15.9,20-22
		c13.3-6.1,29.4-9.2,48.3-9.2c14.6,0,27.6,1.8,38.9,5.5c3.3,1.1,6.4,2.3,9.4,3.7c13.2,6.1,19.8,13.4,19.8,22c0,8.6-6.6,15.9-19.8,22
		c-10.3,4.7-22.1,7.5-35.7,8.6c-4.1,0.3-8.3,0.5-12.6,0.5c-18.9,0-35-3-48.3-9.1C280.5,470.1,273.9,462.8,273.9,454.2z"/>
</g>
<g>
	<path fill-rule="evenodd" clip-rule="evenodd" d="M317.5,64c22.8,22.8,34.2,50.3,34.2,82.6s-11.4,59.8-34.2,82.6
		c-22.8,22.8-50.3,34.2-82.6,34.2s-59.8-11.4-82.6-34.2c-22.8-22.8-34.3-50.3-34.3-82.6s11.4-59.8,34.3-82.6
		c22.8-22.8,50.3-34.3,82.6-34.3S294.7,41.2,317.5,64z"/>
	
		<path fill-rule="evenodd" clip-rule="evenodd" fill="none" stroke="#999999" stroke-width="3.5" stroke-linecap="round" stroke-linejoin="round" stroke-miterlimit="3" d="
		M317.5,64c22.8,22.8,34.2,50.3,34.2,82.6s-11.4,59.8-34.2,82.6c-22.8,22.8-50.3,34.2-82.6,34.2s-59.8-11.4-82.6-34.2
		c-22.8-22.8-34.3-50.3-34.3-82.6s11.4-59.8,34.3-82.6c22.8-22.8,50.3-34.3,82.6-34.3S294.7,41.2,317.5,64z"/>
</g>
</svg>
