<?xml version="1.0" encoding="utf-8"?>
<!-- Generator: Adobe Illustrator 16.0.0, SVG Export Plug-In . SVG Version: 6.00 Build 0)  -->
<!DOCTYPE svg PUBLIC "-//W3C//DTD SVG 1.1//EN" "http://www.w3.org/Graphics/SVG/1.1/DTD/svg11.dtd">
<svg version="1.1" xmlns="http://www.w3.org/2000/svg" xmlns:xlink="http://www.w3.org/1999/xlink" x="0px" y="0px" width="700px"
	 height="700px" viewBox="0 0 700 700" enable-background="new 0 0 700 700" xml:space="preserve">
<g id="Layer_2">
	<g>
		<g>
			<path fill-rule="evenodd" clip-rule="evenodd" d="M668.5,338.5c0,0.5,0,1-0.1,1.5c1.4,1.5,2.4,3.3,3.1,5.4
				c0.3,0.8,0.5,1.7,0.5,2.6c0.1,4.2-2.6,7-8.3,8.4c-0.3,0-0.5,0.1-0.8,0.1h-25.1l-2.6,27l-1.5,16h-5.2l-13.3-14.5h0
				c-2.1,0-3.8-1.6-5.2-4.8l-26.7-0.6l-63.2-1.6l-2.3,24.3l-5.5,5.2l-14.2,0.3l-6,95.8c0,0,0.1,0.1,0.1,0.1c0,0,0,0.1,0,0.1
				c2.8,2.3,3.8,4.6,2.9,6.8c-0.9,2.4-3.6,4-8,4.8c-4.5,0.8-9.4,0.7-14.8-0.4c-5.3-1.2-9.6-3-12.8-5.4c-3.1-2.4-4.3-4.8-3.4-7
				c0.5-1.2,1.4-2.3,2.9-3c0.3-0.2,0.6-0.3,1-0.5l12.9-91.4h-5.5l0-0.1l0,0.2l-11-10l1.5-23.1l-4.3,0c-0.3,0.6-0.6,0.8-1,0.8h-11
				c-0.8,0-1.1-0.3-1-1v0l-10.3-0.1v-0.1c0,0,0,0.1-0.1,0.1v0c0,0-0.1,0-0.1,0c-0.5,0-1-0.7-1.5-2c-2-11.1-2-22.1,0-33.2
				c0.3-0.9,0.6-1.5,0.9-1.8l12,0c-0.2-0.6,0-0.9,0.7-1.1h9.6c0.7,0,1.2,0.3,1.5,1v0.1h6.9l-0.1-0.1c-0.3-0.5-0.4-0.9-0.5-1.3
				c-0.1-0.9,0.5-1.5,1.7-1.9c0-0.1,0-0.1,0-0.1H519c0.4,1.3,0.7,2,1,2.2c1.3,0.6,2,1.4,2.3,2.4c0,0.1,0.1,0.3,0.2,0.6l60.8,2.4
				l28.9,1.1c0.5-0.9,1-1.6,1.5-2.2l1.2-13.5l0.1-0.7h0c1.4,0,2.8,0,4.1,0.1c0.1,0,0.2,0,0.3,0l38.9-0.2c1.1,0.4,2,0.9,2.9,1.4
				c3.4,2,5.6,4.7,6.7,8.3C668.3,336.7,668.4,337.6,668.5,338.5z M401.7,370c0,0.3,0,0.6-0.1,1v8.9c0,0.2,0,0.4,0,0.5
				c0,0.6-0.1,1.3-0.2,1.9c0.1,0.4,0.2,0.7,0.2,1.1h0v0.3c0,0.3,0.1,0.6,0.1,1c0,0.3,0,0.6-0.1,0.9v6.3c0,0.2,0,0.4,0,0.5
				c0,5.9-5.5,10.9-16.6,15c-11.1,4.2-24.5,6.3-40.2,6.3s-29.1-2.1-40.3-6.3c-11.1-4.1-16.6-9.2-16.7-15.1v-6.8c0-0.3,0-0.7,0-1
				c0-0.3,0-0.6,0-1v-0.3h0c0-0.3,0.1-0.7,0.2-1c-0.1-0.6-0.2-1.3-0.2-2V371c0-0.3,0-0.7,0-1c0-0.3,0-0.6,0-1V369
				c0.5-4.7,4.8-8.9,12.8-12.5l-0.1-51.2h-0.2l0.1-0.1h-0.1l0.1-0.2l2.4-6.4h8.8l-0.1,0.1h0.1l0,53.9c9.6-2.6,20.6-3.9,33.1-3.9
				c15.7,0,29.1,2.1,40.3,6.2c10.5,3.9,16,8.6,16.6,14v0.1C401.6,369.4,401.7,369.7,401.7,370z M68,346.5c0.5-0.8,1.1-1.4,1.7-1.6
				l94-3.9c0.1-0.4,0.1-0.7,0.1-0.7c0.3-1,1.1-1.9,2.4-2.5c1.4-0.7,3.4-1.1,5.9-1.3l52.9-0.7c1.7,0.5,2.2,1.6,1.4,3.1l-0.1,0
				l29.8-0.1c0.1,0,0.2,0,0.3,0c0.5,0,1,0.7,1.4,2c2,11,2,22.1,0,33.1c-0.4,1.4-0.9,2-1.4,2c0,0-0.1,0-0.1,0l-0.1,0c0,0,0,0-0.1,0
				v0.1l-27.5,0.4l1.4,23.1l-11,10l-0.1-0.2l0,0.1h-5.5l13.1,56.7c-0.6,1.7-1.8,3.2-3.5,4.6c-2,1.6-4.5,2.8-7.5,3.5
				c-5.6,1.3-10.3,1.6-14,0.9c-3.4-0.6-5.9-2.1-7.3-4.3l-6-61.3l-12.5,0.7c-0.1-0.2-0.2-0.5-0.3-0.8l-1.4,0l-5.5-5.3l-2.3-25.6h0
				v-0.3l-93.8,2.4c-1-0.1-2-0.9-2.9-2.5l-41.4,2.2c-0.8-0.4-1.5-1.8-2.2-4.4c-0.8-3-1.3-6.6-1.5-11c-0.2-4.2,0-7.9,0.5-10.9
				c0.5-2.5,1.1-4,1.9-4.4l40.8-2.3h0.1C67.7,347,67.9,346.7,68,346.5z M430.3,337.3h-0.5c0.1,0,0.2,0,0.3,0
				C430,337.2,430.2,337.2,430.3,337.3z"/>
			<path fill-rule="evenodd" clip-rule="evenodd" fill="none" d="M27.5,384.8c0,0.1,0.1,0.3,0.2,0.5"/>
		</g>
	</g>
</g>
<g id="Layer_1">
	<g>
		<g>
			<g>
				<g>
					
						<linearGradient id="SVGID_1_" gradientUnits="userSpaceOnUse" x1="-652.5376" y1="-330.0498" x2="-633.8626" y2="-330.0498" gradientTransform="matrix(-1 0 0 -1 0 0)">
						<stop  offset="0" style="stop-color:#746C69"/>
						<stop  offset="0.502" style="stop-color:#FFFFFF"/>
						<stop  offset="0.6667" style="stop-color:#696664"/>
						<stop  offset="1" style="stop-color:#A9A7A6"/>
					</linearGradient>
					<path fill-rule="evenodd" clip-rule="evenodd" fill="url(#SVGID_1_)" d="M651.3,331.3l-2-2.5c0.1,0.1,0.3,0.3,0.5,0.5
						C650.4,329.9,651,330.6,651.3,331.3z"/>
					
						<linearGradient id="SVGID_2_" gradientUnits="userSpaceOnUse" x1="468.5723" y1="-540.498" x2="493.675" y2="-540.498" gradientTransform="matrix(0.2466 0.9691 -0.9691 0.2466 3.593862e-004 4.200339e-004)">
						<stop  offset="0" style="stop-color:#FFFFFF"/>
						<stop  offset="1" style="stop-color:#5F5F5F"/>
					</linearGradient>
					<path fill-rule="evenodd" clip-rule="evenodd" fill="url(#SVGID_2_)" d="M635,340.1c-0.7-1.3-1-2.7-1-4.3c0-0.1,0-0.3,0-0.4
						c0.1-2.4,1-4.5,2.8-6.3c1.8-1.9,4-2.8,6.5-2.8c0.4,0,0.9,0,1.3,0.1c1.8,0.2,3.4,1,4.8,2.2l2,2.5c0.8,1.3,1.2,2.9,1.2,4.6
						c0,2.5-0.9,4.7-2.7,6.5c-1.9,1.9-4.1,2.8-6.6,2.8c-2.3,0-4.3-0.8-6.1-2.3c-0.1-0.2-0.3-0.3-0.4-0.5
						C636,341.6,635.4,340.9,635,340.1z"/>
					
						<linearGradient id="SVGID_3_" gradientUnits="userSpaceOnUse" x1="-293.9219" y1="-656.0176" x2="-276.0857" y2="-656.0176" gradientTransform="matrix(-0.774 0.6332 -0.6332 -0.774 1.529455e-004 1.252890e-004)">
						<stop  offset="0" style="stop-color:#968D8B"/>
						<stop  offset="0.4275" style="stop-color:#CECBCA"/>
						<stop  offset="0.5412" style="stop-color:#D6D3D3"/>
						<stop  offset="1" style="stop-color:#6D6867"/>
					</linearGradient>
					<path fill-rule="evenodd" clip-rule="evenodd" fill="url(#SVGID_3_)" d="M649.3,328.8c-1.4-1.2-3-2-4.8-2.2
						c-0.4-0.1-0.9-0.1-1.3-0.1c-2.5,0-4.7,0.9-6.5,2.8c-1.8,1.7-2.7,3.8-2.8,6.3c0,0.1,0,0.2,0,0.4c0,1.6,0.3,3,1,4.3l-6.8-8.3
						c-0.1-0.2-0.3-0.4-0.4-0.6c-0.8-1.4-1.2-2.9-1.2-4.5c0-2.5,0.9-4.6,2.6-6.4c1.8-1.7,3.9-2.6,6.3-2.6c1.9,0,3.7,0.6,5.2,1.7
						L649.3,328.8z"/>
				</g>
			</g>
		</g>
		<g>
			<g>
				<g>
					<path fill-rule="evenodd" clip-rule="evenodd" d="M633.3,348.9l-3.3,34.7l-1.5,16l-14.8-16l-3.4-3.6l2.8-32.9l0.3-4.3l1.3-15.6
						l0.1-0.7h0l0,0.1l0.5,0.6l12.8,15.6l3.5,4.3L633.3,348.9z M636.9,347l-3.7-4.3l-11-12.9h37.2c0.6,0.1,1.2,0.3,1.8,0.4
						c3.5,1,5.7,2.9,6.7,5.7c0.3,0.8,0.5,1.6,0.5,2.6c0.2,4.2-2.6,6.9-8.3,8.3c-0.3,0-0.5,0.1-0.8,0.1H636.9z"/>
					<path fill-rule="evenodd" clip-rule="evenodd" fill="#333333" d="M668,336c-1-2.8-3.2-4.7-6.7-5.7c-0.6-0.1-1.2-0.3-1.8-0.4
						h-37.2l11,12.9l3.7,4.3l1.6,1.9h-5.2l-1.5-1.9l-3.5-4.3l-12.8-15.6l-0.5-0.6l0-0.1c1.4,0,2.8,0,4.1,0.1c0.1,0,0.2,0,0.3,0
						l38.9-0.2c1.1,0.4,2,0.9,2.9,1.4C664.7,329.7,666.9,332.4,668,336z"/>
					<polygon fill-rule="evenodd" clip-rule="evenodd" fill="#1E1E1E" points="628.5,399.5 630,383.5 633.3,348.9 638.5,348.9 
						635.3,383.5 633.7,399.5 					"/>
				</g>
			</g>
			<g>
				<g>
					<path fill-rule="evenodd" clip-rule="evenodd" fill="#333333" d="M671.5,345.5c-1.1-3.3-3.9-5.3-8.4-6.1h-1.8l-30.8,0.1
						l-3.5-3.6h34.3h0.5C666.9,337.8,670.1,341,671.5,345.5z"/>
					
						<linearGradient id="SVGID_4_" gradientUnits="userSpaceOnUse" x1="-672.0049" y1="-347.9746" x2="-627.5549" y2="-347.9746" gradientTransform="matrix(-1 0 0 -1 0 0)">
						<stop  offset="0" style="stop-color:#221A1A"/>
						<stop  offset="0.4941" style="stop-color:#C9C8C7"/>
						<stop  offset="0.6902" style="stop-color:#73695D"/>
					</linearGradient>
					<path fill-rule="evenodd" clip-rule="evenodd" fill="url(#SVGID_4_)" d="M630.5,339.5l30.8-0.1h1.8c4.5,0.7,7.3,2.8,8.4,6.1
						c0.3,0.8,0.5,1.7,0.5,2.6c0.1,4.2-2.6,7-8.3,8.4c-0.3,0-0.5,0.1-0.8,0.1h-25.2l0.7-7.7L630.5,339.5z"/>
				</g>
			</g>
		</g>
		<g>
			<g>
				<path fill-rule="evenodd" clip-rule="evenodd" fill="#333333" d="M652.3,343c0.9,0,1.7,0.3,2.4,0.9c0.6,0.7,0.9,1.5,0.9,2.4
					c0,1-0.3,1.8-0.9,2.4c-0.7,0.6-1.5,1-2.4,1c-1,0-1.8-0.3-2.4-1c-0.6-0.6-0.9-1.4-0.9-2.4c0-0.9,0.3-1.8,0.9-2.4
					C650.5,343.4,651.3,343,652.3,343z"/>
			</g>
			<g>
				<g>
					
						<linearGradient id="SVGID_5_" gradientUnits="userSpaceOnUse" x1="-276.7729" y1="-687.5303" x2="-269.1616" y2="-687.5303" gradientTransform="matrix(-0.7623 0.6472 -0.6472 -0.7623 0 2.974272e-004)">
						<stop  offset="0" style="stop-color:#72685F"/>
						<stop  offset="6.274510e-002" style="stop-color:#6C635B"/>
						<stop  offset="0.1412" style="stop-color:#D0CCC8"/>
						<stop  offset="0.2078" style="stop-color:#544E48"/>
						<stop  offset="0.3059" style="stop-color:#746C69"/>
						<stop  offset="0.502" style="stop-color:#FFFFFF"/>
						<stop  offset="0.6667" style="stop-color:#696664"/>
						<stop  offset="1" style="stop-color:#3F3B38"/>
					</linearGradient>
					<path fill-rule="evenodd" clip-rule="evenodd" fill="url(#SVGID_5_)" d="M658.7,348.2c-0.6-0.4-1.2-0.7-1.9-0.7
						c-0.1,0-0.3,0-0.3,0c-0.3,0-0.6,0-0.9,0.1c-0.7,0.2-1.3,0.5-1.8,1.1c-0.4,0.4-0.7,0.8-0.9,1.3c-0.1,0.2-0.2,0.4-0.2,0.6
						c-0.1,0.3-0.1,0.5-0.1,0.8c0,0.8,0.2,1.4,0.5,2l-3.3-4.9c-0.3-0.5-0.5-1.1-0.5-1.8c0-0.9,0.3-1.7,0.9-2.4
						c0.6-0.6,1.4-0.9,2.4-0.9c0.6,0,1.1,0.1,1.6,0.4L658.7,348.2z"/>
					
						<linearGradient id="SVGID_6_" gradientUnits="userSpaceOnUse" x1="405.4346" y1="-621.8477" x2="413.1663" y2="-621.8477" gradientTransform="matrix(9.053577e-002 0.9959 -0.9959 9.053577e-002 -2.742708e-004 -9.153783e-005)">
						<stop  offset="0" style="stop-color:#C5C5C5"/>
						<stop  offset="1" style="stop-color:#5F5F5F"/>
					</linearGradient>
					<path fill-rule="evenodd" clip-rule="evenodd" fill="url(#SVGID_6_)" d="M653,353.3c-0.3-0.5-0.5-1.2-0.5-2
						c0-0.3,0-0.5,0.1-0.8c0-0.2,0.1-0.4,0.2-0.6c0.2-0.5,0.5-0.9,0.9-1.3c0.5-0.5,1.1-0.9,1.8-1.1c0.3-0.1,0.6-0.1,0.9-0.1
						c0.1,0,0.2,0,0.3,0c0.7,0,1.3,0.3,1.9,0.7c0.2,0.1,0.3,0.2,0.5,0.4c0.7,0.8,1.1,1.7,1.1,2.7c0,1.1-0.4,2-1.1,2.8
						c-0.8,0.7-1.7,1.1-2.8,1.1c-1.1,0-2-0.4-2.8-1.1c-0.2-0.2-0.3-0.3-0.5-0.5c-0.1-0.1-0.1-0.1-0.2-0.2L653,353.3L653,353.3z"/>
				</g>
			</g>
			<g>
				
					<radialGradient id="SVGID_7_" cx="-655.1001" cy="-348.25" r="4.125" gradientTransform="matrix(-1 0 0 1 0 696.5)" gradientUnits="userSpaceOnUse">
					<stop  offset="0" style="stop-color:#FFFFFF"/>
					<stop  offset="0.4118" style="stop-color:#FCFCFC"/>
					<stop  offset="1" style="stop-color:#F2F2F2;stop-opacity:0"/>
				</radialGradient>
				<path fill-rule="evenodd" clip-rule="evenodd" fill="url(#SVGID_7_)" d="M658.8,348.6c-0.7-0.7-1.6-1-2.5-1c-1,0-1.9,0.3-2.5,1
					c-0.7,0.7-1.1,1.6-1.2,2.6c0,0.6,0.1,1.1,0.4,1.5c0,0.1,0,0.1,0,0.1c0,0,0,0,0,0c0,0-0.1,0-0.1,0c0,0,0-0.1,0-0.1
					c-0.2-0.4-0.3-1-0.3-1.6c0-1.1,0.4-2,1.1-2.8v0c0.7-0.7,1.6-1.1,2.7-1.1c1,0,1.9,0.3,2.7,1.1h0c0.1,0.1,0.3,0.3,0.4,0.4v0.1
					l-0.1,0c0,0,0,0.1-0.1,0.1c0,0,0-0.1,0-0.1C659.1,348.9,659,348.8,658.8,348.6z"/>
			</g>
		</g>
		<g>
			<g>
				<g>
					<g>
						
							<linearGradient id="SVGID_8_" gradientUnits="userSpaceOnUse" x1="301.9434" y1="-636.54" x2="372.1482" y2="-636.54" gradientTransform="matrix(-3.948862e-002 0.9992 -0.9992 -3.948862e-002 5.946308e-005 1.807064e-004)">
							<stop  offset="0" style="stop-color:#72685F"/>
							<stop  offset="6.274510e-002" style="stop-color:#6C635B"/>
							<stop  offset="0.1412" style="stop-color:#D0CCC8"/>
							<stop  offset="0.2078" style="stop-color:#544E48"/>
							<stop  offset="0.3059" style="stop-color:#746C69"/>
							<stop  offset="0.502" style="stop-color:#FFFFFF"/>
							<stop  offset="0.6667" style="stop-color:#696664"/>
							<stop  offset="1" style="stop-color:#3F3B38"/>
						</linearGradient>
						<path fill-rule="evenodd" clip-rule="evenodd" fill="url(#SVGID_8_)" d="M618.8,338.8l4.3,0.1c1.7,0.9,3.1,3,4.2,6.5
							c1.4,4.5,2,10,1.6,16.5c-0.4,6.4-1.5,11.8-3.5,16.4c-1.8,4.1-3.8,6.3-5.9,6.8h-3.7c0.4-0.1,0.7-0.2,1-0.4
							c1.7-0.9,3.3-3.1,4.8-6.4c1.4-3.2,2.4-6.8,3-10.8c0.1-1.4,0.3-2.8,0.4-4.3c0.1-0.4,0.1-0.9,0.1-1.3c0.4-6.5-0.1-12-1.6-16.5
							c-1.1-3.3-2.4-5.4-4-6.4C619.2,338.9,619,338.8,618.8,338.8z"/>
					</g>
					<path fill-rule="evenodd" clip-rule="evenodd" fill="#474441" d="M621.9,378.3c-2,4.5-4.2,6.8-6.7,6.8c-2.5,0-4.5-2.3-6-6.8
						c-1.5-4.5-2.1-10-1.8-16.4c0.3-6.4,1.5-11.9,3.5-16.5c2-4.5,4.2-6.8,6.7-6.8c2.5,0,4.5,2.3,6,6.8c1.5,4.5,2.1,10,1.8,16.5
						C625,368.3,623.9,373.8,621.9,378.3z"/>
				</g>
			</g>
			<g>
				<path fill-rule="evenodd" clip-rule="evenodd" fill="#B8D8D5" d="M491.6,503.5c3.2,2.5,4.3,4.9,3.4,7.2c-0.9,2.4-3.6,4-8,4.8
					c-4.5,0.8-9.4,0.7-14.8-0.4c-5.3-1.2-9.6-3-12.8-5.4c-3.1-2.4-4.3-4.8-3.4-7c0.5-1.2,1.4-2.3,2.9-3c1.3-0.8,3-1.4,5.1-1.8
					c4.4-0.9,9.3-0.7,14.7,0.4c2.1,0.4,4,1,5.8,1.6C487.3,500.8,489.6,502,491.6,503.5z"/>
			</g>
			<g>
				
					<radialGradient id="SVGID_9_" cx="-548.7217" cy="-421.0259" r="31.29" gradientTransform="matrix(-0.9875 -0.1577 -0.1013 0.634 -109.0384 682.6961)" gradientUnits="userSpaceOnUse">
					<stop  offset="0" style="stop-color:#666260"/>
					<stop  offset="1" style="stop-color:#696664;stop-opacity:0"/>
				</radialGradient>
				<path fill-rule="evenodd" clip-rule="evenodd" fill="url(#SVGID_9_)" d="M493.8,516.5c-17.3,7.9-29.7,5.6-37.4-7
					c0.1-0.8,0.2-2.1,0.4-4c0.5-4.6,1.3-5.6,2.5-3v0.5c2.6,1.4,5.7,2.3,9.2,2.6c15.3,1.4,23.5,1.9,24.6,1.7
					C494.2,507.1,494.4,510.2,493.8,516.5z"/>
			</g>
			<g>
				<path fill-rule="evenodd" clip-rule="evenodd" fill-opacity="0.298" d="M494,509.3c-0.2,1.1-0.9,2.3-2.1,3.5
					c-3.5,3.3-10.4,4.2-20.7,2.5c-5.5-1.1-9.8-3.4-12.9-7c-0.7-0.9-1.2-2-1.3-3.1c-0.2-1.9,0.8-3.5,3-4.8l0,0.2l0,0.3
					c2.6,1.2,5.7,1.9,9.2,2.2l23,1.6C493.7,506.2,494.3,507.8,494,509.3z"/>
			</g>
			<g>
				<g>
					<path fill-rule="evenodd" clip-rule="evenodd" fill="#322D27" d="M460,337.5L460,337.5l0.1,0.1
						C460.1,337.5,460,337.5,460,337.5z M460,337.5l-0.1-0.1h0l1.2-0.1L460,337.5z M519,359.3l-0.3,0.5c0,0.1,0,0.2,0,0.3
						c0-0.3,0-0.5,0-0.8H519z"/>
					
						<linearGradient id="SVGID_10_" gradientUnits="userSpaceOnUse" x1="344.8423" y1="-443.0366" x2="383.0233" y2="-443.0366" gradientTransform="matrix(1.753390e-002 0.9998 -0.9998 1.753390e-002 2.242960e-004 -4.822388e-005)">
						<stop  offset="0" style="stop-color:#221A1A"/>
						<stop  offset="9.803922e-002" style="stop-color:#261F1F"/>
						<stop  offset="0.149" style="stop-color:#6B6C66"/>
						<stop  offset="0.2039" style="stop-color:#656560"/>
						<stop  offset="0.3804" style="stop-color:#3A3A37"/>
						<stop  offset="0.4941" style="stop-color:#C9C8C7"/>
						<stop  offset="0.6902" style="stop-color:#73695D"/>
						<stop  offset="0.8471" style="stop-color:#2E2927"/>
						<stop  offset="1" style="stop-color:#292923"/>
					</linearGradient>
					<path fill-rule="evenodd" clip-rule="evenodd" fill="url(#SVGID_10_)" d="M430.3,337.5H460c0,0,0.1,0.1,0.1,0.1
						c0,0.1,0.1,0.1,0.1,0.2c3.5,5.9,6,11.5,7.6,16.8c0.1,0.2,0.1,0.5,0.2,0.7c0.1,0.5,0.2,1,0.3,1.5c0.6,3.3,0.7,6.1,0.4,8.5
						c-0.7,4.7-3,7.9-7.1,9.6h-3.9l-27.5-0.3v-0.1c2-6.7,3-12.1,2.8-16.3c0-0.7,0-1.5,0-2.2c0-5.2-0.3-9.5-0.8-13.1
						c-0.4-2.4-0.9-4.1-1.4-4.9L430.3,337.5z"/>
					
						<linearGradient id="SVGID_11_" gradientUnits="userSpaceOnUse" x1="327.312" y1="-494.5806" x2="388.9429" y2="-494.5806" gradientTransform="matrix(-1.379465e-002 0.9999 -0.9999 -1.379464e-002 -4.781187e-004 2.223868e-004)">
						<stop  offset="0" style="stop-color:#322421"/>
						<stop  offset="7.843138e-002" style="stop-color:#2D211E"/>
						<stop  offset="0.1608" style="stop-color:#7B8272"/>
						<stop  offset="0.2392" style="stop-color:#494C43"/>
						<stop  offset="0.3373" style="stop-color:#A39DA1"/>
						<stop  offset="0.4471" style="stop-color:#5E5C50"/>
						<stop  offset="1" style="stop-color:#000000"/>
					</linearGradient>
					<path fill-rule="evenodd" clip-rule="evenodd" fill="url(#SVGID_11_)" d="M520,336.2l-0.5,0.5c1.4,5.8,1,11.8-1.3,18.2
						c-0.1,0.3-0.2,0.7-0.3,1c-0.1,0.2-0.2,0.4-0.3,0.7c-0.2,0.6-0.5,1.3-0.8,1.9c-0.1,0.1-0.1,0.2-0.2,0.3
						c-1.4,2.7-2.2,4.7-2.5,5.9c-0.3,1.2-0.4,1.9-0.4,2c-0.6,3.8-1.1,9.9-1.3,18.3c-0.1,2.7-0.2,5.5-0.2,8.6h-44.2l3.1-37
						c-2.5-6.6-5-11.5-7.5-14.6c-2.2-2.7-3.5-4.2-3.9-4.6l1.2-0.3l-1.2,0.1h0c-0.3-0.5-0.4-0.9-0.5-1.3c-0.1-0.9,0.5-1.5,1.7-1.9
						c0-0.1,0-0.1,0-0.1H519C519.4,335.3,519.7,336,520,336.2z"/>
					
						<linearGradient id="SVGID_12_" gradientUnits="userSpaceOnUse" x1="-492.3755" y1="-340.6016" x2="-477.8311" y2="-340.6016" gradientTransform="matrix(-0.9986 -5.265407e-002 5.265407e-002 -0.9986 -5.940348e-005 -3.044233e-004)">
						<stop  offset="0" style="stop-color:#3C3C3C"/>
						<stop  offset="1" style="stop-color:#000000"/>
					</linearGradient>
					<path fill-rule="evenodd" clip-rule="evenodd" fill="url(#SVGID_12_)" d="M468.3,393.7l-11.5-7.9l0.9-11h3.9
						c4.1-1.7,6.4-4.9,7.1-9.6c0.3-2.4,0.2-5.3-0.4-8.5c-0.1-0.5-0.2-1-0.3-1.5c-0.1-0.2-0.1-0.4-0.2-0.7
						c-1.6-5.3-4.2-10.8-7.6-16.8c0-0.1-0.1-0.2-0.1-0.2l0-0.1c0.4,0.4,1.7,1.9,3.9,4.6c2.5,3.1,5,8,7.5,14.6L468.3,393.7z"/>
					<path fill-rule="evenodd" clip-rule="evenodd" fill="#241D1D" d="M430.2,374.3l-0.3,0.1c-0.5,0-1-0.7-1.5-2
						c-2-11.1-2-22.1,0-33.2c0.3-0.9,0.6-1.5,0.9-1.8l0.9,0l0.4,0.3c0.5,0.8,1,2.5,1.4,4.9c0.6,3.6,0.8,7.9,0.8,13.1
						c0,0.7,0,1.5,0,2.2C433.2,362.2,432.2,367.7,430.2,374.3z M429.7,337.3c0.1,0,0.2,0,0.3,0c0.1,0,0.2,0,0.3,0H429.7z"/>
					<path fill-rule="evenodd" clip-rule="evenodd" d="M430.2,374.3c0,0,0,0.1-0.1,0.1v0c0,0-0.1,0-0.1,0L430.2,374.3z"/>
					
						<linearGradient id="SVGID_13_" gradientUnits="userSpaceOnUse" x1="-492.3755" y1="-365.958" x2="-477.8311" y2="-365.958" gradientTransform="matrix(-0.9986 -5.265407e-002 5.265407e-002 -0.9986 -5.940348e-005 -3.044233e-004)">
						<stop  offset="0" style="stop-color:#AE9D8D"/>
						<stop  offset="1" style="stop-color:#827264"/>
					</linearGradient>
					<path fill-rule="evenodd" clip-rule="evenodd" fill="url(#SVGID_13_)" d="M468.3,393.7l-0.1,0.1c0,0.1,0,0.3,0,0.5v0.7l0,0
						c0,0.1,0,0.1,0,0.2c0.1,0.3,0.2,0.5,0.2,0.6h-0.1c-0.1,0-0.1-0.1-0.1-0.2l-0.1-1.6v1.7l0,0.1v0.1l-11.2-9.5v-0.7L468.3,393.7z"
						/>
					
						<linearGradient id="SVGID_14_" gradientUnits="userSpaceOnUse" x1="498.667" y1="392.6953" x2="504.6421" y2="392.6953" gradientTransform="matrix(1 4.184064e-003 0 1 1.369715e-004 -2.097404e-004)">
						<stop  offset="0" style="stop-color:#AE9D8D"/>
						<stop  offset="1" style="stop-color:#827264"/>
					</linearGradient>
					<path fill-rule="evenodd" clip-rule="evenodd" fill="url(#SVGID_14_)" d="M512.5,393.7c0,0.8,0,1.2,0,1.4v0.7v0h0c0,0,0,0,0,0
						c0,0-0.1,0-0.4,0l-43.6,0.1c0-0.1-0.1-0.3-0.2-0.6V395v-0.7c0-0.2,0-0.4,0-0.5l0.1-0.1H512.5z M468.3,395.8h-0.1v-0.2l-0.1,0.2
						h0l0-0.1V394l0.1,1.6C468.2,395.8,468.2,395.8,468.3,395.8z"/>
					
						<linearGradient id="SVGID_15_" gradientUnits="userSpaceOnUse" x1="-468.375" y1="-397.2002" x2="-456.225" y2="-397.2002" gradientTransform="matrix(-1 0 0 -1 0 0)">
						<stop  offset="0" style="stop-color:#3C3C3C"/>
						<stop  offset="1" style="stop-color:#000000"/>
					</linearGradient>
					<path fill-rule="evenodd" clip-rule="evenodd" fill="url(#SVGID_15_)" d="M468,395.9l-0.8,12l-11-10l0.6-11.5L468,395.9z
						 M468.2,395v0.2C468.2,395.2,468.2,395.2,468.2,395L468.2,395z"/>
					
						<linearGradient id="SVGID_16_" gradientUnits="userSpaceOnUse" x1="-298.2529" y1="-572.835" x2="-246.722" y2="-572.835" gradientTransform="matrix(-0.9037 0.4282 -0.4282 -0.9037 1.627803e-004 -2.749562e-004)">
						<stop  offset="0" style="stop-color:#0A0A0A"/>
						<stop  offset="0.5059" style="stop-color:#3C3C3C"/>
						<stop  offset="1" style="stop-color:#000000"/>
					</linearGradient>
					<path fill-rule="evenodd" clip-rule="evenodd" fill="url(#SVGID_16_)" d="M472.8,407.8h-5.5l0-0.1l0,0.2l0.8-12v-0.1h0l0.1-0.2
						v0.2h0.1h0.1l43.6-0.1c0.3-0.1,0.4-0.1,0.4,0c0,0,0,0,0,0c0,0.2,0,0.2,0,0.1l-0.2,11.8l-14.2,0.3H472.8z"/>
					<path fill-rule="evenodd" clip-rule="evenodd" fill="#2A2028" d="M520,378.1l-1.1,11.5l-6.5,4.1c0-3.1,0-5.9,0.2-8.6
						c0.2-8.3,0.6-14.4,1.3-18.3c0-0.1,0.1-0.8,0.4-2c0.3-1.2,1.1-3.2,2.5-5.9c0-0.1,0.1-0.2,0.2-0.3c0.3-0.7,0.6-1.3,0.8-1.9
						c0.1-0.2,0.2-0.5,0.3-0.7c0.1-0.4,0.3-0.7,0.3-1c2.3-6.4,2.7-12.4,1.3-18.2l0.5-0.5c1.3,0.6,2,1.4,2.3,2.4
						c0,0.1,0.1,0.3,0.2,0.6c0.1,0.2,0.2,0.3,0.2,0.4l-0.3-0.2l-0.3,0.1c0.1,0.2,0.1,0.5,0.2,0.8c1.1,4.4,0.4,9.9-2.1,16.3
						c-0.3,0.8-0.7,1.7-1.2,2.6h-0.3c0,0.2,0,0.5,0,0.8c-1.7,6.1-1.6,11.7,0.4,16.6c0.1,0.3,0.3,0.6,0.4,0.9L520,378.1z"/>
					
						<linearGradient id="SVGID_17_" gradientUnits="userSpaceOnUse" x1="323.7437" y1="-579.2939" x2="364.6591" y2="-579.2939" gradientTransform="matrix(-2.738742e-002 0.9996 -0.9996 -2.738742e-002 -1.573823e-004 2.208687e-004)">
						<stop  offset="0" style="stop-color:#282B20"/>
						<stop  offset="9.411765e-002" style="stop-color:#282B20"/>
						<stop  offset="0.1804" style="stop-color:#676D5F"/>
						<stop  offset="0.3137" style="stop-color:#292B21"/>
						<stop  offset="0.5333" style="stop-color:#8D8787"/>
						<stop  offset="0.7059" style="stop-color:#49453A"/>
						<stop  offset="1" style="stop-color:#342A32"/>
					</linearGradient>
					<path fill-rule="evenodd" clip-rule="evenodd" fill="url(#SVGID_17_)" d="M522.5,339.3l60.8,2.4l31.4,1.3l0.3,0l1,0h0.5
						c0.2,0.1,0.3,0.2,0.5,0.3c1.3,0.7,2.3,2.4,3.3,5.1c1.1,3.6,1.6,8.1,1.3,13.4c0,0.4-0.1,0.7-0.1,1.1c-0.1,1.2-0.2,2.3-0.4,3.5
						c-0.5,3.2-1.3,6.1-2.4,8.7c-1.1,2.7-2.4,4.4-3.8,5.2c-0.3,0.1-0.5,0.2-0.8,0.3c0,0-0.1,0-0.2,0l-1.4,0l-29.2-0.7l-63.2-1.6
						l-0.5-0.6c-0.1-0.3-0.3-0.6-0.4-0.9c-2-4.9-2.1-10.5-0.4-16.6c0-0.1,0-0.2,0-0.3l0.3-0.5c0.4-0.9,0.8-1.8,1.2-2.6
						c2.6-6.4,3.3-11.9,2.1-16.3c-0.1-0.3-0.1-0.5-0.2-0.8l0.3-0.1l0.3,0.2C522.7,339.6,522.6,339.5,522.5,339.3z"/>
					
						<linearGradient id="SVGID_18_" gradientUnits="userSpaceOnUse" x1="-518.8877" y1="-399.0747" x2="-512.2127" y2="-399.0747" gradientTransform="matrix(-1 0 0 -1 0 0)">
						<stop  offset="0" style="stop-color:#3C3C3C"/>
						<stop  offset="1" style="stop-color:#000000"/>
					</linearGradient>
					<path fill-rule="evenodd" clip-rule="evenodd" fill="url(#SVGID_18_)" d="M512.5,395.7l6.3-5.2l-1.1,11.9l-5.5,5.2l0.2-11.8
						C512.5,396,512.5,395.9,512.5,395.7L512.5,395.7L512.5,395.7z"/>
					
						<linearGradient id="SVGID_19_" gradientUnits="userSpaceOnUse" x1="-79.1572" y1="643.6914" x2="-74.2567" y2="643.6914" gradientTransform="matrix(0.5118 -0.8591 0.8591 0.5118 -9.417534e-006 -1.515150e-004)">
						<stop  offset="0" style="stop-color:#AE9D8D"/>
						<stop  offset="1" style="stop-color:#827264"/>
					</linearGradient>
					<path fill-rule="evenodd" clip-rule="evenodd" fill="url(#SVGID_19_)" d="M512.5,393.7l6.5-4.1l-0.1,1l-6.3,5.2V395
						C512.5,394.9,512.5,394.4,512.5,393.7z"/>
					
						<linearGradient id="SVGID_20_" gradientUnits="userSpaceOnUse" x1="-535.1875" y1="-414.9512" x2="-502.7934" y2="-414.9512" gradientTransform="matrix(-0.9963 -8.596589e-002 8.596590e-002 -0.9963 2.937913e-004 2.138168e-004)">
						<stop  offset="0" style="stop-color:#111111"/>
						<stop  offset="0.251" style="stop-color:#2D2928"/>
						<stop  offset="0.4941" style="stop-color:#746C6A"/>
						<stop  offset="0.7451" style="stop-color:#484848"/>
						<stop  offset="1" style="stop-color:#000000"/>
					</linearGradient>
					<path fill-rule="evenodd" clip-rule="evenodd" fill="url(#SVGID_20_)" d="M459.8,499.7l13-91.8H498l-6,95.8
						c0,0,0.1,0.1,0.1,0.1c0,0.1,0,0.1,0,0.2c-0.6,4.3-6.4,6-17.5,5c-6.8-0.9-11.7-3.9-14.7-9L459.8,499.7z"/>
					
						<linearGradient id="SVGID_21_" gradientUnits="userSpaceOnUse" x1="-536.5503" y1="-464.7793" x2="-499.1831" y2="-464.7793" gradientTransform="matrix(-0.9962 -8.727238e-002 8.727238e-002 -0.9962 -1.524091e-004 7.848442e-005)">
						<stop  offset="0" style="stop-color:#72685F"/>
						<stop  offset="6.274510e-002" style="stop-color:#6C635B"/>
						<stop  offset="0.1412" style="stop-color:#D0CCC8"/>
						<stop  offset="0.2078" style="stop-color:#544E48"/>
						<stop  offset="0.3059" style="stop-color:#746C69"/>
						<stop  offset="0.502" style="stop-color:#FFFFFF"/>
						<stop  offset="0.6667" style="stop-color:#696664"/>
						<stop  offset="1" style="stop-color:#3F3B38"/>
					</linearGradient>
					<path fill-rule="evenodd" clip-rule="evenodd" fill="url(#SVGID_21_)" d="M459.8,499.7l0,0.4c3,5.1,7.9,8.1,14.7,9
						c11.1,0.9,17-0.8,17.5-5c0-0.1,0-0.1,0-0.2c1.5,1.7,2.2,3.4,1.9,5c-0.2,1.1-0.9,2.3-2.1,3.6c-3.5,3.5-10.4,4.3-20.6,2.6
						c-5.5-1.2-9.8-3.6-12.9-7.2c-0.8-1-1.2-2.1-1.4-3.3c-0.1-2,0.9-3.7,3-5L459.8,499.7z"/>
				</g>
			</g>
			<g>
				<path fill-rule="evenodd" clip-rule="evenodd" fill="#9D8C7D" d="M485.8,395c0-0.1,0-0.3,0-0.4c0.1-0.8,0.5-1.5,1.1-2.1
					c0.7-0.6,1.6-1,2.6-1c1,0,1.9,0.3,2.6,1c0.6,0.6,0.9,1.3,1,2.1c0,0.1,0,0.2,0,0.4c0,0.9-0.4,1.7-1,2.4c-0.7,0.7-1.6,1.1-2.6,1.1
					c-1,0-1.9-0.4-2.6-1.1C486.2,396.7,485.8,395.9,485.8,395z"/>
			</g>
			<g>
				<g>
					
						<radialGradient id="SVGID_22_" cx="-490.2002" cy="-393.2002" r="5.1625" gradientTransform="matrix(-1 0 0 1 0 786.4004)" gradientUnits="userSpaceOnUse">
						<stop  offset="0" style="stop-color:#FFFFFF"/>
						<stop  offset="1" style="stop-color:#030303"/>
					</radialGradient>
					<path fill-rule="evenodd" clip-rule="evenodd" fill="url(#SVGID_22_)" d="M493.2,395.8c-2.3,1.6-4.6,1.6-7-0.2
						c-0.3-2.8,0.8-4.4,3.3-4.7c0,0,0.1,0,0.2,0c1,0,1.8,0.3,2.6,1c0.5,0.5,0.8,1.2,0.9,1.9c0,0.1,0.1,0.2,0.1,0.3
						c0,0.1,0,0.1,0,0.3C493.5,395,493.4,395.4,493.2,395.8z"/>
					<path fill-rule="evenodd" clip-rule="evenodd" fill="#202020" d="M493.2,395.8c-0.2,0.4-0.5,0.7-0.8,1
						c-0.8,0.7-1.6,1.1-2.6,1.1c-1.1,0-2-0.4-2.6-1.1c-0.4-0.3-0.7-0.7-0.9-1.2C488.6,397.4,490.9,397.5,493.2,395.8z"/>
				</g>
			</g>
		</g>
		<g>
			<path fill-rule="evenodd" clip-rule="evenodd" fill="none" d="M27.5,384.8c0,0.1,0.1,0.3,0.2,0.5"/>
			<g>
				<g>
					<path fill-rule="evenodd" clip-rule="evenodd" fill="#B8D8D5" d="M194.6,470.7c2-1.5,4.3-2.7,7.1-3.7c1.8-0.6,3.7-1.1,5.8-1.5
						c5.4-1.1,10.3-1.3,14.7-0.5c2.1,0.5,3.8,1.1,5.1,1.8c1.5,0.8,2.4,1.9,2.9,3c0.9,2.3-0.2,4.7-3.4,7.1c-3.2,2.4-7.5,4.2-12.8,5.3
						c-5.4,1.1-10.3,1.2-14.8,0.4c-4.4-0.8-7.1-2.4-8-4.8C190.3,475.5,191.4,473.2,194.6,470.7z"/>
				</g>
			</g>
			<g>
				
					<radialGradient id="SVGID_23_" cx="211.1001" cy="469.1504" r="31.29" gradientTransform="matrix(0.9875 -0.1577 0.1013 0.634 -44.8661 204.9937)" gradientUnits="userSpaceOnUse">
					<stop  offset="0" style="stop-color:#666260"/>
					<stop  offset="1" style="stop-color:#696664;stop-opacity:0"/>
				</radialGradient>
				<path fill-rule="evenodd" clip-rule="evenodd" fill="url(#SVGID_23_)" d="M193.7,485.5l-1.5-11c2.1-0.9,4.6-1.1,7.4-0.6
					l29.5-4.7l1.4,11c-1.2,3.4-4.3,5.6-9.1,6.5C206.1,489.3,196.9,488.8,193.7,485.5z"/>
			</g>
			<g>
				<path fill-rule="evenodd" clip-rule="evenodd" fill-opacity="0.298" d="M194.3,479.9c-1.2-1.2-1.9-2.4-2.1-3.5
					c-0.3-1.5,0.3-3.1,1.8-4.8c0,0,7.7-0.5,23-1.6c3.5-0.3,6.6-1,9.3-2.3l0-0.2l0-0.2c2.1,1.3,3.1,2.9,3,4.8
					c-0.2,1.1-0.6,2.1-1.4,3.1c-3.1,3.5-7.4,5.8-12.9,6.9C204.7,484,197.8,483.2,194.3,479.9z"/>
			</g>
			<g>
				<g>
					<linearGradient id="SVGID_24_" gradientUnits="userSpaceOnUse" x1="116.3071" y1="341.186" x2="117.627" y2="382.062">
						<stop  offset="0" style="stop-color:#282B20"/>
						<stop  offset="9.411765e-002" style="stop-color:#282B20"/>
						<stop  offset="0.1804" style="stop-color:#676D5F"/>
						<stop  offset="0.3137" style="stop-color:#292B21"/>
						<stop  offset="0.5333" style="stop-color:#8D8787"/>
						<stop  offset="0.7059" style="stop-color:#49453A"/>
						<stop  offset="1" style="stop-color:#342A32"/>
					</linearGradient>
					<path fill-rule="evenodd" clip-rule="evenodd" fill="url(#SVGID_24_)" d="M163.8,341c-0.1,0.1-0.1,0.3-0.2,0.4l0.3-0.2l0.3,0.1
						c-0.1,0.3-0.1,0.5-0.2,0.8c-1.1,4.3-0.4,9.5,2,15.7c2.6,9,3.4,14.8,2.2,17.4c-1,2.2-1.6,3.2-1.8,3.2v-0.1l-93.8,2.4
						c-1-0.1-2-0.9-2.9-2.5c-0.4-0.7-0.8-1.6-1.2-2.7c-1.3-3.5-2.2-7.7-2.5-12.7c-0.3-4.9,0-9.1,0.9-12.6c0.2-0.8,0.4-1.4,0.6-2
						c0.1-0.2,0.1-0.4,0.3-0.5c0-0.1,0-0.1,0-0.2h0.1c0.1-0.3,0.3-0.6,0.4-0.8c0.5-0.8,1.1-1.4,1.7-1.6L163.8,341z"/>
					<linearGradient id="SVGID_25_" gradientUnits="userSpaceOnUse" x1="38.4072" y1="347.228" x2="40.3909" y2="379.4525">
						<stop  offset="0" style="stop-color:#72685F"/>
						<stop  offset="6.274510e-002" style="stop-color:#6C635B"/>
						<stop  offset="0.1412" style="stop-color:#D0CCC8"/>
						<stop  offset="0.2078" style="stop-color:#544E48"/>
						<stop  offset="0.3059" style="stop-color:#746C69"/>
						<stop  offset="0.502" style="stop-color:#FFFFFF"/>
						<stop  offset="0.6667" style="stop-color:#696664"/>
						<stop  offset="1" style="stop-color:#3F3B38"/>
					</linearGradient>
					<path fill-rule="evenodd" clip-rule="evenodd" fill="url(#SVGID_25_)" d="M53.5,347.9l-1.3,4.1c-0.5,1.8-0.9,3.7-1.1,5.5
						c-0.4,3.7-0.2,7.5,0.6,11.5c0.4,2.1,1,4.3,1.8,6.5c0.3,1,0.7,2.1,1.3,3.2L29,380.2l-0.9,0c-0.8-0.4-1.5-1.8-2.2-4.4
						c-0.8-3-1.3-6.6-1.5-11c-0.2-4.2,0-7.9,0.5-10.9c0.5-2.5,1.1-4,1.9-4.4l0.8,0L53.5,347.9z"/>
					<linearGradient id="SVGID_26_" gradientUnits="userSpaceOnUse" x1="59.772" y1="345.7886" x2="60.4015" y2="380.0885">
						<stop  offset="0" style="stop-color:#111111"/>
						<stop  offset="0.251" style="stop-color:#2D2928"/>
						<stop  offset="0.4941" style="stop-color:#746C6A"/>
						<stop  offset="0.7451" style="stop-color:#484848"/>
						<stop  offset="1" style="stop-color:#000000"/>
					</linearGradient>
					<path fill-rule="evenodd" clip-rule="evenodd" fill="url(#SVGID_26_)" d="M67.5,347.3c0,0.1,0,0.1,0,0.2
						c-0.1,0.2-0.2,0.3-0.3,0.5c-0.2,0.5-0.5,1.2-0.6,2c-0.9,3.5-1.2,7.8-0.9,12.6c0.3,5,1.2,9.2,2.5,12.7c0.4,1.1,0.8,2,1.2,2.7
						l-14.7,0.7c-0.5-1.1-1-2.2-1.3-3.2c-0.7-2.2-1.3-4.4-1.8-6.5c-0.8-4-1-7.8-0.6-11.5c0.2-1.8,0.6-3.6,1.1-5.5l1.3-4.1
						L67.5,347.3z"/>
					<linearGradient id="SVGID_27_" gradientUnits="userSpaceOnUse" x1="212.4858" y1="367.5479" x2="227.01" y2="366.782">
						<stop  offset="0" style="stop-color:#3C3C3C"/>
						<stop  offset="1" style="stop-color:#000000"/>
					</linearGradient>
					<path fill-rule="evenodd" clip-rule="evenodd" fill="url(#SVGID_27_)" d="M228.5,376.5l0.8,11l-11.5,7.8v0l-3.1-37
						c1.7-6.7,5.1-13.2,10.2-19.4l1,0.5c-3.5,5.9-6,11.5-7.6,16.8c-0.1,0.2-0.2,0.5-0.2,0.7c-0.1,0.5-0.2,0.9-0.3,1.4
						c-0.6,3.3-0.7,6.1-0.4,8.5c0.6,4.7,3,7.9,7,9.6H228.5z"/>
					<path fill-rule="evenodd" clip-rule="evenodd" fill="#322D27" d="M226,339.4l-1-0.5l1.4,0.1l-0.1,0
						C226.1,339.2,226.1,339.3,226,339.4z"/>
					<linearGradient id="SVGID_28_" gradientUnits="userSpaceOnUse" x1="196.2319" y1="335.7529" x2="197.0821" y2="397.3779">
						<stop  offset="0" style="stop-color:#322421"/>
						<stop  offset="7.843138e-002" style="stop-color:#2D211E"/>
						<stop  offset="0.1608" style="stop-color:#7B8272"/>
						<stop  offset="0.2392" style="stop-color:#494C43"/>
						<stop  offset="0.3373" style="stop-color:#A39DA1"/>
						<stop  offset="0.4471" style="stop-color:#5E5C50"/>
						<stop  offset="1" style="stop-color:#000000"/>
					</linearGradient>
					<path fill-rule="evenodd" clip-rule="evenodd" fill="url(#SVGID_28_)" d="M226.4,339l-1.4-0.1c-5.1,6.3-8.5,12.7-10.2,19.4
						l3.1,37v0h-44.1v0c0-3-0.1-5.9-0.1-8.5c-0.2-8.4-0.6-14.5-1.3-18.3c0-0.1-0.1-0.8-0.4-2c-0.3-1.2-1.1-3.2-2.5-5.9
						c0-0.1-0.1-0.2-0.1-0.3c-0.3-0.7-0.6-1.3-0.8-2c-0.1-0.2-0.2-0.5-0.2-0.7c-0.2-0.3-0.3-0.6-0.4-0.9c-2.3-6.4-2.7-12.5-1.3-18.2
						l-0.5-0.7c1.4-0.7,3.4-1.1,5.9-1.3l52.9-0.7C226.7,336.4,227.2,337.4,226.4,339z"/>
					<linearGradient id="SVGID_29_" gradientUnits="userSpaceOnUse" x1="236.7607" y1="338.7124" x2="236.7607" y2="376.8874">
						<stop  offset="0" style="stop-color:#221A1A"/>
						<stop  offset="9.803922e-002" style="stop-color:#261F1F"/>
						<stop  offset="0.149" style="stop-color:#6B6C66"/>
						<stop  offset="0.2039" style="stop-color:#656560"/>
						<stop  offset="0.3294" style="stop-color:#3A3A37"/>
						<stop  offset="0.5098" style="stop-color:#E6E6E6"/>
						<stop  offset="0.6902" style="stop-color:#73695D"/>
						<stop  offset="0.8471" style="stop-color:#2E2927"/>
						<stop  offset="1" style="stop-color:#292923"/>
					</linearGradient>
					<path fill-rule="evenodd" clip-rule="evenodd" fill="url(#SVGID_29_)" d="M226.3,339l29.8-0.1h0.2l-0.7,0.6
						c-0.5,0.8-1,2.4-1.4,4.8c-0.6,3.6-0.9,8-0.9,13.2c0,0.8,0,1.5,0,2.2c-0.2,4.3,0.7,9.7,2.8,16.3v0.1l-27.5,0.4h-4
						c-4.1-1.7-6.4-4.9-7-9.6c-0.3-2.4-0.2-5.3,0.4-8.5c0.1-0.5,0.2-0.9,0.3-1.4c0-0.2,0.1-0.5,0.2-0.7c1.6-5.3,4.2-10.9,7.6-16.8
						C226.1,339.3,226.1,339.2,226.3,339z"/>
					<path fill-rule="evenodd" clip-rule="evenodd" fill="#2A2028" d="M166.2,378.2c0.2,0,0.8-1,1.8-3.2c1.2-2.6,0.4-8.4-2.2-17.4
						c-2.4-6.1-3-11.4-2-15.7c0.1-0.2,0.1-0.5,0.2-0.8l-0.3-0.1l-0.3,0.2c0.1-0.1,0.1-0.2,0.2-0.4c0.1-0.4,0.1-0.7,0.1-0.7
						c0.3-1,1.1-1.9,2.4-2.5l0.5,0.7c-1.4,5.7-1,11.8,1.3,18.2c0.1,0.3,0.2,0.6,0.4,0.9c0,0.2,0.1,0.5,0.2,0.7
						c0.2,0.6,0.5,1.3,0.8,2c0,0.1,0.1,0.2,0.1,0.3c1.4,2.7,2.2,4.7,2.5,5.9c0.3,1.2,0.4,1.9,0.4,2c0.6,3.8,1,9.9,1.3,18.3
						c0.1,2.6,0.1,5.5,0.1,8.5l-6.5-4l-1-12.8h0V378.2z"/>
					<linearGradient id="SVGID_30_" gradientUnits="userSpaceOnUse" x1="173.7544" y1="399.0801" x2="171.2465" y2="394.8698">
						<stop  offset="0" style="stop-color:#AE9D8D"/>
						<stop  offset="1" style="stop-color:#827264"/>
					</linearGradient>
					<path fill-rule="evenodd" clip-rule="evenodd" fill="url(#SVGID_30_)" d="M173.8,395.3c0,0.8,0,1.3,0,1.4v0.7l-6.4-5.2l-0.1-1
						L173.8,395.3L173.8,395.3z"/>
					<linearGradient id="SVGID_31_" gradientUnits="userSpaceOnUse" x1="187.5874" y1="396.418" x2="181.6124" y2="396.4305">
						<stop  offset="0" style="stop-color:#AE9D8D"/>
						<stop  offset="1" style="stop-color:#827264"/>
					</linearGradient>
					<path fill-rule="evenodd" clip-rule="evenodd" fill="url(#SVGID_31_)" d="M173.8,397.4L173.8,397.4L173.8,397.4l0-0.8
						c0-0.1,0-0.6,0-1.4h44.1l0.1,0.2c0,0.1,0,0.3,0,0.6l0,0.8c-0.2,0.3-0.3,0.5-0.3,0.7l-43.5-0.1
						C174,397.3,173.9,397.3,173.8,397.4C173.8,397.3,173.8,397.4,173.8,397.4z M218.2,397.5h-0.1l-0.1-0.2v0.2H218
						c0,0,0.1-0.1,0.1-0.2l0.1-1.6v1.7L218.2,397.5z"/>
					<linearGradient id="SVGID_32_" gradientUnits="userSpaceOnUse" x1="213.8291" y1="393.0254" x2="228.3533" y2="392.2596">
						<stop  offset="0" style="stop-color:#AE9D8D"/>
						<stop  offset="1" style="stop-color:#827264"/>
					</linearGradient>
					<path fill-rule="evenodd" clip-rule="evenodd" fill="url(#SVGID_32_)" d="M218,397.5h-0.2c0-0.1,0.1-0.3,0.3-0.7l0-0.8
						c0-0.3,0-0.5,0-0.6l-0.1-0.2l11.5-7.8l0,0.6l-11.2,9.5v0l-0.1-0.1v-1.7l-0.1,1.6C218,397.4,218,397.5,218,397.5z"/>
					<path fill-rule="evenodd" clip-rule="evenodd" d="M256,338.9c0.1,0,0.2,0,0.3,0c0.5,0,1,0.7,1.4,2c2,11,2,22.1,0,33.1
						c-0.4,1.4-0.9,2-1.4,2c0,0-0.1,0-0.1,0l-0.1,0c0,0,0,0-0.1,0c-2.1-6.6-3-12.1-2.8-16.3c0-0.7,0-1.4,0-2.2
						c0-5.1,0.3-9.5,0.9-13.2c0.4-2.4,0.9-4,1.4-4.8l0.7-0.6H256z"/>
					<linearGradient id="SVGID_33_" gradientUnits="userSpaceOnUse" x1="171.4814" y1="391.6582" x2="218.0491" y2="413.7238">
						<stop  offset="0" style="stop-color:#0A0A0A"/>
						<stop  offset="0.5059" style="stop-color:#3C3C3C"/>
						<stop  offset="1" style="stop-color:#000000"/>
					</linearGradient>
					<path fill-rule="evenodd" clip-rule="evenodd" fill="url(#SVGID_33_)" d="M218.2,397.5l0.8,12l-0.1-0.2l0,0.1h-5.5h-25.2
						l-14.2-0.2l-0.2-11.8c-0.1,0.1-0.1,0.1-0.1-0.1c0,0,0-0.1,0.1-0.1c0,0,0.1,0,0.4,0.1l43.5,0.1h0.2h0.1v-0.2l0.1,0.2
						L218.2,397.5L218.2,397.5z"/>
					<linearGradient id="SVGID_34_" gradientUnits="userSpaceOnUse" x1="217.875" y1="398.8496" x2="230.025" y2="398.8496">
						<stop  offset="0" style="stop-color:#3C3C3C"/>
						<stop  offset="1" style="stop-color:#000000"/>
					</linearGradient>
					<polygon fill-rule="evenodd" clip-rule="evenodd" fill="url(#SVGID_34_)" points="229.4,388.1 230,399.5 219,409.6 
						218.2,397.5 					"/>
					<linearGradient id="SVGID_35_" gradientUnits="userSpaceOnUse" x1="167.3623" y1="400.7246" x2="174.0373" y2="400.7246">
						<stop  offset="0" style="stop-color:#3C3C3C"/>
						<stop  offset="1" style="stop-color:#000000"/>
					</linearGradient>
					<path fill-rule="evenodd" clip-rule="evenodd" fill="url(#SVGID_35_)" d="M173.8,397.3L173.8,397.3L173.8,397.3
						c0,0.2,0,0.3,0.1,0.2l0.2,11.8l-5.5-5.3l-1.2-11.9L173.8,397.3z"/>
					<linearGradient id="SVGID_36_" gradientUnits="userSpaceOnUse" x1="189.2231" y1="476.8721" x2="226.4224" y2="473.6132">
						<stop  offset="0" style="stop-color:#72685F"/>
						<stop  offset="6.274510e-002" style="stop-color:#6C635B"/>
						<stop  offset="0.1412" style="stop-color:#D0CCC8"/>
						<stop  offset="0.2078" style="stop-color:#544E48"/>
						<stop  offset="0.3059" style="stop-color:#746C69"/>
						<stop  offset="0.502" style="stop-color:#FFFFFF"/>
						<stop  offset="0.6667" style="stop-color:#696664"/>
						<stop  offset="1" style="stop-color:#3F3B38"/>
					</linearGradient>
					<path fill-rule="evenodd" clip-rule="evenodd" fill="url(#SVGID_36_)" d="M194.2,470.8c1.5,2.3,3.9,3.7,7.3,4.3
						c3.8,0.7,8.4,0.4,14-0.9c3-0.7,5.5-1.9,7.5-3.5c1.7-1.4,2.9-2.9,3.5-4.6l0,0.1c2,1.4,3,3,2.8,5c-0.1,1.2-0.6,2.3-1.4,3.3
						c-3.1,3.7-7.4,6.2-12.9,7.3c-10,1.7-16.8,0.8-20.4-2.4c-0.1-0.1-0.2-0.2-0.3-0.3c-1.1-1.2-1.8-2.4-2.1-3.6
						c-0.2-1.2,0.1-2.5,1-3.8c0.2-0.3,0.5-0.7,0.8-1.1L194.2,470.8C194.2,470.7,194.2,470.8,194.2,470.8z"/>
					<linearGradient id="SVGID_37_" gradientUnits="userSpaceOnUse" x1="187.2397" y1="443.3955" x2="219.5139" y2="440.6107">
						<stop  offset="0" style="stop-color:#111111"/>
						<stop  offset="0.251" style="stop-color:#2D2928"/>
						<stop  offset="0.4941" style="stop-color:#746C6A"/>
						<stop  offset="0.7451" style="stop-color:#484848"/>
						<stop  offset="1" style="stop-color:#000000"/>
					</linearGradient>
					<path fill-rule="evenodd" clip-rule="evenodd" fill="url(#SVGID_37_)" d="M213.4,409.5l13.1,56.7c-0.6,1.7-1.8,3.2-3.5,4.6
						c-2,1.6-4.5,2.8-7.5,3.5c-5.6,1.3-10.3,1.6-14,0.9c-3.4-0.6-5.9-2.1-7.3-4.3l-6-61.3H213.4z"/>
				</g>
			</g>
			<g>
				<path fill-rule="evenodd" clip-rule="evenodd" fill="#9D8C7D" d="M196.7,393.2c1,0,1.9,0.3,2.6,1c0.6,0.6,1,1.3,1.2,2.1
					c0,0.1,0,0.2,0,0.4c0,0.9-0.4,1.7-1.2,2.3c-0.7,0.7-1.6,1.1-2.6,1.1c-1,0-1.9-0.4-2.6-1.1c-0.7-0.6-1.1-1.4-1.1-2.3
					c0-0.1,0-0.3,0-0.4c0.1-0.8,0.4-1.5,1.1-2.1C194.8,393.5,195.7,393.2,196.7,393.2z"/>
			</g>
			<g>
				<path fill-rule="evenodd" clip-rule="evenodd" fill="#202020" d="M200,397.3c-0.2,0.4-0.5,0.9-1,1.3c-0.7,0.7-1.6,1-2.6,1
					c-1,0-1.9-0.3-2.6-1c-0.4-0.3-0.6-0.6-0.9-1C195.4,399.1,197.7,399.1,200,397.3z"/>
			</g>
			<g>
				<radialGradient id="SVGID_38_" cx="196.1499" cy="394.8496" r="5.1625" gradientUnits="userSpaceOnUse">
					<stop  offset="0" style="stop-color:#FFFFFF"/>
					<stop  offset="1" style="stop-color:#030303"/>
				</radialGradient>
				<path fill-rule="evenodd" clip-rule="evenodd" fill="url(#SVGID_38_)" d="M196.6,392.7c2.5,0.3,3.6,1.8,3.4,4.6
					c-2.3,1.8-4.6,1.8-7,0.2c-0.2-0.4-0.3-0.9-0.3-1.3c0-0.1,0-0.3,0.1-0.4c0-0.1,0-0.2,0-0.2c0.1-0.8,0.4-1.4,1-1.9
					c0.7-0.7,1.6-1,2.6-1C196.5,392.7,196.6,392.7,196.6,392.7z"/>
			</g>
			
				<radialGradient id="SVGID_39_" cx="-19.1504" cy="-71.7988" r="13.7497" gradientTransform="matrix(-0.1789 -2.1697 0.1445 -1.191283e-002 180.9 340.4994)" gradientUnits="userSpaceOnUse">
				<stop  offset="0" style="stop-color:#000000"/>
				<stop  offset="0.1137" style="stop-color:#000000;stop-opacity:0.8706"/>
				<stop  offset="0.3804" style="stop-color:#000000;stop-opacity:0.4196"/>
				<stop  offset="0.6157" style="stop-color:#000000;stop-opacity:8.627451e-002"/>
				<stop  offset="0.8157" style="stop-color:#000000;stop-opacity:4.705882e-002"/>
				<stop  offset="1" style="stop-color:#000000;stop-opacity:0"/>
			</radialGradient>
			<path fill-rule="evenodd" clip-rule="evenodd" fill="url(#SVGID_39_)" d="M176.9,402.8c0.1,5.5-0.1,8.3-0.6,8.4
				c-0.5,0-1.2-2.7-2-8.1c-0.8-5.5-1.5-12.1-2.2-19.8c-0.6-7.8-1-14.5-1.1-20c-0.1-5.6,0.1-8.4,0.6-8.5c0.5,0,1.2,2.7,2,8.2
				c0.8,5.5,1.6,12.1,2.2,19.9C176.5,390.6,176.8,397.2,176.9,402.8z"/>
		</g>
		<g>
			<g>
				<g>
					
						<linearGradient id="SVGID_40_" gradientUnits="userSpaceOnUse" x1="-359.3672" y1="446.1973" x2="-317.0416" y2="446.1973" gradientTransform="matrix(-5.315932e-003 -1 1.0002 3.973261e-002 -2.368726e-004 5.848706e-005)">
						<stop  offset="0" style="stop-color:#31322C"/>
						<stop  offset="0.4118" style="stop-color:#E9DBDA"/>
						<stop  offset="0.6039" style="stop-color:#CCC0BD"/>
						<stop  offset="0.7608" style="stop-color:#E7D9D8"/>
						<stop  offset="0.8941" style="stop-color:#A39995"/>
						<stop  offset="1" style="stop-color:#7D7471"/>
					</linearGradient>
					<path fill-rule="evenodd" clip-rule="evenodd" fill="url(#SVGID_40_)" d="M441.5,337.5L441.5,337.5c-0.3-0.6,0-1,0.6-1.1h9.6
						c0.7,0,1.2,0.3,1.5,1c0,0.2,0.1,0.3,0.1,0.3c0.1,0.3,0.3,0.6,0.3,0.9c2.9,11.6,2.9,23.5,0,35.8c0,0.1-0.1,0.2-0.1,0.3
						c-0.3,0.6-0.6,0.8-1,0.8h-11c-0.8,0-1.1-0.3-1-1C443.8,364.6,444.1,352.2,441.5,337.5z"/>
					
						<linearGradient id="SVGID_41_" gradientUnits="userSpaceOnUse" x1="339.8198" y1="-418.2241" x2="342.4756" y2="-418.2241" gradientTransform="matrix(6.589422e-002 0.9978 -1.0015 9.818918e-003 4.515052e-004 -1.300741e-004)">
						<stop  offset="0" style="stop-color:#4E5045"/>
						<stop  offset="0.4549" style="stop-color:#97918B"/>
						<stop  offset="1" style="stop-color:#9E9792"/>
					</linearGradient>
					<rect x="441.4" y="337.5" fill-rule="evenodd" clip-rule="evenodd" fill="url(#SVGID_41_)" width="0" height="0"/>
				</g>
			</g>
		</g>
		<g>
			<g>
				<linearGradient id="SVGID_42_" gradientUnits="userSpaceOnUse" x1="331" y1="439.5254" x2="353.7" y2="439.5254">
					<stop  offset="0" style="stop-color:#72685F"/>
					<stop  offset="0.3059" style="stop-color:#363331"/>
					<stop  offset="0.502" style="stop-color:#CFCDCD"/>
					<stop  offset="0.6667" style="stop-color:#696664"/>
					<stop  offset="1" style="stop-color:#3F3B38"/>
				</linearGradient>
				<path fill-rule="evenodd" clip-rule="evenodd" fill="url(#SVGID_42_)" d="M331,449.4L331,449.4c0-0.1,0-0.2,0-0.2v-23.6h22.6
					l0.1,24.3l-0.1,0c0,0.1-0.1,0.1-0.1,0.2c-0.4,0.8-1.4,1.5-3.1,2.1c-2.2,0.8-4.9,1.2-8.1,1.2c-1.5,0-2.8-0.1-4.1-0.3
					c-1.4-0.2-2.8-0.5-4-1C332.1,451.5,331,450.5,331,449.4z"/>
				
					<linearGradient id="SVGID_43_" gradientUnits="userSpaceOnUse" x1="-353.7749" y1="-425.8999" x2="-331.0249" y2="-425.8999" gradientTransform="matrix(-1 0 0 -1 0 0)">
					<stop  offset="0" style="stop-color:#72685F"/>
					<stop  offset="0.3059" style="stop-color:#363331"/>
					<stop  offset="0.502" style="stop-color:#CFCDCD"/>
					<stop  offset="0.6667" style="stop-color:#696664"/>
					<stop  offset="1" style="stop-color:#3F3B38"/>
				</linearGradient>
				<path fill-rule="evenodd" clip-rule="evenodd" fill="url(#SVGID_43_)" d="M350.3,428.8c-2.2,0.8-4.9,1.2-8,1.2
					c-3.1,0-5.8-0.4-8-1.2c-2.2-0.8-3.3-1.8-3.3-2.9c0-1.1,1.1-2.1,3.3-2.9c2.2-0.8,4.9-1.2,8-1.2c3.1,0,5.8,0.4,8,1.2
					c2.2,0.8,3.3,1.8,3.3,2.9C353.6,427,352.5,428,350.3,428.8z"/>
				<path fill-rule="evenodd" clip-rule="evenodd" fill="#191717" d="M344.9,426.4c-0.7,0.3-1.5,0.4-2.5,0.4c-1,0-1.8-0.1-2.5-0.4
					c-0.7-0.3-1-0.6-1-1c0-0.4,0.3-0.7,1-1c0.7-0.3,1.6-0.4,2.5-0.4c1,0,1.8,0.1,2.5,0.4c0.7,0.3,1,0.6,1,1
					C345.9,425.8,345.6,426.1,344.9,426.4z"/>
				<g>
					
						<linearGradient id="SVGID_44_" gradientUnits="userSpaceOnUse" x1="337.6504" y1="422.7754" x2="346.9502" y2="422.7754" gradientTransform="matrix(0.6847 0 0 0.6847 108.0002 134.0999)">
						<stop  offset="0" style="stop-color:#72685F"/>
						<stop  offset="0.3059" style="stop-color:#363331"/>
						<stop  offset="0.502" style="stop-color:#CFCDCD"/>
						<stop  offset="0.6667" style="stop-color:#696664"/>
						<stop  offset="1" style="stop-color:#3F3B38"/>
					</linearGradient>
					<path fill-rule="evenodd" clip-rule="evenodd" fill="url(#SVGID_44_)" d="M345.5,420.8l0,4.6l0,0c0,0,0,0,0,0.1
						c-0.1,0.2-0.4,0.4-0.9,0.6c-0.6,0.2-1.4,0.3-2.3,0.3c-0.4,0-0.8,0-1.1-0.1c-0.4-0.1-0.8-0.2-1.1-0.3c-0.6-0.2-0.9-0.5-0.9-0.8
						v-4.4H345.5z"/>
					
						<linearGradient id="SVGID_45_" gradientUnits="userSpaceOnUse" x1="337.6504" y1="410.5" x2="346.9502" y2="410.5" gradientTransform="matrix(0.6847 0 0 0.6847 108.0002 134.0999)">
						<stop  offset="0" style="stop-color:#72685F"/>
						<stop  offset="0.3059" style="stop-color:#363331"/>
						<stop  offset="0.502" style="stop-color:#CFCDCD"/>
						<stop  offset="0.6667" style="stop-color:#696664"/>
						<stop  offset="1" style="stop-color:#3F3B38"/>
					</linearGradient>
					<polygon fill-rule="evenodd" clip-rule="evenodd" fill="url(#SVGID_45_)" points="345.5,420.8 339.2,420.8 339.2,409.6 
						345.5,409.6 345.6,420.8 					"/>
				</g>
				
					<radialGradient id="SVGID_46_" cx="341.7002" cy="451.7998" r="17.675" gradientTransform="matrix(1 0 0 0.669 0 149.5349)" gradientUnits="userSpaceOnUse">
					<stop  offset="0" style="stop-color:#72685F;stop-opacity:0.7255"/>
					<stop  offset="1" style="stop-color:#3F3B38;stop-opacity:0"/>
				</radialGradient>
				<path fill-rule="evenodd" clip-rule="evenodd" fill="url(#SVGID_46_)" d="M353.6,451l0,11l-0.1,0c0,0.1-0.1,0.1-0.1,0.2
					c-0.4,0.8-1.4,1.5-3.1,2.1c-2.2,0.8-4.9,1.2-8.1,1.2c-1.5,0-2.8-0.1-4.1-0.3c-1.4-0.2-2.8-0.5-4-1c-2.2-0.8-3.3-1.8-3.3-2.8v0
					c0-0.1,0-0.1,0-0.2v-10.8c0,1.1,1.1,2,3.3,2.8c1.2,0.4,2.5,0.8,4,1c1.3,0.2,2.6,0.3,4.1,0.3c3.2,0,5.9-0.4,8.1-1.2
					c1.7-0.6,2.7-1.3,3.1-2.1C353.5,451.2,353.6,451.1,353.6,451L353.6,451z"/>
			</g>
		</g>
		<g>
			<g>
				<g>
					<linearGradient id="SVGID_47_" gradientUnits="userSpaceOnUse" x1="394.8252" y1="413.7256" x2="385.2752" y2="413.7256">
						<stop  offset="0" style="stop-color:#716857"/>
						<stop  offset="0.4" style="stop-color:#C1B6A4"/>
						<stop  offset="1" style="stop-color:#9A9FA2"/>
					</linearGradient>
					<path fill-rule="evenodd" clip-rule="evenodd" fill="url(#SVGID_47_)" d="M385.3,412.2h9.6c0,0.8,0,1.4,0,1.6
						c0,0.4-0.5,0.8-1.4,1c-0.9,0.3-2.1,0.5-3.4,0.5c-1.3,0-2.5-0.2-3.4-0.5c-0.9-0.3-1.4-0.6-1.4-1
						C385.3,413.5,385.3,413,385.3,412.2z"/>
					<linearGradient id="SVGID_48_" gradientUnits="userSpaceOnUse" x1="394.8252" y1="409.5" x2="385.2752" y2="409.5">
						<stop  offset="0" style="stop-color:#716857"/>
						<stop  offset="0.4" style="stop-color:#C1B6A4"/>
						<stop  offset="1" style="stop-color:#9A9FA2"/>
					</linearGradient>
					<path fill-rule="evenodd" clip-rule="evenodd" fill="url(#SVGID_48_)" d="M394.8,412.2h-9.6c0-0.8,0-1.8,0-2.9
						c0-0.8,0-1.6,0-2.5h9.6c0,0.8,0,1.6,0,2.5C394.8,410.4,394.8,411.3,394.8,412.2z"/>
				</g>
				<path fill-rule="evenodd" clip-rule="evenodd" fill="#6F6555" d="M393.5,407.9c-0.9,0.3-2.1,0.5-3.4,0.5c-1.3,0-2.4-0.2-3.4-0.5
					c-0.9-0.3-1.4-0.6-1.4-1c0-0.4,0.5-0.8,1.4-1.1c0.9-0.3,2.1-0.4,3.4-0.4c1.3,0,2.4,0.1,3.4,0.4c0.9,0.3,1.4,0.7,1.4,1.1
					C394.9,407.3,394.4,407.6,393.5,407.9z"/>
				<g>
					<linearGradient id="SVGID_49_" gradientUnits="userSpaceOnUse" x1="392.5879" y1="406.3994" x2="387.2129" y2="406.3994">
						<stop  offset="0" style="stop-color:#716857"/>
						<stop  offset="0.3137" style="stop-color:#C1B6A4"/>
						<stop  offset="0.5059" style="stop-color:#FFFFFA"/>
						<stop  offset="0.698" style="stop-color:#B3AEA4"/>
						<stop  offset="1" style="stop-color:#9A9FA2"/>
					</linearGradient>
					<path fill-rule="evenodd" clip-rule="evenodd" fill="url(#SVGID_49_)" d="M387.2,405.5h5.4c0,0.5,0,0.8,0,0.9
						c0,0.3-0.3,0.5-0.8,0.6c-0.5,0.2-1.2,0.3-1.9,0.3s-1.4-0.1-1.9-0.3c-0.5-0.1-0.8-0.3-0.8-0.6
						C387.2,406.3,387.2,406,387.2,405.5z"/>
					<linearGradient id="SVGID_50_" gradientUnits="userSpaceOnUse" x1="392.5879" y1="402.7002" x2="387.2129" y2="402.7002">
						<stop  offset="0" style="stop-color:#716857"/>
						<stop  offset="0.3137" style="stop-color:#C1B6A4"/>
						<stop  offset="0.5059" style="stop-color:#FFFFFA"/>
						<stop  offset="0.698" style="stop-color:#B3AEA4"/>
						<stop  offset="1" style="stop-color:#9A9FA2"/>
					</linearGradient>
					<path fill-rule="evenodd" clip-rule="evenodd" fill="url(#SVGID_50_)" d="M392.6,405.5h-5.4c0-0.5,0-1,0-1.5v-0.2
						c0-1.3,0-2.6,0-3.9h5.4c0,1.3,0,2.6,0,3.9v0.2C392.6,404.5,392.6,405,392.6,405.5z"/>
				</g>
			</g>
			<g>
				<g>
					<linearGradient id="SVGID_51_" gradientUnits="userSpaceOnUse" x1="305.4248" y1="413.7256" x2="295.8748" y2="413.7256">
						<stop  offset="0" style="stop-color:#716857"/>
						<stop  offset="0.4" style="stop-color:#C1B6A4"/>
						<stop  offset="1" style="stop-color:#9A9FA2"/>
					</linearGradient>
					<path fill-rule="evenodd" clip-rule="evenodd" fill="url(#SVGID_51_)" d="M295.9,412.2h9.6c0,0.8-0.1,1.4-0.1,1.6
						c0,0.4-0.5,0.8-1.4,1c-0.9,0.3-2,0.5-3.4,0.5c-1.3,0-2.5-0.2-3.4-0.5c-0.9-0.3-1.4-0.6-1.4-1
						C295.9,413.5,295.9,413,295.9,412.2z"/>
					<linearGradient id="SVGID_52_" gradientUnits="userSpaceOnUse" x1="305.4248" y1="409.5" x2="295.8748" y2="409.5">
						<stop  offset="0" style="stop-color:#716857"/>
						<stop  offset="0.4" style="stop-color:#C1B6A4"/>
						<stop  offset="1" style="stop-color:#9A9FA2"/>
					</linearGradient>
					<path fill-rule="evenodd" clip-rule="evenodd" fill="url(#SVGID_52_)" d="M305.5,412.2h-9.6c0-0.8,0-1.8,0-2.9
						c0-0.8,0-1.6,0-2.5h9.6c0,0.8,0,1.6,0,2.5C305.5,410.4,305.5,411.3,305.5,412.2z"/>
				</g>
				<path fill-rule="evenodd" clip-rule="evenodd" fill="#6F6555" d="M304.1,407.9c-0.9,0.3-2.1,0.5-3.4,0.5c-1.3,0-2.4-0.2-3.4-0.5
					c-0.9-0.3-1.4-0.6-1.4-1c0-0.4,0.5-0.8,1.4-1.1c0.9-0.3,2.1-0.4,3.4-0.4c1.3,0,2.4,0.1,3.4,0.4c0.9,0.3,1.4,0.7,1.4,1.1
					C305.5,407.3,305,407.6,304.1,407.9z"/>
				<g>
					<linearGradient id="SVGID_53_" gradientUnits="userSpaceOnUse" x1="303.1875" y1="406.3994" x2="297.8125" y2="406.3994">
						<stop  offset="0" style="stop-color:#716857"/>
						<stop  offset="0.3137" style="stop-color:#C1B6A4"/>
						<stop  offset="0.5059" style="stop-color:#FFFFFA"/>
						<stop  offset="0.698" style="stop-color:#B3AEA4"/>
						<stop  offset="1" style="stop-color:#9A9FA2"/>
					</linearGradient>
					<path fill-rule="evenodd" clip-rule="evenodd" fill="url(#SVGID_53_)" d="M297.8,405.5h5.4c0,0.5,0,0.8,0,0.9
						c0,0.3-0.3,0.5-0.8,0.6c-0.5,0.2-1.2,0.3-1.9,0.3s-1.4-0.1-1.9-0.3c-0.5-0.1-0.8-0.3-0.8-0.6
						C297.8,406.3,297.8,406,297.8,405.5z"/>
					<linearGradient id="SVGID_54_" gradientUnits="userSpaceOnUse" x1="303.1875" y1="402.7002" x2="297.8125" y2="402.7002">
						<stop  offset="0" style="stop-color:#716857"/>
						<stop  offset="0.3137" style="stop-color:#C1B6A4"/>
						<stop  offset="0.5059" style="stop-color:#FFFFFA"/>
						<stop  offset="0.698" style="stop-color:#B3AEA4"/>
						<stop  offset="1" style="stop-color:#9A9FA2"/>
					</linearGradient>
					<path fill-rule="evenodd" clip-rule="evenodd" fill="url(#SVGID_54_)" d="M303.2,405.5h-5.4c0-0.5,0-1,0-1.5v-0.2
						c0-1.3,0-2.6,0-3.9h5.4c0,1.3,0,2.6,0,3.9v0.2C303.2,404.5,303.2,405,303.2,405.5z"/>
				</g>
			</g>
			<path fill-rule="evenodd" clip-rule="evenodd" fill="#2A2726" d="M287.8,392.4v-9h113.8v8.5c0,0.2,0,0.4,0,0.5
				c0,5.9-5.5,10.9-16.6,15c-11.1,4.2-24.5,6.3-40.2,6.3s-29.1-2.1-40.3-6.3C293.4,403.4,287.8,398.3,287.8,392.4z"/>
			
				<linearGradient id="SVGID_55_" gradientUnits="userSpaceOnUse" x1="355.9004" y1="245.3999" x2="355.9004" y2="288.3999" gradientTransform="matrix(1.008 0 0 1.0588 -14.05 94.0005)">
				<stop  offset="0" style="stop-color:#111111"/>
				<stop  offset="1" style="stop-color:#746C6A"/>
			</linearGradient>
			<path fill-rule="evenodd" clip-rule="evenodd" fill="url(#SVGID_55_)" d="M344.7,405.9c-15.7,0-29.1-2.1-40.3-6.2
				c-11.1-4.1-16.7-9.1-16.7-15s5.6-10.9,16.7-15.1c11.1-4.1,24.5-6.2,40.3-6.2c15.7,0,29.1,2.1,40.3,6.2
				c11.1,4.2,16.7,9.2,16.7,15.1s-5.6,10.9-16.7,15C373.8,403.9,360.4,405.9,344.7,405.9z"/>
			<path fill-rule="evenodd" clip-rule="evenodd" fill="#181716" d="M287.8,380.4v-9h113.8v8.5c0,0.2,0,0.4,0,0.5
				c0,5.9-5.5,10.9-16.6,15c-11.1,4.2-24.5,6.3-40.2,6.3s-29.1-2.1-40.3-6.3C293.4,391.4,287.8,386.3,287.8,380.4z"/>
			<linearGradient id="SVGID_56_" gradientUnits="userSpaceOnUse" x1="307.375" y1="393.9746" x2="313.125" y2="393.9746">
				<stop  offset="0" style="stop-color:#716857"/>
				<stop  offset="0.3137" style="stop-color:#C1B6A4"/>
				<stop  offset="0.5059" style="stop-color:#FFFFFA"/>
				<stop  offset="0.698" style="stop-color:#B3AEA4"/>
				<stop  offset="1" style="stop-color:#9A9FA2"/>
			</linearGradient>
			<path fill-rule="evenodd" clip-rule="evenodd" fill="url(#SVGID_56_)" d="M308.2,399.1c-0.6-0.2-0.9-0.4-0.9-0.8
				c0-0.1,0-0.1,0-0.1l0-9.7h5.7l0,9.7c0,0,0,0.1,0,0.1c0,0.3-0.3,0.6-0.8,0.8c-0.6,0.2-1.3,0.4-2,0.4S308.8,399.3,308.2,399.1z"/>
			<linearGradient id="SVGID_57_" gradientUnits="userSpaceOnUse" x1="376.5752" y1="393.9746" x2="382.3252" y2="393.9746">
				<stop  offset="0" style="stop-color:#716857"/>
				<stop  offset="0.3137" style="stop-color:#C1B6A4"/>
				<stop  offset="0.5059" style="stop-color:#FFFFFA"/>
				<stop  offset="0.698" style="stop-color:#B3AEA4"/>
				<stop  offset="1" style="stop-color:#9A9FA2"/>
			</linearGradient>
			<path fill-rule="evenodd" clip-rule="evenodd" fill="url(#SVGID_57_)" d="M379.5,399.5c-0.8,0-1.5-0.1-2-0.4
				c-0.6-0.2-0.9-0.4-0.9-0.8c0-0.1,0-0.1,0-0.1l0-9.7h5.7l0,9.7c0,0,0,0.1,0,0.1c0,0.3-0.3,0.6-0.8,0.8
				C380.9,399.3,380.3,399.5,379.5,399.5z"/>
			<path fill-rule="evenodd" clip-rule="evenodd" fill="#2A2726" d="M287.8,378v-9h113.8v8.5c0,0.2,0,0.4,0,0.5
				c0,5.9-5.5,10.9-16.6,15c-11.1,4.2-24.5,6.3-40.2,6.3s-29.1-2.1-40.3-6.3C293.4,389,287.8,383.9,287.8,378z"/>
			
				<linearGradient id="SVGID_58_" gradientUnits="userSpaceOnUse" x1="355.9004" y1="245.3999" x2="355.9004" y2="288.3999" gradientTransform="matrix(1.008 0 0 1.0588 -14.05 79.3999)">
				<stop  offset="0" style="stop-color:#111111"/>
				<stop  offset="1" style="stop-color:#746C6A"/>
			</linearGradient>
			<path fill-rule="evenodd" clip-rule="evenodd" fill="url(#SVGID_58_)" d="M344.7,391.3c-15.7,0-29.1-2.1-40.3-6.2
				c-11.1-4.1-16.7-9.1-16.7-15s5.6-10.9,16.7-15.1c11.1-4.1,24.5-6.2,40.3-6.2c15.7,0,29.1,2.1,40.3,6.2
				c11.1,4.2,16.7,9.2,16.7,15.1s-5.6,10.9-16.7,15C373.8,389.3,360.4,391.3,344.7,391.3z"/>
			<g>
				
					<linearGradient id="SVGID_59_" gradientUnits="userSpaceOnUse" x1="173.9131" y1="455.541" x2="268.5316" y2="455.541" gradientTransform="matrix(0.9559 -0.2938 0.2938 0.9559 2.698302e-004 -3.250241e-004)">
					<stop  offset="0" style="stop-color:#FFFFFF;stop-opacity:0.4824"/>
					<stop  offset="1" style="stop-color:#FFFFFF;stop-opacity:0"/>
				</linearGradient>
				<path fill-rule="evenodd" clip-rule="evenodd" fill="url(#SVGID_59_)" d="M345.1,350.8c-7.8,0-15,0.5-21.6,1.5
					c-6.3,1-12.1,2.4-17.4,4.3c-10.8,3.9-16.2,8.5-16.2,13.8c0,5.4,5.4,10,16.2,14c10.8,3.8,23.8,5.8,39,5.8c15.3,0,28.3-2,39.1-5.8
					c10.7-3.9,16.1-8.5,16.1-14c0-5.4-5.4-10-16.1-13.8c-6.3-2.3-13.4-3.9-21.2-4.8C357.5,351.2,351.5,350.8,345.1,350.8z
					 M363,351.6c7.8,0.9,14.9,2.5,21.2,4.8c10.8,3.9,16.2,8.6,16.2,14.1c0,5.5-5.4,10.3-16.2,14.2c-10.8,3.9-23.8,5.8-39.1,5.8
					s-28.4-1.9-39.1-5.8c-10.8-3.9-16.3-8.6-16.3-14.2c0-5.5,5.4-10.2,16.3-14.1c5.3-1.9,11.1-3.4,17.4-4.4c6.7-1,13.9-1.5,21.7-1.5
					C351.5,350.6,357.5,350.9,363,351.6z M348,370c-5.1,0-9.5-0.6-13.3-1.8c-1.9-0.7-3.3-1.4-4.2-2.2c-0.9-0.7-1.3-1.5-1.3-2.4
					c0-0.3,0-0.5,0.1-0.7v-0.1c0.1-0.3,0.4-0.7,0.6-1.1c0.6-0.7,1.6-1.4,3.1-2c0.5-0.2,1.1-0.5,1.6-0.6c0.9-0.3,1.9-0.6,2.9-0.8
					c3-0.7,6.5-1.1,10.4-1.1c3.5,0,6.6,0.3,9.3,0.9c1.5,0.2,2.8,0.5,4,1c1.4,0.5,2.6,1,3.4,1.5c1.2,0.7,1.9,1.6,2,2.5
					c0,0.1,0,0.3,0,0.5c0.1,0.9-0.4,1.8-1.5,2.6c-0.9,0.7-2.3,1.4-4,2C357.7,369.4,353.2,370,348,370z M361.2,368
					c1.7-0.5,3-1.2,4-1.9c0.9-0.8,1.4-1.6,1.4-2.4c0-0.1,0-0.3,0-0.4h0c-0.1-0.9-0.8-1.7-2-2.4c-0.8-0.5-1.9-1-3.3-1.4
					c-1.2-0.4-2.5-0.8-4-1c-2.7-0.5-5.7-0.8-9.2-0.8c-3.9,0-7.4,0.3-10.4,1c-0.9,0.2-1.8,0.5-2.7,0.8c-0.6,0.2-1.1,0.4-1.6,0.6
					c-1.4,0.6-2.5,1.3-3,2c-0.3,0.3-0.5,0.7-0.7,1c0,0.1-0.1,0.3-0.1,0.6c0,0.8,0.4,1.5,1.2,2.2c0.9,0.8,2.3,1.5,4.3,2.1
					c3.7,1.2,8,1.8,13.1,1.8C353.2,369.8,357.6,369.2,361.2,368z M347.8,356.7c-5.8,0-11,0.5-15.4,1.5c-1.4,0.3-2.7,0.7-4,1.1
					c-2.6,0.9-4.6,1.8-5.9,2.8c-0.4,0.4-0.8,0.7-1.1,1c-0.4,0.5-0.7,1-0.9,1.5c-0.1,0.4-0.2,0.7-0.2,1c0,1.2,0.6,2.3,1.8,3.3
					c1.3,1.1,3.4,2.1,6.3,3.1c5.3,1.8,11.8,2.7,19.4,2.7c7.6,0,14-0.9,19.3-2.7c0.9-0.3,1.7-0.6,2.5-0.9c3.7-1.6,5.5-3.4,5.5-5.5
					c0-0.2,0-0.4-0.1-0.6c-0.2-1.3-1.2-2.5-2.9-3.5c-1.2-0.8-2.9-1.5-5-2.2c-1.8-0.6-3.7-1.1-5.8-1.5
					C357.3,357,352.8,356.7,347.8,356.7z M361.4,357.6c2.1,0.4,4,0.9,5.8,1.5c2.1,0.7,3.8,1.5,5,2.3c1.8,1.1,2.8,2.3,3,3.7
					c0.1,0.2,0.1,0.4,0.1,0.6c0,2.2-1.9,4.1-5.7,5.8c-0.7,0.3-1.5,0.6-2.5,0.9c-5.3,1.7-11.8,2.6-19.5,2.6c-7.6,0-14.1-0.9-19.5-2.6
					c-2.8-1-4.9-2-6.3-3.1c-1.2-1.1-1.8-2.2-1.8-3.5c0-0.3,0-0.7,0.1-1.1v0.1c0.2-0.6,0.5-1.1,1-1.6c0.3-0.4,0.7-0.7,1.1-1.1
					c1.4-1,3.3-2,5.9-2.9c1.3-0.5,2.7-0.8,4.1-1.1c4.5-1.1,9.6-1.6,15.5-1.6C352.8,356.4,357.3,356.8,361.4,357.6z M393.3,369
					c0-4.4-4.6-8.3-13.8-11.5c-0.6-0.2-1.3-0.4-1.9-0.6c-8.9-2.8-19.4-4.2-31.6-4.2c-13,0-24.2,1.6-33.5,4.8
					c-1.5,0.6-2.9,1.1-4.3,1.7c-6.3,2.8-9.5,6.1-9.6,9.8c0.1,0.4,0.1,0.7,0.1,1.1c0.7,4,5.3,7.5,13.8,10.5
					c9.3,3.2,20.4,4.8,33.5,4.8c13.1,0,24.3-1.6,33.5-4.8c7.8-2.7,12.3-5.9,13.5-9.6C393.3,370.3,393.3,369.7,393.3,369z M393.3,371
					c-1.1,3.8-5.6,7-13.6,9.8c-9.2,3.2-20.4,4.8-33.6,4.8c-13.1,0-24.3-1.6-33.6-4.8c-8.5-3-13.1-6.5-13.8-10.6
					c-0.1-0.4-0.2-0.8-0.2-1.2c0-3.8,3.3-7.2,9.8-10c1.3-0.6,2.7-1.1,4.3-1.7c9.3-3.3,20.5-4.9,33.6-4.8c12.3,0,22.8,1.4,31.7,4.3h0
					c0.7,0.1,1.3,0.3,2,0.6c9.3,3.2,13.9,7.1,13.9,11.7C393.6,369.7,393.5,370.3,393.3,371z M381.8,362.7c-1.8-1.5-4.6-2.9-8.4-4.2
					c-7.3-2.5-16.1-3.8-26.4-3.8c-10.3,0-19.1,1.3-26.5,3.8c-6.2,2-9.8,4.4-10.6,7.2c-0.1,0.5-0.2,1-0.3,1.4v0.1
					c0,3.4,3.7,6.3,10.9,8.7c7.4,2.4,16.2,3.6,26.5,3.6c10.3,0,19.1-1.2,26.4-3.6c7.2-2.4,10.9-5.3,10.9-8.8c0-0.3,0-0.6-0.1-0.8
					C383.9,365,383.1,363.8,381.8,362.7z M384.4,367.1c0.1,3.5-3.6,6.5-11,9c-7.3,2.4-16.1,3.6-26.5,3.6s-19.2-1.2-26.6-3.6
					c-7.3-2.5-11-5.4-11-8.9v-0.1c0-0.5,0.1-1,0.2-1.5v0.1c0.9-2.9,4.5-5.4,10.8-7.5c7.4-2.5,16.2-3.7,26.6-3.7
					c10.4,0,19.2,1.2,26.5,3.7c3.9,1.3,6.7,2.7,8.5,4.3c1.4,1.2,2.2,2.5,2.4,3.8C384.5,366.5,384.5,366.8,384.4,367.1z"/>
			</g>
			<g>
				
					<linearGradient id="SVGID_60_" gradientUnits="userSpaceOnUse" x1="-400.0498" y1="-369.7241" x2="-289.2998" y2="-369.7241" gradientTransform="matrix(-1 0 0 -1 0 0)">
					<stop  offset="0" style="stop-color:#000000"/>
					<stop  offset="1" style="stop-color:#272525"/>
				</linearGradient>
				<path fill-rule="evenodd" clip-rule="evenodd" fill="url(#SVGID_60_)" d="M356.9,357.6c-2.7-0.5-5.8-0.8-9.2-0.8
					c-4,0-7.5,0.4-10.5,1.1c-0.9,0.2-1.9,0.4-2.8,0.7c-0.6,0.2-1.1,0.5-1.6,0.7c-1.4,0.6-2.5,1.2-3.1,1.9c-0.3,0.3-0.5,0.7-0.5,1
					c0,0.2-0.1,0.4-0.1,0.6c0,0.8,0.4,1.5,1.2,2.2c0.9,0.8,2.3,1.5,4.2,2.2c3.7,1.2,8.1,1.8,13.3,1.8c5.1,0,9.5-0.6,13.1-1.8
					c1.8-0.6,3.1-1.2,3.9-1.9c1-0.8,1.5-1.6,1.5-2.5c0-0.1,0-0.3,0-0.3h0c-0.1-0.9-0.8-1.7-2-2.4c-0.8-0.5-1.9-1-3.4-1.5
					C359.6,358.2,358.3,357.8,356.9,357.6z M361,358.3c1.4,0.5,2.5,1,3.3,1.6c1.3,0.7,2,1.5,2,2.5c0.1,0.1,0.1,0.2,0.1,0.4
					c0,0.9-0.5,1.8-1.5,2.7c-0.9,0.7-2.3,1.3-4,1.9c-3.7,1.2-8.1,1.8-13.3,1.8c-5.2,0-9.6-0.6-13.3-1.8c-1.9-0.7-3.3-1.4-4.3-2.2
					c-0.8-0.7-1.3-1.5-1.3-2.4c0-0.2,0-0.4,0.1-0.6v-0.1c0.2-0.3,0.4-0.7,0.6-1c0.6-0.7,1.6-1.4,3.1-2c0.5-0.2,1-0.5,1.6-0.7
					c0.9-0.3,1.8-0.5,2.8-0.8c3-0.7,6.5-1.1,10.5-1c3.4,0,6.5,0.3,9.3,0.9C358.4,357.6,359.8,358,361,358.3z M362.7,350.8
					c7.9,0.9,14.9,2.5,21.2,4.8c10.8,3.9,16.2,8.6,16.2,14.1c0,5.5-5.4,10.3-16.2,14.1c-10.8,3.9-23.8,5.8-39.1,5.8
					c-15.3,0-28.3-1.9-39.1-5.8c-10.9-3.9-16.3-8.6-16.3-14.1c0-5.5,5.4-10.2,16.3-14.1c5.3-1.9,11.1-3.3,17.4-4.3
					c6.7-1,13.9-1.5,21.7-1.5C351.1,349.8,357.1,350.1,362.7,350.8z M344.7,350c-7.8,0-15,0.5-21.7,1.5c-6.3,1-12.1,2.4-17.4,4.3
					c-10.7,3.9-16.1,8.5-16.1,13.9c0,5.4,5.4,10,16.1,14c10.8,3.8,23.8,5.8,39.1,5.8c15.3,0,28.3-2,39-5.8
					c10.7-3.9,16.1-8.6,16.1-14c0-5.4-5.4-10-16.1-13.9c-6.3-2.3-13.3-3.9-21.2-4.8C357.1,350.3,351.1,350,344.7,350z M361,356.8
					c2.1,0.4,4,0.9,5.8,1.5c2.1,0.7,3.7,1.5,5,2.3c1.8,1.1,2.8,2.3,3,3.7c0.1,0.2,0.1,0.4,0.1,0.6c0,2.2-1.9,4.1-5.8,5.8
					c-0.7,0.3-1.5,0.6-2.4,0.9c-5.4,1.7-11.9,2.6-19.5,2.6c-7.6,0-14.1-0.9-19.5-2.6c-2.8-1-4.9-2-6.3-3.2c-1.2-1.1-1.8-2.2-1.8-3.5
					c0-0.3,0.1-0.7,0.2-1v0c0.2-0.6,0.5-1.1,0.9-1.5c0.3-0.4,0.7-0.8,1.2-1.1c1.4-1,3.3-2,5.9-2.9c1.3-0.5,2.6-0.8,4.1-1.1
					c4.5-1.1,9.6-1.6,15.4-1.6C352.4,355.6,356.9,356,361,356.8z M347.4,355.8c-5.8,0-10.9,0.5-15.4,1.6c-1.4,0.3-2.7,0.7-4,1.1
					c-2.6,0.9-4.6,1.8-5.9,2.8c-0.4,0.4-0.8,0.7-1.1,1.1c-0.4,0.4-0.7,0.9-0.9,1.5c-0.1,0.4-0.1,0.7-0.1,0.9c0,1.2,0.6,2.3,1.8,3.3
					c1.4,1.1,3.4,2.1,6.3,3.1c5.4,1.7,11.9,2.6,19.4,2.7c7.6,0,14.1-0.9,19.4-2.7c0.9-0.3,1.8-0.6,2.5-1c3.7-1.6,5.5-3.4,5.5-5.5
					c0-0.2,0-0.3,0-0.5c-0.3-1.3-1.3-2.5-3-3.5c-1.2-0.8-2.9-1.5-5-2.2c-1.8-0.6-3.7-1.1-5.8-1.5
					C356.9,356.3,352.4,355.8,347.4,355.8z M393,368.2c0-4.4-4.6-8.3-13.8-11.5c-0.7-0.2-1.3-0.4-1.9-0.7
					c-8.9-2.8-19.4-4.1-31.6-4.1c-13,0-24.2,1.6-33.5,4.8c-1.5,0.6-3,1.1-4.3,1.7c-6.4,2.8-9.5,6.1-9.5,9.8c0,0.4,0,0.8,0,1.1
					c0.8,4,5.4,7.5,13.8,10.4c9.3,3.2,20.4,4.8,33.5,4.8c13.1,0,24.3-1.6,33.5-4.8c7.9-2.7,12.3-5.9,13.5-9.6
					C392.8,369.5,393,368.9,393,368.2z M392.9,370.2c-1.1,3.8-5.6,7.1-13.6,9.8c-9.2,3.2-20.4,4.8-33.6,4.8
					c-13.1,0-24.3-1.6-33.6-4.8c-8.5-3-13.1-6.5-13.9-10.6c-0.1-0.4-0.1-0.8-0.1-1.2c0-3.8,3.2-7.2,9.7-10c1.3-0.6,2.7-1.1,4.3-1.7
					c9.3-3.3,20.5-4.9,33.6-4.8c12.3,0,22.8,1.4,31.7,4.3h-0.1c0.7,0.1,1.3,0.3,2,0.6c9.3,3.2,13.9,7.1,13.9,11.7
					C393.2,368.9,393.1,369.5,392.9,370.2z M381.4,361.8c-1.8-1.5-4.6-2.9-8.4-4.1c-7.3-2.5-16.2-3.8-26.5-3.8
					c-10.3,0-19.1,1.3-26.4,3.8c-6.2,2-9.8,4.4-10.8,7.2c-0.1,0.5-0.2,1-0.3,1.4v0c0,3.4,3.7,6.3,11,8.7c7.3,2.4,16.1,3.6,26.4,3.6
					c10.3,0,19.2-1.2,26.5-3.6c7.2-2.4,10.8-5.3,10.8-8.8c0-0.3,0-0.6-0.1-0.8C383.5,364.2,382.8,363,381.4,361.8z M384,366.3
					c0,3.5-3.6,6.5-11,9c-7.3,2.4-16.2,3.6-26.5,3.6c-10.4,0-19.2-1.2-26.5-3.6c-7.4-2.5-11.1-5.5-11.1-9v0c0-0.5,0.1-1,0.2-1.5
					c0.9-2.9,4.5-5.3,10.9-7.4c7.3-2.5,16.2-3.7,26.5-3.7c10.4,0,19.2,1.2,26.5,3.7c3.8,1.3,6.6,2.7,8.5,4.3
					c1.4,1.2,2.2,2.5,2.4,3.8C384,365.7,384.1,366,384,366.3z"/>
			</g>
		</g>
		<g>
			<g>
				<g>
					<linearGradient id="SVGID_61_" gradientUnits="userSpaceOnUse" x1="327.1001" y1="362.8252" x2="327.8001" y2="362.8252">
						<stop  offset="0" style="stop-color:#111111"/>
						<stop  offset="1" style="stop-color:#746C6A"/>
					</linearGradient>
					<polygon fill-rule="evenodd" clip-rule="evenodd" fill="url(#SVGID_61_)" points="327.3,364.2 327.3,362.5 327.8,361.5 
						327.8,363.3 327.3,364.2 					"/>
					<linearGradient id="SVGID_62_" gradientUnits="userSpaceOnUse" x1="308.3999" y1="363.375" x2="327.1999" y2="363.375">
						<stop  offset="0" style="stop-color:#111111"/>
						<stop  offset="1" style="stop-color:#272525"/>
					</linearGradient>
					<rect x="308.7" y="362.5" fill-rule="evenodd" clip-rule="evenodd" fill="url(#SVGID_62_)" width="18.5" height="1.7"/>
					<linearGradient id="SVGID_63_" gradientUnits="userSpaceOnUse" x1="309.5752" y1="362" x2="327.7252" y2="362">
						<stop  offset="0" style="stop-color:#111111"/>
						<stop  offset="1" style="stop-color:#746C6A"/>
					</linearGradient>
					<polygon fill-rule="evenodd" clip-rule="evenodd" fill="url(#SVGID_63_)" points="327.3,362.5 308.7,362.5 308.7,362.5 
						309.6,361.5 327.8,361.5 					"/>
				</g>
			</g>
			<g>
				<g>
					
						<linearGradient id="SVGID_64_" gradientUnits="userSpaceOnUse" x1="-479.9644" y1="118.4775" x2="-465.4088" y2="118.4775" gradientTransform="matrix(-0.4947 -0.8691 0.6149 -0.9413 -1.391768e-004 4.458427e-005)">
						<stop  offset="0" style="stop-color:#111111"/>
						<stop  offset="1" style="stop-color:#746C6A"/>
					</linearGradient>
					<path fill-rule="evenodd" clip-rule="evenodd" fill="url(#SVGID_64_)" d="M311.6,298.8c-0.3,0.9-0.4,1.4-0.5,1.7l-0.1,0.1h-8.8
						h-0.1l1.1-1.9L311.6,298.8L311.6,298.8z"/>
					<path fill-rule="evenodd" clip-rule="evenodd" d="M311.6,298.8l0,64.5l-0.5,1.2H311v-63.9l0.1-0.1
						C311.2,300.2,311.3,299.6,311.6,298.8z"/>
					
						<linearGradient id="SVGID_65_" gradientUnits="userSpaceOnUse" x1="-514.292" y1="193.9907" x2="-445.1429" y2="193.9907" gradientTransform="matrix(-0.2972 -0.9548 0.8306 -0.6962 1.662970e-005 1.471043e-004)">
						<stop  offset="0" style="stop-color:#111111"/>
						<stop  offset="1" style="stop-color:#746C6A"/>
					</linearGradient>
					<polygon fill-rule="evenodd" clip-rule="evenodd" fill="url(#SVGID_65_)" points="311,300.6 311,364.5 302.3,364.5 
						302.3,300.6 					"/>
				</g>
			</g>
			<g>
				<g>
					<linearGradient id="SVGID_66_" gradientUnits="userSpaceOnUse" x1="326.8999" y1="365.875" x2="327.5999" y2="365.875">
						<stop  offset="0" style="stop-color:#111111"/>
						<stop  offset="1" style="stop-color:#746C6A"/>
					</linearGradient>
					<polygon fill-rule="evenodd" clip-rule="evenodd" fill="url(#SVGID_66_)" points="327,365.6 327.1,365.6 327.5,364.5 
						327.6,364.5 327.6,366.3 327.1,367.3 327,367.3 					"/>
					<linearGradient id="SVGID_67_" gradientUnits="userSpaceOnUse" x1="309.4248" y1="365.0498" x2="327.5748" y2="365.0498">
						<stop  offset="0" style="stop-color:#111111"/>
						<stop  offset="1" style="stop-color:#746C6A"/>
					</linearGradient>
					<polygon fill-rule="evenodd" clip-rule="evenodd" fill="url(#SVGID_67_)" points="327,365.6 308.5,365.6 308.5,365.5 
						309.5,364.5 327.5,364.5 327.1,365.6 					"/>
					<linearGradient id="SVGID_68_" gradientUnits="userSpaceOnUse" x1="308.25" y1="366.4248" x2="327.05" y2="366.4248">
						<stop  offset="0" style="stop-color:#111111"/>
						<stop  offset="1" style="stop-color:#272525"/>
					</linearGradient>
					<rect x="308.5" y="365.6" fill-rule="evenodd" clip-rule="evenodd" fill="url(#SVGID_68_)" width="18.5" height="1.7"/>
				</g>
			</g>
			<g>
				<g>
					<g>
						<linearGradient id="SVGID_69_" gradientUnits="userSpaceOnUse" x1="319.4624" y1="358.1875" x2="326.5374" y2="358.1875">
							<stop  offset="0" style="stop-color:#716857"/>
							<stop  offset="0.4" style="stop-color:#C1B6A4"/>
							<stop  offset="1" style="stop-color:#9A9FA2"/>
						</linearGradient>
						<path fill-rule="evenodd" clip-rule="evenodd" fill="url(#SVGID_69_)" d="M319.5,355.5c0.2,0.1,0.5,0.2,0.9,0.4
							c0.7,0.1,1.6,0.1,2.6,0.1c1,0,1.9,0,2.5-0.1c0.5-0.1,0.8-0.2,1-0.3v4.6c-0.2,0.1-0.5,0.2-0.6,0.2c-0.3,0.1-0.6,0.2-0.9,0.3
							c-1.4,0.2-2.7,0.2-4,0c-0.3-0.1-0.6-0.2-0.9-0.3c-0.2,0-0.5-0.1-0.6-0.2V355.5z"/>
						<linearGradient id="SVGID_70_" gradientUnits="userSpaceOnUse" x1="319.3999" y1="355.375" x2="326.5996" y2="355.375">
							<stop  offset="0" style="stop-color:#5C5345"/>
							<stop  offset="1" style="stop-color:#C8C8D9"/>
						</linearGradient>
						<path fill-rule="evenodd" clip-rule="evenodd" fill="url(#SVGID_70_)" d="M326.5,355.6c-0.1,0.1-0.5,0.2-1,0.3
							c-0.7,0.1-1.5,0.1-2.5,0.1c-1,0-1.9,0-2.6-0.1c-0.5-0.2-0.8-0.3-0.9-0.4v-0.3c0.2-0.1,0.5-0.2,0.9-0.4
							c0.7-0.1,1.6-0.1,2.6-0.1c1,0,1.9,0,2.5,0.1c0.7,0.2,1.1,0.4,1.1,0.6C326.6,355.4,326.6,355.5,326.5,355.6z"/>
					</g>
					<g>
						<linearGradient id="SVGID_71_" gradientUnits="userSpaceOnUse" x1="320.875" y1="362.6875" x2="325.025" y2="362.6875">
							<stop  offset="0" style="stop-color:#716857"/>
							<stop  offset="0.3137" style="stop-color:#C1B6A4"/>
							<stop  offset="0.5059" style="stop-color:#FFFFFA"/>
							<stop  offset="0.698" style="stop-color:#B3AEA4"/>
							<stop  offset="1" style="stop-color:#9A9FA2"/>
						</linearGradient>
						<path fill-rule="evenodd" clip-rule="evenodd" fill="url(#SVGID_71_)" d="M325,360.7v3.6c-1.2,0.6-2.6,0.6-4,0v-3.6
							C322.3,360.9,323.6,360.9,325,360.7z"/>
					</g>
				</g>
				<g>
					
						<radialGradient id="SVGID_72_" cx="322.9502" cy="355.9502" r="3.4" gradientTransform="matrix(1 0 0 0.8566 0 51.037)" gradientUnits="userSpaceOnUse">
						<stop  offset="0" style="stop-color:#F8F8F8;stop-opacity:0.7529"/>
						<stop  offset="1" style="stop-color:#FBFBFB;stop-opacity:0"/>
					</radialGradient>
					<path fill-rule="evenodd" clip-rule="evenodd" fill="url(#SVGID_72_)" d="M326.3,355.5c0.1,0,0.2,0,0.2,0c0,0,0,0,0,0.1
						c0,0.3-0.4,0.4-1.1,0.5c-0.7,0.1-1.5,0.1-2.4,0.1c-0.9,0-1.7,0-2.4-0.1c-0.8-0.1-1.1-0.3-1.1-0.5c0,0,0-0.1,0.1-0.1
						c0.1,0,0.1,0,0.1,0c0.1,0,0.1,0,0.1,0c0.1,0,0.1,0,0.1,0.1c0,0.1,0.3,0.1,0.8,0.1c0.6,0.1,1.4,0.2,2.3,0.2c0.9,0,1.7,0,2.3-0.2
						c0.5,0,0.8-0.1,0.9-0.1v-0.1C326.2,355.6,326.2,355.5,326.3,355.5z"/>
				</g>
				<g>
					<linearGradient id="SVGID_73_" gradientUnits="userSpaceOnUse" x1="322.9751" y1="360.6123" x2="322.9751" y2="361.9873">
						<stop  offset="0" style="stop-color:#000000;stop-opacity:0.3804"/>
						<stop  offset="1" style="stop-color:#000000;stop-opacity:0"/>
					</linearGradient>
					<path fill-rule="evenodd" clip-rule="evenodd" fill="url(#SVGID_73_)" d="M325,364h-4v-3.4c1.3,0.2,2.7,0.2,4,0V364z"/>
				</g>
			</g>
			<g>
				<g>
					<g>
						<linearGradient id="SVGID_74_" gradientUnits="userSpaceOnUse" x1="318.8125" y1="360.1123" x2="325.8875" y2="360.1123">
							<stop  offset="0" style="stop-color:#716857"/>
							<stop  offset="0.4" style="stop-color:#C1B6A4"/>
							<stop  offset="1" style="stop-color:#9A9FA2"/>
						</linearGradient>
						<path fill-rule="evenodd" clip-rule="evenodd" fill="url(#SVGID_74_)" d="M318.9,357.5c0.2,0.2,0.5,0.3,1,0.4
							c0.7,0.1,1.5,0.2,2.5,0.2c1,0,1.9-0.1,2.6-0.2c0.5-0.1,0.8-0.2,0.9-0.3v4.7c-0.2,0.1-0.5,0.1-0.8,0.3c-0.2,0-0.5,0.1-0.7,0.1
							c-1.5,0.3-2.9,0.3-4.2,0c-0.2,0-0.5-0.1-0.7-0.1c-0.3-0.1-0.5-0.2-0.7-0.3V357.5z"/>
						<linearGradient id="SVGID_75_" gradientUnits="userSpaceOnUse" x1="318.7998" y1="357.3496" x2="325.9998" y2="357.3496">
							<stop  offset="0" style="stop-color:#5C5345"/>
							<stop  offset="1" style="stop-color:#C8C8D9"/>
						</linearGradient>
						<path fill-rule="evenodd" clip-rule="evenodd" fill="url(#SVGID_75_)" d="M325.9,357.5c-0.1,0.1-0.4,0.2-0.9,0.3
							c-0.7,0.1-1.6,0.2-2.6,0.2c-1,0-1.8-0.1-2.5-0.2c-0.5-0.1-0.8-0.2-1-0.4v-0.2c0.2-0.2,0.5-0.3,1-0.4c0.7-0.1,1.5-0.2,2.5-0.2
							c1,0,1.9,0.1,2.6,0.2c0.7,0.2,1,0.3,1,0.5C326,357.4,326,357.5,325.9,357.5z"/>
					</g>
					<g>
						<linearGradient id="SVGID_76_" gradientUnits="userSpaceOnUse" x1="320.2749" y1="364.6123" x2="324.4249" y2="364.6123">
							<stop  offset="0" style="stop-color:#716857"/>
							<stop  offset="0.3137" style="stop-color:#C1B6A4"/>
							<stop  offset="0.5059" style="stop-color:#FFFFFA"/>
							<stop  offset="0.698" style="stop-color:#B3AEA4"/>
							<stop  offset="1" style="stop-color:#9A9FA2"/>
						</linearGradient>
						<path fill-rule="evenodd" clip-rule="evenodd" fill="url(#SVGID_76_)" d="M324.5,362.5v3.7c-1.3,0.6-2.7,0.6-4.2,0v-3.7
							C321.6,362.8,323,362.8,324.5,362.5z"/>
					</g>
				</g>
				<g>
					
						<radialGradient id="SVGID_77_" cx="322.3496" cy="357.9004" r="3.4005" gradientTransform="matrix(1 0 0 0.8566 0 51.3166)" gradientUnits="userSpaceOnUse">
						<stop  offset="0" style="stop-color:#F8F8F8;stop-opacity:0.7529"/>
						<stop  offset="1" style="stop-color:#FBFBFB;stop-opacity:0"/>
					</radialGradient>
					<path fill-rule="evenodd" clip-rule="evenodd" fill="url(#SVGID_77_)" d="M325.7,357.5c0,0,0.1,0,0.1,0.1c0,0,0,0.1,0,0.2
						c0,0.2-0.4,0.3-1.1,0.4c-0.7,0.1-1.5,0.2-2.4,0.2c-0.9,0-1.7,0-2.4-0.2c-0.8-0.1-1.2-0.2-1.2-0.4c0-0.1,0-0.1,0.1-0.2
						c0.1-0.1,0.1-0.1,0.1-0.1c0.1,0,0.1,0,0.1,0.1c0.1,0,0.1,0.1,0.1,0.2l0.8,0.1c0.6,0.1,1.4,0.1,2.3,0.1c0.9,0,1.7,0,2.4-0.1
						c0.5-0.1,0.8-0.1,0.8-0.1c0-0.1,0-0.1,0-0.2C325.6,357.5,325.6,357.5,325.7,357.5z"/>
				</g>
				<g>
					<linearGradient id="SVGID_78_" gradientUnits="userSpaceOnUse" x1="322.3501" y1="362.5625" x2="322.3501" y2="363.9375">
						<stop  offset="0" style="stop-color:#000000;stop-opacity:0.3804"/>
						<stop  offset="1" style="stop-color:#000000;stop-opacity:0"/>
					</linearGradient>
					<path fill-rule="evenodd" clip-rule="evenodd" fill="url(#SVGID_78_)" d="M324.5,366h-4.2v-3.5c1.3,0.2,2.7,0.2,4.2,0V366z"/>
				</g>
			</g>
			<g>
				<g>
					
						<linearGradient id="SVGID_79_" gradientUnits="userSpaceOnUse" x1="-471.5293" y1="103.2397" x2="-456.7331" y2="103.2397" gradientTransform="matrix(-0.5187 -0.8549 0.6239 -0.8995 2.282858e-004 -4.794598e-004)">
						<stop  offset="0" style="stop-color:#111111"/>
						<stop  offset="1" style="stop-color:#746C6A"/>
					</linearGradient>
					<path fill-rule="evenodd" clip-rule="evenodd" fill="url(#SVGID_79_)" d="M310.4,303.4c-0.3,0.9-0.5,1.4-0.5,1.7v0.2h-9.4h-0.2
						l1.2-1.9L310.4,303.4L310.4,303.4z"/>
					<path fill-rule="evenodd" clip-rule="evenodd" d="M310.4,303.4l0.1,64.6l-0.6,1.2v-63.9V305
						C309.9,304.8,310.1,304.2,310.4,303.4z"/>
					
						<linearGradient id="SVGID_80_" gradientUnits="userSpaceOnUse" x1="-506.8413" y1="183.4189" x2="-437.2711" y2="183.4189" gradientTransform="matrix(-0.3151 -0.949 0.8356 -0.6567 -4.726648e-005 8.765459e-004)">
						<stop  offset="0" style="stop-color:#111111"/>
						<stop  offset="1" style="stop-color:#746C6A"/>
					</linearGradient>
					<polygon fill-rule="evenodd" clip-rule="evenodd" fill="url(#SVGID_80_)" points="309.9,305.2 309.9,369.1 300.5,369.1 
						300.5,305.2 					"/>
				</g>
			</g>
			<g>
				<g>
					<linearGradient id="SVGID_81_" gradientUnits="userSpaceOnUse" x1="326.6001" y1="367.6992" x2="327.3001" y2="367.6992">
						<stop  offset="0" style="stop-color:#111111"/>
						<stop  offset="1" style="stop-color:#746C6A"/>
					</linearGradient>
					<polygon fill-rule="evenodd" clip-rule="evenodd" fill="url(#SVGID_81_)" points="326.8,367.4 326.8,367.4 327.3,366.3 
						327.3,366.3 327.3,368.2 326.9,369.1 326.8,369.1 					"/>
					<linearGradient id="SVGID_82_" gradientUnits="userSpaceOnUse" x1="309.125" y1="366.8496" x2="327.275" y2="366.8496">
						<stop  offset="0" style="stop-color:#111111"/>
						<stop  offset="1" style="stop-color:#746C6A"/>
					</linearGradient>
					<polygon fill-rule="evenodd" clip-rule="evenodd" fill="url(#SVGID_82_)" points="326.8,367.4 308.2,367.4 308.2,367.3 
						309.1,366.3 327.3,366.3 326.8,367.4 					"/>
					<linearGradient id="SVGID_83_" gradientUnits="userSpaceOnUse" x1="307.8999" y1="368.25" x2="326.6999" y2="368.25">
						<stop  offset="0" style="stop-color:#111111"/>
						<stop  offset="1" style="stop-color:#272525"/>
					</linearGradient>
					<rect x="308.2" y="367.4" fill-rule="evenodd" clip-rule="evenodd" fill="url(#SVGID_83_)" width="18.5" height="1.7"/>
				</g>
			</g>
			<g>
				<g>
					<linearGradient id="SVGID_84_" gradientUnits="userSpaceOnUse" x1="309.9375" y1="301.9502" x2="311.5625" y2="301.9502">
						<stop  offset="0" style="stop-color:#111111"/>
						<stop  offset="1" style="stop-color:#454343"/>
					</linearGradient>
					<polygon fill-rule="evenodd" clip-rule="evenodd" fill="url(#SVGID_84_)" points="310,305 311.5,298.7 311.6,300 310.3,305.2 
											"/>
					
						<linearGradient id="SVGID_85_" gradientUnits="userSpaceOnUse" x1="363.4814" y1="-266.5815" x2="372.8523" y2="-266.5815" gradientTransform="matrix(0.1227 0.9924 -0.9785 0.2354 2.736300e-004 -1.385808e-004)">
						<stop  offset="0" style="stop-color:#111111"/>
						<stop  offset="1" style="stop-color:#454343"/>
					</linearGradient>
					<polygon fill-rule="evenodd" clip-rule="evenodd" fill="url(#SVGID_85_)" points="311.5,298.7 310,305 309.9,305.2 
						309.9,305.3 300.3,305.3 302.9,298.6 311.6,298.6 					"/>
					<linearGradient id="SVGID_86_" gradientUnits="userSpaceOnUse" x1="309.8623" y1="305.9248" x2="311.5373" y2="305.9248">
						<stop  offset="0" style="stop-color:#111111"/>
						<stop  offset="1" style="stop-color:#454343"/>
					</linearGradient>
					<polygon fill-rule="evenodd" clip-rule="evenodd" fill="url(#SVGID_86_)" points="310,305 310.3,305.2 309.9,306.8 
						309.9,305.3 309.9,305.2 					"/>
				</g>
			</g>
			<g>
				<linearGradient id="SVGID_87_" gradientUnits="userSpaceOnUse" x1="313.75" y1="366.6504" x2="313.75" y2="373.6504">
					<stop  offset="0" style="stop-color:#111111"/>
					<stop  offset="1" style="stop-color:#454343;stop-opacity:0"/>
				</linearGradient>
				<rect x="300.5" y="369.3" fill-rule="evenodd" clip-rule="evenodd" fill="url(#SVGID_87_)" width="26.4" height="7.4"/>
			</g>
		</g>
		<g>
			<g>
				<g>
					<path fill-rule="evenodd" clip-rule="evenodd" fill-opacity="0.7137" d="M557.5,351.2h-19.1l-5.9-9.1h35.8l7.7,9.1h-12.9
						C561.7,349,559.8,349,557.5,351.2z"/>
				</g>
				<g>
					<g>
						
							<linearGradient id="SVGID_88_" gradientUnits="userSpaceOnUse" x1="-377.2051" y1="-552.957" x2="-304.1364" y2="-552.957" gradientTransform="matrix(-0.8848 0.466 -0.4509 -0.8927 2.370477e-004 -1.309514e-004)">
							<stop  offset="0" style="stop-color:#72685F"/>
							<stop  offset="6.274510e-002" style="stop-color:#6C635B"/>
							<stop  offset="0.1412" style="stop-color:#D0CCC8"/>
							<stop  offset="0.2078" style="stop-color:#544E48"/>
							<stop  offset="0.3059" style="stop-color:#746C69"/>
							<stop  offset="0.502" style="stop-color:#FFFFFF"/>
							<stop  offset="0.6667" style="stop-color:#696664"/>
							<stop  offset="1" style="stop-color:#3F3B38"/>
						</linearGradient>
						<polygon fill-rule="evenodd" clip-rule="evenodd" fill="url(#SVGID_88_)" points="574.5,336.3 538.6,336.3 538.5,336.2 
							533.1,330.3 566.3,330.3 						"/>
						
							<linearGradient id="SVGID_89_" gradientUnits="userSpaceOnUse" x1="-572.2285" y1="-309.3491" x2="-554.7" y2="-309.3491" gradientTransform="matrix(-0.9984 -5.704979e-002 8.968557e-002 -0.9965 1.089871e-004 -2.997741e-004)">
							<stop  offset="0" style="stop-color:#E6E4E2"/>
							<stop  offset="1" style="stop-color:#3F3B38"/>
						</linearGradient>
						<polygon fill-rule="evenodd" clip-rule="evenodd" fill="url(#SVGID_89_)" points="538.7,350.7 538.5,350.5 533.1,342.2 
							533.1,330.3 538.5,336.2 538.6,336.3 538.5,336.3 538.5,349.9 						"/>
						
							<linearGradient id="SVGID_90_" gradientUnits="userSpaceOnUse" x1="546.9658" y1="329.02" x2="612.9377" y2="329.02" gradientTransform="matrix(0.9997 2.576855e-002 -5.660889e-002 0.9989 -1.341701e-004 2.364516e-004)">
							<stop  offset="0" style="stop-color:#72685F"/>
							<stop  offset="6.274510e-002" style="stop-color:#6C635B"/>
							<stop  offset="0.1412" style="stop-color:#D0CCC8"/>
							<stop  offset="0.502" style="stop-color:#FFFFFF"/>
							<stop  offset="0.6667" style="stop-color:#696664"/>
							<stop  offset="1" style="stop-color:#3F3B38"/>
						</linearGradient>
						<path fill-rule="evenodd" clip-rule="evenodd" fill="url(#SVGID_90_)" d="M538.6,336.3h35.9v14.5l-10.7,0
							c-1.7-3.4-4.4-3.4-8.2,0l-16.9,0l-0.2-0.8L538.6,336.3L538.6,336.3z"/>
					</g>
				</g>
				<g>
					<g>
						<path fill-rule="evenodd" clip-rule="evenodd" fill-opacity="0.2431" d="M542.3,333.6c0.6-0.2,1.3-0.3,2.1-0.3
							c0.8,0,1.4,0.1,2,0.3c0.6,0.1,0.8,0.3,0.8,0.5c0,0.3-0.3,0.5-0.9,0.7c-0.6,0.1-1.2,0.2-2,0.2c0,0-0.1,0-0.1,0s-0.1,0-0.2,0
							c-0.7,0-1.3-0.1-1.8-0.2c-0.5-0.2-0.8-0.4-0.8-0.7c0-0.1,0-0.1,0.2-0.3C541.8,333.8,542,333.7,542.3,333.6z"/>
					</g>
					<g>
						
							<radialGradient id="SVGID_91_" cx="555.1221" cy="333" r="4.4625" gradientTransform="matrix(1 0 -1.400560e-002 0.4454 -5.8081 184.6891)" gradientUnits="userSpaceOnUse">
							<stop  offset="0" style="stop-color:#F7F7F7"/>
							<stop  offset="0.6039" style="stop-color:#5E5E5E"/>
							<stop  offset="0.8667" style="stop-color:#B3B3B3"/>
							<stop  offset="1" style="stop-color:#262626"/>
						</radialGradient>
						<path fill-rule="evenodd" clip-rule="evenodd" fill="url(#SVGID_91_)" d="M541.8,334c0.1-0.8,0.8-1.3,2.1-1.4
							c0.6,0,1.2,0,1.8,0.1c0.6,0.2,1,0.5,1,0.9c0,0.4,0,0.7-0.1,0.9c-1.7,0.4-3.3,0.4-4.8,0C541.8,334.4,541.8,334.2,541.8,334z"/>
					</g>
				</g>
			</g>
			<g>
				
					<linearGradient id="SVGID_92_" gradientUnits="userSpaceOnUse" x1="588.4502" y1="343.5498" x2="597.75" y2="343.5498" gradientTransform="matrix(2.8738 -2.5148 2.5148 2.8738 -2009.8494 848.9504)">
					<stop  offset="0" style="stop-color:#514D4B"/>
					<stop  offset="0.3608" style="stop-color:#A7A5A5"/>
					<stop  offset="0.5176" style="stop-color:#FFFFFF"/>
					<stop  offset="1" style="stop-color:#6D6968"/>
				</linearGradient>
				<path fill-rule="evenodd" clip-rule="evenodd" fill="url(#SVGID_92_)" d="M540.8,343.6c0.3-4.9,2.4-8.9,6.1-12.2
					c3.7-3.3,8-4.7,12.9-4.4c4.8,0.3,8.9,2.4,12.2,6.1c3.3,3.7,4.7,8,4.4,12.9c-0.3,4.9-2.4,8.9-6.1,12.2c-3.7,3.3-8,4.7-12.9,4.4
					c-4.8-0.3-8.9-2.4-12.2-6.1C541.9,352.7,540.4,348.4,540.8,343.6z"/>
				
					<linearGradient id="SVGID_93_" gradientUnits="userSpaceOnUse" x1="590.2979" y1="348.3989" x2="595.8743" y2="338.7498" gradientTransform="matrix(2.8738 -2.5148 2.5148 2.8738 -2007.2517 851.9504)">
					<stop  offset="0" style="stop-color:#9A9898"/>
					<stop  offset="1" style="stop-color:#FFFFFF"/>
				</linearGradient>
				<path fill-rule="evenodd" clip-rule="evenodd" fill="url(#SVGID_93_)" d="M543.4,346.6c0.3-4.9,2.4-8.9,6.1-12.2
					c3.7-3.3,8-4.7,12.9-4.4c4.8,0.3,8.9,2.4,12.2,6.1c3.3,3.7,4.7,8,4.4,12.9c-0.3,4.9-2.4,8.9-6.1,12.2c-3.7,3.3-8,4.7-12.9,4.4
					c-4.8-0.3-8.9-2.4-12.2-6.1S543,351.4,543.4,346.6z"/>
				<path fill-rule="evenodd" clip-rule="evenodd" fill="#FFF9F9" d="M554.2,348.2c0.1-1.8,0.9-3.3,2.2-4.5c1.4-1.2,3-1.8,4.8-1.6
					c1.8,0.1,3.3,0.9,4.5,2.2c1.2,1.4,1.8,3,1.6,4.8c-0.1,1.8-0.9,3.3-2.3,4.5c-1.4,1.2-3,1.8-4.8,1.6c-1.8-0.1-3.3-0.9-4.5-2.2
					C554.7,351.5,554.1,350,554.2,348.2z"/>
				<path fill-rule="evenodd" clip-rule="evenodd" fill="#4E4B4B" d="M554.4,347.3c0.1-1.9,0.9-3.4,2.3-4.7c1.4-1.3,3.1-1.8,4.9-1.7
					c1.9,0.1,3.4,0.9,4.7,2.3c1.3,1.4,1.8,3.1,1.7,4.9c-0.1,1.9-0.9,3.4-2.3,4.7c-1.4,1.3-3.1,1.8-4.9,1.7c-1.9-0.1-3.4-0.9-4.7-2.3
					C554.8,350.8,554.3,349.1,554.4,347.3z"/>
				<path fill-rule="evenodd" clip-rule="evenodd" fill="#C1BEBD" d="M555.1,347.4c0.1-1.7,0.8-3,2.1-4.1c1.3-1.1,2.7-1.6,4.4-1.5
					c1.7,0.1,3,0.8,4.1,2.1c1.1,1.3,1.6,2.7,1.5,4.4c-0.1,1.7-0.8,3-2.1,4.1c-1.3,1.1-2.7,1.6-4.4,1.5c-1.7-0.1-3-0.8-4.1-2.1
					C555.5,350.5,555,349,555.1,347.4z"/>
				<path fill-rule="evenodd" clip-rule="evenodd" fill="#FFFFFF" d="M561.2,342.5c-1.6-0.1-3.1,0.4-4.4,1.5c-0.5,0.5-0.9,1-1.3,1.5
					c0.4-0.9,0.9-1.6,1.7-2.3c1.3-1.1,2.7-1.6,4.3-1.5c1.7,0.1,3,0.8,4.2,2.1c1.1,1.3,1.6,2.7,1.5,4.4c-0.1,1-0.3,1.9-0.8,2.6
					c0.2-0.6,0.4-1.2,0.4-1.8c0.1-1.7-0.4-3.1-1.5-4.4C564.2,343.3,562.8,342.6,561.2,342.5z"/>
			</g>
		</g>
		<g>
			<g>
				<g>
					<path fill-rule="evenodd" clip-rule="evenodd" fill-opacity="0.7137" d="M130.8,351.2c-2.2-2.2-4.1-2.2-5.6,0h-12.9l7.7-9.1
						h35.8l-5.9,9.1H130.8z"/>
				</g>
				<g>
					<g>
						
							<linearGradient id="SVGID_94_" gradientUnits="userSpaceOnUse" x1="113.667" y1="348.6162" x2="131.1955" y2="348.6162" gradientTransform="matrix(0.9984 -5.704979e-002 8.968557e-002 0.9965 -4.698932e-004 -8.734316e-005)">
							<stop  offset="0" style="stop-color:#E6E4E2"/>
							<stop  offset="1" style="stop-color:#3F3B38"/>
						</linearGradient>
						<polygon fill-rule="evenodd" clip-rule="evenodd" fill="url(#SVGID_94_)" points="155.2,330.3 155.2,342.2 149.9,350.5 
							149.6,350.7 149.8,349.9 149.8,336.3 149.7,336.3 149.8,336.3 						"/>
						
							<linearGradient id="SVGID_95_" gradientUnits="userSpaceOnUse" x1="237.2598" y1="232.21" x2="310.3284" y2="232.21" gradientTransform="matrix(0.8848 0.466 -0.4509 0.8927 1.526475e-004 -3.224015e-004)">
							<stop  offset="0" style="stop-color:#72685F"/>
							<stop  offset="6.274510e-002" style="stop-color:#6C635B"/>
							<stop  offset="0.1412" style="stop-color:#D0CCC8"/>
							<stop  offset="0.2078" style="stop-color:#544E48"/>
							<stop  offset="0.3059" style="stop-color:#746C69"/>
							<stop  offset="0.502" style="stop-color:#FFFFFF"/>
							<stop  offset="0.6667" style="stop-color:#696664"/>
							<stop  offset="1" style="stop-color:#3F3B38"/>
						</linearGradient>
						<polygon fill-rule="evenodd" clip-rule="evenodd" fill="url(#SVGID_95_)" points="113.9,336.3 122,330.3 155.2,330.3 
							149.8,336.3 149.7,336.3 						"/>
						
							<linearGradient id="SVGID_96_" gradientUnits="userSpaceOnUse" x1="-140.5586" y1="-346.7559" x2="-74.5867" y2="-346.7559" gradientTransform="matrix(-0.9997 2.576855e-002 -5.660889e-002 -0.9989 -1.108050e-004 3.539920e-004)">
							<stop  offset="0" style="stop-color:#72685F"/>
							<stop  offset="6.274510e-002" style="stop-color:#6C635B"/>
							<stop  offset="0.1412" style="stop-color:#D0CCC8"/>
							<stop  offset="0.502" style="stop-color:#FFFFFF"/>
							<stop  offset="0.6667" style="stop-color:#696664"/>
							<stop  offset="1" style="stop-color:#3F3B38"/>
						</linearGradient>
						<path fill-rule="evenodd" clip-rule="evenodd" fill="url(#SVGID_96_)" d="M149.6,350.7l-16.9,0c-3.8-3.4-6.5-3.4-8.2,0
							l-10.7,0v-14.5h35.9h0.1v13.6L149.6,350.7z"/>
					</g>
				</g>
				<g>
					<g>
						<path fill-rule="evenodd" clip-rule="evenodd" fill-opacity="0.2431" d="M141.9,333.6c0.6-0.2,1.2-0.3,2-0.3
							c0.8,0,1.5,0.1,2.1,0.3c0.3,0.1,0.5,0.2,0.6,0.3c0.1,0.1,0.1,0.2,0.1,0.3c0,0.3-0.2,0.5-0.8,0.7c-0.5,0.1-1.1,0.2-1.8,0.2
							c-0.1,0-0.1,0-0.2,0c-0.1,0-0.1,0-0.1,0c-0.8,0-1.4-0.1-2-0.2c-0.6-0.2-0.9-0.4-0.9-0.7C141,333.9,141.3,333.7,141.9,333.6z"
							/>
					</g>
					<g>
						
							<radialGradient id="SVGID_97_" cx="-133.1782" cy="-333" r="4.4625" gradientTransform="matrix(-1 0 1.400560e-002 0.4454 15.1353 481.3109)" gradientUnits="userSpaceOnUse">
							<stop  offset="0" style="stop-color:#F7F7F7"/>
							<stop  offset="0.6039" style="stop-color:#5E5E5E"/>
							<stop  offset="0.8667" style="stop-color:#B3B3B3"/>
							<stop  offset="1" style="stop-color:#262626"/>
						</radialGradient>
						<path fill-rule="evenodd" clip-rule="evenodd" fill="url(#SVGID_97_)" d="M142.6,332.8c0.6-0.1,1.2-0.2,1.8-0.1
							c1.3,0.1,2,0.5,2.1,1.4c0,0.2,0,0.4,0,0.5c-1.5,0.4-3.1,0.4-4.8,0c-0.1-0.2-0.1-0.5-0.1-0.9C141.6,333.3,142,333,142.6,332.8z
							"/>
					</g>
				</g>
			</g>
			<g>
				
					<linearGradient id="SVGID_98_" gradientUnits="userSpaceOnUse" x1="588.4502" y1="343.5498" x2="597.75" y2="343.5498" gradientTransform="matrix(-2.8738 -2.5148 -2.5148 2.8738 2698.1501 848.9501)">
					<stop  offset="0" style="stop-color:#514D4B"/>
					<stop  offset="0.3608" style="stop-color:#A7A5A5"/>
					<stop  offset="0.5176" style="stop-color:#FFFFFF"/>
					<stop  offset="1" style="stop-color:#6D6968"/>
				</linearGradient>
				<path fill-rule="evenodd" clip-rule="evenodd" fill="url(#SVGID_98_)" d="M147.5,343.6c-0.3-4.9-2.4-8.9-6.1-12.2
					c-3.7-3.3-8-4.7-12.9-4.4c-4.8,0.3-8.9,2.4-12.2,6.1c-3.3,3.7-4.7,8-4.4,12.9c0.3,4.9,2.4,8.9,6.1,12.2c3.7,3.3,8,4.7,12.9,4.4
					c4.8-0.3,8.9-2.4,12.2-6.1C146.4,352.7,147.9,348.4,147.5,343.6z"/>
				
					<linearGradient id="SVGID_99_" gradientUnits="userSpaceOnUse" x1="590.2979" y1="348.3989" x2="595.8743" y2="338.7498" gradientTransform="matrix(-2.8738 -2.5148 -2.5148 2.8738 2695.5486 851.9501)">
					<stop  offset="0" style="stop-color:#9A9898"/>
					<stop  offset="1" style="stop-color:#FFFFFF"/>
				</linearGradient>
				<path fill-rule="evenodd" clip-rule="evenodd" fill="url(#SVGID_99_)" d="M144.9,346.6c-0.3-4.9-2.4-8.9-6.1-12.2
					c-3.7-3.3-8-4.7-12.9-4.4c-4.8,0.3-8.9,2.4-12.2,6.1c-3.3,3.7-4.7,8-4.4,12.9c0.3,4.9,2.4,8.9,6.1,12.2c3.7,3.3,8,4.7,12.9,4.4
					c4.8-0.3,8.9-2.4,12.2-6.1C143.8,355.7,145.3,351.4,144.9,346.6z"/>
				<path fill-rule="evenodd" clip-rule="evenodd" fill="#FFF9F9" d="M134.1,348.2c-0.1-1.8-0.9-3.3-2.2-4.5c-1.4-1.2-3-1.8-4.8-1.6
					c-1.8,0.1-3.3,0.9-4.5,2.2c-1.2,1.4-1.8,3-1.6,4.8c0.1,1.8,0.9,3.3,2.2,4.5c1.4,1.2,3,1.8,4.8,1.6c1.8-0.1,3.3-0.9,4.5-2.2
					C133.6,351.5,134.2,350,134.1,348.2z"/>
				<path fill-rule="evenodd" clip-rule="evenodd" fill="#4E4B4B" d="M133.9,347.3c-0.1-1.9-0.9-3.4-2.3-4.7
					c-1.4-1.3-3.1-1.8-4.9-1.7c-1.9,0.1-3.4,0.9-4.7,2.3c-1.3,1.4-1.8,3.1-1.7,4.9c0.1,1.9,0.9,3.4,2.3,4.7c1.4,1.3,3.1,1.8,4.9,1.7
					c1.9-0.1,3.4-0.9,4.7-2.3C133.5,350.8,134,349.1,133.9,347.3z"/>
				<path fill-rule="evenodd" clip-rule="evenodd" fill="#C1BEBD" d="M133.2,347.4c-0.1-1.7-0.8-3-2.1-4.1c-1.3-1.1-2.7-1.6-4.4-1.5
					c-1.7,0.1-3,0.8-4.1,2.1c-1.1,1.3-1.6,2.7-1.5,4.4c0.1,1.7,0.8,3,2.1,4.1c1.3,1.1,2.7,1.6,4.4,1.5c1.7-0.1,3-0.8,4.1-2.1
					C132.8,350.5,133.3,349,133.2,347.4z"/>
				<path fill-rule="evenodd" clip-rule="evenodd" fill="#FFFFFF" d="M127.1,342.5c1.6-0.1,3.1,0.4,4.4,1.5c0.5,0.5,0.9,1,1.3,1.5
					c-0.4-0.9-0.9-1.6-1.7-2.3c-1.3-1.1-2.7-1.6-4.3-1.5c-1.7,0.1-3.1,0.8-4.2,2.1c-1.1,1.3-1.6,2.7-1.5,4.4c0.1,1,0.3,1.9,0.8,2.7
					c-0.2-0.6-0.4-1.2-0.4-1.9c-0.1-1.7,0.4-3.1,1.5-4.4C124.1,343.3,125.5,342.6,127.1,342.5z"/>
			</g>
		</g>
	</g>
</g>
</svg>
