<?xml version="1.0" encoding="utf-8"?>
<!-- Generator: Adobe Illustrator 16.0.0, SVG Export Plug-In . SVG Version: 6.00 Build 0)  -->
<!DOCTYPE svg PUBLIC "-//W3C//DTD SVG 1.1//EN" "http://www.w3.org/Graphics/SVG/1.1/DTD/svg11.dtd">
<svg version="1.1" id="Layer_1" xmlns="http://www.w3.org/2000/svg" xmlns:xlink="http://www.w3.org/1999/xlink" x="0px" y="0px"
	 width="221.63px" height="74.5px" viewBox="0 0 221.63 74.5" enable-background="new 0 0 221.63 74.5" xml:space="preserve">
<g>
	<radialGradient id="SVGID_1_" cx="79.2749" cy="30.916" r="13.3875" gradientUnits="userSpaceOnUse">
		<stop  offset="0" style="stop-color:#FFFFFF;stop-opacity:0.6118"/>
		<stop  offset="1" style="stop-color:#FFFFFF;stop-opacity:0"/>
	</radialGradient>
	<path fill-rule="evenodd" clip-rule="evenodd" fill="url(#SVGID_1_)" d="M78.08,18.02c0.17-0.13,0.33-0.2,0.5-0.2
		c0.37,0,0.72,0.72,1.05,2.15c1.1,7.23,1.1,14.52,0,21.85c-0.33,1.43-0.68,2.17-1.05,2.2c-0.1,0-0.22,0-0.35,0
		c0.37-0.13,0.67-0.6,0.9-1.4c1.07-7.7,1.07-15.3,0-22.8C78.96,18.38,78.61,17.78,78.08,18.02z"/>
	<g>
		<g>
			<linearGradient id="SVGID_2_" gradientUnits="userSpaceOnUse" x1="215.1123" y1="56.3916" x2="210.0373" y2="56.3916">
				<stop  offset="0" style="stop-color:#B1B8BC"/>
				<stop  offset="0.1451" style="stop-color:#FFFFFF"/>
				<stop  offset="0.2392" style="stop-color:#B4B9BA"/>
				<stop  offset="0.4235" style="stop-color:#FFFFFF"/>
				<stop  offset="0.5333" style="stop-color:#FFFFFF"/>
				<stop  offset="1" style="stop-color:#171B1C"/>
			</linearGradient>
			<polygon fill-rule="evenodd" clip-rule="evenodd" fill="url(#SVGID_2_)" points="210.92,57.67 210.92,55.12 211.08,55.12 
				214.22,55.22 214.22,57.67 			"/>
		</g>
		<g>
			<linearGradient id="SVGID_3_" gradientUnits="userSpaceOnUse" x1="219.6377" y1="64.791" x2="206.9127" y2="64.791">
				<stop  offset="0" style="stop-color:#B1B8BC"/>
				<stop  offset="0.1451" style="stop-color:#FFFFFF"/>
				<stop  offset="0.2392" style="stop-color:#B4B9BA"/>
				<stop  offset="0.4235" style="stop-color:#FFFFFF"/>
				<stop  offset="0.5333" style="stop-color:#FFFFFF"/>
				<stop  offset="1" style="stop-color:#171B1C"/>
			</linearGradient>
			<path fill-rule="evenodd" clip-rule="evenodd" fill="url(#SVGID_3_)" d="M216.63,57.72l-0.05,13.25l-0.15,0.1
				c-2.77,1.07-5.52,1.07-8.25,0l0.05-13.35H216.63z"/>
		</g>
		<g>
			<path fill-rule="evenodd" clip-rule="evenodd" fill="#898989" fill-opacity="0.2118" d="M215.92,58.22c0.03,0,0.05,0.03,0.05,0.1
				l-0.05,12.65c0,0.03-0.02,0.08-0.05,0.15c-0.03,0.03-0.07,0.05-0.1,0.05s-0.07-0.02-0.1-0.05c0-0.07,0-0.12,0-0.15l0.05-12.75
				c0.03-0.03,0.07-0.05,0.1-0.05S215.89,58.18,215.92,58.22z M214.42,58.47c0-0.03,0.02-0.05,0.05-0.05
				c0.03-0.03,0.07-0.05,0.1-0.05s0.05,0.02,0.05,0.05c0.03,0,0.05,0.02,0.05,0.05l-0.05,12.75c0,0.07-0.02,0.1-0.05,0.1
				c0,0.03-0.02,0.05-0.05,0.05s-0.07-0.02-0.1-0.05c-0.03,0-0.05-0.03-0.05-0.1L214.42,58.47z M213.17,58.37
				c0.07,0,0.1,0.02,0.1,0.05l-0.05,13.1l-0.1,0.1h-0.05c-0.03,0-0.07,0-0.1,0l-0.05-0.1l0.05-13.1c0-0.03,0.02-0.05,0.05-0.05
				c0.03-0.03,0.07-0.05,0.1-0.05S213.17,58.33,213.17,58.37z M211.72,58.47c0-0.03,0.02-0.05,0.05-0.05
				c0.03-0.03,0.07-0.05,0.1-0.05s0.05,0.02,0.05,0.05c0.03,0,0.05,0.02,0.05,0.05l-0.05,13.05l-0.05,0.1h-0.05
				c-0.03,0-0.07,0-0.1,0l-0.05-0.1L211.72,58.47z M209.17,58.37c0.03,0,0.07,0.02,0.1,0.05l-0.05,12.55c0,0.03,0,0.08,0,0.15
				c-0.03,0.03-0.07,0.05-0.1,0.05s-0.07-0.02-0.1-0.05c0-0.07,0-0.12,0-0.15l0.05-12.55C209.11,58.38,209.14,58.37,209.17,58.37z
				 M210.33,58.42c0.03-0.03,0.07-0.05,0.1-0.05s0.07,0.02,0.1,0.05c0.03,0,0.05,0.02,0.05,0.05l-0.05,12.85
				c0,0.03-0.02,0.08-0.05,0.15c-0.03,0-0.07,0-0.1,0s-0.07,0-0.1,0c0-0.07,0-0.12,0-0.15L210.33,58.42z"/>
		</g>
		<g>
			
				<linearGradient id="SVGID_4_" gradientUnits="userSpaceOnUse" x1="196.3848" y1="-20.4067" x2="222.5468" y2="-20.4067" gradientTransform="matrix(0.9842 0.1768 4.819278e-003 1.0169 -2.1955 46.8427)">
				<stop  offset="0" style="stop-color:#FFFFFF;stop-opacity:0"/>
				<stop  offset="1" style="stop-color:#FFFFFF;stop-opacity:0.5765"/>
			</linearGradient>
			<path fill-rule="evenodd" clip-rule="evenodd" fill="url(#SVGID_4_)" d="M215.92,58.32c0-0.07,0.02-0.1,0.05-0.1
				c0.03-0.03,0.07-0.05,0.1-0.05s0.05,0.02,0.05,0.05c0.03,0,0.05,0.03,0.05,0.1l-0.05,12.55c0,0.03-0.02,0.07-0.05,0.1h-0.05
				c-0.03,0-0.07,0-0.1,0c-0.03-0.03-0.05-0.07-0.05-0.1L215.92,58.32z M214.78,58.37c0.03,0,0.07,0.02,0.1,0.05
				c0.03,0,0.05,0.02,0.05,0.05l-0.05,12.75c0,0.07-0.02,0.1-0.05,0.1c-0.03,0.03-0.07,0.05-0.1,0.05c-0.03,0-0.07-0.02-0.1-0.05
				l0.05-12.9C214.71,58.38,214.74,58.37,214.78,58.37z M213.28,58.37l0.05-0.05c0.07,0,0.1,0.02,0.1,0.05
				c0.03,0,0.05,0.02,0.05,0.05l-0.05,13.1l-0.05,0.1h-0.15l-0.05-0.1l0.05-13.1C213.22,58.38,213.24,58.37,213.28,58.37z
				 M211.97,58.42c0.07-0.03,0.12-0.05,0.15-0.05v0.05c0.07,0,0.1,0.02,0.1,0.05l-0.05,13.05l-0.1,0.1c-0.03,0-0.08,0-0.15,0
				L211.97,58.42z M209.38,58.37c0.03,0,0.07,0.02,0.1,0.05l-0.05,12.55c0,0.03,0,0.08,0,0.15c-0.03,0.03-0.07,0.05-0.1,0.05
				s-0.07-0.02-0.1-0.05c0-0.07,0-0.12,0-0.15l0.05-12.55C209.31,58.38,209.34,58.37,209.38,58.37z M210.58,58.37
				c0.03-0.03,0.07-0.05,0.1-0.05l0.05,0.05c0.03,0,0.05,0.02,0.05,0.05l-0.05,12.9c0,0.03-0.02,0.08-0.05,0.15h-0.05
				c-0.03,0-0.07,0-0.1,0c-0.03-0.07-0.05-0.12-0.05-0.15l0.05-12.9C210.53,58.38,210.54,58.37,210.58,58.37z"/>
		</g>
		<g>
			<linearGradient id="SVGID_5_" gradientUnits="userSpaceOnUse" x1="219.6377" y1="64.5029" x2="206.9127" y2="64.5029">
				<stop  offset="0" style="stop-color:#B1B8BC"/>
				<stop  offset="0.3961" style="stop-color:#FFFFFF;stop-opacity:0"/>
				<stop  offset="1" style="stop-color:#171B1C"/>
			</linearGradient>
			<path fill-rule="evenodd" clip-rule="evenodd" fill="url(#SVGID_5_)" d="M208.22,58.07c0.2-0.17,0.43-0.3,0.7-0.4
				c2.37-0.67,4.72-0.67,7.05,0c0.5-0.2,0.72,0.08,0.65,0.85l-0.05,12.6c-2.67,0.97-5.47,0.97-8.4,0L208.22,58.07z"/>
		</g>
		<g>
			<path fill-rule="evenodd" clip-rule="evenodd" fill="#333333" d="M215.38,57.87c-0.87,0.1-1.87,0.15-3,0.15
				c-1.17,0-2.15-0.05-2.95-0.15c-0.83-0.03-1.25-0.1-1.25-0.2c0-0.13,0.42-0.23,1.25-0.3c0.8-0.07,1.78-0.1,2.95-0.1
				c1.13,0,2.13,0.03,3,0.1c0.8,0.07,1.2,0.17,1.2,0.3C216.58,57.77,216.17,57.83,215.38,57.87z"/>
		</g>
	</g>
	<g>
		<linearGradient id="SVGID_6_" gradientUnits="userSpaceOnUse" x1="208.75" y1="6.7534" x2="208.75" y2="61.7784">
			<stop  offset="0" style="stop-color:#B1B8BC"/>
			<stop  offset="0.1451" style="stop-color:#FFFFFF"/>
			<stop  offset="0.2392" style="stop-color:#B4B9BA"/>
			<stop  offset="0.4235" style="stop-color:#FFFFFF"/>
			<stop  offset="0.5333" style="stop-color:#FFFFFF"/>
			<stop  offset="1" style="stop-color:#171B1C"/>
		</linearGradient>
		<polygon fill-rule="evenodd" clip-rule="evenodd" fill="url(#SVGID_6_)" points="211.38,40.62 211.38,46.02 209.88,45.37 
			206.13,43.97 206.08,18.07 211.17,14.87 211.42,14.87 211.42,32.52 211.38,34.42 211.42,35.62 		"/>
		<polygon fill-rule="evenodd" clip-rule="evenodd" points="211.17,14.87 206.08,18.07 206.13,43.97 209.88,45.37 209.53,50.32 
			211.33,50.32 214.83,50.32 216.13,50.32 218.03,50.92 218.03,51.77 201.97,51.77 201.97,55.17 201.08,55.17 197.42,53.87 
			197.42,47.92 192.67,42.12 192.63,17.37 198.63,13.22 		"/>
		<linearGradient id="SVGID_7_" gradientUnits="userSpaceOnUse" x1="214.8086" y1="41.4033" x2="212.5335" y2="41.4201">
			<stop  offset="0" style="stop-color:#828571"/>
			<stop  offset="0.549" style="stop-color:#B4B5A8"/>
			<stop  offset="1" style="stop-color:#7E816C"/>
		</linearGradient>
		<path fill-rule="evenodd" clip-rule="evenodd" fill="url(#SVGID_7_)" d="M211.38,46.02v-5.4h3l0.45,9.7h-3.5L211.38,46.02z
			 M211.42,32.52h2.55l0.05,1.9h-2.6h-0.05L211.42,32.52z"/>
		<linearGradient id="SVGID_8_" gradientUnits="userSpaceOnUse" x1="215.2246" y1="32.9287" x2="215.2246" y2="42.1037">
			<stop  offset="0" style="stop-color:#B1B8BC"/>
			<stop  offset="0.1451" style="stop-color:#FFFFFF"/>
			<stop  offset="0.2392" style="stop-color:#B4B9BA"/>
			<stop  offset="0.4235" style="stop-color:#FFFFFF"/>
			<stop  offset="0.5333" style="stop-color:#FFFFFF"/>
			<stop  offset="1" style="stop-color:#171B1C"/>
		</linearGradient>
		<polygon fill-rule="evenodd" clip-rule="evenodd" fill="url(#SVGID_8_)" points="211.42,35.62 211.42,34.42 214.03,34.42 
			219.08,34.42 219.08,40.62 214.38,40.62 211.38,40.62 		"/>
		<linearGradient id="SVGID_9_" gradientUnits="userSpaceOnUse" x1="219.1758" y1="34.4287" x2="219.1758" y2="40.6037">
			<stop  offset="0" style="stop-color:#BDC1C2"/>
			<stop  offset="1" style="stop-color:#959797"/>
		</linearGradient>
		<rect x="219.08" y="34.42" fill-rule="evenodd" clip-rule="evenodd" fill="url(#SVGID_9_)" width="0.2" height="6.2"/>
		<linearGradient id="SVGID_10_" gradientUnits="userSpaceOnUse" x1="218.1758" y1="51.2031" x2="218.1758" y2="55.7281">
			<stop  offset="0" style="stop-color:#BDC1C2"/>
			<stop  offset="1" style="stop-color:#959797"/>
		</linearGradient>
		<polygon fill-rule="evenodd" clip-rule="evenodd" fill="url(#SVGID_10_)" points="218.33,51.77 218.28,55.27 218.03,55.27 
			218.03,51.77 		"/>
		<linearGradient id="SVGID_11_" gradientUnits="userSpaceOnUse" x1="218.1758" y1="50.9033" x2="218.1758" y2="51.7283">
			<stop  offset="0" style="stop-color:#BDC1C2"/>
			<stop  offset="1" style="stop-color:#959797"/>
		</linearGradient>
		<polygon fill-rule="evenodd" clip-rule="evenodd" fill="url(#SVGID_11_)" points="218.03,50.92 218.33,50.97 218.33,51.77 
			218.03,51.77 		"/>
		<linearGradient id="SVGID_12_" gradientUnits="userSpaceOnUse" x1="210" y1="51.2031" x2="210" y2="55.7281">
			<stop  offset="0" style="stop-color:#B1B8BC"/>
			<stop  offset="0.1451" style="stop-color:#FFFFFF"/>
			<stop  offset="0.2392" style="stop-color:#B4B9BA"/>
			<stop  offset="0.4235" style="stop-color:#FFFFFF"/>
			<stop  offset="0.5333" style="stop-color:#FFFFFF"/>
			<stop  offset="1" style="stop-color:#171B1C"/>
		</linearGradient>
		<polygon fill-rule="evenodd" clip-rule="evenodd" fill="url(#SVGID_12_)" points="218.03,55.27 201.97,55.17 201.97,51.77 
			218.03,51.77 		"/>
	</g>
	
		<radialGradient id="SVGID_13_" cx="148.4248" cy="5.2158" r="25.15" gradientTransform="matrix(1.4972 9.155273e-005 9.155273e-005 1.1319 -143.5188 23.0337)" gradientUnits="userSpaceOnUse">
		<stop  offset="0" style="stop-color:#000000;stop-opacity:0.5529"/>
		<stop  offset="0.3098" style="stop-color:#000000;stop-opacity:0.5333"/>
		<stop  offset="0.5333" style="stop-color:#000000;stop-opacity:0.2"/>
		<stop  offset="0.702" style="stop-color:#000000;stop-opacity:0"/>
		<stop  offset="1" style="stop-color:#000000;stop-opacity:0"/>
	</radialGradient>
	<path fill-rule="evenodd" clip-rule="evenodd" fill="url(#SVGID_13_)" d="M78.7,57.25c-10.33,0-19.16-2.77-26.5-8.32
		c-7.29-5.51-10.93-12.17-10.93-19.98c0-7.81,3.64-14.49,10.93-20.03c7.34-5.51,16.17-8.26,26.5-8.26c10.33,0,19.14,2.76,26.43,8.26
		c7.34,5.55,11,12.23,11.01,20.04c0,7.81-3.67,14.47-11,19.98C97.84,54.48,89.04,57.25,78.7,57.25z"/>
	<g>
		<g>
			<path fill-rule="evenodd" clip-rule="evenodd" d="M198.78,16.82c4.93,8.37,4.93,16.73,0,25.1h-1.4h-0.1h-0.65v-9.8
				c-0.33,3.23-1.28,6.48-2.85,9.75h-4.4h-3.4h-3.3h-1.85h-1.45h-0.9l-7.65-0.05h-2.2h-1h-2.6l-84.8-0.05l-15.25-0.05v0.05h-0.75
				c0-0.03-0.02-0.05-0.05-0.05c-0.13-0.2-0.27-0.5-0.4-0.9c-1.17-7.27-1.17-14.9,0-22.9c0.23-0.77,0.52-1.15,0.85-1.15h113.85h0.9
				h1.45h1.85h3.3h3.4h4.4c1.53,3.3,2.48,6.6,2.85,9.9v-9.85h0.65h0.1H198.78z"/>
		</g>
		
			<radialGradient id="SVGID_14_" cx="-176.0244" cy="-393.7339" r="19.3998" gradientTransform="matrix(-9.423840e-005 0.494 -4.2091 -8.028687e-004 -1507.5375 116.3778)" gradientUnits="userSpaceOnUse">
			<stop  offset="0" style="stop-color:#FFFFFF"/>
			<stop  offset="0.102" style="stop-color:#FFFFFF;stop-opacity:0.8588"/>
			<stop  offset="0.2824" style="stop-color:#FFFFFF;stop-opacity:0.498"/>
			<stop  offset="0.4431" style="stop-color:#FFFFFF;stop-opacity:0.251"/>
			<stop  offset="0.6392" style="stop-color:#FFFFFF;stop-opacity:0.0627"/>
			<stop  offset="0.7686" style="stop-color:#FFFFFF;stop-opacity:0.0275"/>
			<stop  offset="1" style="stop-color:#FFFFFF;stop-opacity:0"/>
		</radialGradient>
		<path fill-rule="evenodd" clip-rule="evenodd" fill="url(#SVGID_14_)" d="M149.94,39.21c-22.45,0-41.53-0.94-57.24-2.8
			c-15.85-1.85-23.78-4.08-23.78-6.7c0-2.62,7.93-4.86,23.78-6.71c15.71-1.84,34.8-2.76,57.24-2.76c22.31,0,41.32,0.93,57.03,2.78
			c15.71,1.86,23.57,4.1,23.57,6.72c0,2.62-7.86,4.85-23.57,6.69C191.26,38.29,172.25,39.22,149.94,39.21z"/>
		<g>
			<linearGradient id="SVGID_15_" gradientUnits="userSpaceOnUse" x1="198.0625" y1="17.3408" x2="198.0625" y2="41.1908">
				<stop  offset="0" style="stop-color:#000000"/>
				<stop  offset="0.1333" style="stop-color:#343432"/>
				<stop  offset="0.251" style="stop-color:#343432"/>
				<stop  offset="0.5059" style="stop-color:#797B70"/>
				<stop  offset="0.7216" style="stop-color:#2D2928"/>
				<stop  offset="0.8353" style="stop-color:#353231"/>
				<stop  offset="1" style="stop-color:#000000"/>
			</linearGradient>
			<path fill-rule="evenodd" clip-rule="evenodd" fill="url(#SVGID_15_)" d="M196.42,17.27l0.85,0.05h1.55
				c4.83,7.97,4.83,15.93,0,23.9h-1.55l-1.25,1.4c-0.47-0.1-0.8-0.22-1-0.35c-0.4,0.33-0.85,0.22-1.35-0.35
				c0.83-1.87,1.47-3.62,1.9-5.25c0.4-1.63,0.68-3.07,0.85-4.3c0.3-2.33,0.3-4.65,0-6.95c-0.17-1.2-0.42-2.38-0.75-3.55
				c-0.43-1.53-1.07-3.15-1.9-4.85c0.53-2.03,1.17-1.95,1.9,0.25H196.42z"/>
		</g>
		
			<radialGradient id="SVGID_16_" cx="-176.0259" cy="-393.7344" r="19.4007" gradientTransform="matrix(6.103516e-005 0.4568 -0.4534 -9.155273e-005 21.9654 111.7856)" gradientUnits="userSpaceOnUse">
			<stop  offset="0" style="stop-color:#FFFFFF"/>
			<stop  offset="0.102" style="stop-color:#FFFFFF;stop-opacity:0.8588"/>
			<stop  offset="0.2824" style="stop-color:#FFFFFF;stop-opacity:0.498"/>
			<stop  offset="0.4431" style="stop-color:#FFFFFF;stop-opacity:0.251"/>
			<stop  offset="0.6392" style="stop-color:#FFFFFF;stop-opacity:0.0627"/>
			<stop  offset="0.7686" style="stop-color:#FFFFFF;stop-opacity:0.0275"/>
			<stop  offset="1" style="stop-color:#FFFFFF;stop-opacity:0"/>
		</radialGradient>
		<path fill-rule="evenodd" clip-rule="evenodd" fill="url(#SVGID_16_)" d="M200.48,40.19c-2.42,0-4.47-0.86-6.17-2.58
			c-1.71-1.71-2.56-3.77-2.56-6.19s0.85-4.49,2.56-6.21c1.69-1.7,3.75-2.56,6.17-2.56c2.4,0,4.45,0.85,6.14,2.56
			c1.69,1.72,2.54,3.79,2.54,6.21c0,2.42-0.85,4.48-2.54,6.19C204.93,39.33,202.88,40.19,200.48,40.19z"/>
		<g>
			<path fill-rule="evenodd" clip-rule="evenodd" d="M196.47,12.67h0.2c0.47,0.07,0.93,0.2,1.4,0.4c1.47,0.73,2.75,2.37,3.85,4.9
				c1.07,2.53,1.63,6,1.7,10.4c0.03,4.37-0.48,7.97-1.55,10.8c-1.1,2.83-2.3,4.62-3.6,5.35c-0.83,0.47-1.52,0.72-2.05,0.75
				c-0.27,0-0.48-0.03-0.65-0.1c0-0.03-0.02-0.05-0.05-0.05h-0.05c-0.07-0.07-0.13-0.12-0.2-0.15c-0.33-0.3-0.92-1.28-1.75-2.95
				l-0.05-0.15v-0.05l3.7,0.1c2.2-1.97,3.35-7,3.45-15.1c-0.3-3.2-0.73-5.43-1.3-6.7c-0.5-1.27-0.9-2.08-1.2-2.45l-0.75-0.8v-0.05
				c-0.8,1.53-2.03,1.52-3.7-0.05c-0.5,1.23-0.63,1.45-0.4,0.65c0.27-0.77,0.68-1.7,1.25-2.8c0.27-0.63,0.58-1.12,0.95-1.45
				c0.23-0.2,0.48-0.37,0.75-0.5H196.47z"/>
			<linearGradient id="SVGID_17_" gradientUnits="userSpaceOnUse" x1="201.5547" y1="12.0161" x2="201.5547" y2="46.5669">
				<stop  offset="0" style="stop-color:#70797E"/>
				<stop  offset="0.2392" style="stop-color:#B4B9BA"/>
				<stop  offset="0.4235" style="stop-color:#FFFFFF"/>
				<stop  offset="0.5333" style="stop-color:#FFFFFF"/>
				<stop  offset="0.8" style="stop-color:#899398"/>
				<stop  offset="0.902" style="stop-color:#3C4244"/>
				<stop  offset="1" style="stop-color:#272D2E"/>
			</linearGradient>
			<path fill-rule="evenodd" clip-rule="evenodd" fill="url(#SVGID_17_)" d="M196.47,12.67c0.1-0.03,0.17-0.05,0.2-0.05
				c0-0.03,0.02-0.05,0.05-0.05c0.53-0.17,0.9-0.28,1.1-0.35c0.13-0.07,0.22-0.1,0.25-0.1c0.37-0.07,0.75-0.1,1.15-0.1
				c2.43,0,4.42,1.68,5.95,5.05c1.53,3.4,2.25,7.43,2.15,12.1c-0.13,4.67-0.92,8.73-2.35,12.2c-1.4,3.47-3.32,5.2-5.75,5.2
				c-0.77,0-1.45-0.18-2.05-0.55c-0.27-0.13-0.52-0.28-0.75-0.45c-0.23-0.13-0.45-0.25-0.65-0.35v-0.05c0.17,0.07,0.38,0.1,0.65,0.1
				c0.53-0.03,1.22-0.28,2.05-0.75c1.3-0.73,2.5-2.52,3.6-5.35c1.07-2.83,1.58-6.43,1.55-10.8c-0.07-4.4-0.63-7.87-1.7-10.4
				c-1.1-2.53-2.38-4.17-3.85-4.9c-0.47-0.2-0.93-0.33-1.4-0.4H196.47z"/>
		</g>
		
			<radialGradient id="SVGID_18_" cx="-176.0244" cy="-393.7344" r="19.4" gradientTransform="matrix(-1.373291e-004 0.3828 -0.1512 1.831055e-004 144.7523 96.6785)" gradientUnits="userSpaceOnUse">
			<stop  offset="0" style="stop-color:#FFFFFF"/>
			<stop  offset="0.102" style="stop-color:#FFFFFF;stop-opacity:0.8588"/>
			<stop  offset="0.2824" style="stop-color:#FFFFFF;stop-opacity:0.498"/>
			<stop  offset="0.4431" style="stop-color:#FFFFFF;stop-opacity:0.251"/>
			<stop  offset="0.6392" style="stop-color:#FFFFFF;stop-opacity:0.0627"/>
			<stop  offset="0.7686" style="stop-color:#FFFFFF;stop-opacity:0.0275"/>
			<stop  offset="1" style="stop-color:#FFFFFF;stop-opacity:0"/>
		</radialGradient>
		<path fill-rule="evenodd" clip-rule="evenodd" fill="url(#SVGID_18_)" d="M204.3,36.57c-0.81,0-1.49-0.72-2.06-2.16
			c-0.57-1.43-0.85-3.16-0.85-5.19c0-2.03,0.29-3.76,0.86-5.21c0.57-1.43,1.25-2.15,2.06-2.15c0.8,0,1.48,0.71,2.05,2.14
			c0.56,1.44,0.85,3.18,0.84,5.21s-0.28,3.76-0.85,5.19C205.79,35.85,205.1,36.57,204.3,36.57z"/>
		<g>
			<radialGradient id="SVGID_19_" cx="205.5752" cy="28.6953" r="10.695" gradientUnits="userSpaceOnUse">
				<stop  offset="0" style="stop-color:#000000;stop-opacity:0.2706"/>
				<stop  offset="1" style="stop-color:#FDFDFD;stop-opacity:0"/>
			</radialGradient>
			<path fill-rule="evenodd" clip-rule="evenodd" fill="url(#SVGID_19_)" d="M205.42,18.22c0-0.07,0-0.12,0-0.15l0.05-0.05
				c0.07-0.03,0.1-0.02,0.1,0.05c0.03,0,0.07,0.02,0.1,0.05c2.17,7.1,2.18,14.17,0.05,21.2c-0.03,0.03-0.07,0.05-0.1,0.05
				c0,0.03-0.02,0.03-0.05,0h-0.1c-0.03-0.03-0.03-0.08,0-0.15C207.64,32.25,207.63,25.25,205.42,18.22z"/>
		</g>
		<g>
			
				<radialGradient id="SVGID_20_" cx="204.5254" cy="24.3662" r="8.9125" gradientTransform="matrix(-4.371139e-008 1 -1.0238 -4.475359e-008 229.4726 -180.1592)" gradientUnits="userSpaceOnUse">
				<stop  offset="0" style="stop-color:#FFFFFF"/>
				<stop  offset="1" style="stop-color:#FBFBFB;stop-opacity:0"/>
			</radialGradient>
			<path fill-rule="evenodd" clip-rule="evenodd" fill="url(#SVGID_20_)" d="M199.67,14.02c0.07-0.03,0.12-0.05,0.15-0.05
				c0.1,0,0.17,0.02,0.2,0.05c3,2.83,4.37,8.42,4.1,16.75c0,0.1-0.03,0.17-0.1,0.2c-0.03,0.03-0.1,0.05-0.2,0.05
				c-0.03,0-0.08-0.03-0.15-0.1c-0.03-0.03-0.05-0.08-0.05-0.15c0.3-8.13-1.02-13.58-3.95-16.35c-0.03-0.03-0.05-0.1-0.05-0.2
				C199.63,14.15,199.64,14.08,199.67,14.02z"/>
			
				<radialGradient id="SVGID_21_" cx="206.1748" cy="17.3662" r="8.9125" gradientTransform="matrix(-4.371139e-008 1 -1.0238 -4.475359e-008 223.9551 -188.8086)" gradientUnits="userSpaceOnUse">
				<stop  offset="0" style="stop-color:#FFFFFF"/>
				<stop  offset="1" style="stop-color:#FBFBFB;stop-opacity:0"/>
			</radialGradient>
			<path fill-rule="evenodd" clip-rule="evenodd" fill="url(#SVGID_21_)" d="M198.63,12.37c-0.03,0-0.05-0.02-0.05-0.05
				c0.03,0,0.05-0.02,0.05-0.05c5.57,0.67,8.32,6.55,8.25,17.65v0.05l-0.05,0.05v-0.05c-0.03,0-0.05-0.02-0.05-0.05
				c0.03-11-2.68-16.83-8.15-17.5V12.37z"/>
			<radialGradient id="SVGID_22_" cx="200.7246" cy="40.5664" r="5.35" gradientUnits="userSpaceOnUse">
				<stop  offset="0" style="stop-color:#FFFFFF"/>
				<stop  offset="1" style="stop-color:#FBFBFB;stop-opacity:0"/>
			</radialGradient>
			<path fill-rule="evenodd" clip-rule="evenodd" fill="url(#SVGID_22_)" d="M203.33,35.97c0.07,0,0.12,0.02,0.15,0.05
				c0.03,0.07,0.03,0.15,0,0.25c-1.07,4.8-2.85,7.75-5.35,8.85c-0.03,0.03-0.1,0.05-0.2,0.05c-0.03-0.07-0.07-0.13-0.1-0.2
				s-0.03-0.12,0-0.15c0.03-0.07,0.07-0.12,0.1-0.15c2.37-1.07,4.07-3.92,5.1-8.55c0.03-0.07,0.07-0.1,0.1-0.1
				C203.19,35.92,203.26,35.9,203.33,35.97z"/>
		</g>
	</g>
	<g>
		<g>
			<g>
				<path fill-rule="evenodd" clip-rule="evenodd" d="M124.78,15.02c0,0.07,0.02,0.12,0.05,0.15h0.05c0.8,0.87,1.28,1.62,1.45,2.25
					l0.05,0.05c0.03,0.1,0.05,0.18,0.05,0.25c0.07,0.43,0.15,0.9,0.25,1.4c0.13,0.5,0.25,1.02,0.35,1.55
					c0.13,0.57,0.32,1.1,0.55,1.6c0.23,0.43,0.48,0.87,0.75,1.3c0.07,0.03,0.12,0.1,0.15,0.2c0.03,0.03,0.07,0.07,0.1,0.1v0.05
					c0.97,1.77,1.5,3.5,1.6,5.2c0,0.03,0,0.08,0,0.15v0.1c-0.1,1.7-0.63,3.43-1.6,5.2c-0.03,0.07-0.07,0.12-0.1,0.15
					c-0.07,0.07-0.12,0.13-0.15,0.2c-0.63,0.93-1.07,1.9-1.3,2.9c-0.23,1.07-0.43,2.03-0.6,2.9c0,0.13-0.05,0.28-0.15,0.45
					c-0.03,0.03-0.07,0.08-0.1,0.15c-0.2,0.27-0.5,0.6-0.9,1c-0.17,0.13-0.33,0.25-0.5,0.35c-0.03,0.1-0.07,0.15-0.1,0.15
					c-0.73,0.63-1.32,1.15-1.75,1.55h-0.8h-0.2h-0.8l-31.15-0.05c-0.17-0.17-0.33-0.32-0.5-0.45c-1.3-1.3-2-2.35-2.1-3.15
					c-0.13-0.87-0.33-1.83-0.6-2.9c-0.13-0.57-0.32-1.12-0.55-1.65c-0.23-0.43-0.48-0.85-0.75-1.25c-0.07-0.1-0.12-0.22-0.15-0.35
					c-1-1.77-1.55-3.5-1.65-5.2c0-0.03,0-0.07,0-0.1c0.07-1,0.25-1.98,0.55-2.95c0.27-0.83,0.63-1.65,1.1-2.45
					c0.03-0.1,0.08-0.2,0.15-0.3c0.63-0.9,1.07-1.87,1.3-2.9c0.27-1.07,0.47-2.05,0.6-2.95c0.03-0.03,0.05-0.1,0.05-0.2
					c0.17-0.63,0.7-1.47,1.6-2.5c0.1-0.07,0.18-0.12,0.25-0.15c0.2-0.2,0.42-0.42,0.65-0.65c0.03-0.03,0.07-0.07,0.1-0.1h0.75h31.25
					h0.8h0.2h0.8c0.03,0.03,0.05,0.07,0.05,0.1c0.23,0.23,0.47,0.45,0.7,0.65C124.64,14.9,124.71,14.95,124.78,15.02z"/>
			</g>
			
				<radialGradient id="SVGID_23_" cx="-235.7251" cy="-320.0342" r="24.75" gradientTransform="matrix(-1.831048e-004 0.494 -3.142 -1.164473e-003 -896.1929 144.9081)" gradientUnits="userSpaceOnUse">
				<stop  offset="0" style="stop-color:#FFFFFF;stop-opacity:0.498"/>
				<stop  offset="0.1725" style="stop-color:#FFFFFF;stop-opacity:0.298"/>
				<stop  offset="0.3725" style="stop-color:#FFFFFF;stop-opacity:0.1137"/>
				<stop  offset="0.5569" style="stop-color:#FFFFFF;stop-opacity:0.0667"/>
				<stop  offset="0.8118" style="stop-color:#FFFFFF;stop-opacity:0.0275"/>
				<stop  offset="1" style="stop-color:#FFFFFF;stop-opacity:0"/>
			</radialGradient>
			<path fill-rule="evenodd" clip-rule="evenodd" fill="url(#SVGID_23_)" d="M123.78,40.66c-3.94,0.15-8.74,0.22-14.4,0.22
				c-2.93,0-6.36,0.23-10.3,0.69c-3.33,0.38-6.44,0.48-9.34,0.32c-7.92-6.7-8.72-14.13-2.39-22.28c0.12-2.17,1.27-3.71,3.46-4.62
				l32.95,0.01c0.45,0.65,0.82,1.22,1.09,1.7c1.1,1.98,2.51,5.52,4.22,10.62c0.3,0.96,0.3,2.23,0.02,3.83
				C128.52,34.33,126.75,37.5,123.78,40.66z"/>
			
				<radialGradient id="SVGID_24_" cx="-233.625" cy="-270.4346" r="9.7252" gradientTransform="matrix(-1.831055e-004 0.494 -0.1799 1.015945e-005 35.887 144.5832)" gradientUnits="userSpaceOnUse">
				<stop  offset="0" style="stop-color:#FFFFFF"/>
				<stop  offset="0.102" style="stop-color:#FFFFFF;stop-opacity:0.8588"/>
				<stop  offset="0.2824" style="stop-color:#FFFFFF;stop-opacity:0.498"/>
				<stop  offset="0.4431" style="stop-color:#FFFFFF;stop-opacity:0.251"/>
				<stop  offset="0.6392" style="stop-color:#FFFFFF;stop-opacity:0.0627"/>
				<stop  offset="0.7686" style="stop-color:#FFFFFF;stop-opacity:0.0275"/>
				<stop  offset="1" style="stop-color:#FFFFFF;stop-opacity:0"/>
			</radialGradient>
			<path fill-rule="evenodd" clip-rule="evenodd" fill="url(#SVGID_24_)" d="M82.97,29.16c0-1.24,0.15-2.27,0.46-3.11
				c0.31-0.86,0.69-1.28,1.14-1.28s0.83,0.43,1.13,1.28c0.31,0.84,0.46,1.88,0.46,3.11c0,1.24-0.15,2.28-0.46,3.14
				c-0.31,0.86-0.69,1.28-1.14,1.28s-0.83-0.43-1.13-1.28C83.13,31.44,82.97,30.39,82.97,29.16z"/>
		</g>
		<g>
			<radialGradient id="SVGID_25_" cx="112.4248" cy="14.7661" r="13.3625" gradientUnits="userSpaceOnUse">
				<stop  offset="0" style="stop-color:#FFFFFF;stop-opacity:0.4118"/>
				<stop  offset="1" style="stop-color:#FEFEFE;stop-opacity:0"/>
			</radialGradient>
			<path fill-rule="evenodd" clip-rule="evenodd" fill="url(#SVGID_25_)" d="M123.83,14.52c0.03,0.07,0.05,0.12,0.05,0.15
				c0,0.1-0.02,0.17-0.05,0.2c-0.07,0.03-0.13,0.05-0.2,0.05H97.38c-0.07,0-0.13-0.02-0.2-0.05c-0.03-0.03-0.05-0.1-0.05-0.2
				c0-0.03,0.02-0.08,0.05-0.15c0.07-0.03,0.13-0.05,0.2-0.05h26.25C123.69,14.47,123.76,14.48,123.83,14.52z"/>
			<radialGradient id="SVGID_26_" cx="125.3252" cy="21.8662" r="4.5375" gradientUnits="userSpaceOnUse">
				<stop  offset="0" style="stop-color:#FFFFFF"/>
				<stop  offset="1" style="stop-color:#FEFEFE;stop-opacity:0"/>
			</radialGradient>
			<path fill-rule="evenodd" clip-rule="evenodd" fill="url(#SVGID_26_)" d="M123.92,16.22c0.07-0.1,0.12-0.12,0.15-0.05
				c0.07,0.03,0.12,0.07,0.15,0.1c2.1,3.67,3.43,6.42,4,8.25c0.03,0.07,0.02,0.13-0.05,0.2c-0.03,0.03-0.07,0.07-0.1,0.1
				c-0.07,0.03-0.13,0.03-0.2,0s-0.12-0.08-0.15-0.15c-0.5-1.8-1.8-4.52-3.9-8.15c-0.03-0.07-0.05-0.13-0.05-0.2
				C123.81,16.28,123.86,16.25,123.92,16.22z"/>
			<line fill-rule="evenodd" clip-rule="evenodd" fill="none" x1="89.38" y1="16.67" x2="85.88" y2="24.17"/>
		</g>
	</g>
	<g>
		<path fill-rule="evenodd" clip-rule="evenodd" d="M71.08,42.72c0.13,0.07,0.1,0.08-0.1,0.05c-0.1-0.07-0.2-0.13-0.3-0.2
			c-0.03-0.03-0.07-0.07-0.1-0.1v-0.05h-0.05c-0.33-0.33-0.53-0.58-0.6-0.75c-0.17-0.1-0.35-0.22-0.55-0.35l0.55,0.1v-0.05
			c0,0.03,0.02,0.05,0.05,0.05l1.15,0.2c1.33-7.9,1.4-15.8,0.2-23.7c-0.17-0.3-0.35-0.6-0.55-0.9c-0.37-0.13-0.75,0-1.15,0.4
			c0.13-0.3,0.25-0.53,0.35-0.7c0-0.03,0.03-0.07,0.1-0.1c0.03-0.13,0.1-0.23,0.2-0.3c0-0.03,0.03-0.07,0.1-0.1h0.75
			c0.9,1.8,1.4,4.25,1.5,7.35c0.1,3.03,0.13,6.3,0.1,9.8C72.73,36.87,72.17,39.98,71.08,42.72z"/>
		
			<linearGradient id="SVGID_27_" gradientUnits="userSpaceOnUse" x1="94.3345" y1="-640.1426" x2="121.1435" y2="-640.1426" gradientTransform="matrix(-0.0504 0.9987 -1.0013 8.783113e-005 -560.1978 -77.9798)">
			<stop  offset="0" style="stop-color:#202B27"/>
			<stop  offset="0.1333" style="stop-color:#27262B"/>
			<stop  offset="0.2392" style="stop-color:#6D6C71"/>
			<stop  offset="0.3333" style="stop-color:#555557"/>
			<stop  offset="0.4275" style="stop-color:#464B45"/>
			<stop  offset="0.6039" style="stop-color:#151515"/>
			<stop  offset="0.7412" style="stop-color:#0F0F0F"/>
			<stop  offset="0.8314" style="stop-color:#64646C"/>
			<stop  offset="0.9098" style="stop-color:#3B3F42"/>
			<stop  offset="1" style="stop-color:#000000"/>
		</linearGradient>
		<path fill-rule="evenodd" clip-rule="evenodd" fill="url(#SVGID_27_)" d="M71.08,42.72c1.1-2.73,1.65-5.85,1.65-9.35
			c0.03-3.5,0-6.77-0.1-9.8c-0.1-3.1-0.6-5.55-1.5-7.35h6.35c0.67,0.03,1.13,0.32,1.4,0.85c1.67,8.83,1.67,17.13,0,24.9
			c-0.47,0.57-0.93,0.82-1.4,0.75h-0.9h-1.95H71.08z"/>
	</g>
	<g>
		
			<radialGradient id="SVGID_28_" cx="75.7251" cy="29.4658" r="13.9625" gradientTransform="matrix(-4.371139e-008 1 -1.0304 -4.504190e-008 106.0879 -46.2592)" gradientUnits="userSpaceOnUse">
			<stop  offset="0" style="stop-color:#737373;stop-opacity:0.4314"/>
			<stop  offset="0.4902" style="stop-color:#737373"/>
			<stop  offset="0.898" style="stop-color:#6F6F6F;stop-opacity:0.498"/>
			<stop  offset="1" style="stop-color:#696969;stop-opacity:0"/>
		</radialGradient>
		<path fill-rule="evenodd" clip-rule="evenodd" fill="url(#SVGID_28_)" d="M78.23,41.87c-0.03,0.03-0.1,0.05-0.2,0.05h-5.9
			c-0.07,0-0.12-0.02-0.15-0.05c-0.07-0.07-0.1-0.13-0.1-0.2s0.03-0.12,0.1-0.15c0.03-0.07,0.08-0.1,0.15-0.1h5.9
			c0.1,0,0.17,0.03,0.2,0.1c0.03,0.03,0.05,0.08,0.05,0.15S78.26,41.8,78.23,41.87z M72.48,40.77c-0.07,0-0.13-0.02-0.2-0.05
			c-0.07-0.07-0.1-0.13-0.1-0.2c0-0.07,0.03-0.12,0.1-0.15c0.07-0.07,0.13-0.1,0.2-0.1h5.8c0.07,0,0.13,0.03,0.2,0.1
			c0.03,0.03,0.05,0.08,0.05,0.15c0,0.07-0.02,0.13-0.05,0.2c-0.07,0.03-0.13,0.05-0.2,0.05H72.48z M72.63,38.22
			c0-0.1,0.03-0.17,0.1-0.2c0.03-0.07,0.08-0.1,0.15-0.1h5.8c0.03,0,0.1,0.03,0.2,0.1c0,0.03,0,0.1,0,0.2c0,0.07,0,0.13,0,0.2
			c-0.1,0.03-0.17,0.05-0.2,0.05h-5.8c-0.07,0-0.12-0.02-0.15-0.05C72.66,38.35,72.63,38.28,72.63,38.22z M72.52,39.17
			c0.03-0.03,0.1-0.05,0.2-0.05h5.8c0.03,0,0.1,0.02,0.2,0.05c0,0.07,0,0.13,0,0.2s0,0.13,0,0.2c-0.1,0.03-0.17,0.05-0.2,0.05h-5.8
			c-0.1,0-0.17-0.02-0.2-0.05c-0.07-0.07-0.1-0.13-0.1-0.2S72.46,39.23,72.52,39.17z M72.88,37.22c-0.07-0.03-0.1-0.1-0.1-0.2
			c0-0.03,0.03-0.08,0.1-0.15c0.03-0.03,0.08-0.05,0.15-0.05h5.85c0.03,0,0.08,0.02,0.15,0.05c0.07,0.07,0.1,0.12,0.1,0.15
			c0,0.1-0.03,0.17-0.1,0.2c-0.07,0.07-0.12,0.1-0.15,0.1h-5.85C72.96,37.32,72.91,37.28,72.88,37.22z M73.17,36.17
			c-0.07,0-0.13-0.03-0.2-0.1c-0.03-0.07-0.05-0.12-0.05-0.15c0-0.1,0.02-0.17,0.05-0.2c0.07-0.07,0.13-0.1,0.2-0.1h5.8
			c0.07,0,0.13,0.03,0.2,0.1c0.03,0.03,0.05,0.1,0.05,0.2c0,0.03-0.02,0.08-0.05,0.15c-0.07,0.07-0.13,0.1-0.2,0.1H73.17z
			 M79.33,34.57c0.07,0.03,0.1,0.08,0.1,0.15c0,0.1-0.03,0.17-0.1,0.2c-0.07,0.07-0.13,0.1-0.2,0.1h-5.9c-0.03,0-0.08-0.03-0.15-0.1
			c-0.07-0.03-0.1-0.1-0.1-0.2c0-0.07,0.03-0.12,0.1-0.15c0.07-0.07,0.12-0.1,0.15-0.1h5.9C79.19,34.47,79.26,34.5,79.33,34.57z
			 M79.42,33.52c0,0.1,0,0.17,0,0.2c-0.07,0.07-0.15,0.1-0.25,0.1h-5.8c-0.1,0-0.17-0.03-0.2-0.1c-0.07-0.03-0.1-0.1-0.1-0.2
			c0-0.07,0.03-0.12,0.1-0.15c0.03-0.07,0.1-0.1,0.2-0.1h5.8c0.1,0,0.18,0.03,0.25,0.1C79.42,33.4,79.42,33.45,79.42,33.52z
			 M79.58,32.37c0,0.07-0.05,0.15-0.15,0.25h-6c-0.1,0-0.17,0-0.2,0c-0.07-0.1-0.1-0.18-0.1-0.25c0-0.07,0.03-0.12,0.1-0.15
			c0.03-0.07,0.1-0.1,0.2-0.1h5.85c0.1,0,0.15,0.03,0.15,0.1C79.52,32.25,79.58,32.3,79.58,32.37z M79.33,30.97
			c0.07,0,0.12,0.02,0.15,0.05c0.07,0.07,0.1,0.13,0.1,0.2c0,0.07-0.03,0.13-0.1,0.2c-0.03,0.03-0.08,0.05-0.15,0.05h-5.9
			c-0.1,0-0.17-0.02-0.2-0.05c-0.03-0.07-0.05-0.13-0.05-0.2c0-0.07,0.02-0.13,0.05-0.2c0.03-0.03,0.1-0.05,0.2-0.05H79.33z
			 M79.48,29.87c0.07,0.07,0.1,0.13,0.1,0.2c0,0.07-0.03,0.13-0.1,0.2c-0.03,0.03-0.08,0.05-0.15,0.05h-5.9
			c-0.03,0-0.1-0.02-0.2-0.05c-0.03-0.07-0.05-0.13-0.05-0.2c0-0.07,0.02-0.13,0.05-0.2c0.1-0.03,0.17-0.05,0.2-0.05h5.9
			C79.39,29.82,79.44,29.83,79.48,29.87z M73.42,28.67h5.9c0.07,0,0.12,0.02,0.15,0.05c0.07,0.07,0.1,0.13,0.1,0.2
			c0,0.07-0.03,0.13-0.1,0.2c-0.03,0.03-0.08,0.05-0.15,0.05h-5.9c-0.03,0-0.1-0.02-0.2-0.05c-0.03-0.07-0.05-0.13-0.05-0.2
			c0-0.07,0.02-0.13,0.05-0.2C73.33,28.68,73.39,28.67,73.42,28.67z M73.23,27.92c-0.03-0.03-0.05-0.08-0.05-0.15
			c0-0.07,0.02-0.15,0.05-0.25c0.03,0,0.1,0,0.2,0h5.9c0.07,0,0.12,0,0.15,0c0.07,0.1,0.1,0.18,0.1,0.25c0,0.07-0.03,0.12-0.1,0.15
			c-0.03,0.07-0.08,0.1-0.15,0.1h-5.9C73.33,28.02,73.26,27.98,73.23,27.92z M73.42,26.87c-0.1,0-0.17-0.03-0.2-0.1
			c-0.07-0.03-0.1-0.08-0.1-0.15c0-0.1,0.03-0.15,0.1-0.15c0.03-0.1,0.1-0.15,0.2-0.15h5.85c0.1,0,0.15,0.05,0.15,0.15
			c0.1,0,0.15,0.05,0.15,0.15c0,0.07-0.05,0.12-0.15,0.15c0,0.07-0.05,0.1-0.15,0.1H73.42z M73.08,24.52c-0.07-0.1-0.1-0.17-0.1-0.2
			c0-0.1,0.03-0.17,0.1-0.2c0.07-0.07,0.12-0.1,0.15-0.1h5.9c0.07,0,0.13,0.03,0.2,0.1c0.07,0.03,0.1,0.1,0.1,0.2
			c0,0.03-0.03,0.1-0.1,0.2c-0.07,0-0.13,0-0.2,0h-5.9C73.19,24.52,73.14,24.52,73.08,24.52z M73.17,25.27
			c0.03-0.03,0.1-0.05,0.2-0.05h5.8c0.1,0,0.18,0.02,0.25,0.05c0,0.07,0,0.12,0,0.15c0,0.1,0,0.17,0,0.2
			c-0.07,0.07-0.15,0.1-0.25,0.1h-5.8c-0.1,0-0.17-0.03-0.2-0.1c-0.07-0.03-0.1-0.1-0.1-0.2C73.08,25.38,73.11,25.33,73.17,25.27z
			 M72.92,23.12c0-0.07,0.02-0.13,0.05-0.2c0.07-0.03,0.13-0.05,0.2-0.05h5.8c0.07,0,0.13,0.02,0.2,0.05
			c0.03,0.07,0.05,0.13,0.05,0.2c0,0.1-0.02,0.17-0.05,0.2c-0.07,0.07-0.13,0.1-0.2,0.1h-5.8c-0.07,0-0.13-0.03-0.2-0.1
			C72.94,23.28,72.92,23.22,72.92,23.12z M78.88,21.72c0.03,0,0.08,0.02,0.15,0.05c0.07,0.07,0.1,0.13,0.1,0.2
			c0,0.07-0.03,0.13-0.1,0.2c-0.07,0.03-0.12,0.05-0.15,0.05h-5.85c-0.07,0-0.12-0.02-0.15-0.05c-0.07-0.07-0.1-0.13-0.1-0.2
			c0-0.07,0.03-0.13,0.1-0.2c0.03-0.03,0.08-0.05,0.15-0.05H78.88z M78.73,20.57c0.03,0,0.08,0.02,0.15,0.05
			c0.03,0.07,0.05,0.13,0.05,0.2c0,0.07-0.02,0.13-0.05,0.2c-0.07,0.03-0.12,0.05-0.15,0.05h-5.8c-0.07,0-0.13-0.02-0.2-0.05
			c-0.03-0.07-0.05-0.13-0.05-0.2c0-0.07,0.02-0.13,0.05-0.2c0.07-0.03,0.13-0.05,0.2-0.05H78.73z M78.73,19.52
			c0.03,0.03,0.05,0.08,0.05,0.15c0,0.07-0.02,0.12-0.05,0.15c-0.07,0.1-0.13,0.15-0.2,0.15h-5.8c-0.07,0-0.13-0.05-0.2-0.15
			c-0.03-0.03-0.05-0.08-0.05-0.15c0-0.07,0.02-0.12,0.05-0.15c0.07-0.07,0.13-0.1,0.2-0.1h5.8C78.59,19.42,78.66,19.45,78.73,19.52
			z M78.52,18.72c-0.07,0.03-0.15,0.05-0.25,0.05h-5.8c-0.07,0-0.13-0.02-0.2-0.05c-0.07-0.07-0.1-0.13-0.1-0.2
			c0-0.07,0.03-0.12,0.1-0.15c0.07-0.1,0.13-0.15,0.2-0.15h5.8c0.1,0,0.18,0.05,0.25,0.15c0,0.03,0,0.08,0,0.15
			C78.52,18.58,78.52,18.65,78.52,18.72z M78.27,17.17c0.03,0.07,0.05,0.13,0.05,0.2c0,0.07-0.02,0.12-0.05,0.15
			c-0.07,0.07-0.13,0.1-0.2,0.1h-5.95c-0.07,0-0.12-0.03-0.15-0.1c-0.07-0.03-0.1-0.08-0.1-0.15c0-0.07,0.03-0.13,0.1-0.2
			c0.03-0.03,0.08-0.05,0.15-0.05h5.95C78.14,17.12,78.21,17.13,78.27,17.17z"/>
	</g>
	<g>
		
			<linearGradient id="SVGID_29_" gradientUnits="userSpaceOnUse" x1="-39.8882" y1="-768.9727" x2="-15.7866" y2="-768.9727" gradientTransform="matrix(-0.2635 0.9647 -0.9534 -0.3049 -595.3167 -181.3908)">
			<stop  offset="0" style="stop-color:#000000"/>
			<stop  offset="1" style="stop-color:#000000;stop-opacity:0.498"/>
		</linearGradient>
		<path fill-rule="evenodd" clip-rule="evenodd" fill="url(#SVGID_29_)" d="M129.33,39.92c2.47-7.1,2.47-14.05,0-20.85l1.55-1.7
			h26.75l1.5,1.7v20.85l-1.5,1.65h-26.75L129.33,39.92z"/>
	</g>
	<g>
		<g>
			<linearGradient id="SVGID_30_" gradientUnits="userSpaceOnUse" x1="158.9404" y1="69.126" x2="133.5154" y2="69.159">
				<stop  offset="0" style="stop-color:#141616"/>
				<stop  offset="0.2824" style="stop-color:#FFFFFF"/>
				<stop  offset="0.3373" style="stop-color:#E8EAEA"/>
				<stop  offset="0.4471" style="stop-color:#B4B9BA"/>
				<stop  offset="0.6275" style="stop-color:#FFFFFF"/>
				<stop  offset="0.7412" style="stop-color:#899398"/>
				<stop  offset="1" style="stop-color:#424D4F"/>
			</linearGradient>
			<path fill-rule="evenodd" clip-rule="evenodd" fill="url(#SVGID_30_)" d="M133.22,64.72c0.03,0.2,1.33,0.4,3.9,0.6
				c2.63,0.13,5.77,0.2,9.4,0.2c0.2,0,0.42,0,0.65,0c2.23,0,4.27-0.02,6.1-0.05c0.97-0.03,1.87-0.08,2.7-0.15
				c2.47-0.17,3.75-0.35,3.85-0.55v0.55v6.6c0,0.4-0.47,0.7-1.4,0.9h-0.5v0.1c-0.13,0.03-0.25,0.05-0.35,0.05
				c-1.9,0.23-3.8,0.4-5.7,0.5c-5.13,0.27-10.42,0.08-15.85-0.55c-1.77-0.27-2.7-0.73-2.8-1.4v-0.05c0-0.03,0-0.08,0-0.15v-0.8
				v-5.25V64.72z"/>
			
				<linearGradient id="SVGID_31_" gradientUnits="userSpaceOnUse" x1="-662.0425" y1="-680.5884" x2="-633.3833" y2="-680.5884" gradientTransform="matrix(-0.9997 -0.0253 0.0775 -0.9984 -445.9173 -631.1021)">
				<stop  offset="0" style="stop-color:#000000"/>
				<stop  offset="1" style="stop-color:#8C8F8F"/>
			</linearGradient>
			<path fill-rule="evenodd" clip-rule="evenodd" fill="url(#SVGID_31_)" d="M140.78,63.92v1.05c2,0.2,3.93,0.3,5.8,0.3
				c0.17,0,0.35,0,0.55,0c2.07,0,4.08-0.1,6.05-0.3v-1h0.05c1,0.03,1.92,0.08,2.75,0.15c1.4,0.1,2.43,0.2,3.1,0.3
				c0.43,0.07,0.68,0.13,0.75,0.2c0.03,0.03,0.05,0.07,0.05,0.1l-0.05,0.05c-0.1,0.2-1.38,0.38-3.85,0.55
				c-0.83,0.07-1.73,0.12-2.7,0.15c-1.83,0.03-3.87,0.05-6.1,0.05c-0.23,0-0.45,0-0.65,0c-3.63,0-6.77-0.07-9.4-0.2
				c-2.57-0.2-3.87-0.4-3.9-0.6v-0.05c0.03-0.1,0.3-0.18,0.8-0.25c0.7-0.1,1.73-0.2,3.1-0.3C138.26,64.02,139.47,63.95,140.78,63.92
				z"/>
			<linearGradient id="SVGID_32_" gradientUnits="userSpaceOnUse" x1="153.0752" y1="63.7666" x2="140.8753" y2="63.8338">
				<stop  offset="0" style="stop-color:#B1B8BC"/>
				<stop  offset="0.2392" style="stop-color:#B4B9BA"/>
				<stop  offset="0.4235" style="stop-color:#FFFFFF"/>
				<stop  offset="0.5333" style="stop-color:#FFFFFF"/>
				<stop  offset="0.8" style="stop-color:#899398"/>
				<stop  offset="1" style="stop-color:#171B1C"/>
			</linearGradient>
			<path fill-rule="evenodd" clip-rule="evenodd" fill="url(#SVGID_32_)" d="M153.17,63.97v1c-1.97,0.2-3.98,0.3-6.05,0.3
				c-0.2,0-0.38,0-0.55,0c-1.87,0-3.8-0.1-5.8-0.3v-1.05v-1.55c0.13,0.1,0.75,0.18,1.85,0.25c1.17,0.07,2.62,0.1,4.35,0.1
				s3.2-0.03,4.4-0.1c1.03-0.07,1.63-0.15,1.8-0.25V63.97z"/>
			<linearGradient id="SVGID_33_" gradientUnits="userSpaceOnUse" x1="146.9854" y1="-195.3828" x2="146.9656" y2="283.1172">
				<stop  offset="0" style="stop-color:#000000"/>
				<stop  offset="1" style="stop-color:#8C8F8F"/>
			</linearGradient>
			<path fill-rule="evenodd" clip-rule="evenodd" fill="url(#SVGID_33_)" d="M153.17,62.37c-0.17,0.1-0.77,0.18-1.8,0.25
				c-1.2,0.07-2.67,0.1-4.4,0.1s-3.18-0.03-4.35-0.1c-1.1-0.07-1.72-0.15-1.85-0.25v-0.05c0.13-0.1,0.75-0.17,1.85-0.2
				c1.17-0.07,2.62-0.1,4.35-0.1s3.2,0.03,4.4,0.1C152.58,62.15,153.17,62.23,153.17,62.37z"/>
		</g>
		<g>
			<path fill-rule="evenodd" clip-rule="evenodd" fill-opacity="0.2471" d="M140.42,65.47v7.9c-0.17,0-0.33,0-0.5,0v-7.95
				C140.09,65.42,140.26,65.43,140.42,65.47z M134.83,65.12v7.55c-0.17-0.03-0.33-0.08-0.5-0.15v-7.5
				C134.49,65.05,134.66,65.08,134.83,65.12z M139.13,65.42v7.85c-0.17-0.03-0.33-0.05-0.5-0.05v-7.85
				C138.79,65.37,138.96,65.38,139.13,65.42z M136.13,65.22v7.65c-0.17,0-0.33-0.02-0.5-0.05v-7.65
				C135.79,65.17,135.96,65.18,136.13,65.22z M137.58,65.32v7.8c-0.13-0.03-0.27-0.07-0.4-0.1c-0.03,0-0.07,0-0.1,0v-7.7
				C137.24,65.32,137.41,65.32,137.58,65.32z M143.17,65.52v8c-0.17,0-0.33,0-0.5,0v-8C142.84,65.52,143.01,65.52,143.17,65.52z
				 M144.58,65.52v8.05c-0.13,0-0.3,0-0.5,0v-8.05C144.28,65.52,144.44,65.52,144.58,65.52z M141.88,65.52v7.95
				c-0.17-0.03-0.33-0.05-0.5-0.05v-7.95C141.54,65.5,141.71,65.52,141.88,65.52z M147.38,65.52v8.05c-0.17,0-0.33,0-0.5,0v-8.05
				C147.04,65.52,147.21,65.52,147.38,65.52z M148.67,65.52v8.05c-0.17,0-0.33,0-0.5,0v-8.05
				C148.34,65.52,148.51,65.52,148.67,65.52z M145.88,65.52v8.05c-0.17,0-0.32,0-0.45,0v-8.05
				C145.56,65.52,145.71,65.52,145.88,65.52z M150.13,65.52v8c-0.17,0-0.33,0-0.5,0v-8C149.79,65.52,149.96,65.52,150.13,65.52z
				 M155.67,65.27v7.85c-0.17,0-0.33,0.03-0.5,0.1v-7.9C155.34,65.32,155.51,65.3,155.67,65.27z M154.22,65.37v7.9
				c-0.17,0-0.35,0.02-0.55,0.05v-7.9C153.88,65.38,154.06,65.37,154.22,65.37z M151.42,65.47v8c-0.13,0-0.28,0.02-0.45,0.05v-8
				C151.14,65.52,151.29,65.5,151.42,65.47z M152.92,65.42v7.95c-0.2,0-0.37,0.02-0.5,0.05v-7.95
				C152.56,65.43,152.72,65.42,152.92,65.42z M157.03,65.17v7.8c-0.2,0-0.38,0.02-0.55,0.05v-7.8
				C156.64,65.18,156.83,65.17,157.03,65.17z M158.42,65.02v7.65c-0.13,0.03-0.3,0.07-0.5,0.1v-7.65
				C158.13,65.08,158.29,65.05,158.42,65.02z M159.78,64.92v7.25c-0.13,0.1-0.3,0.18-0.5,0.25v-7.45
				C159.44,64.97,159.61,64.95,159.78,64.92z"/>
		</g>
		<g>
			<path fill-rule="evenodd" clip-rule="evenodd" fill="#FFFFFF" fill-opacity="0.451" d="M135.58,65.72v7.1h-0.05
				c-0.17-0.03-0.32-0.07-0.45-0.1v-7.05C135.24,65.7,135.41,65.72,135.58,65.72z M158.67,65.67c0.17-0.03,0.32-0.07,0.45-0.1v7
				c-0.1,0.07-0.25,0.13-0.45,0.2c0-0.03,0-0.07,0-0.1V65.67z M134.03,65.57c0.1,0,0.17,0,0.2,0v6.9c-0.17-0.1-0.33-0.18-0.5-0.25
				v-6.7C133.83,65.52,133.92,65.53,134.03,65.57z M157.88,65.72v7.25c-0.1,0-0.2,0-0.3,0c-0.07,0.03-0.13,0.05-0.2,0.05v-7.3
				C157.54,65.72,157.71,65.72,157.88,65.72z M156.42,65.82v7.3c-0.17,0-0.33,0-0.5,0v-7.25C156.09,65.87,156.26,65.85,156.42,65.82
				z M146.63,66.17c0.07,0,0.12,0,0.15,0v7.4c-0.17,0-0.33,0-0.5,0v-7.4C146.41,66.17,146.53,66.17,146.63,66.17z M149.08,66.17
				c0.13,0,0.3,0,0.5,0v7.4c-0.2,0-0.37,0-0.5,0V66.17z M147.63,66.17c0.17,0,0.32,0,0.45,0v7.4c-0.13,0-0.28,0-0.45,0V66.17z
				 M150.88,66.12v7.4c-0.17,0-0.35,0.02-0.55,0.05v-7.45C150.53,66.12,150.71,66.12,150.88,66.12z M151.83,66.07
				c0.17,0,0.33,0,0.5,0v7.35c-0.17,0-0.33,0.02-0.5,0.05V66.07z M154.58,65.97c0.2-0.03,0.37-0.05,0.5-0.05v7.3
				c-0.13,0.03-0.3,0.05-0.5,0.05V65.97z M153.13,66.07c0.17-0.03,0.35-0.05,0.55-0.05v7.35c-0.2,0-0.38,0-0.55,0V66.07z
				 M145.33,66.17v7.4c-0.17,0-0.33,0-0.5,0v-7.4C144.99,66.17,145.16,66.17,145.33,66.17z M142.63,66.12v7.35
				c-0.2-0.03-0.37-0.05-0.5-0.05v-7.35C142.26,66.07,142.42,66.08,142.63,66.12z M144.03,66.17v7.35c-0.17,0-0.32,0-0.45,0v-7.4
				C143.71,66.12,143.86,66.13,144.03,66.17z M141.33,66.07v7.3c-0.17,0-0.35,0-0.55,0v-7.3C140.97,66.07,141.16,66.07,141.33,66.07
				z M139.83,66.02v7.25c-0.17,0-0.33-0.02-0.5-0.05v-7.2C139.49,66.02,139.66,66.02,139.83,66.02z M138.53,65.92v7.3
				c-0.2-0.07-0.37-0.1-0.5-0.1v-7.2C138.16,65.92,138.33,65.92,138.53,65.92z M136.53,72.97v-7.2c0.17,0.03,0.33,0.05,0.5,0.05v7.2
				C136.86,73.02,136.69,73,136.53,72.97z"/>
		</g>
		<g>
			<linearGradient id="SVGID_34_" gradientUnits="userSpaceOnUse" x1="149.5322" y1="39.71" x2="145.507" y2="39.7404">
				<stop  offset="0" style="stop-color:#727B82"/>
				<stop  offset="0.2039" style="stop-color:#FFFFFF"/>
				<stop  offset="0.4431" style="stop-color:#AAAFB3"/>
				<stop  offset="0.5882" style="stop-color:#798086"/>
				<stop  offset="0.7529" style="stop-color:#97A0A4"/>
				<stop  offset="1" style="stop-color:#6B767A"/>
			</linearGradient>
			<path fill-rule="evenodd" clip-rule="evenodd" fill="url(#SVGID_34_)" d="M147.47,62.47c-0.77,0-1.4-0.1-1.9-0.3
				c-0.23-0.1-0.4-0.22-0.5-0.35c-0.1-0.07-0.17-0.12-0.2-0.15l-0.15-44.65l5-0.05v45.05c-0.1,0.03-0.22,0.08-0.35,0.15
				C148.84,62.37,148.21,62.47,147.47,62.47z"/>
		</g>
		<g>
			
				<radialGradient id="SVGID_35_" cx="146.6445" cy="65.2656" r="7.6264" gradientTransform="matrix(-4.371139e-008 1 -1.7234 -7.533239e-008 259.1235 -81.3789)" gradientUnits="userSpaceOnUse">
				<stop  offset="0" style="stop-color:#FFFFFF"/>
				<stop  offset="1" style="stop-color:#FFFFFF;stop-opacity:0"/>
			</radialGradient>
			<path fill-rule="evenodd" clip-rule="evenodd" fill="url(#SVGID_35_)" d="M133.38,65.42c-0.1-0.07-0.13-0.15-0.1-0.25
				c0.03-0.07,0.1-0.13,0.2-0.2c0.13,0,0.27,0,0.4,0c8.57,0.83,17.1,0.83,25.6,0c0.13,0,0.25,0,0.35,0c0.13,0.07,0.2,0.13,0.2,0.2
				c0,0.1-0.02,0.18-0.05,0.25c-0.1,0.07-0.22,0.1-0.35,0.1c-8.6,0.83-17.25,0.83-25.95,0C133.54,65.52,133.44,65.48,133.38,65.42z"
				/>
			
				<radialGradient id="SVGID_36_" cx="147.125" cy="62.7158" r="3.7" gradientTransform="matrix(-4.371139e-008 1 -1.723 -7.531354e-008 255.1827 -84.4092)" gradientUnits="userSpaceOnUse">
				<stop  offset="0" style="stop-color:#FFFFFF"/>
				<stop  offset="1" style="stop-color:#FFFFFF;stop-opacity:0"/>
			</radialGradient>
			<path fill-rule="evenodd" clip-rule="evenodd" fill="url(#SVGID_36_)" d="M140.67,62.62c0.03-0.07,0.1-0.12,0.2-0.15
				c0.13-0.07,0.27-0.1,0.4-0.1c3.7,0.33,7.52,0.35,11.45,0.05c0.13,0,0.25,0.02,0.35,0.05c0.13,0.07,0.22,0.15,0.25,0.25
				c0,0.07-0.05,0.12-0.15,0.15c-0.07,0.1-0.18,0.17-0.35,0.2c-4,0.3-7.9,0.27-11.7-0.1c-0.17-0.03-0.28-0.07-0.35-0.1
				C140.71,62.8,140.67,62.72,140.67,62.62z"/>
			
				<radialGradient id="SVGID_37_" cx="146.875" cy="72.3164" r="7.6375" gradientTransform="matrix(-4.371139e-008 1 -1.7234 -7.533239e-008 271.5053 -74.5586)" gradientUnits="userSpaceOnUse">
				<stop  offset="0" style="stop-color:#000000;stop-opacity:0.2902"/>
				<stop  offset="1" style="stop-color:#FFFFFF;stop-opacity:0"/>
			</radialGradient>
			<path fill-rule="evenodd" clip-rule="evenodd" fill="url(#SVGID_37_)" d="M158.78,72.17c0.13,0,0.25,0,0.35,0
				c0.17,0.07,0.27,0.13,0.3,0.2c0.03,0.1,0.02,0.17-0.05,0.2c-0.07,0.1-0.17,0.15-0.3,0.15c-8.07,1.17-16.13,1.18-24.2,0.05
				c-0.13-0.03-0.23-0.08-0.3-0.15c-0.07-0.07-0.1-0.15-0.1-0.25c0.07-0.07,0.15-0.13,0.25-0.2c0.13,0,0.27,0,0.4,0
				C143.03,73.33,150.91,73.33,158.78,72.17z"/>
		</g>
	</g>
	<g>
		<g>
			<linearGradient id="SVGID_38_" gradientUnits="userSpaceOnUse" x1="147.7334" y1="14.4814" x2="147.228" y2="39.7579">
				<stop  offset="0" style="stop-color:#B1B8BC"/>
				<stop  offset="0.2392" style="stop-color:#B4B9BA"/>
				<stop  offset="0.4235" style="stop-color:#FFFFFF"/>
				<stop  offset="0.5333" style="stop-color:#FFFFFF"/>
				<stop  offset="0.8" style="stop-color:#899398"/>
				<stop  offset="0.902" style="stop-color:#6B757A"/>
				<stop  offset="0.9608" style="stop-color:#646E74"/>
				<stop  offset="1" style="stop-color:#171B1C"/>
			</linearGradient>
			<polygon fill-rule="evenodd" clip-rule="evenodd" fill="url(#SVGID_38_)" points="132.83,21.32 134.28,19.97 160.53,19.97 
				162.03,21.32 162.03,38.42 160.53,39.77 134.28,39.77 132.83,38.42 			"/>
		</g>
		<g>
			
				<linearGradient id="SVGID_39_" gradientUnits="userSpaceOnUse" x1="-14.8594" y1="-782.877" x2="5.1581" y2="-782.877" gradientTransform="matrix(-0.311 0.9504 -0.9677 -0.2583 -610.9611 -170.1646)">
				<stop  offset="0" style="stop-color:#FFFFFF"/>
				<stop  offset="1" style="stop-color:#FFFFFF;stop-opacity:0"/>
			</linearGradient>
			<polygon fill-rule="evenodd" clip-rule="evenodd" fill="url(#SVGID_39_)" points="132.63,38.67 132.63,21.57 134.08,20.27 
				160.33,20.27 161.83,21.57 161.83,38.67 160.33,40.02 134.08,40.02 			"/>
		</g>
		<g>
			
				<radialGradient id="SVGID_40_" cx="148.4248" cy="20.1162" r="16.8625" gradientTransform="matrix(-4.371139e-008 1 -1.109 -4.847460e-008 170.7331 -128.3086)" gradientUnits="userSpaceOnUse">
				<stop  offset="0" style="stop-color:#FFFFFF"/>
				<stop  offset="1" style="stop-color:#FDFDFD;stop-opacity:0"/>
			</radialGradient>
			<path fill-rule="evenodd" clip-rule="evenodd" fill="url(#SVGID_40_)" d="M160.42,20.02v0.05l0.05,0.05
				c0,0.03-0.02,0.08-0.05,0.15h-0.15h-25.75c-0.03,0-0.07,0-0.1,0c0-0.07,0-0.12,0-0.15v-0.05c0.03-0.03,0.07-0.05,0.1-0.05H160.42
				z"/>
			
				<radialGradient id="SVGID_41_" cx="162.0254" cy="27.666" r="8.425" gradientTransform="matrix(-4.371139e-008 1 -1.1083 -4.844571e-008 192.6879 -134.3594)" gradientUnits="userSpaceOnUse">
				<stop  offset="0" style="stop-color:#FFFFFF"/>
				<stop  offset="1" style="stop-color:#FDFDFD;stop-opacity:0"/>
			</radialGradient>
			<path fill-rule="evenodd" clip-rule="evenodd" fill="url(#SVGID_41_)" d="M161.83,21.27v0.05c0.07,0,0.1,0.02,0.1,0.05v16.65
				c0,0.03-0.03,0.05-0.1,0.05v0.05c-0.07,0-0.12-0.02-0.15-0.05v-16.6v-0.15C161.71,21.28,161.76,21.27,161.83,21.27z"/>
			
				<radialGradient id="SVGID_42_" cx="161.2246" cy="20.7158" r="1.4875" gradientTransform="matrix(-4.371139e-008 1 -1.1092 -4.848658e-008 184.2035 -140.5088)" gradientUnits="userSpaceOnUse">
				<stop  offset="0" style="stop-color:#FFFFFF"/>
				<stop  offset="1" style="stop-color:#FDFDFD;stop-opacity:0"/>
			</radialGradient>
			<path fill-rule="evenodd" clip-rule="evenodd" fill="url(#SVGID_42_)" d="M160.28,20.27h0.15c0.03-0.07,0.05-0.12,0.05-0.15
				l-0.05-0.05v-0.05l1.4,1.25c-0.07,0-0.12,0.02-0.15,0.05v0.15L160.28,20.27z"/>
		</g>
		<g>
			
				<radialGradient id="SVGID_43_" cx="145.125" cy="20.6162" r="4.8" gradientTransform="matrix(-4.371139e-008 1 -1.8438 -8.059287e-008 183.1362 -124.5088)" gradientUnits="userSpaceOnUse">
				<stop  offset="0" style="stop-color:#FFFFFF"/>
				<stop  offset="0.4078" style="stop-color:#FFFFFF;stop-opacity:0.8863"/>
				<stop  offset="0.4784" style="stop-color:#FFFFFF;stop-opacity:0.8941"/>
				<stop  offset="1" style="stop-color:#FFFFFF;stop-opacity:0"/>
			</radialGradient>
			<path fill-rule="evenodd" clip-rule="evenodd" fill="url(#SVGID_43_)" d="M134.42,21.02v-0.75h23.05c0.1,0,0.2,0.03,0.3,0.1
				c0.07,0.07,0.1,0.15,0.1,0.25c0,0.1-0.03,0.18-0.1,0.25c-0.1,0.1-0.2,0.15-0.3,0.15H134.42z"/>
			
				<radialGradient id="SVGID_44_" cx="161.4746" cy="30.3159" r="7.8375" gradientTransform="matrix(-4.371139e-008 1 -1.11 -4.852173e-008 195.1268 -131.1587)" gradientUnits="userSpaceOnUse">
				<stop  offset="0" style="stop-color:#FFFFFF"/>
				<stop  offset="1" style="stop-color:#FFFFFF;stop-opacity:0"/>
			</radialGradient>
			<path fill-rule="evenodd" clip-rule="evenodd" fill="url(#SVGID_44_)" d="M161.17,22.52c0.07-0.07,0.17-0.1,0.3-0.1
				c0.07,0,0.13,0.03,0.2,0.1c0.1,0.07,0.15,0.15,0.15,0.25v15.1c0,0.07-0.05,0.13-0.15,0.2c-0.07,0.1-0.13,0.15-0.2,0.15
				c-0.13,0-0.23-0.05-0.3-0.15c-0.07-0.07-0.1-0.13-0.1-0.2v-15.1C161.08,22.67,161.11,22.58,161.17,22.52z"/>
		</g>
		<g>
			<g>
				<path fill-rule="evenodd" clip-rule="evenodd" fill-opacity="0.2431" d="M159.72,28.97c0.3,0.33,0.45,0.7,0.45,1.1
					c0,0.43-0.15,0.82-0.45,1.15c-0.33,0.3-0.7,0.45-1.1,0.45c-0.43,0-0.8-0.15-1.1-0.45c-0.3-0.33-0.45-0.72-0.45-1.15
					c0-0.4,0.15-0.77,0.45-1.1c0.3-0.27,0.67-0.4,1.1-0.4C159.03,28.57,159.39,28.7,159.72,28.97z"/>
			</g>
			<g>
				<radialGradient id="SVGID_45_" cx="159.5752" cy="29.166" r="2.025" gradientUnits="userSpaceOnUse">
					<stop  offset="0" style="stop-color:#FFFFFF"/>
					<stop  offset="0.1961" style="stop-color:#9D9D9D"/>
					<stop  offset="1" style="stop-color:#000000"/>
				</radialGradient>
				<path fill-rule="evenodd" clip-rule="evenodd" fill="url(#SVGID_45_)" d="M160.03,28.32c0.27,0.33,0.4,0.72,0.4,1.15
					c0,0.43-0.13,0.78-0.4,1.05c-0.33,0.33-0.73,0.5-1.2,0.5c-0.43,0-0.78-0.17-1.05-0.5c-0.33-0.27-0.5-0.62-0.5-1.05
					c0-0.43,0.17-0.82,0.5-1.15c0.27-0.27,0.62-0.4,1.05-0.4C159.29,27.92,159.69,28.05,160.03,28.32z"/>
			</g>
		</g>
		<g>
			<g>
				<path fill-rule="evenodd" clip-rule="evenodd" fill-opacity="0.2431" d="M134.47,28.97c0.3-0.27,0.67-0.4,1.1-0.4
					c0.4,0,0.77,0.13,1.1,0.4c0.27,0.33,0.4,0.7,0.4,1.1c0,0.43-0.13,0.82-0.4,1.15c-0.33,0.3-0.7,0.45-1.1,0.45
					c-0.43,0-0.8-0.15-1.1-0.45c-0.3-0.33-0.45-0.72-0.45-1.15C134.03,29.67,134.17,29.3,134.47,28.97z"/>
			</g>
			<g>
				<radialGradient id="SVGID_46_" cx="136.5254" cy="29.166" r="2.025" gradientUnits="userSpaceOnUse">
					<stop  offset="0" style="stop-color:#FFFFFF"/>
					<stop  offset="0.1961" style="stop-color:#9D9D9D"/>
					<stop  offset="1" style="stop-color:#000000"/>
				</radialGradient>
				<path fill-rule="evenodd" clip-rule="evenodd" fill="url(#SVGID_46_)" d="M134.72,30.52c-0.3-0.27-0.45-0.62-0.45-1.05
					c0-0.43,0.15-0.82,0.45-1.15c0.27-0.27,0.63-0.4,1.1-0.4c0.43,0,0.8,0.13,1.1,0.4c0.3,0.33,0.45,0.72,0.45,1.15
					c0,0.43-0.15,0.78-0.45,1.05c-0.3,0.33-0.67,0.5-1.1,0.5C135.36,31.02,134.99,30.85,134.72,30.52z"/>
			</g>
		</g>
	</g>
	<g>
		<radialGradient id="SVGID_47_" cx="64.4248" cy="26.0161" r="9.725" gradientUnits="userSpaceOnUse">
			<stop  offset="0" style="stop-color:#FFFFFF;stop-opacity:0.4118"/>
			<stop  offset="1" style="stop-color:#FEFEFE;stop-opacity:0"/>
		</radialGradient>
		<path fill-rule="evenodd" clip-rule="evenodd" fill="url(#SVGID_47_)" d="M64.13,16.77c0.07-0.03,0.13-0.05,0.2-0.05
			c0.07,0,0.12,0.02,0.15,0.05c0.07,0.07,0.1,0.13,0.1,0.2l-0.1,24.4c0,0.07-0.02,0.12-0.05,0.15c-0.07,0.07-0.13,0.1-0.2,0.1
			c-0.07,0-0.12-0.03-0.15-0.1c-0.07-0.03-0.1-0.08-0.1-0.15l0.1-24.4C64.08,16.9,64.09,16.83,64.13,16.77z"/>
	</g>
</g>
</svg>
