<?xml version="1.0" encoding="utf-8"?>
<!-- Generator: Adobe Illustrator 16.0.0, SVG Export Plug-In . SVG Version: 6.00 Build 0)  -->
<!DOCTYPE svg PUBLIC "-//W3C//DTD SVG 1.1//EN" "http://www.w3.org/Graphics/SVG/1.1/DTD/svg11.dtd">
<svg version="1.1" id="Layer_1" xmlns="http://www.w3.org/2000/svg" xmlns:xlink="http://www.w3.org/1999/xlink" x="0px" y="0px"
	 width="193px" height="215.5px" viewBox="0 0 193 215.5" enable-background="new 0 0 193 215.5" xml:space="preserve">
<g>
	<g>
		<g>
			<g>
				<linearGradient id="SVGID_1_" gradientUnits="userSpaceOnUse" x1="140.8662" y1="59.3652" x2="154.4757" y2="68.489">
					<stop  offset="0" style="stop-color:#141616"/>
					<stop  offset="0.2824" style="stop-color:#FFFFFF"/>
					<stop  offset="0.3373" style="stop-color:#E8EAEA"/>
					<stop  offset="0.4471" style="stop-color:#B4B9BA"/>
					<stop  offset="0.6275" style="stop-color:#FFFFFF"/>
					<stop  offset="0.7412" style="stop-color:#899398"/>
					<stop  offset="1" style="stop-color:#424D4F"/>
				</linearGradient>
				<path fill-rule="evenodd" clip-rule="evenodd" fill="url(#SVGID_1_)" d="M151.85,72.8c0.1-0.23-0.48-0.88-1.75-1.95
					c-1.3-1.07-2.92-2.28-4.85-3.65c-0.13-0.03-0.27-0.1-0.4-0.2c-1.17-0.8-2.27-1.52-3.3-2.15c-0.5-0.3-1-0.57-1.5-0.8
					c-1.4-0.77-2.22-1.07-2.45-0.9l0.45-0.5l4.1-6.35c0.2-0.3,0.62-0.38,1.25-0.25l0.3,0.2l0.1-0.15c0.07,0,0.13,0.02,0.2,0.05
					c1.13,0.47,2.28,1.03,3.45,1.7c2.83,1.57,5.53,3.63,8.1,6.2c0.7,0.9,0.88,1.68,0.55,2.35c-0.07,0.03-0.12,0.08-0.15,0.15
					l-0.45,0.8l-3.3,5L151.85,72.8z"/>
				<linearGradient id="SVGID_2_" gradientUnits="userSpaceOnUse" x1="136.0078" y1="61.6313" x2="150.8983" y2="72.6267">
					<stop  offset="0" style="stop-color:#000000"/>
					<stop  offset="1" style="stop-color:#8C8F8F"/>
				</linearGradient>
				<path fill-rule="evenodd" clip-rule="evenodd" fill="url(#SVGID_2_)" d="M137.6,63.15c0.23-0.17,1.05,0.13,2.45,0.9
					c0.5,0.23,1,0.5,1.5,0.8c1.03,0.63,2.13,1.35,3.3,2.15c0.13,0.1,0.27,0.17,0.4,0.2c1.93,1.37,3.55,2.58,4.85,3.65
					c1.27,1.07,1.85,1.72,1.75,1.95c-0.1,0.13-0.3,0.13-0.6,0c-0.47-0.13-1.1-0.4-1.9-0.8c-0.63-0.37-1.33-0.75-2.1-1.15l0.7-1
					c-1-0.9-1.97-1.68-2.9-2.35c-0.13-0.1-0.25-0.17-0.35-0.2c-1.13-0.73-2.28-1.38-3.45-1.95l-0.6,1l-0.05-0.1
					c-0.47-0.4-0.92-0.75-1.35-1.05c-0.67-0.63-1.17-1.1-1.5-1.4c-0.13-0.3-0.2-0.48-0.2-0.55v-0.1
					C137.55,63.12,137.57,63.12,137.6,63.15z"/>
				<linearGradient id="SVGID_3_" gradientUnits="userSpaceOnUse" x1="140.6475" y1="66.5186" x2="147.1553" y2="70.8819">
					<stop  offset="0" style="stop-color:#B1B8BC"/>
					<stop  offset="0.2392" style="stop-color:#B4B9BA"/>
					<stop  offset="0.4235" style="stop-color:#FFFFFF"/>
					<stop  offset="0.5333" style="stop-color:#FFFFFF"/>
					<stop  offset="0.8" style="stop-color:#899398"/>
					<stop  offset="1" style="stop-color:#171B1C"/>
				</linearGradient>
				<path fill-rule="evenodd" clip-rule="evenodd" fill="url(#SVGID_3_)" d="M146.25,72.25c0-0.07-0.25-0.35-0.75-0.85
					c-0.63-0.5-1.42-1.07-2.35-1.7c-0.93-0.63-1.72-1.1-2.35-1.4c-0.6-0.33-0.98-0.5-1.15-0.5l1-1.45l0.6-1
					c1.17,0.57,2.32,1.22,3.45,1.95c0.1,0.03,0.22,0.1,0.35,0.2c0.93,0.67,1.9,1.45,2.9,2.35l-0.7,1L146.25,72.25z"/>
				<linearGradient id="SVGID_4_" gradientUnits="userSpaceOnUse" x1="-19.6816" y1="311.8662" x2="282.2794" y2="-137.0716">
					<stop  offset="0" style="stop-color:#000000"/>
					<stop  offset="1" style="stop-color:#8C8F8F"/>
				</linearGradient>
				<path fill-rule="evenodd" clip-rule="evenodd" fill="url(#SVGID_4_)" d="M139.65,67.8c0.17,0,0.55,0.17,1.15,0.5
					c0.63,0.3,1.42,0.77,2.35,1.4c0.93,0.63,1.72,1.2,2.35,1.7c0.5,0.5,0.75,0.78,0.75,0.85v0.1c-0.13,0.03-0.5-0.13-1.1-0.5
					c-0.7-0.33-1.5-0.8-2.4-1.4c-0.93-0.63-1.7-1.22-2.3-1.75C139.92,68.2,139.65,67.9,139.65,67.8z"/>
			</g>
			<g>
				<path fill-rule="evenodd" clip-rule="evenodd" fill-opacity="0.2471" d="M149.4,59.05l-5.05,7.55c-0.07-0.03-0.15-0.1-0.25-0.2
					l5.05-7.55C149.28,58.92,149.37,58.98,149.4,59.05z M151.55,60.5l-5.1,7.6c-0.1-0.07-0.17-0.13-0.2-0.2l5.05-7.6
					C151.4,60.37,151.48,60.43,151.55,60.5z M150.9,60l-5.1,7.6c-0.1-0.07-0.2-0.13-0.3-0.2l5.15-7.55
					C150.72,59.92,150.8,59.97,150.9,60z M150.1,59.55l-5.05,7.6c-0.1-0.1-0.2-0.18-0.3-0.25l5.05-7.55
					C149.93,59.38,150.03,59.45,150.1,59.55z M147.05,57.65L142,65.2c-0.1-0.1-0.18-0.17-0.25-0.2l4.95-7.55
					C146.83,57.55,146.95,57.62,147.05,57.65z M147.85,58.1l-5.05,7.55c-0.07-0.03-0.18-0.1-0.35-0.2l5.15-7.55
					C147.7,58,147.78,58.07,147.85,58.1z M142.75,56.05l-4.7,7.1c-0.1-0.07-0.2-0.1-0.3-0.1l4.6-6.95
					C142.42,56.07,142.55,56.05,142.75,56.05z M146.25,57.2l-5,7.5c-0.07,0-0.18-0.03-0.35-0.1l5.1-7.5
					C146.13,57.17,146.22,57.2,146.25,57.2z M145.45,56.85l-5.05,7.45c-0.1-0.03-0.2-0.1-0.3-0.2l5-7.4
					C145.23,56.73,145.35,56.78,145.45,56.85z M143.7,56.25l-4.8,7.25c-0.13-0.03-0.25-0.1-0.35-0.2l4.8-7.2
					C143.45,56.2,143.57,56.25,143.7,56.25z M144.65,56.5l-4.85,7.4c-0.13-0.07-0.25-0.1-0.35-0.1l4.85-7.45
					C144.43,56.42,144.55,56.47,144.65,56.5z M147.05,68.5l5.05-7.6c0.07,0.03,0.17,0.1,0.3,0.2l-5.15,7.6
					C147.22,68.6,147.15,68.53,147.05,68.5z M147.65,68.95l5.05-7.55c0.1,0.07,0.2,0.13,0.3,0.2l-5.05,7.55
					C147.88,69.08,147.78,69.02,147.65,68.95z M143.3,65.95l5.05-7.65c0.07,0.07,0.15,0.13,0.25,0.2l-5.05,7.65
					C143.45,66.05,143.37,65.98,143.3,65.95z M155.7,64.25l-4.95,7.3c-0.03-0.1-0.1-0.17-0.2-0.2l4.95-7.3
					C155.53,64.08,155.6,64.15,155.7,64.25z M155,63.5v0.1l-4.9,7.3c-0.07-0.07-0.13-0.15-0.2-0.25l4.9-7.35
					C154.9,63.33,154.97,63.4,155,63.5z M156.15,65l-4.7,7.15c-0.1-0.07-0.17-0.17-0.2-0.3l4.7-7.15
					C156.05,64.8,156.12,64.9,156.15,65z M154.35,62.85l-5,7.4c-0.1-0.03-0.18-0.1-0.25-0.2l4.95-7.4
					C154.15,62.68,154.25,62.75,154.35,62.85z M153.75,62.25l-5.1,7.45c-0.07-0.03-0.15-0.08-0.25-0.15l5.05-7.5
					C153.55,62.12,153.65,62.18,153.75,62.25z"/>
				<g>
					<path fill-rule="evenodd" clip-rule="evenodd" fill="#BB6565" fill-opacity="0.451" d="M142,56.45V56.3
						c0-0.03,0.02-0.05,0.05-0.05L142,56.45z"/>
				</g>
			</g>
			<g>
				<path fill-rule="evenodd" clip-rule="evenodd" fill="#FFFFFF" fill-opacity="0.451" d="M148.65,58.5
					c0.1,0.07,0.18,0.15,0.25,0.25l-4.65,7c-0.1-0.07-0.22-0.12-0.35-0.15L148.65,58.5z M149.5,59.05c0.03,0,0.12,0.05,0.25,0.15
					l-4.7,7.05c-0.13-0.03-0.25-0.1-0.35-0.2L149.5,59.05z M151.25,60.3l-4.8,7c-0.1-0.1-0.17-0.15-0.2-0.15l4.7-7.1
					C151.02,60.12,151.12,60.2,151.25,60.3z M151.9,60.75l-4.7,6.95c-0.1-0.07-0.2-0.1-0.3-0.1l4.75-7.05
					C151.68,60.65,151.77,60.72,151.9,60.75z M147.95,58.1c0.07,0,0.13,0.05,0.2,0.15l-4.65,7c-0.07,0-0.17-0.03-0.3-0.1
					L147.95,58.1z M147.1,57.65c0.1,0,0.22,0.07,0.35,0.2l-4.75,6.95c-0.07-0.07-0.15-0.13-0.25-0.2L147.1,57.65z M143.2,55.95
					c0.07,0.07,0.07,0.1,0,0.1l-4.35,6.7c-0.1-0.07-0.2-0.1-0.3-0.1l4.4-6.7C143.05,55.95,143.13,55.95,143.2,55.95z M150.15,59.45
					c0.1,0.07,0.2,0.13,0.3,0.2l-4.75,7.1c-0.1-0.03-0.17-0.08-0.2-0.15l-0.05-0.05L150.15,59.45z M145.05,56.65l-4.65,6.85
					c-0.1-0.03-0.2-0.1-0.3-0.2l4.6-6.85C144.8,56.48,144.92,56.55,145.05,56.65z M144,56.15c0.07,0,0.1,0.03,0.1,0.1l-4.45,6.85
					c-0.13-0.03-0.25-0.08-0.35-0.15l4.6-6.85L144,56.15z M146.3,57.25c0.1,0.03,0.22,0.08,0.35,0.15L142,64.3
					c-0.13-0.03-0.22-0.05-0.25-0.05L146.3,57.25z M145.5,56.85c0.1,0.03,0.2,0.05,0.3,0.05l-4.65,7c-0.07-0.07-0.18-0.1-0.35-0.1
					L145.5,56.85z M147.65,68.1l4.75-6.95c0.07,0.03,0.13,0.1,0.2,0.2l-4.65,6.95C147.85,68.27,147.75,68.2,147.65,68.1z
					 M154.6,63.1L150,70c-0.07-0.1-0.13-0.2-0.2-0.3l4.55-6.8h0.05C154.43,62.93,154.5,63,154.6,63.1z M154,62.5l-4.65,6.95
					c-0.1-0.07-0.18-0.13-0.25-0.2l4.7-6.95C153.83,62.4,153.9,62.47,154,62.5z M155.05,63.6c0.1,0.07,0.18,0.13,0.25,0.2
					l-4.55,6.85c-0.07-0.1-0.15-0.18-0.25-0.25l4.5-6.8H155.05z M155.75,64.3c0.03,0.07,0.1,0.13,0.2,0.2l-4.5,6.75
					c-0.1-0.03-0.17-0.1-0.2-0.2l4.45-6.75H155.75z M156.15,65.2c0,0.1,0.05,0.18,0.15,0.25l-4.2,6.4c-0.07,0-0.13-0.07-0.2-0.2
					h-0.05L156,65.2C156.07,65.2,156.12,65.2,156.15,65.2z M153.25,61.9l-4.65,6.85c-0.1,0-0.17-0.03-0.2-0.1l4.6-6.95
					C153.07,61.8,153.15,61.87,153.25,61.9z"/>
			</g>
			<g>
				<linearGradient id="SVGID_5_" gradientUnits="userSpaceOnUse" x1="137.5107" y1="75.4844" x2="139.7101" y2="76.9354">
					<stop  offset="0" style="stop-color:#727B82"/>
					<stop  offset="0.2039" style="stop-color:#FFFFFF"/>
					<stop  offset="0.4431" style="stop-color:#AAAFB3"/>
					<stop  offset="0.5882" style="stop-color:#798086"/>
					<stop  offset="0.7529" style="stop-color:#97A0A4"/>
					<stop  offset="1" style="stop-color:#6B767A"/>
				</linearGradient>
				<path fill-rule="evenodd" clip-rule="evenodd" fill="url(#SVGID_5_)" d="M135.8,83.6l-2.75-1.85l8.4-12.7
					c0.07,0.03,0.13,0.05,0.2,0.05c0.37,0.17,0.73,0.37,1.1,0.6c0.43,0.27,0.75,0.53,0.95,0.8c0.13,0.1,0.2,0.22,0.2,0.35l0.1,0.05
					L135.8,83.6z"/>
			</g>
			<g>
				
					<linearGradient id="SVGID_6_" gradientUnits="userSpaceOnUse" x1="262.1455" y1="-208.0586" x2="268.8851" y2="-208.0586" gradientTransform="matrix(0.8309 0.5564 -0.5456 0.8382 -205.9865 119.0462)">
					<stop  offset="0" style="stop-color:#727B82"/>
					<stop  offset="0.2039" style="stop-color:#FFFFFF"/>
					<stop  offset="0.4431" style="stop-color:#AAAFB3"/>
					<stop  offset="0.5882" style="stop-color:#798086"/>
					<stop  offset="0.7529" style="stop-color:#97A0A4"/>
					<stop  offset="1" style="stop-color:#6B767A"/>
				</linearGradient>
				<path fill-rule="evenodd" clip-rule="evenodd" fill="url(#SVGID_6_)" d="M135.6,78c0.73,0.8,1.63,1.38,2.7,1.75
					c0.13,0.13,0.27,0.27,0.4,0.4c0.17,0.3,0.32,0.63,0.45,1c0.2,0.53,0.17,1.08-0.1,1.65l-15.65,23.45c-0.57,0.67-1.13,0.9-1.7,0.7
					c-2-0.6-3.63-1.67-4.9-3.2c-0.3-0.47-0.28-1.02,0.05-1.65l15.85-23.7c0.6-0.63,1.18-0.93,1.75-0.9
					c0.13,0.07,0.25,0.12,0.35,0.15C135.1,77.72,135.37,77.83,135.6,78z"/>
			</g>
			<g>
				
					<radialGradient id="SVGID_7_" cx="-354.6509" cy="277.3135" r="1.678" gradientTransform="matrix(0.5513 -0.8343 1.624 1.1025 -117.9465 -522.8902)" gradientUnits="userSpaceOnUse">
					<stop  offset="0" style="stop-color:#000000"/>
					<stop  offset="1" style="stop-color:#040404;stop-opacity:0"/>
				</radialGradient>
				<path fill-rule="evenodd" clip-rule="evenodd" fill="url(#SVGID_7_)" d="M138.3,79.75c0.13,0.13,0.27,0.27,0.4,0.4
					c0.47,0.9,0.27,1.17-0.6,0.8c-1.67-0.27-2.97-1.07-3.9-2.4c-0.9-0.7-0.7-1,0.6-0.9c0.3,0.07,0.57,0.18,0.8,0.35
					C136.33,78.8,137.23,79.38,138.3,79.75z"/>
			</g>
			<g>
				
					<radialGradient id="SVGID_8_" cx="149.3457" cy="60.75" r="8.6464" gradientTransform="matrix(0.5578 -0.83 0.8144 0.5472 16.5745 151.4628)" gradientUnits="userSpaceOnUse">
					<stop  offset="0" style="stop-color:#000000;stop-opacity:0.2902"/>
					<stop  offset="1" style="stop-color:#FFFFFF;stop-opacity:0"/>
				</radialGradient>
				<path fill-rule="evenodd" clip-rule="evenodd" fill="url(#SVGID_8_)" d="M142.8,56.5c-0.03-0.03-0.07-0.1-0.1-0.2
					c-0.07-0.03-0.07-0.12,0-0.25c0-0.07,0.03-0.12,0.1-0.15c0.1-0.03,0.2-0.05,0.3-0.05c5.03,1.77,9.32,4.68,12.85,8.75
					c0.1,0.07,0.12,0.13,0.05,0.2c0,0.13-0.02,0.25-0.05,0.35c-0.03,0.03-0.1,0.05-0.2,0.05c-0.03,0-0.1-0.07-0.2-0.2
					C152.05,61.1,147.8,58.27,142.8,56.5z"/>
				
					<radialGradient id="SVGID_9_" cx="143.0996" cy="69.7002" r="4.1811" gradientTransform="matrix(0.56 -0.8285 0.8128 0.5493 6.3205 149.9754)" gradientUnits="userSpaceOnUse">
					<stop  offset="0" style="stop-color:#FFFFFF"/>
					<stop  offset="1" style="stop-color:#FFFFFF;stop-opacity:0"/>
				</radialGradient>
				<path fill-rule="evenodd" clip-rule="evenodd" fill="url(#SVGID_9_)" d="M140,67.9c-0.07-0.07-0.12-0.13-0.15-0.2
					c0-0.07,0-0.17,0-0.3c0.03-0.03,0.1-0.07,0.2-0.1c0.03-0.07,0.1-0.07,0.2,0c2.3,1.17,4.37,2.62,6.2,4.35
					c0.1,0,0.15,0.07,0.15,0.2c0,0.07-0.03,0.17-0.1,0.3c-0.03,0-0.12,0-0.25,0c-0.03,0-0.12,0-0.25,0
					C144.27,70.42,142.27,69,140,67.9z"/>
				
					<radialGradient id="SVGID_10_" cx="144.9502" cy="67.4004" r="8.6429" gradientTransform="matrix(0.5578 -0.83 0.8144 0.5472 9.2146 150.8255)" gradientUnits="userSpaceOnUse">
					<stop  offset="0" style="stop-color:#FFFFFF"/>
					<stop  offset="1" style="stop-color:#FFFFFF;stop-opacity:0"/>
				</radialGradient>
				<path fill-rule="evenodd" clip-rule="evenodd" fill="url(#SVGID_10_)" d="M138.05,63.1c-0.13-0.03-0.2-0.1-0.2-0.2
					c-0.07-0.1-0.1-0.18-0.1-0.25c0.1-0.07,0.2-0.12,0.3-0.15c0.07-0.03,0.13-0.03,0.2,0c5.07,2.33,9.68,5.45,13.85,9.35
					c0.07,0.1,0.1,0.2,0.1,0.3c0,0.07-0.03,0.13-0.1,0.2c-0.07,0.07-0.13,0.1-0.2,0.1c-0.13,0-0.22-0.03-0.25-0.1
					C147.55,68.48,143.02,65.4,138.05,63.1z"/>
			</g>
		</g>
		<g>
			
				<linearGradient id="SVGID_11_" gradientUnits="userSpaceOnUse" x1="475.4746" y1="-784.7861" x2="1223.8467" y2="-784.7861" gradientTransform="matrix(-0.9736 0.2281 -3.3078 -0.2523 -1530.5377 -289.7909)">
				<stop  offset="0" style="stop-color:#8DD0C6"/>
				<stop  offset="0.6824" style="stop-color:#80BBB7"/>
				<stop  offset="1" style="stop-color:#679D94"/>
			</linearGradient>
			<polygon fill-rule="evenodd" clip-rule="evenodd" fill="url(#SVGID_11_)" points="104,123.8 115.6,123.8 115.6,158.8 104,158.8 
				24.7,158.8 24.7,123.8 			"/>
			
				<linearGradient id="SVGID_12_" gradientUnits="userSpaceOnUse" x1="475.4746" y1="-784.7861" x2="1223.8467" y2="-784.7861" gradientTransform="matrix(-0.9736 0.2281 -3.3078 -0.2523 -1530.5377 -289.7909)">
				<stop  offset="0" style="stop-color:#8DD0C6"/>
				<stop  offset="0.6824" style="stop-color:#80BBB7"/>
				<stop  offset="1" style="stop-color:#679D94"/>
			</linearGradient>
			<polygon fill-rule="evenodd" clip-rule="evenodd" fill="url(#SVGID_12_)" points="104,123.8 115.6,123.8 115.6,158.8 104,158.8 
				24.7,158.8 24.7,123.8 			"/>
			
				<linearGradient id="SVGID_13_" gradientUnits="userSpaceOnUse" x1="-280.603" y1="-865.0107" x2="-86.0569" y2="-865.0107" gradientTransform="matrix(-0.4769 0.879 -0.8597 -0.5123 -684.0902 -170.7123)">
				<stop  offset="0" style="stop-color:#8DD0C6"/>
				<stop  offset="0.6824" style="stop-color:#80BBB7"/>
				<stop  offset="1" style="stop-color:#679D94"/>
			</linearGradient>
			<path fill-rule="evenodd" clip-rule="evenodd" fill="url(#SVGID_13_)" d="M104,158.8h11.6v-35H104V73.6l70.8,43.9
				c9.8,6.23,15.13,13.93,16,23.1c1.43,8.77-4.95,18.03-19.15,27.8l-67.8,44.65L104,158.8z"/>
			
				<linearGradient id="SVGID_14_" gradientUnits="userSpaceOnUse" x1="-280.603" y1="-865.0107" x2="-86.0569" y2="-865.0107" gradientTransform="matrix(-0.4769 0.879 -0.8597 -0.5123 -684.0902 -170.7123)">
				<stop  offset="0" style="stop-color:#8DD0C6"/>
				<stop  offset="0.6824" style="stop-color:#80BBB7"/>
				<stop  offset="1" style="stop-color:#679D94"/>
			</linearGradient>
			<path fill-rule="evenodd" clip-rule="evenodd" fill="url(#SVGID_14_)" d="M104,158.8h11.6v-35H104V73.6l70.8,43.9
				c9.8,6.23,15.13,13.93,16,23.1c1.43,8.77-4.95,18.03-19.15,27.8l-67.8,44.65L104,158.8z"/>
			
				<path fill-rule="evenodd" clip-rule="evenodd" fill="none" stroke="#83BFBA" stroke-width="0.1" stroke-linecap="round" stroke-linejoin="round" stroke-miterlimit="3" d="
				M24.7,158.8v-35 M104,123.8V73.6l70.8,43.9c9.8,6.23,15.13,13.93,16,23.1c1.43,8.77-4.95,18.03-19.15,27.8l-67.8,44.65L104,158.8
				"/>
			
				<path fill-rule="evenodd" clip-rule="evenodd" fill="none" stroke="#83BFBA" stroke-width="0.1" stroke-linecap="round" stroke-linejoin="round" stroke-miterlimit="3" d="
				M24.7,158.8v-35 M104,123.8V73.6l70.8,43.9c9.8,6.23,15.13,13.93,16,23.1c1.43,8.77-4.95,18.03-19.15,27.8l-67.8,44.65L104,158.8
				"/>
		</g>
		<g>
			
				<radialGradient id="SVGID_15_" cx="118.4043" cy="-731.3926" r="56.2125" fx="106.28" fy="-731.3926" gradientTransform="matrix(-2.223705e-004 1 -0.9544 8.894817e-006 -549.225 11.5022)" gradientUnits="userSpaceOnUse">
				<stop  offset="0" style="stop-color:#FFFFFF;stop-opacity:0.651"/>
				<stop  offset="1" style="stop-color:#FFFFFF;stop-opacity:0"/>
			</radialGradient>
			<path fill-rule="evenodd" clip-rule="evenodd" fill="url(#SVGID_15_)" d="M125.35,88.1c0.07-0.17,0.2-0.28,0.4-0.35
				c0.2-0.03,0.37,0,0.5,0.1l51.15,31.6c0.03,0.03,0.07,0.05,0.1,0.05c9.07,7.63,13,15.83,11.8,24.6c0,0.13-0.07,0.28-0.2,0.45
				c-0.17,0.07-0.32,0.1-0.45,0.1c-0.2-0.07-0.37-0.17-0.5-0.3c-0.1-0.13-0.15-0.28-0.15-0.45c1.1-8.3-2.68-16.07-11.35-23.3
				l0.1,0.05l-51.2-31.6c-0.13-0.13-0.22-0.27-0.25-0.4C125.27,88.42,125.28,88.23,125.35,88.1z"/>
			
				<radialGradient id="SVGID_16_" cx="139.4004" cy="177.7998" r="65.3625" gradientTransform="matrix(-1.959046e-004 1 -0.9543 -1.869504e-004 309.1009 38.4326)" gradientUnits="userSpaceOnUse">
				<stop  offset="0" style="stop-color:#FFFFFF;stop-opacity:0.2"/>
				<stop  offset="0.5804" style="stop-color:#FBFBFB;stop-opacity:0.0824"/>
				<stop  offset="1" style="stop-color:#F9F9F9;stop-opacity:0"/>
			</radialGradient>
			<path fill-rule="evenodd" clip-rule="evenodd" fill="url(#SVGID_16_)" d="M186.75,147c0.1-0.13,0.23-0.25,0.4-0.35
				c0.13-0.03,0.28-0.03,0.45,0c0.2,0.1,0.32,0.2,0.35,0.3c0.1,0.17,0.1,0.33,0,0.5c-2.73,7.5-8.25,14-16.55,19.5l-64.3,42.9
				c-0.17,0.1-0.32,0.13-0.45,0.1c-0.2-0.07-0.37-0.17-0.5-0.3c-0.03-0.13-0.03-0.32,0-0.55c0-0.17,0.07-0.3,0.2-0.4l64.3-42.9
				C178.72,160.43,184.08,154.17,186.75,147z"/>
		</g>
	</g>
	<g>
		<g>
			<linearGradient id="SVGID_17_" gradientUnits="userSpaceOnUse" x1="2.4971" y1="5.8335" x2="17.4971" y2="5.8091">
				<stop  offset="0" style="stop-color:#141616"/>
				<stop  offset="0.2824" style="stop-color:#FFFFFF"/>
				<stop  offset="0.3373" style="stop-color:#E8EAEA"/>
				<stop  offset="0.4471" style="stop-color:#B4B9BA"/>
				<stop  offset="0.6275" style="stop-color:#FFFFFF"/>
				<stop  offset="0.7412" style="stop-color:#899398"/>
				<stop  offset="1" style="stop-color:#424D4F"/>
			</linearGradient>
			<path fill-rule="evenodd" clip-rule="evenodd" fill="url(#SVGID_17_)" d="M17.65,10.35c0-0.2-0.75-0.4-2.25-0.6
				C13.87,9.58,12.02,9.5,9.85,9.5c-0.13,0-0.27,0-0.4,0c-1.3,0-2.48,0.05-3.55,0.15c-0.6,0-1.17,0.03-1.7,0.1
				c-1.43,0.2-2.18,0.38-2.25,0.55V9.75v-6.8C2.02,2.58,2.3,2.3,2.8,2.1h0.3V1.95c0.1,0,0.17-0.02,0.2-0.05
				c1.13-0.23,2.27-0.4,3.4-0.5c3-0.27,6.12-0.08,9.35,0.55c1.03,0.3,1.57,0.8,1.6,1.5c0,0.03,0,0.07,0,0.1v0.9v5.4V10.35z"/>
			<linearGradient id="SVGID_18_" gradientUnits="userSpaceOnUse" x1="0.02" y1="9.9219" x2="16.8956" y2="10.6597">
				<stop  offset="0" style="stop-color:#000000"/>
				<stop  offset="1" style="stop-color:#8C8F8F"/>
			</linearGradient>
			<path fill-rule="evenodd" clip-rule="evenodd" fill="url(#SVGID_18_)" d="M1.95,10.3c0.07-0.17,0.82-0.35,2.25-0.55
				c0.53-0.07,1.1-0.1,1.7-0.1C6.97,9.55,8.15,9.5,9.45,9.5c0.13,0,0.27,0,0.4,0c2.17,0,4.02,0.08,5.55,0.25
				c1.5,0.2,2.25,0.4,2.25,0.6c0,0.13-0.15,0.23-0.45,0.3c-0.4,0.13-1,0.25-1.8,0.35c-0.7,0.03-1.43,0.07-2.2,0.1v-1
				c-1.17-0.17-2.28-0.25-3.35-0.25c-0.13,0-0.27,0-0.4,0c-1.2,0-2.38,0.08-3.55,0.25v1c-0.6-0.03-1.17-0.07-1.7-0.1
				c-0.8-0.1-1.38-0.22-1.75-0.35c-0.27-0.07-0.43-0.13-0.5-0.2V10.3z"/>
			<linearGradient id="SVGID_19_" gradientUnits="userSpaceOnUse" x1="6.0132" y1="11.3188" x2="13.1882" y2="11.2941">
				<stop  offset="0" style="stop-color:#B1B8BC"/>
				<stop  offset="0.2392" style="stop-color:#B4B9BA"/>
				<stop  offset="0.4235" style="stop-color:#FFFFFF"/>
				<stop  offset="0.5333" style="stop-color:#FFFFFF"/>
				<stop  offset="0.8" style="stop-color:#899398"/>
				<stop  offset="1" style="stop-color:#171B1C"/>
			</linearGradient>
			<path fill-rule="evenodd" clip-rule="evenodd" fill="url(#SVGID_19_)" d="M13.2,12.75c-0.07-0.1-0.42-0.2-1.05-0.3
				c-0.73-0.03-1.58-0.05-2.55-0.05c-1.03,0-1.92,0.02-2.65,0.05c-0.57,0.1-0.92,0.2-1.05,0.3V11.1v-1
				c1.17-0.17,2.35-0.25,3.55-0.25c0.13,0,0.27,0,0.4,0c1.07,0,2.18,0.08,3.35,0.25v1V12.75z"/>
			
				<linearGradient id="SVGID_20_" gradientUnits="userSpaceOnUse" x1="-856.8716" y1="21.1729" x2="-371.3965" y2="21.1729" gradientTransform="matrix(4.119676e-004 -1 1 -5.664264e-004 -11.3775 -582.6616)">
				<stop  offset="0" style="stop-color:#000000"/>
				<stop  offset="1" style="stop-color:#8C8F8F"/>
			</linearGradient>
			<path fill-rule="evenodd" clip-rule="evenodd" fill="url(#SVGID_20_)" d="M5.9,12.75c0.13-0.1,0.48-0.2,1.05-0.3
				c0.73-0.03,1.62-0.05,2.65-0.05c0.97,0,1.82,0.02,2.55,0.05c0.63,0.1,0.98,0.2,1.05,0.3c-0.07,0.13-0.42,0.2-1.05,0.2
				c-0.73,0.13-1.58,0.2-2.55,0.2c-1.03,0-1.92-0.07-2.65-0.2C6.25,12.95,5.9,12.88,5.9,12.75z"/>
		</g>
		<g>
			<path fill-rule="evenodd" clip-rule="evenodd" fill-opacity="0.2471" d="M2.3,2.5v7.6c-0.1,0-0.18,0-0.25,0V2.7
				C2.08,2.6,2.17,2.53,2.3,2.5z M6.35,1.45v8.2c-0.1,0-0.18,0-0.25,0v-8.1C6.17,1.55,6.25,1.52,6.35,1.45z M3.95,1.8v8.05
				c-0.1,0-0.2,0-0.3,0v-7.9C3.75,1.92,3.85,1.87,3.95,1.8z M3.1,2.1v7.85c-0.07,0.07-0.17,0.1-0.3,0.1V2.2
				C2.93,2.17,3.03,2.13,3.1,2.1z M4.75,1.7v8.05c-0.1,0-0.22,0.03-0.35,0.1v-8.1C4.53,1.75,4.65,1.73,4.75,1.7z M5.6,1.55v8.1
				c-0.13,0-0.25,0.02-0.35,0.05V1.6C5.35,1.57,5.47,1.55,5.6,1.55z M14.5,1.6v8.05c-0.1,0-0.22,0-0.35,0V1.6
				C14.28,1.6,14.4,1.6,14.5,1.6z M16.25,2.1v7.75c-0.1,0-0.18,0-0.25,0V2C16.07,2,16.15,2.03,16.25,2.1z M15.3,1.8h0.1v7.95
				c-0.07,0-0.17-0.02-0.3-0.05V1.8C15.2,1.8,15.27,1.8,15.3,1.8z M12.9,1.4v8.25c-0.1-0.07-0.22-0.1-0.35-0.1V1.4
				C12.68,1.4,12.8,1.4,12.9,1.4z M13.7,1.55v8.1c-0.1,0-0.18,0-0.25,0v-8.1C13.52,1.55,13.6,1.55,13.7,1.55z M7.25,1.4v8.15
				C7.12,9.55,7,9.58,6.9,9.65V1.4C7,1.4,7.12,1.4,7.25,1.4z M9.65,1.35V9.5c-0.13,0-0.25,0-0.35,0V1.35
				C9.4,1.35,9.52,1.35,9.65,1.35z M10.45,1.35V9.5c-0.07,0-0.17,0-0.3,0V1.35C10.28,1.35,10.38,1.35,10.45,1.35z M11.25,1.35V9.5
				c-0.13,0-0.23,0-0.3,0V1.35C11.02,1.35,11.12,1.35,11.25,1.35z M7.95,1.35V9.5c-0.07,0-0.15,0-0.25,0V1.35
				C7.8,1.35,7.88,1.35,7.95,1.35z M8.85,1.35V9.5c-0.1,0-0.22,0-0.35,0V1.35C8.63,1.35,8.75,1.35,8.85,1.35z M11.8,9.5V1.35
				c0.1,0,0.2,0,0.3,0V9.5C12,9.5,11.9,9.5,11.8,9.5z M16.75,2.2c0.13,0.07,0.22,0.12,0.25,0.15v7.7c-0.03-0.07-0.12-0.1-0.25-0.1
				V2.2z"/>
			<g>
				<path fill-rule="evenodd" clip-rule="evenodd" fill="#BB6565" fill-opacity="0.451" d="M1.9,3.15C1.87,3.12,1.85,3.07,1.85,3
					c0-0.03,0.02-0.07,0.05-0.1V3.15z"/>
			</g>
		</g>
		<g>
			<path fill-rule="evenodd" clip-rule="evenodd" fill="#FFFFFF" fill-opacity="0.451" d="M4.25,1.75v7.4c-0.03,0-0.12,0-0.25,0V1.8
				C4.13,1.77,4.22,1.75,4.25,1.75z M2.4,2.3c0.07-0.07,0.15-0.12,0.25-0.15v7.2c-0.1,0.07-0.18,0.1-0.25,0.1V2.3z M3.45,1.8v7.5
				c-0.13,0-0.22,0.02-0.25,0.05v-7.4c0.03,0,0.07-0.02,0.1-0.05C3.37,1.9,3.42,1.87,3.45,1.8z M5.6,1.55c0.13,0,0.23,0,0.3,0V9
				C5.83,9,5.73,9,5.6,9V1.55z M6.4,1.4c0.1,0,0.2,0,0.3,0v7.55c-0.1,0-0.2,0-0.3,0V1.4z M4.8,1.6c0.1,0,0.18,0,0.25,0v7.5
				C4.98,9.1,4.9,9.12,4.8,9.15V1.6z M14.85,1.75v7.4c-0.1,0-0.2-0.02-0.3-0.05V1.7C14.65,1.73,14.75,1.75,14.85,1.75z M15.8,1.9
				v7.3c-0.13,0-0.25-0.02-0.35-0.05V1.8C15.55,1.8,15.67,1.83,15.8,1.9z M16.6,2.15v7.2c-0.1,0-0.2-0.02-0.3-0.05V2
				C16.4,2.07,16.5,2.12,16.6,2.15z M13.2,1.55V9c-0.07-0.03-0.15-0.05-0.25-0.05v-7.4C13.05,1.55,13.13,1.55,13.2,1.55z M14.1,1.6
				v7.5c-0.13,0-0.25-0.03-0.35-0.1V1.55C13.85,1.58,13.97,1.6,14.1,1.6z M12.5,1.4v7.5c-0.13,0-0.25,0-0.35,0V1.4
				C12.25,1.4,12.37,1.4,12.5,1.4z M8.9,1.35c0.1,0,0.2,0,0.3,0V8.9c-0.1,0-0.2,0-0.3,0V1.35z M8.05,1.35c0.13,0,0.22,0,0.25,0V8.9
				c-0.03,0-0.12,0-0.25,0V1.35z M7.3,1.35c0.1,0,0.18,0,0.25,0V8.9c-0.07,0-0.15,0-0.25,0V1.35z M11.55,1.35V8.9
				c-0.07,0-0.13,0-0.2,0V1.35C11.42,1.35,11.48,1.35,11.55,1.35z M10.8,1.35V8.9c-0.1,0-0.18,0-0.25,0V1.35
				C10.62,1.35,10.7,1.35,10.8,1.35z M17.05,2.5l0.1-0.1c0.03,0.1,0.12,0.2,0.25,0.3v6.8c-0.1,0-0.17,0-0.2,0
				c-0.03-0.03-0.08-0.05-0.15-0.05V2.5z M9.65,1.35c0.13,0,0.22,0,0.25,0V8.9c-0.03,0-0.1,0-0.2,0H9.65V1.35z"/>
		</g>
		<g>
			<linearGradient id="SVGID_21_" gradientUnits="userSpaceOnUse" x1="8.1489" y1="19.5439" x2="10.4989" y2="19.5212">
				<stop  offset="0" style="stop-color:#727B82"/>
				<stop  offset="0.2039" style="stop-color:#FFFFFF"/>
				<stop  offset="0.4431" style="stop-color:#AAAFB3"/>
				<stop  offset="0.5882" style="stop-color:#798086"/>
				<stop  offset="0.7529" style="stop-color:#97A0A4"/>
				<stop  offset="1" style="stop-color:#6B767A"/>
			</linearGradient>
			<path fill-rule="evenodd" clip-rule="evenodd" fill="url(#SVGID_21_)" d="M7.95,26.45v-13.7c0.07,0,0.12,0,0.15,0
				c0.37-0.1,0.75-0.15,1.15-0.15s0.77,0.05,1.1,0.15c0.17,0,0.3,0.02,0.4,0.05c0,0.03,0.02,0.05,0.05,0.05l0.05,13.6H7.95z"/>
		</g>
		<g>
			<linearGradient id="SVGID_22_" gradientUnits="userSpaceOnUse" x1="6.3438" y1="36.8066" x2="12.4687" y2="36.7675">
				<stop  offset="0" style="stop-color:#727B82"/>
				<stop  offset="0.2039" style="stop-color:#FFFFFF"/>
				<stop  offset="0.4431" style="stop-color:#AAAFB3"/>
				<stop  offset="0.5882" style="stop-color:#798086"/>
				<stop  offset="0.7529" style="stop-color:#97A0A4"/>
				<stop  offset="1" style="stop-color:#6B767A"/>
			</linearGradient>
			<path fill-rule="evenodd" clip-rule="evenodd" fill="url(#SVGID_22_)" d="M7.9,22.45c1,0.27,1.98,0.22,2.95-0.15
				c0.2,0.1,0.37,0.15,0.5,0.15c0.3,0.17,0.62,0.33,0.95,0.5c0.4,0.27,0.62,0.7,0.65,1.3V49.5c-0.13,0.73-0.45,1.17-0.95,1.3
				c-1.7,0.57-3.43,0.62-5.2,0.15H6.75c-0.5-0.23-0.77-0.67-0.8-1.3L6,24.1c0.07-0.67,0.33-1.13,0.8-1.4
				c0.17-0.03,0.32-0.1,0.45-0.2C7.45,22.47,7.67,22.45,7.9,22.45z"/>
		</g>
		<g>
			
				<radialGradient id="SVGID_23_" cx="9.2998" cy="22.3501" r="1.5" gradientTransform="matrix(-4.371139e-008 -1 2.0083 -8.778704e-008 -35.5866 31.6499)" gradientUnits="userSpaceOnUse">
				<stop  offset="0" style="stop-color:#000000"/>
				<stop  offset="1" style="stop-color:#040404;stop-opacity:0"/>
			</radialGradient>
			<path fill-rule="evenodd" clip-rule="evenodd" fill="url(#SVGID_23_)" d="M7.25,22.5c0.2-0.03,0.42-0.05,0.65-0.05
				c1,0.27,1.98,0.22,2.95-0.15c0.2,0.1,0.37,0.15,0.5,0.15c0.83,0.47,0.83,0.77,0,0.9c-1.4,0.63-2.82,0.68-4.25,0.15
				C6.1,23.47,6.15,23.13,7.25,22.5z"/>
		</g>
		<g>
			
				<radialGradient id="SVGID_24_" cx="-592.8447" cy="21.3188" r="7.75" gradientTransform="matrix(6.451613e-005 -1 1 -1.612903e-003 -11.4808 -582.9608)" gradientUnits="userSpaceOnUse">
				<stop  offset="0" style="stop-color:#FFFFFF"/>
				<stop  offset="1" style="stop-color:#FFFFFF;stop-opacity:0"/>
			</radialGradient>
			<path fill-rule="evenodd" clip-rule="evenodd" fill="url(#SVGID_24_)" d="M1.9,9.65C2,9.58,2.07,9.53,2.1,9.5
				c5.03-0.87,10.13-0.87,15.3,0c0.1,0.03,0.17,0.08,0.2,0.15c0.03,0.03,0.05,0.1,0.05,0.2c-0.03,0.07-0.07,0.15-0.1,0.25
				c-0.07,0-0.13,0-0.2,0c-5.13-0.8-10.17-0.8-15.1,0c-0.1,0-0.17,0-0.2,0C1.95,10,1.9,9.92,1.9,9.85C1.87,9.75,1.87,9.68,1.9,9.65z
				"/>
			
				<radialGradient id="SVGID_25_" cx="-585.5444" cy="21.1685" r="7.75" gradientTransform="matrix(6.451613e-005 -1 1 -1.612903e-003 -11.4808 -582.9608)" gradientUnits="userSpaceOnUse">
				<stop  offset="0" style="stop-color:#000000;stop-opacity:0.2902"/>
				<stop  offset="1" style="stop-color:#FFFFFF;stop-opacity:0"/>
			</radialGradient>
			<path fill-rule="evenodd" clip-rule="evenodd" fill="url(#SVGID_25_)" d="M2.6,2.75c-0.1,0-0.17,0-0.2,0
				C2.3,2.65,2.25,2.57,2.25,2.5s0-0.13,0-0.2c0.03-0.07,0.1-0.12,0.2-0.15c4.7-1.17,9.47-1.17,14.3,0c0.03,0,0.1,0.05,0.2,0.15
				c0.03,0.07,0.03,0.13,0,0.2c0,0.07-0.05,0.13-0.15,0.2c-0.03,0.03-0.12,0.05-0.25,0.05C11.85,1.58,7.2,1.58,2.6,2.75z"/>
			<radialGradient id="SVGID_26_" cx="9.4502" cy="12.3999" r="3.7625" gradientUnits="userSpaceOnUse">
				<stop  offset="0" style="stop-color:#FFFFFF"/>
				<stop  offset="1" style="stop-color:#FFFFFF;stop-opacity:0"/>
			</radialGradient>
			<path fill-rule="evenodd" clip-rule="evenodd" fill="url(#SVGID_26_)" d="M13.3,12.45c0,0.03-0.05,0.1-0.15,0.2
				c-0.03,0.07-0.1,0.1-0.2,0.1c-2.2-0.37-4.47-0.4-6.8-0.1c-0.03,0.07-0.1,0.05-0.2-0.05c-0.03-0.07-0.05-0.13-0.05-0.2
				c0-0.1,0-0.17,0-0.2c0.07-0.1,0.13-0.15,0.2-0.15c2.37-0.3,4.67-0.28,6.9,0.05c0.1,0,0.17,0.05,0.2,0.15
				C13.27,12.28,13.3,12.35,13.3,12.45z"/>
		</g>
	</g>
</g>
</svg>
