<?xml version="1.0" encoding="utf-8"?>
<!-- Generator: Adobe Illustrator 16.0.0, SVG Export Plug-In . SVG Version: 6.00 Build 0)  -->
<!DOCTYPE svg PUBLIC "-//W3C//DTD SVG 1.1//EN" "http://www.w3.org/Graphics/SVG/1.1/DTD/svg11.dtd">
<svg version="1.1" id="Layer_1" xmlns="http://www.w3.org/2000/svg" xmlns:xlink="http://www.w3.org/1999/xlink" x="0px" y="0px"
	 width="393px" height="390px" viewBox="-76 -73 393 390" enable-background="new -76 -73 393 390" xml:space="preserve">
<g>
	<g>
		<g>
			
				<linearGradient id="SVGID_1_" gradientUnits="userSpaceOnUse" x1="-159.9248" y1="507.8506" x2="-159.9248" y2="122.2007" gradientTransform="matrix(1 0 0 -1 281.5 438.5)">
				<stop  offset="0" style="stop-color:#0289CB"/>
				<stop  offset="1" style="stop-color:#A6CCE1"/>
			</linearGradient>
			<path fill="url(#SVGID_1_)" d="M-4.403-22.475C31.133-53.719,73.14-69.35,121.616-69.35c53.263,0,98.703,18.849,136.335,56.531
				C295.584,24.814,314.4,70.253,314.4,123.517c0,8.697-0.496,17.198-1.486,25.501c-1.814,14.97-5.281,29.264-10.397,42.914
				c-1.601,4.177-3.335,8.303-5.2,12.379c-9.292,20.087-22.413,38.59-39.365,55.54c-37.632,37.634-83.072,56.449-136.335,56.449
				c-53.263,0-98.703-18.815-136.335-56.449c-20.352-20.352-35.207-42.996-44.565-67.919c-5.166-13.65-8.632-27.944-10.398-42.914
				c-1.041-8.303-1.568-16.804-1.568-25.501c0-53.264,18.849-98.703,56.531-136.335C-11.369-16.169-7.918-19.388-4.403-22.475z"/>
		</g>
		<g>
			<g>
				
					<linearGradient id="SVGID_2_" gradientUnits="userSpaceOnUse" x1="146.7646" y1="1245.832" x2="181.0976" y2="1245.832" gradientTransform="matrix(0.1755 0.9845 0.906 -0.6157 -1043.7533 666.2256)">
					<stop  offset="0" style="stop-color:#1D431E"/>
					<stop  offset="1" style="stop-color:#225D23"/>
				</linearGradient>
				<path fill="url(#SVGID_2_)" d="M138.2,109.55l-0.9-0.25c1.271-5.83,2.671-11.6,4.2-17.3l0.05-0.15c0.5-2.3,1.03-4.63,1.601-7
					c0.1-0.43,0.22-0.87,0.35-1.3c2.27-8.8,4.67-17.4,7.2-25.8c-3,6.57-6.07,14.87-9.2,24.9c-0.1,0.37-0.22,0.82-0.35,1.35
					c-0.17,0.57-0.37,1.13-0.601,1.7c-3.2,10.2-6.521,22.05-9.95,35.55c-0.729,3.13-1.5,6.35-2.3,9.65l-1.2-0.15
					c0.771-3.2,1.551-6.43,2.351-9.7c2.5-11.53,5.569-23.57,9.2-36.1c0.229-0.83,0.47-1.65,0.699-2.45c-0.27,0.8-0.55,1.6-0.85,2.4
					c-3.67,11.73-7.029,23.7-10.1,35.9l-0.101-0.05c2.931-12.47,6-24.5,9.2-36.1l0.05-0.1c0.53-1.73,1.05-3.5,1.55-5.3
					c3.9-13.13,7.93-25.63,12.101-37.5c-4.601,11.07-9.05,23.4-13.351,37v0.15c-0.47,1.67-0.93,3.42-1.399,5.25l-0.05,0.1
					c-3.471,11.2-6.78,23.2-9.95,36l-0.05,0.15c-0.73,3.17-1.5,6.42-2.301,9.75v0.1c-2.029,8.5-4,17.35-5.899,26.55
					c1-8.53,2.43-17.5,4.3-26.899c5.23-26.43,13.87-56.271,25.9-89.5c0.029-0.07,0.05-0.15,0.05-0.25
					c2.97-7.97,6.079-16.15,9.35-24.55c-4.069,6.23-8.03,13.85-11.899,22.85c-0.03,0.07-0.051,0.13-0.051,0.2
					c-3.77,8.57-7.43,18.42-11,29.55c-0.8,2.27-1.55,4.57-2.25,6.9c-5.699,18.57-11.2,40.27-16.5,65.1
					c3.47-20.8,8.121-42.65,13.95-65.55c-9.37,27.87-16.88,56.98-22.55,87.35c-0.67,3.7-1.32,7.38-1.95,11.05
					c0.4-3.67,0.87-7.33,1.4-11c1.07-7.729,2.35-15.45,3.85-23.149c2.27-12.93,5.02-25.75,8.25-38.45
					c1.9-7.5,3.931-14.97,6.101-22.4C128.68,65.68,132.63,53.37,137,41.1c-5.33,10.97-10.18,23.02-14.55,36.15
					c-1.3,3.87-2.55,7.87-3.75,12c-1.23,4.3-2.48,8.65-3.75,13.05l-0.05,0.2c-3.53,13.8-6.6,28.55-9.2,44.25
					c1.87-15.7,4.5-30.57,7.9-44.6l0.15-0.1l-0.1-0.1c1.1-4.43,2.27-8.8,3.5-13.1l0.05-0.1c0-0.07,0.02-0.13,0.05-0.2
					c0.97-3.67,2.08-7.3,3.35-10.9c0.1-0.37,0.2-0.73,0.3-1.1c-0.17,0.2-0.4,0.53-0.7,1c-1.27,1.87-2.72,5.37-4.35,10.5l-0.15,0.05
					l0.05,0.15c-1.2,3.6-2.45,7.97-3.75,13.1l-0.05,0.25c-3.77,14.03-6.6,24.25-8.5,30.65l-0.05,0.1c0,0.07-0.02,0.131-0.05,0.2
					c-0.97,3.37-2.33,9.13-4.1,17.3c-0.67,2.971-1.38,6.221-2.15,9.75l-0.05,0.101c-1.23,6.1-2.65,13.13-4.25,21.1
					c1-7.27,2.17-14.329,3.5-21.2l-0.15-0.149c0.6-3.271,1.23-6.5,1.9-9.7c1.17-6.07,2.47-11.88,3.9-17.45c-0.1-0.1-0.1-0.13,0-0.1
					c-0.1-0.03-0.13-0.08-0.1-0.15c2.8-12.27,5.87-23.88,9.2-34.85c1.07-3.23,2.12-6.43,3.15-9.6v-0.15c1.4-4.17,2.85-8.17,4.35-12
					l0.05-0.1c4.8-13.23,10.08-25.43,15.85-36.6c0.1-0.03,0.17-0.08,0.2-0.15c0.07-0.3,0.22-0.53,0.449-0.7
					c0.03-0.1,0.051-0.18,0.051-0.25c1.899-3.57,3.8-7.05,5.699-10.45l-6.149,4c-10.2,16.63-19.02,38.32-26.45,65.05
					c-0.33,0.9-0.65,1.9-0.95,3c-2.63,10.2-5.07,21.03-7.3,32.5c-0.1,0-0.17,0.05-0.2,0.15c-0.63,3.229-1.25,6.5-1.85,9.8
					c0.5-3.4,0.98-6.681,1.45-9.851l-0.1-0.1l0.05-0.15c2.27-13.669,4.3-24.569,6.1-32.7c-4.23,15.5-8.12,32.27-11.65,50.3
					l-0.05,0.35l-0.15-0.05c-0.53,3-1.07,5.95-1.6,8.85c0.43-2.93,0.85-5.83,1.25-8.699l0.05-0.101c2.73-17.399,6.27-34.4,10.6-51
					v-0.1c4.53-16.9,9.82-33.33,15.85-49.3c-14.4,22.2-26.97,63.25-37.7,123.15c5.17-42,13.4-76.979,24.7-104.95
					c2.6-6.27,5.3-12.25,8.1-17.95c-3.37,4.67-6.63,10.33-9.8,17c-9.23,19.67-17.27,48.27-24.1,85.8c2.37-24.67,9.67-53.67,21.9-87
					h-0.1c-15.5,24.43-25.73,57.27-30.7,98.5c2.27-24.271,6.97-47.87,14.1-70.8c1.33-4.3,2.75-8.52,4.25-12.65
					c0.13-0.43,0.28-0.82,0.45-1.15c-0.17,0.27-0.4,0.6-0.7,1c-2.1,3.67-4.13,7.67-6.1,12c-9.97,21.23-19.28,50.121-27.95,86.65
					c5.9-30.6,14.42-59.95,25.55-88.05l0.05-0.1c0-0.07,0.02-0.13,0.05-0.2v-0.65c0.13-0.47-4.13,7.4-12.8,23.6
					c-8.7,16.2-15.25,37.18-19.65,62.95c4.73-41.1,20.1-77.1,46.1-108c5.73-7.7,11.87-14.97,18.4-21.8l0.05-0.1
					c6.3-6.6,12.95-12.82,19.95-18.65l0.15,0.05c1.899-1.67,3.899-3.33,6-5c5.1-3.97,10.399-7.65,15.899-11.05
					c13.631,3.97,26.221,10.48,37.75,19.55l-25.1,52.95l4.3-27.55c-1.271,3.13-2.55,6.55-3.85,10.25c-1.101,3-2.15,6.25-3.15,9.75
					c-3.03,9.6-6.079,21.03-9.149,34.3c1.899-11.37,4.449-22.98,7.649-34.85c0.9-3.37,1.8-6.77,2.7-10.2c1.07-3.3,2.13-6.7,3.2-10.2
					c0.069-0.07,0.12-0.17,0.149-0.3c0.131-0.37,0.25-0.77,0.351-1.2c-0.13,0.43-0.28,0.82-0.45,1.15
					c-0.13,0.13-0.221,0.28-0.25,0.45c-1.13,3.23-2.35,6.55-3.65,9.95c-1.129,3.23-2.279,6.5-3.449,9.8l0.1,0.2
					c-3.529,10.37-6.67,21.07-9.4,32.1c-0.629,2.33-1.18,4.7-1.649,7.1c-1.07,3.97-2.07,8.02-3,12.15
					c0.729-4.07,1.5-8.101,2.3-12.101c0.53-2.43,1.05-4.88,1.55-7.35c0.73-3.47,1.5-6.9,2.3-10.3c1.871-7.6,3.871-15.03,6-22.3
					c-2.699,7.03-5.25,14.35-7.649,21.95c-1,3.271-1.95,6.58-2.851,9.95l-0.05,0.2l-0.25-0.05l0.2-0.05
					c0.8-3.4,1.65-6.78,2.55-10.15v-0.1c2-7.47,4.101-14.97,6.3-22.5c3.83-13,8.131-26.12,12.9-39.35c-4.73,9.8-8.87,20.1-12.4,30.9
					c-0.17,0.23-0.279,0.45-0.35,0.65c-0.73,2.4-1.45,4.78-2.15,7.15c-0.029,0.07-0.029,0.2,0,0.4c-0.569,1.87-1.18,3.82-1.85,5.85
					c-1.43,5.43-2.72,10.93-3.85,16.5c0.899-5.4,1.93-10.98,3.1-16.75c0.43-1.97,0.88-3.98,1.35-6.05l0.051-0.15
					c0.529-2.03,1.1-4.12,1.699-6.25c-0.67,2.03-1.27,4.07-1.8,6.1l-0.1,0.25c-0.5,1.97-0.979,3.98-1.45,6.05l-0.2,0.1
					c-2.17,8.6-4.3,17.6-6.399,27c-0.57,2.5-1.12,5.07-1.65,7.7l-0.05,0.2c-0.07,0.3-0.17,0.67-0.3,1.1
					c0.029,0.3-0.021,0.67-0.15,1.1c-0.23,1.2-0.529,2.5-0.9,3.9l0.101,0.15c-1.17,5.7-2.28,11.6-3.351,17.7
					c0.801-6,1.7-11.93,2.7-17.8v-0.1c0.2-1.33,0.421-2.68,0.65-4.05c0.03-0.4,0.13-0.73,0.3-1l-0.1-0.05c0-0.43,0.05-0.8,0.149-1.1
					c0.53-2.7,1.07-5.38,1.601-8.05c1.899-9.2,4.029-18.23,6.399-27.1c0.671-2,1.271-4.03,1.8-6.1c-0.629,2.03-1.25,4.02-1.85,5.95
					l-0.05,0.1c-3.271,10.73-6.28,22.37-9.05,34.9c2.1-12,4.58-23.72,7.449-35.15c0.53-2.3,1.08-4.55,1.65-6.75l0.05-0.1
					c0.5-1.93,0.98-3.87,1.45-5.8c-0.7,1.73-1.4,3.62-2.1,5.65l-0.051,0.1c-2.199,5.9-4.47,12.8-6.8,20.7
					c-1.93,7.33-4.03,15.53-6.3,24.6c-0.63,3.1-1.35,6.32-2.15,9.649c0.67-3.169,1.301-6.419,1.9-9.75c0.57-2.5,1.15-4.97,1.75-7.4
					c1.17-5.73,2.52-11.47,4.05-17.2c0.53-2.33,1.101-4.63,1.7-6.9c1.3-4.83,2.65-9.67,4.05-14.5c0.5-1.9,1-3.8,1.5-5.7
					c0.03-0.07,0.08-0.12,0.15-0.15c0.729-2.33,1.43-4.7,2.1-7.1c-0.771,2.13-1.579,4.43-2.45,6.9c-0.029,0.07-0.05,0.13-0.05,0.2
					c-0.6,1.87-1.2,3.75-1.8,5.65v0.1c-1.37,4.33-2.8,9.08-4.3,14.25c-0.601,2.27-1.25,4.6-1.95,7c-1.33,5.3-2.779,11.03-4.35,17.2
					c-0.53,2.37-1.101,4.82-1.7,7.35c-0.7,3.07-1.479,6.33-2.351,9.8l0.101,0.2c-0.271,1.07-0.57,2.23-0.9,3.5L144.4,85.2
					c-0.601,2.27-1.221,4.53-1.851,6.8v0.1l-0.149,0.1C141,97.8,139.6,103.58,138.2,109.55z"/>
				<path fill="#164416" d="M137.3,109.3l0.9,0.25c-0.53,2.27-1.08,4.67-1.65,7.2l-0.05,0.1c-0.77,3.2-1.48,6.42-2.15,9.65
					c-0.369,1.67-0.729,3.33-1.1,5c-0.6,3-1.2,5.95-1.8,8.85l-0.05,0.101c-2.101,10.729-4.131,21.8-6.101,33.2
					c1.63-11.23,3.5-22.32,5.601-33.25V140.3c0.629-2.97,1.229-5.899,1.8-8.8v-0.1c0.271-1.67,0.62-3.301,1.05-4.9h-0.1
					C134.82,120.67,136.029,114.93,137.3,109.3z M127.1,130.75l1.301,0.3c-2.101,8.601-4.25,17.87-6.45,27.8
					C123.32,149.82,125.029,140.45,127.1,130.75z"/>
			</g>
			<g>
				
					<linearGradient id="SVGID_3_" gradientUnits="userSpaceOnUse" x1="-997.293" y1="782.4121" x2="128.8738" y2="782.4121" gradientTransform="matrix(0.7891 0.6143 0.4284 -0.9338 -239.1894 740.9951)">
					<stop  offset="0" style="stop-color:#0E1E0D"/>
					<stop  offset="1" style="stop-color:#1A4518"/>
				</linearGradient>
				<path fill="url(#SVGID_3_)" d="M147.15,22.95c-4.101,9.67-8.7,19.2-13.801,28.6c4.03-9.6,8.551-19.05,13.551-28.35
					C146.93,23.13,147.02,23.05,147.15,22.95z M143.6,24.75c-3.97,9.3-8.199,18.6-12.699,27.9c3.899-9.13,8.07-18.38,12.5-27.75
					L143.6,24.75z M119.8,45.45c-4.93,8.17-9.6,17.08-14,26.75c-0.03,0.13-0.08,0.18-0.15,0.15c3.87-9.63,8.52-18.55,13.95-26.75
					C119.6,45.53,119.67,45.48,119.8,45.45z M177.25,35.65c0.83-2.27,1.9-4.73,3.2-7.4c0.771-1.5,1.53-3.02,2.3-4.55
					c0.471,0.3,0.93,0.58,1.4,0.85c-2.871,7-5.57,14.03-8.101,21.1c-0.13,0.43-0.33,0.82-0.6,1.15
					C175.12,43.6,175.721,39.88,177.25,35.65z M164,39.4c-3.83,7.77-6.87,16-9.1,24.7c-0.131,0.17-0.23,0.27-0.301,0.3
					c0.87-6.5,3.12-13.18,6.75-20.05C162.25,42.62,163.13,40.97,164,39.4z M165.85,15.2c-3.97,10.03-7.979,20.13-12.05,30.3
					c0.601-2.2,1.28-4.45,2.05-6.75l0.45-0.95c2.47-7.37,5.5-14.97,9.101-22.8C165.57,15.07,165.721,15.13,165.85,15.2z
					 M168.3,19.35c-0.67,2.13-1.42,4.22-2.25,6.25c-1.829,4.2-4.05,8.32-6.649,12.35c-0.971,1.7-1.98,3.3-3.051,4.8
					c-0.129,0.03-0.25,0.13-0.35,0.3c2.67-5.13,5.23-10.45,7.7-15.95c1.47-3.07,2.85-6.28,4.149-9.65c0.131-0.2,0.2-0.45,0.2-0.75
					l0.05-0.15l0.101,0.05c0.069-0.1,0.17-0.2,0.3-0.3c0.23,0.1,0.48,0.2,0.75,0.3C168.92,17.5,168.6,18.42,168.3,19.35z
					 M171.6,17.7c-0.57,1.07-1.119,2.13-1.649,3.2c-0.07,0.2-0.17,0.4-0.3,0.6c-0.17,0.27-0.381,0.57-0.65,0.9
					c0.63-1.7,1.32-3.35,2.05-4.95C171.221,17.52,171.4,17.6,171.6,17.7z M169.5,33.95c1.971-4.8,4.23-9.43,6.8-13.9
					c0.13,0.07,0.28,0.15,0.45,0.25c-3.93,9.9-8.17,19.68-12.7,29.35c-0.03,0.07-0.1,0.08-0.2,0.05
					C165.52,44.33,167.4,39.08,169.5,33.95z M178,20.95c-0.9,1.57-1.83,3.13-2.8,4.7c-0.03,0.1-0.15,0.17-0.351,0.2
					c0.771-1.8,1.58-3.57,2.45-5.3C177.5,20.68,177.73,20.82,178,20.95z M152.25,23.9c-5.67,13.7-11.93,27.28-18.8,40.75
					c5.67-13.4,11.78-26.78,18.35-40.15C151.9,24.2,152.05,24,152.25,23.9z M150.65,22.65c-6.601,15.47-13.45,30.93-20.551,46.4
					c-0.07,0.13-0.149,0.22-0.25,0.25c6.101-15.43,12.92-30.87,20.45-46.3C150.33,22.77,150.45,22.65,150.65,22.65z M148.35,70
					c2.67-8.13,6.08-16.07,10.25-23.8c-3.629,7.63-7,15.55-10.1,23.75C148.471,70.02,148.42,70.03,148.35,70z M113.4,73.85
					c4.7-11.93,9.571-23.88,14.6-35.85c-4.471,11.8-9.22,23.65-14.25,35.55C113.65,73.72,113.53,73.82,113.4,73.85z"/>
				
					<linearGradient id="SVGID_4_" gradientUnits="userSpaceOnUse" x1="-997.3013" y1="795.2383" x2="128.8744" y2="795.2383" gradientTransform="matrix(0.7891 0.6143 0.4284 -0.9338 -239.1894 740.9951)">
					<stop  offset="0" style="stop-color:#1D431E"/>
					<stop  offset="1" style="stop-color:#225D23"/>
				</linearGradient>
				<path fill="url(#SVGID_4_)" d="M126.2,36.55c-1.2,4.7-3.421,8.3-6.65,10.8c-0.03,0.07-0.07,0.05-0.1-0.05
					c1.5-4.67,3.67-8.15,6.5-10.45C126.08,36.75,126.17,36.65,126.2,36.55z M130.85,60c5.971-15.33,12.78-29.45,20.45-42.35
					c0.13-0.13,0.22-0.23,0.25-0.3c-5.67,15.67-12.53,29.9-20.6,42.7C130.92,60.15,130.88,60.13,130.85,60z M182.75,23.7
					c-0.77,1.53-1.529,3.05-2.3,4.55c-1.3,2.67-2.37,5.13-3.2,7.4c1-3.73,2.12-7.43,3.35-11.1c-3.869,8.2-8.07,16.13-12.6,23.8
					l-0.1-0.05c3.27-8.43,6.68-16.6,10.25-24.5c-3.9,8.07-8,15.98-12.301,23.75c3.87-8.93,7.93-17.78,12.2-26.55
					c0.4,0.2,0.82,0.42,1.25,0.65c-1.38,3.45-2.6,7.04-3.649,10.75c0.029-0.06,0.08-0.13,0.149-0.2c1.431-3.37,2.92-6.7,4.45-10
					C181.08,22.7,181.92,23.2,182.75,23.7z M168.3,19.35c0.53-0.83,1.07-1.65,1.601-2.45c0.3,0.13,0.6,0.27,0.899,0.4
					c-1.63,2.67-3.22,5.43-4.75,8.3C166.88,23.57,167.63,21.48,168.3,19.35z M155.85,38.75c-0.77,2.3-1.449,4.55-2.05,6.75
					c4.07-10.17,8.08-20.27,12.05-30.3c0.83,0.33,1.68,0.68,2.551,1.05c-0.07,0.1-0.131,0.22-0.2,0.35l-0.101-0.05l-0.05,0.15
					c-2.771,5.77-5.38,11.52-7.85,17.25c1.2-2.3,2.37-4.58,3.5-6.85c-2.47,5.5-5.03,10.82-7.7,15.95c0.1-0.17,0.221-0.27,0.35-0.3
					c1.07-1.5,2.08-3.1,3.051-4.8c-2.57,5.5-5.101,11.22-7.601,17.15c-0.13,0.17-0.28,0.35-0.45,0.55c0.7-2.17,1.45-4.23,2.25-6.2
					c-0.869,1.7-1.619,3.45-2.25,5.25c-0.199,0.5-0.57,0.95-1.1,1.35C151.85,50.12,153.721,44.35,155.85,38.75z M164,39.4
					c-0.87,1.57-1.75,3.22-2.65,4.95c-3.629,6.87-5.879,13.55-6.75,20.05c0.07-0.03,0.17-0.13,0.301-0.3
					C157.13,55.4,160.17,47.17,164,39.4z M169.65,21.5c0.129-0.2,0.229-0.4,0.3-0.6c0.53-1.07,1.079-2.13,1.649-3.2
					c0.471,0.2,0.93,0.42,1.4,0.65c-6.2,14.07-11.48,28.63-15.85,43.7c-1.131,3.77-2.971,6.48-5.5,8.15
					C155.95,53,161.95,36.77,169.65,21.5z M176.3,20.05c-2.569,4.47-4.829,9.1-6.8,13.9c-2.27,4.27-4.62,8.42-7.05,12.45
					c-0.03,0.07-0.15,0.08-0.351,0.05c3.93-9.47,8.051-18.58,12.351-27.35C175.05,19.4,175.67,19.72,176.3,20.05z M181.15,33.85
					c1.17-3,2.399-5.95,3.699-8.85c0.43,0.3,0.881,0.6,1.351,0.9c-1.57,2.6-3.181,5.17-4.851,7.7
					C181.35,33.67,181.279,33.75,181.15,33.85z M175.1,67.9c4.871-13.3,10.131-26.18,15.801-38.65c0.67,0.47,1.33,0.97,2,1.5
					c-5.33,12.6-11.08,24.78-17.25,36.55C175.48,67.6,175.3,67.8,175.1,67.9z"/>
			</g>
			<g>
				<path fill="#386628" d="M147.15,61.3c6.029-15,12.67-29.83,19.899-44.5c0.03-0.13,0.101-0.23,0.2-0.3
					c-6.8,14.73-13.48,29.65-20.05,44.75L147.15,61.3z M175.05,19.35c0.13,0.07,0.28,0.15,0.45,0.25
					c-3.57,7.37-7.02,14.95-10.35,22.75c-1.2,2.87-2.32,5.82-3.351,8.85c2.9-10,6.8-19.68,11.7-29.05
					C174,21.22,174.52,20.28,175.05,19.35z M170.65,17.25c-2.101,4.83-3.95,9.68-5.551,14.55c-0.029,0.07-0.07,0.13-0.1,0.2
					c-0.3-2.33,0.57-5.35,2.6-9.05c1-2,1.98-3.92,2.95-5.75C170.58,17.2,170.62,17.22,170.65,17.25z M165.7,15.1
					c-4.63,9.83-9.431,19.65-14.4,29.45c0,0.1-0.069,0.17-0.2,0.2c4.57-9.87,9.4-19.75,14.5-29.65
					C165.63,15.1,165.67,15.1,165.7,15.1z"/>
			</g>
		</g>
		<g>
			<g>
				
					<linearGradient id="SVGID_5_" gradientUnits="userSpaceOnUse" x1="150.6348" y1="475.4971" x2="178.9978" y2="475.4971" gradientTransform="matrix(0.9546 0.2979 0.6528 -0.8438 -348.5759 470.5342)">
					<stop  offset="0" style="stop-color:#1D431E"/>
					<stop  offset="1" style="stop-color:#225D23"/>
				</linearGradient>
				<path fill="url(#SVGID_5_)" d="M173.5,140.4l-1.45,0.899c-1-1.83-2.021-3.72-3.05-5.649c-3.2-7-6.15-14.581-8.85-22.75
					c-0.371-1.13-0.771-2.25-1.2-3.35c0.329,1.2,0.67,2.33,1,3.4c2.229,7.97,4.87,15.729,7.899,23.3l-0.149,0.05
					c-3.601-7.53-6.62-15.03-9.05-22.5l0.05-0.1c-0.47-1.17-0.87-2.28-1.2-3.35c-2.8-8.57-4.95-17.08-6.45-25.55
					c0.601,8.43,2.13,17.2,4.601,26.3c0.3,1.2,0.619,2.38,0.949,3.55c2.23,7.53,5.07,15.23,8.5,23.1l-0.05,0.1
					c0.771,1.931,1.62,3.9,2.55,5.9l0.051-0.1c2.3,5.229,4.899,10.52,7.8,15.85c-3.57-4.27-6.88-9.05-9.95-14.35
					c-8.7-15.17-14.93-34.68-18.7-58.55l0.05-0.1c-0.869-5.8-1.649-11.82-2.35-18.05c-1.529,6.1-2.23,12.62-2.1,19.55v0.15
					c0.229,6.73,1.279,13.88,3.149,21.45c0.4,1.5,0.8,3.05,1.2,4.65c3.43,12.4,8.95,25.88,16.55,40.45
					c-7.63-11.37-14.28-24.2-19.95-38.5l-0.149-0.15c0,0.07,0.03,0.15,0.1,0.25c4.07,19.271,11.28,37.431,21.65,54.5
					c1.229,2.03,2.47,4.13,3.7,6.3c-1.5-1.97-2.971-3.899-4.4-5.8c-3.07-4.03-5.92-8.2-8.55-12.5
					c-4.4-7.3-8.271-14.85-11.601-22.649c-1.899-4.7-3.619-9.48-5.149-14.351c-2.67-8.07-4.72-16.42-6.15-25.05
					c-0.43,9.07,0.32,18.12,2.25,27.15c0.63,2.73,1.33,5.45,2.101,8.15c0.83,2.73,1.85,5.5,3.05,8.3l-0.05,0.15
					c3.3,8.63,7.82,17.27,13.55,25.9c-6.63-8-11.8-16.301-15.5-24.9l0.05-0.1c-0.029,0.06-0.08,0.05-0.15-0.051
					c-1.1-2.67-2.17-5.379-3.199-8.149l0.05-0.101c0-0.1,0.021-0.18,0.05-0.25c-0.93-2.369-1.63-4.75-2.1-7.149
					c-0.101-0.229-0.23-0.47-0.4-0.7c-0.07,0.3-0.15,0.6-0.25,0.9c-0.4,1.93-0.23,4.6,0.5,8L133,134.1
					c0.53,2.431,1.38,5.25,2.55,8.45c0,0.07,0.08,0.12,0.25,0.15l-0.05,0.149c3.3,8.801,5.62,15.301,6.95,19.5l-0.05,0.2
					c0.729,2.17,2.32,5.7,4.75,10.601c0.869,1.699,1.85,3.619,2.949,5.75c1.9,3.57,4.07,7.63,6.5,12.199
					c-2.699-3.869-5.25-7.72-7.649-11.55c-1.13-1.899-2.229-3.77-3.3-5.6c-1.971-3.37-3.75-6.771-5.351-10.2l0.05-0.1h-0.149
					c-3.5-7.301-6.25-14.631-8.25-22c-0.601-2.2-1.181-4.351-1.75-6.45l0.05-0.101c-0.6-2.869-1.12-5.729-1.55-8.6v-0.1
					c-1.431-9.431-1.67-18.9-0.7-28.4l0.05-0.1c-0.03-0.27-0.05-0.55-0.05-0.85c0.03-0.07,0.08-0.08,0.15-0.05
					c0.369-3.03,0.82-6.08,1.35-9.15l-5.7,6.9c-3.47,15.57-2.17,31.87,3.9,48.9c0.271,0.729,0.479,1.449,0.649,2.149
					c2.371,6.33,5.431,12.8,9.2,19.4v0.1c1.8,3.3,3.82,6.62,6.05,9.95c-2.399-3.4-4.6-6.57-6.6-9.5c-0.1,0.029-0.13,0.02-0.1-0.05
					c-5.03-7.47-8.801-13.62-11.301-18.45c3.53,9.97,8.271,20.05,14.2,30.25l0.05,0.3c1.07,1.601,2.07,3.229,3,4.9
					c-1.17-1.47-2.33-3-3.5-4.601l0.051-0.1c-6.53-9.37-11.83-19.221-15.9-29.55l0.05-0.101c-4.17-10.63-6.9-21.77-8.2-33.399
					c-5.67,21.329,2,48.62,23,81.85c-17.7-21.3-27.47-42.38-29.3-63.25c-0.23-4.8-0.15-9.57,0.25-14.3
					c-1.73,4.77-2.67,9.85-2.8,15.25c-0.5,15.83,5.72,34.279,18.65,55.35c-11.17-11.93-18.53-29.92-22.101-53.949l-0.15,0.1
					c-5.67,23.23,0.23,45.25,17.7,66.05c-11.17-11.63-18.8-25.149-22.9-40.55c-0.77-2.9-1.37-5.78-1.8-8.65
					c-0.07-0.369-0.12-0.699-0.15-1c-0.1,0.37-0.13,0.7-0.1,1c-0.63,3.301-0.98,6.67-1.05,10.101c-0.47,17.2,4.37,36.819,14.5,58.85
					c-10.2-17.33-16.28-36.43-18.25-57.3c-0.07-0.1-0.1-0.18-0.1-0.25c-0.1,0.07-0.22,0-0.35-0.2c-0.2-0.3-1.17,6.53-2.9,20.5
					c-1.7,14,2.15,28.12,11.55,42.351c-17.6-20.73-18.83-48.5-3.7-83.301c2.9-8.07,6.47-16.25,10.7-24.55c0-0.07,0.02-0.13,0.05-0.2
					c4.2-8.13,9.13-16.35,14.8-24.65L121,94.05c1.7-2.37,3.35-4.7,4.95-7c0.03-0.07,0.05-0.13,0.05-0.2
					c4.77-6.67,9.9-13.43,15.4-20.3c10.57-12.9,23.479-27.5,38.75-43.8l4.6,2.2c5,3.27,9.83,6.97,14.5,11.1l-1.7,50.85l-10.3-14.75
					c0.17,2.33,0.52,4.82,1.05,7.45c0.33,2.13,0.78,4.33,1.351,6.6C191.52,92.73,194.3,100,198,108c-4.13-6.3-7.57-13.18-10.3-20.65
					c-0.9-2.13-1.7-4.28-2.4-6.45c-0.7-2.23-1.329-4.52-1.899-6.85c0-0.07,0.02-0.13,0.05-0.2c-0.101-0.33-0.181-0.67-0.25-1
					c-0.101-0.1-0.17-0.2-0.2-0.3c0.1,0.5,0.2,0.93,0.3,1.3c-0.03,0.07-0.069,0.17-0.1,0.3c0.3,2.43,0.649,4.83,1.05,7.2
					c0.37,2.3,0.85,4.58,1.45,6.85v0.15c1.67,7.1,3.88,14.08,6.649,20.95c0.53,1.47,1.121,2.95,1.75,4.45
					c1.101,2.4,2.23,4.83,3.4,7.3c-1.4-2.27-2.72-4.55-3.95-6.85c-0.829-1.4-1.649-2.83-2.45-4.3c-0.93-2.03-1.899-4.1-2.899-6.2
					c-2-4.6-3.78-9.32-5.351-14.15c0.601,5.3,1.601,10.47,3,15.5c0.631,2.13,1.32,4.28,2.051,6.45l0.199,0.2l-0.3,0.15l0.05-0.1
					c-0.93-2.07-1.8-4.18-2.6-6.35v-0.1c-1.8-4.63-3.42-9.43-4.85-14.4c-2.57-8.63-4.7-17.6-6.4-26.9c-0.43,8,0.2,15.67,1.9,23
					c0.13,0.2,0.18,0.38,0.149,0.55c0.4,1.63,0.83,3.23,1.3,4.8c0,0.07-0.02,0.13-0.05,0.2c0.4,1.27,0.851,2.53,1.351,3.8
					c1.3,3.4,2.85,6.75,4.649,10.05c-2.069-2.9-3.95-6.02-5.649-9.35c-0.7-1.23-1.301-2.47-1.801-3.7
					c-0.47-1.23-0.949-2.47-1.449-3.7c0.369,1.3,0.77,2.55,1.199,3.75c0.471,1.3,0.93,2.6,1.4,3.9c2.1,5.33,4.57,10.82,7.4,16.45
					c0.699,1.47,1.43,2.97,2.199,4.5c0.101,0.03,0.2,0.08,0.301,0.15c0.029,0.2,0.1,0.42,0.199,0.65c0.17,0.2,0.271,0.38,0.301,0.55
					c0.43,0.73,0.869,1.52,1.3,2.35c1.87,3.33,3.87,6.7,6,10.1c-2.47-3.17-4.771-6.319-6.9-9.45c-0.5-0.8-0.97-1.58-1.399-2.35
					c-0.17-0.17-0.271-0.33-0.301-0.5c-0.229-0.23-0.399-0.43-0.5-0.6c-0.869-1.57-1.72-3.1-2.55-4.6l-0.1-0.05
					c-2.9-5.37-5.37-10.83-7.4-16.4c-0.43-1.4-0.88-2.78-1.35-4.15c0.329,1.43,0.75,2.85,1.25,4.25c1.93,7.17,4.829,14.42,8.7,21.75
					l-0.051,0.1l-0.199,0.05c-4.2-6.7-7.801-13.58-10.801-20.65c-0.63-1.33-1.229-2.7-1.8-4.1c-0.47-1.27-0.92-2.5-1.35-3.7
					c0.13,1.27,0.28,2.65,0.45,4.15c0.67,4.3,1.85,9,3.55,14.1c1.6,4.73,3.6,9.82,6,15.25c0.87,1.97,1.829,3.92,2.899,5.85
					c-1.1-1.87-2.18-3.73-3.25-5.6c-0.699-1.43-1.399-2.9-2.1-4.4c-1.7-3.33-3.32-6.8-4.85-10.4c-0.53-1.47-1.121-2.88-1.75-4.25
					c-1.131-3.03-2.271-6.12-3.4-9.25c-0.37-1.17-0.77-2.4-1.2-3.7l0.05-0.15c-0.5-1.53-0.92-3.08-1.25-4.65
					c0.17,1.53,0.42,3.17,0.75,4.9c0,0.07,0.051,0.12,0.15,0.15c0.2,1.23,0.43,2.52,0.7,3.85c0.8,2.93,1.819,6.1,3.05,9.5
					c0.47,1.37,1,2.77,1.6,4.2v0.1c1.301,3.43,2.75,7,4.351,10.7l0.1,0.05c0.53,1.4,1.15,2.87,1.851,4.4
					c0.8,1.93,1.72,3.88,2.75,5.85c-0.03,0.07,0,0.12,0.1,0.15c0.3,0.67,0.62,1.38,0.95,2.149L167.5,108.2
					c0.5,1.43,1.029,2.82,1.6,4.15l0.15,0.15c1.33,3.57,2.82,7.15,4.45,10.75l-1.3,0.6c-1.631-3.43-3.2-6.92-4.7-10.45
					c-0.671-1.43-1.32-2.9-1.95-4.4c-0.13-0.27-0.221-0.52-0.25-0.75c-2.2-5.47-4.17-11.02-5.9-16.65c0.17,5.3,1.101,11.3,2.801,18
					c0,0.27,0.05,0.53,0.149,0.8c0.13,0.43,0.32,0.82,0.55,1.15c1.83,6.93,4.471,14.55,7.9,22.851
					C171.77,136.33,172.6,138.33,173.5,140.4z"/>
				<path fill="#164416" d="M172.4,123.85c0.1,0.03,0.199,0.02,0.3-0.05l1-0.55c0.63,1.4,1.3,2.83,2,4.3v0.101
					c0.87,1.899,1.829,3.819,2.899,5.75l-0.05,0.1c0.47,0.9,0.95,1.85,1.45,2.85l-0.05,0.101c0.97,1.67,1.95,3.37,2.95,5.1v-0.1
					c3.43,6.17,7.22,12.399,11.35,18.7c-4.33-5.93-8.33-11.98-12-18.15v-0.1c-1.1-1.7-2.08-3.381-2.95-5.051
					c-0.6-0.93-1.18-1.869-1.75-2.8l0.05-0.1C175.8,130.65,174.07,127.28,172.4,123.85z M172.05,141.3l1.45-0.899
					c2.4,5.229,5.02,10.8,7.85,16.699C177.95,152.23,174.85,146.97,172.05,141.3z"/>
			</g>
			<g>
				
					<linearGradient id="SVGID_6_" gradientUnits="userSpaceOnUse" x1="-1613.6079" y1="253.4141" x2="-9.9847" y2="253.4141" gradientTransform="matrix(0.9525 -0.3046 0.0089 -1.0527 245.1635 306.8776)">
					<stop  offset="0" style="stop-color:#1D431E"/>
					<stop  offset="1" style="stop-color:#225D23"/>
				</linearGradient>
				<path fill="url(#SVGID_6_)" d="M171.1,52.3c-0.1-0.03-0.129-0.08-0.1-0.15c-0.029,0.07-0.05,0.14-0.05,0.2
					c-0.87,4.73-1.15,9.25-0.851,13.55c-0.529,3.7-1.22,7.45-2.05,11.25h-0.3c-0.87-13.7-0.221-27.52,1.95-41.45
					c0.03-0.13,0.079-0.28,0.149-0.45C170.75,40.85,171.17,46.53,171.1,52.3z M175.2,39.05c0.03,1.63,0.069,3.25,0.1,4.85
					c-0.7,5.7-0.229,11.17,1.4,16.4c0.17-0.23,0.25-0.38,0.25-0.45c-0.431-7.7-0.13-15.53,0.899-23.5c0.131,0.9,0.2,1.82,0.2,2.75
					c0.47-3.63,1.271-7.45,2.4-11.45c0.03-0.07,0.1-0.13,0.2-0.2c0.3,5.8,0.52,11.55,0.649,17.25c-0.271,3.13-0.5,6.28-0.7,9.45
					c-0.229,2.2-0.199,4.13,0.101,5.8c-0.931-2.4-1.601-4.9-2-7.5C178.47,59.15,177.68,66,176.35,73l-0.149,0.05
					c-0.771-6.23-1.13-12.47-1.101-18.7c-0.33,6.73-1,13.6-2,20.6c-0.029,0.07-0.119,0.17-0.25,0.3c0-7.6,0.17-15.32,0.5-23.15
					C174.221,47.6,174.83,43.25,175.2,39.05z M177.55,33.9c-0.829,2.43-1.43,4.87-1.8,7.3c0.17-3.4,0.529-6.83,1.1-10.3
					c0.03-0.13,0.07-0.28,0.101-0.45C177.18,31.62,177.38,32.77,177.55,33.9z M175.05,36.6c-0.26,0.55-0.409,1.07-0.45,1.55
					c0.07-0.98,0.121-2.02,0.15-3.1c0.029-0.07,0.05-0.15,0.05-0.25C174.9,35.47,174.98,36.07,175.05,36.6z M187.85,27.05
					c0.73,8.83-0.279,18.27-3.05,28.3c-0.069,0.23-0.1,0.38-0.1,0.45c-1-9.27-0.229-19.03,2.3-29.3
					C187.27,26.67,187.55,26.85,187.85,27.05z M166.4,71.4c-0.301,1.8-0.58,3.68-0.851,5.65c-0.63,5.87,0.4,10.5,3.101,13.9
					l0.05-0.25C166.4,84.77,165.63,78.33,166.4,71.4z M155.25,78.85c0.33,1.9,0.73,3.7,1.2,5.4c0.13-0.13,0.22-0.23,0.25-0.3
					c-0.83-7.57-1.601-15.25-2.3-23.05c0.33-1.57,0.92-3.22,1.75-4.95c0.029-0.07,0.05-0.15,0.05-0.25
					c0.17,0.43,0.3,0.82,0.399,1.15c0.53-2.33,1.17-4.7,1.9-7.1c0.029-0.1,0.08-0.17,0.15-0.2c-0.2,3.57-0.351,7.07-0.45,10.5v0.1
					c-0.171,4.67-0.2,9.25-0.101,13.75c0.07-1.9,0.271-3.85,0.601-5.85c-0.07,4.37-0.32,8.77-0.75,13.2c0.17-0.17,0.25-0.3,0.25-0.4
					c0.5-1.6,0.95-3.17,1.35-4.7c-0.37,4.43-0.37,8.9,0,13.4c0.07,0.27-0.03,0.53-0.3,0.8c-0.23-1.5-0.48-2.98-0.75-4.45
					c0,1.33,0.1,2.65,0.3,3.95c0,0.43-0.13,0.95-0.399,1.55C156.83,87.37,155.779,83.18,155.25,78.85z M162.9,60.7
					c-0.07-0.1-0.08-0.23-0.051-0.4c0.2-2.03,0.43-4.12,0.7-6.25c0.271-2,0.62-3.98,1.05-5.95c-0.27,1.03-0.58,2.05-0.949,3.05
					c0.1-0.63,0.08-1.23-0.051-1.8c0.5-1.27,1-2.5,1.5-3.7c0.131-0.43,0.221-0.9,0.25-1.4c0.07-0.2,0.17-0.4,0.301-0.6
					c-0.07,0.23-0.08,0.52-0.051,0.85c0.07-0.3,0.2-0.52,0.4-0.65c-0.2,0.33-0.33,0.68-0.4,1.05
					c-1.029,15.33,0.48,29.68,4.551,43.05c0.8,2.5,0.08,5.17-2.15,8C163.67,85.15,161.971,73.4,162.9,60.7z M160.65,65.5
					c-0.17-1.53-0.371-3.03-0.601-4.5c0.63-2.8,1.45-5.65,2.45-8.55c-0.13,1.4-0.221,2.72-0.25,3.95
					C161.55,59.43,161.02,62.47,160.65,65.5z M150.95,60.3c0.069-0.6,0.18-1.2,0.35-1.8c0.03-0.13,0.12-0.3,0.25-0.5
					c1.83,10.23,1.55,21.13-0.85,32.7c-0.13,0.23-0.22,0.42-0.25,0.55c-1.229-6.9-1.5-14.03-0.8-21.4
					c-0.17-3.57,0.07-7.18,0.699-10.85c0.03-0.1,0.12-0.2,0.25-0.3C150.7,59.27,150.82,59.8,150.95,60.3z M135.2,94.45l0.05-0.7
					c0-1,0.029-1.98,0.1-2.95c0.301-5.23,0.95-10.5,1.95-15.8c0.07-0.23,0.171-0.4,0.3-0.5c1.801,11.23,1.301,22.95-1.5,35.15
					c-0.029,0.07-0.129,0.12-0.3,0.15C135.2,104.7,135,99.58,135.2,94.45z M116.35,104.35c1.33,2.87,0.62,6.2-2.15,10
					c-0.03,0.07-0.08,0.13-0.15,0.2c-0.83-3.2-0.15-6.5,2.05-9.9C116.23,104.52,116.32,104.42,116.35,104.35z M197,34.1
					c1.37,12.93,1.32,26.25-0.15,39.95c0,0.2-0.119,0.43-0.35,0.7c-2.07-13.83-2.65-28-1.75-42.5
					C195.52,32.85,196.27,33.47,197,34.1z"/>
				
					<linearGradient id="SVGID_7_" gradientUnits="userSpaceOnUse" x1="-1613.6079" y1="243.2275" x2="-9.9846" y2="243.2275" gradientTransform="matrix(0.9525 -0.3046 0.0089 -1.0527 245.1635 306.8776)">
					<stop  offset="0" style="stop-color:#0E1E0D"/>
					<stop  offset="1" style="stop-color:#1A4518"/>
				</linearGradient>
				<path fill="url(#SVGID_7_)" d="M170.1,65.9c-0.3-4.3-0.02-8.82,0.851-13.55c0-0.06,0.021-0.13,0.05-0.2
					c-0.029,0.07,0,0.12,0.1,0.15c0.801,8,1.08,16.2,0.851,24.6c0,0.07-0.021,0.13-0.05,0.2C170.83,73.53,170.23,69.8,170.1,65.9z
					 M175.05,36.6c0.03-0.13,0.12-0.3,0.25-0.5c-0.069,0.97-0.1,1.95-0.1,2.95c-0.37,4.2-0.979,8.55-1.851,13.05
					c-0.3,1.77-0.649,3.63-1.05,5.6c-0.03,0.07-0.12,0.15-0.25,0.25c-0.3-6.1,0.53-12.58,2.5-19.45l0.05-0.25v-0.1
					C174.641,37.67,174.79,37.15,175.05,36.6z M175.75,41.2c0.37-2.43,0.971-4.87,1.8-7.3c0.4-1.07,0.771-2.1,1.101-3.1
					c-0.301,1.8-0.57,3.65-0.801,5.55c-1.029,7.97-1.33,15.8-0.899,23.5c0,0.07-0.08,0.22-0.25,0.45c-1.63-5.23-2.101-10.7-1.4-16.4
					C175.37,42.97,175.52,42.07,175.75,41.2z M181.3,44.7c0.4-5,0.8-9.95,1.2-14.85c-0.33,12.3,0.55,23.98,2.65,35.05
					c0.029,0.33-0.08,0.65-0.351,0.95c-2.17-1.07-3.53-3.03-4.1-5.9c-0.3-1.67-0.33-3.6-0.101-5.8
					C180.8,50.98,181.029,47.83,181.3,44.7z M161.25,48.35c0.83,2.67,0.23,5.77-1.8,9.3c-0.101-0.03-0.2-0.03-0.3,0
					c0.369-3,1.05-6.07,2.05-9.2L161.25,48.35z M162.9,60.7c-0.07,0.2-0.131,0.45-0.2,0.75c-0.2-1.63-0.351-3.32-0.45-5.05
					c0.029-1.23,0.12-2.55,0.25-3.95c0.13-2,0.38-4,0.75-6c0.029-0.07,0.12-0.18,0.25-0.35c0.07,1.07,0.1,2.15,0.1,3.25
					c0.131,0.57,0.15,1.17,0.051,1.8c0.029,0.93,0,1.9-0.101,2.9c-0.271,2.13-0.5,4.22-0.7,6.25
					C162.82,60.47,162.83,60.6,162.9,60.7z M159.55,76.15c-0.399,1.53-0.85,3.1-1.35,4.7c0,0.1-0.08,0.23-0.25,0.4
					c0.43-4.43,0.68-8.83,0.75-13.2c-0.07-2.47-0.15-4.92-0.25-7.35c-0.101-0.2-0.181-0.38-0.25-0.55v-0.1
					c0.329-0.4,0.649-0.83,0.95-1.3c0.1-0.07,0.149-0.13,0.149-0.2c0.271,0.8,0.521,1.62,0.75,2.45c0.229,1.47,0.431,2.97,0.601,4.5
					C160.75,68.83,160.38,72.38,159.55,76.15z M155.25,78.85c-1.27-6.53-1.7-13.87-1.3-22c0.17,1.4,0.319,2.75,0.45,4.05
					c0.699,7.8,1.47,15.48,2.3,23.05c-0.03,0.07-0.12,0.17-0.25,0.3C155.98,82.55,155.58,80.75,155.25,78.85z M166.4,71.4
					c-0.771,6.93,0,13.37,2.3,19.3l-0.05,0.25c-2.7-3.4-3.73-8.03-3.101-13.9C165.82,75.08,166.1,73.2,166.4,71.4z M163.75,98.7
					c-1.23-5.6-1.42-11.73-0.55-18.4c-0.2,6.17,0.021,12.18,0.649,18.05C163.85,98.42,163.82,98.53,163.75,98.7z M142.15,76.7
					c0.6,10.47,0.5,21.33-0.301,32.6c0.07,0.17,0.03,0.32-0.1,0.45c-0.53-10.43-0.45-21.27,0.25-32.5
					C142.029,77.08,142.08,76.9,142.15,76.7z M139.4,77.55c0.5,11.93,0.72,24.08,0.649,36.45c0,0.07-0.03,0.17-0.1,0.3
					c-1.271-11.47-1.5-23.53-0.7-36.2C139.32,77.9,139.37,77.72,139.4,77.55z M131.75,84.45c0.2,7.53,0.13,15.22-0.2,23.05
					c0,0.07-0.069,0.15-0.2,0.25c-0.17-7.33-0.1-15,0.2-23C131.55,84.68,131.62,84.58,131.75,84.45z M135.35,90.8
					c-0.07,0.97-0.1,1.95-0.1,2.95l-0.05,0.7c-0.229,3.3-0.62,6.73-1.15,10.3c0.07,0.17,0.03,0.35-0.1,0.55
					c-0.33-7.7,0.021-15.77,1.05-24.2c0.029-0.13,0.12-0.22,0.25-0.25C135.35,84.08,135.38,87.4,135.35,90.8z M119.55,102.7
					c1.07,8.77,1.82,17.83,2.25,27.2c0,0.069-0.03,0.18-0.1,0.35c-1-8.97-1.78-18.12-2.35-27.45
					C119.38,102.73,119.45,102.7,119.55,102.7z M110.9,136.45c-0.73-7.23,0.02-14.85,2.25-22.85c0.03-0.13,0.1-0.18,0.2-0.15
					c-1.67,7.57-2.45,15.12-2.35,22.649C111.07,136.2,111.03,136.32,110.9,136.45z M189.45,31.8v0.1
					c-0.771-0.97-0.78-2.22-0.05-3.75c0.199,0.17,0.42,0.33,0.649,0.5C190.25,29.52,190.05,30.57,189.45,31.8z"/>
			</g>
			<g>
				<path fill="#386628" d="M170.5,40.6c-1.33,10.87-1.75,21.72-1.25,32.55c0.07,2.43,0.45,4.8,1.15,7.1
					c-2.271-6.73-2.971-14.27-2.101-22.6C168.9,51.95,169.63,46.27,170.5,40.6z M178.65,33.35c-0.43,10.5-0.08,20.73,1.05,30.7
					c0.1,0.07,0.12,0.17,0.05,0.3c-1.87-9.5-2.3-19.72-1.3-30.65C178.48,33.63,178.55,33.52,178.65,33.35z M154.25,61.05
					c-0.17,8.03-0.63,16.3-1.4,24.8c-0.029,0.07-0.07,0.18-0.1,0.35c0.13-8.13,0.57-16.45,1.3-24.95
					C154.05,61.15,154.12,61.08,154.25,61.05z M156.9,60.85c-0.03,11.77,0.149,23.5,0.55,35.2c0,0.07-0.03,0.18-0.101,0.35
					c-0.93-11.33-1.1-23.12-0.5-35.35C156.88,60.99,156.9,60.92,156.9,60.85z M161,63.15c0.33-2.6,0.58-5.08,0.75-7.45
					c-0.07,4.7,0.38,9.08,1.35,13.15C161.4,68.18,160.7,66.28,161,63.15z"/>
			</g>
		</g>
	</g>
</g>
</svg>
