<?xml version="1.0" encoding="utf-8"?>
<!-- Generator: Adobe Illustrator 16.0.0, SVG Export Plug-In . SVG Version: 6.00 Build 0)  -->
<!DOCTYPE svg PUBLIC "-//W3C//DTD SVG 1.1//EN" "http://www.w3.org/Graphics/SVG/1.1/DTD/svg11.dtd">
<svg version="1.1" id="Layer_1" xmlns="http://www.w3.org/2000/svg" xmlns:xlink="http://www.w3.org/1999/xlink" x="0px" y="0px"
	 width="239px" height="239px" viewBox="0 0 239 239" enable-background="new 0 0 239 239" xml:space="preserve">
<g id="Layer_1_1_">
	<g>
		<g>
			<g>
				
					<linearGradient id="SVGID_1_" gradientUnits="userSpaceOnUse" x1="-1182.3955" y1="-231.2393" x2="-966.8345" y2="-268.5607" gradientTransform="matrix(1 0 0 -1 1245.5 -121.5)">
					<stop  offset="0" style="stop-color:#6E6E6E"/>
					<stop  offset="1" style="stop-color:#B8C2B7"/>
				</linearGradient>
				<path fill="url(#SVGID_1_)" d="M145.95,56.1c17.33,6.87,29.67,18.95,37,36.25c7.2,17.23,7.22,34.6,0.05,52.1
					c-7.17,17.57-19.4,30.08-36.7,37.55c-17.4,7.6-34.8,7.95-52.2,1.05c-17.33-6.9-29.6-18.98-36.8-36.25
					c-7.23-17.17-7.28-34.53-0.15-52.1c7.13-17.53,19.37-30.07,36.7-37.6C111.15,49.6,128.52,49.27,145.95,56.1z"/>
			</g>
			<g>
				<path fill="#FFFFFF" fill-opacity="0.498" d="M107.85,114.65c0.63-0.9,1.33-1.7,2.1-2.4c1.23-1.1,2.63-2,4.2-2.7
					c0.67-0.27,1.33-0.47,2-0.6c2.73-0.77,5.52-0.6,8.35,0.5c0.6,0.2,1.15,0.47,1.65,0.8c2.67,1.37,4.63,3.47,5.9,6.3
					c1.43,3.33,1.5,6.67,0.2,10c-0.03,0.07-0.07,0.17-0.1,0.3c-0.07,0.13-0.12,0.28-0.15,0.45c-0.2,0.4-0.4,0.8-0.6,1.2
					c-0.67,1.3-1.6,2.42-2.8,3.35c-0.53,0.5-1.13,0.97-1.8,1.4c-0.57,0.37-1.2,0.7-1.9,1c-0.47,0.2-0.93,0.38-1.4,0.55v-0.05
					c-2.3,0.67-4.58,0.75-6.85,0.25c-0.63-0.13-1.27-0.32-1.9-0.55c-0.1,0-0.22-0.03-0.35-0.1c-1.43-0.6-2.73-1.4-3.9-2.4
					c-1.47-1.3-2.63-2.88-3.5-4.75c-0.7-1.67-1.07-3.32-1.1-4.95c-0.1-1.77,0.22-3.53,0.95-5.3
					C107.12,116.18,107.45,115.42,107.85,114.65z M110.35,112.7c-0.7,0.67-1.3,1.45-1.8,2.35c-0.47,0.67-0.83,1.37-1.1,2.1
					c-0.63,1.67-0.92,3.35-0.85,5.05c0.03,1.57,0.37,3.13,1,4.7c0.8,1.77,1.9,3.28,3.3,4.55c1.13,0.97,2.42,1.73,3.85,2.3
					c0.1,0.07,0.18,0.1,0.25,0.1c0.6,0.13,1.22,0.32,1.85,0.55c2.13,0.43,4.28,0.32,6.45-0.35c0.43-0.13,0.88-0.28,1.35-0.45
					c0.63-0.3,1.23-0.58,1.8-0.85c0.7-0.4,1.28-0.85,1.75-1.35c1.1-0.9,1.97-1.98,2.6-3.25c0.2-0.37,0.37-0.75,0.5-1.15
					c0.07-0.13,0.13-0.25,0.2-0.35c0.07-0.13,0.1-0.27,0.1-0.4c1.27-3.13,1.2-6.25-0.2-9.35c-1.17-2.8-3.03-4.85-5.6-6.15
					c-0.03,0-0.08,0-0.15,0c-0.37-0.27-0.82-0.47-1.35-0.6c-2.63-1.13-5.32-1.32-8.05-0.55c-0.6,0.13-1.22,0.33-1.85,0.6v-0.05
					C112.87,110.82,111.52,111.67,110.35,112.7z M109.3,99.3c1.43-0.63,2.85-1.08,4.25-1.35c4.93-1.17,9.88-0.8,14.85,1.1
					c1.03,0.4,1.98,0.82,2.85,1.25h0.05c4.9,2.7,8.5,6.67,10.8,11.9c2.67,6.07,2.82,12.13,0.45,18.2c-0.07,0.2-0.15,0.37-0.25,0.5
					c-0.1,0.33-0.18,0.63-0.25,0.9c-1.5,3.37-3.55,6.15-6.15,8.35c-1.93,1.73-4.25,3.15-6.95,4.25c-0.9,0.33-1.77,0.65-2.6,0.95
					c-0.13,0-0.23,0-0.3,0c-0.07,0-0.13,0-0.2,0c-0.13,0.1-0.28,0.18-0.45,0.25c-5,1.3-10.02,1.03-15.05-0.8
					c-0.13-0.03-0.28-0.1-0.45-0.2c-2.7-1.03-5.08-2.48-7.15-4.35c-2.77-2.27-4.9-5.2-6.4-8.8c-2.77-6.27-2.88-12.52-0.35-18.75
					c0.4-1.03,0.87-2.02,1.4-2.95c0.23-0.4,0.43-0.77,0.6-1.1C100.77,104.45,104.53,101.33,109.3,99.3z M109.6,99.9h-0.05
					c-4.63,1.93-8.28,4.95-10.95,9.05c-0.17,0.33-0.38,0.72-0.65,1.15c-0.47,0.93-0.92,1.88-1.35,2.85
					c-2.43,6.07-2.32,12.17,0.35,18.3c1.47,3.4,3.53,6.25,6.2,8.55c2,1.73,4.33,3.15,7,4.25c0.2,0.07,0.38,0.13,0.55,0.2
					c4.8,1.77,9.63,2,14.5,0.7c0.2,0,0.35-0.07,0.45-0.2c0.13-0.03,0.2-0.02,0.2,0.05c0.07-0.07,0.17-0.1,0.3-0.1
					c0.83-0.3,1.7-0.63,2.6-1c2.57-1.07,4.82-2.42,6.75-4.05c2.5-2.2,4.45-4.92,5.85-8.15c0.13-0.27,0.25-0.53,0.35-0.8
					c0.03-0.17,0.12-0.37,0.25-0.6c2.2-5.93,2.03-11.82-0.5-17.65c-2.23-5.07-5.75-8.88-10.55-11.45v-0.05
					c-0.83-0.47-1.73-0.9-2.7-1.3c-4.83-1.87-9.63-2.23-14.4-1.1C112.37,98.82,110.97,99.27,109.6,99.9z M135.85,92.35
					c6.63,3.47,11.48,8.75,14.55,15.85c3.57,8.13,3.78,16.32,0.65,24.55c-0.07,0.2-0.18,0.43-0.35,0.7c-0.13,0.37-0.27,0.73-0.4,1.1
					c-2,4.5-4.75,8.25-8.25,11.25c-2.63,2.37-5.72,4.28-9.25,5.75c-1.47,0.6-2.97,1.1-4.5,1.5c-3.73,1.07-7.48,1.43-11.25,1.1
					c-3.37-0.3-6.7-1.08-10-2.35c-1.2-0.5-2.47-1.08-3.8-1.75c-2.13-1.17-4.1-2.52-5.9-4.05c-3.7-3.1-6.58-7.03-8.65-11.8
					c-2.63-6.17-3.43-12.3-2.4-18.4c0.43-2.33,1.13-4.65,2.1-6.95c0.8-2,1.72-3.83,2.75-5.5c3.6-5.63,8.65-9.75,15.15-12.35
					c1.87-0.8,3.7-1.43,5.5-1.9c6.5-1.57,12.98-1.15,19.45,1.25c0.27,0.13,0.53,0.23,0.8,0.3
					C133.35,91.12,134.62,91.68,135.85,92.35z M149.7,108.5c-2.97-6.97-7.7-12.15-14.2-15.55c-1.2-0.67-2.43-1.25-3.7-1.75
					c-0.23-0.07-0.48-0.15-0.75-0.25c-6.33-2.3-12.68-2.72-19.05-1.25c-1.8,0.47-3.6,1.08-5.4,1.85v0.05
					c-6.4,2.6-11.35,6.65-14.85,12.15c-1.03,1.67-1.95,3.43-2.75,5.3c-0.9,2.3-1.58,4.6-2.05,6.9c-1.03,5.93-0.22,11.9,2.45,17.9
					c2.07,4.73,4.85,8.63,8.35,11.7c1.8,1.53,3.75,2.83,5.85,3.9c1.27,0.63,2.52,1.22,3.75,1.75c3.23,1.27,6.47,2.05,9.7,2.35
					c3.77,0.27,7.47-0.1,11.1-1.1c1.5-0.47,2.93-1.02,4.3-1.65c3.57-1.43,6.63-3.27,9.2-5.5c3.4-2.93,6.07-6.58,8-10.95
					c0.13-0.4,0.27-0.77,0.4-1.1c0.17-0.27,0.3-0.53,0.4-0.8C153.42,124.42,153.17,116.43,149.7,108.5z M138.45,73.5
					c13.3,5.23,22.75,14.28,28.35,27.15c5.63,12.93,5.78,25.9,0.45,38.9c-0.1,0.3-0.23,0.58-0.4,0.85c-0.1,0.27-0.18,0.53-0.25,0.8
					c-2.77,6.17-6.45,11.48-11.05,15.95c-4.4,4.23-9.7,7.65-15.9,10.25c-2.33,0.93-4.67,1.72-7,2.35
					c-10.77,2.93-21.63,2.25-32.6-2.05c-13.2-5.2-22.62-14.28-28.25-27.25c-5.6-12.93-5.75-25.88-0.45-38.85
					c1.2-3.03,2.63-5.8,4.3-8.3c5.43-8.77,13.18-15.23,23.25-19.4c2.7-1.13,5.38-2.03,8.05-2.7
					C117.42,68.57,127.92,69.33,138.45,73.5z M166.15,100.95c-5.57-12.63-14.87-21.57-27.9-26.8c-10.4-4.13-20.77-4.9-31.1-2.3
					c-2.63,0.67-5.27,1.55-7.9,2.65C89.22,78.67,81.53,85.02,76.2,93.55c-1.57,2.57-2.98,5.33-4.25,8.3
					c-5.23,12.8-5.05,25.6,0.55,38.4c5.47,12.73,14.73,21.68,27.8,26.85c10.8,4.27,21.52,4.92,32.15,1.95
					c2.33-0.6,4.65-1.38,6.95-2.35c6.1-2.57,11.32-5.93,15.65-10.1c4.5-4.4,8.12-9.63,10.85-15.7c0.13-0.23,0.25-0.48,0.35-0.75
					c0.13-0.27,0.25-0.53,0.35-0.8C171.83,126.48,171.68,113.68,166.15,100.95z M147.6,89.05c4.67,3.97,8.3,9,10.9,15.1
					c4.7,10.67,4.85,21.38,0.45,32.15c-0.13,0.47-0.33,0.92-0.6,1.35c-4.33,10.03-11.73,17.25-22.2,21.65
					c-1.83,0.77-3.72,1.42-5.65,1.95c-8.97,2.5-18,1.95-27.1-1.65c-1.6-0.67-3.2-1.38-4.8-2.15c0-0.07-0.02-0.1-0.05-0.1l-0.05-0.1
					c-8.37-4.43-14.55-11.13-18.55-20.1c-0.4-1.03-0.75-2.07-1.05-3.1c-3.43-9.7-3.22-19.42,0.65-29.15c1.03-2.53,2.23-4.87,3.6-7
					c4.57-7.17,11-12.45,19.3-15.85c2.3-0.97,4.55-1.73,6.75-2.3c8.63-2.13,17.28-1.48,25.95,1.95
					C139.92,83.53,144.07,85.98,147.6,89.05z M157.9,104.35c-2.57-5.93-6.15-10.85-10.75-14.75c-3.47-3-7.55-5.43-12.25-7.3
					c-8.5-3.33-17-3.98-25.5-1.95c-2.2,0.63-4.42,1.42-6.65,2.35c-8.23,3.33-14.57,8.53-19,15.6c-1.3,2.13-2.47,4.42-3.5,6.85
					c-3.87,9.57-4.12,19.13-0.75,28.7c0.37,1,0.75,2.02,1.15,3.05c3.9,8.8,9.95,15.4,18.15,19.8c0.07,0.07,0.12,0.12,0.15,0.15
					c1.53,0.77,3.12,1.47,4.75,2.1c8.83,3.53,17.73,4.05,26.7,1.55c1.87-0.5,3.68-1.13,5.45-1.9c10.27-4.27,17.57-11.33,21.9-21.2
					c0.17-0.47,0.35-0.92,0.55-1.35C162.63,125.45,162.5,114.88,157.9,104.35z M141.85,66.1c-12.23-4.87-24.42-5.75-36.55-2.65
					c-3.07,0.77-6.15,1.8-9.25,3.1C81.65,72.62,71.3,82.63,65,96.6c-0.27,0.63-0.57,1.28-0.9,1.95c-6,15.1-5.78,30.1,0.65,45
					C71.22,158.48,82.1,168.97,97.4,175c12.5,4.97,25.02,5.73,37.55,2.3c2.73-0.73,5.45-1.68,8.15-2.85
					c11.67-4.83,20.67-12.27,27-22.3c1.93-3,3.58-6.22,4.95-9.65c6.17-15.13,6-30.13-0.5-45C168.02,82.67,157.12,72.2,141.85,66.1z
					 M95.8,65.95c3.13-1.33,6.23-2.4,9.3-3.2c12.27-3.1,24.6-2.2,37,2.7c15.47,6.13,26.48,16.72,33.05,31.75
					c6.6,15.1,6.77,30.28,0.5,45.55c-1.37,3.5-3.05,6.75-5.05,9.75c-6.37,10.2-15.42,17.75-27.15,22.65c-2.8,1.17-5.58,2.1-8.35,2.8
					c-12.63,3.47-25.28,2.7-37.95-2.3c-15.5-6.1-26.52-16.73-33.05-31.9c-6.57-15.07-6.77-30.22-0.6-45.45
					c0.27-0.63,0.55-1.27,0.85-1.9C70.68,82.23,81.17,72.08,95.8,65.95z"/>
			</g>
			<g>
				<path fill="#272727" d="M139,72.35c13.37,5.3,22.85,14.38,28.45,27.25c5.6,13,5.73,26.05,0.4,39.15c-0.1,0.3-0.22,0.57-0.35,0.8
					v0.05c-0.13,0.27-0.23,0.52-0.3,0.75l-0.1,0.05c-2.7,6.13-6.4,11.45-11.1,15.95c-4.27,4.27-9.53,7.68-15.8,10.25
					c-2.73,1.17-5.45,2.05-8.15,2.65c-10.5,2.67-21.07,1.93-31.7-2.2c-13.27-5.27-22.72-14.4-28.35-27.4
					c-5.6-13.03-5.75-26.05-0.45-39.05c1.23-3,2.67-5.8,4.3-8.4c5.43-8.7,13.25-15.18,23.45-19.45c2.33-0.97,4.65-1.78,6.95-2.45
					C117.12,67.4,128.03,68.08,139,72.35z M158.15,103.55c-2.57-5.9-6.15-10.8-10.75-14.7c-3.4-3-7.45-5.43-12.15-7.3
					c-8.87-3.47-17.68-4-26.45-1.6c-1.83,0.57-3.65,1.23-5.45,2c-8.17,3.33-14.5,8.52-19,15.55c-1.37,2.1-2.53,4.37-3.5,6.8
					c-3.8,9.57-4.03,19.1-0.7,28.6c0.33,0.97,0.72,1.93,1.15,2.9c3.87,8.77,9.87,15.37,18,19.8c0.1,0.03,0.17,0.07,0.2,0.1
					c1.53,0.77,3.08,1.47,4.65,2.1c8.5,3.4,16.97,4.03,25.4,1.9c2.27-0.53,4.5-1.27,6.7-2.2c10.23-4.27,17.45-11.32,21.65-21.15
					c0.27-0.43,0.48-0.88,0.65-1.35C162.82,124.47,162.68,113.98,158.15,103.55z M148.25,88c4.67,3.97,8.33,9,11,15.1
					c4.67,10.73,4.77,21.52,0.3,32.35c-0.13,0.47-0.33,0.93-0.6,1.4c-4.37,10.07-11.78,17.3-22.25,21.7
					c-2.3,0.93-4.57,1.68-6.8,2.25c-8.67,2.17-17.38,1.55-26.15-1.85c-1.63-0.67-3.23-1.43-4.8-2.3c-0.03,0-0.08-0.02-0.15-0.05
					l-0.05-0.1c-8.4-4.47-14.57-11.2-18.5-20.2c-0.47-1.03-0.85-2.05-1.15-3.05c-3.47-9.8-3.25-19.58,0.65-29.35
					c1.03-2.5,2.23-4.83,3.6-7c4.57-7.23,11.07-12.57,19.5-16c1.93-0.83,3.82-1.48,5.65-1.95c9.07-2.53,18.12-2,27.15,1.6
					C140.45,82.42,144.65,84.9,148.25,88z M104.7,63.05c-2.73,0.7-5.43,1.62-8.1,2.75c-14.43,6.07-24.77,16.08-31,30.05
					c-0.27,0.63-0.53,1.27-0.8,1.9c-6.07,14.97-5.88,29.9,0.55,44.8c6.4,14.83,17.25,25.28,32.55,31.35
					c12.13,4.8,24.22,5.63,36.25,2.5c3.2-0.77,6.32-1.8,9.35-3.1c11.57-4.83,20.5-12.23,26.8-22.2c1.93-3.03,3.58-6.25,4.95-9.65
					c6.13-15.03,5.98-29.97-0.45-44.8c-6.5-14.8-17.4-25.22-32.7-31.25C129.57,60.4,117.1,59.62,104.7,63.05z M96.15,64.7
					c2.77-1.1,5.52-2.03,8.25-2.8c12.63-3.37,25.33-2.55,38.1,2.45c15.6,6.1,26.72,16.72,33.35,31.85
					c6.57,15.13,6.73,30.35,0.5,45.65c-1.43,3.5-3.1,6.78-5,9.85c-6.5,10.2-15.62,17.77-27.35,22.7c-3.2,1.3-6.37,2.35-9.5,3.15
					c-12.33,3.13-24.67,2.25-37-2.65c-15.6-6.1-26.65-16.75-33.15-31.95c-6.6-15.13-6.83-30.33-0.7-45.6c0.3-0.63,0.6-1.3,0.9-2
					C70.92,81.18,81.45,70.97,96.15,64.7z M138.6,73.4c-10.73-4.23-21.43-4.9-32.1-2c-2.23,0.63-4.5,1.42-6.8,2.35
					c-9.93,4.17-17.57,10.52-22.9,19.05c-1.57,2.53-2.97,5.27-4.2,8.2c-5.17,12.73-4.98,25.47,0.55,38.2
					c5.43,12.67,14.65,21.6,27.65,26.8c10.37,4.07,20.67,4.8,30.9,2.2c2.7-0.67,5.38-1.57,8.05-2.7c6.07-2.47,11.23-5.78,15.5-9.95
					c4.53-4.37,8.15-9.57,10.85-15.6c0.13-0.27,0.25-0.53,0.35-0.8v-0.1c0.13-0.2,0.27-0.43,0.4-0.7c5.2-12.87,5.03-25.63-0.5-38.3
					C160.85,87.45,151.6,78.57,138.6,73.4z M110.95,111.95v-0.05c-0.67,0.7-1.27,1.47-1.8,2.3c-0.4,0.67-0.77,1.37-1.1,2.1
					c-0.6,1.63-0.88,3.28-0.85,4.95c0.03,1.57,0.4,3.1,1.1,4.6h-0.1c0.87,1.8,1.95,3.33,3.25,4.6v-0.1c1.13,0.93,2.38,1.7,3.75,2.3
					c0.1,0,0.2,0,0.3,0v0.05c0.57,0.2,1.15,0.38,1.75,0.55c1.8,0.4,3.6,0.4,5.4,0c0.73-0.17,1.52-0.43,2.35-0.8
					c0.63-0.27,1.22-0.55,1.75-0.85c0.63-0.47,1.22-0.9,1.75-1.3l0.05-0.05c1-0.87,1.82-1.9,2.45-3.1c0.17-0.4,0.33-0.78,0.5-1.15
					c0.07-0.17,0.12-0.33,0.15-0.5c0.03-0.03,0.08-0.12,0.15-0.25c1.27-3.1,1.22-6.18-0.15-9.25c-1.17-2.67-3-4.63-5.5-5.9h-0.1
					c-0.43-0.3-0.9-0.53-1.4-0.7c-2.6-1.07-5.25-1.25-7.95-0.55c-0.3,0.1-0.62,0.22-0.95,0.35c-0.3,0.03-0.57,0.1-0.8,0.2
					C113.42,110.03,112.08,110.88,110.95,111.95z M107,115.8c0.37-0.7,0.75-1.42,1.15-2.15c0.63-1,1.33-1.85,2.1-2.55
					c1.23-1.1,2.63-1.98,4.2-2.65c0.3-0.13,0.58-0.25,0.85-0.35l0.05-0.05c0.37-0.1,0.75-0.18,1.15-0.25h-0.05
					c2.87-0.77,5.73-0.6,8.6,0.5c0.6,0.2,1.13,0.47,1.6,0.8c2.77,1.43,4.8,3.58,6.1,6.45c1.37,3.37,1.4,6.73,0.1,10.1
					c-0.03,0.13-0.05,0.25-0.05,0.35c-0.1,0.13-0.17,0.28-0.2,0.45c-0.17,0.47-0.37,0.85-0.6,1.15v0.1
					c-0.73,1.33-1.65,2.47-2.75,3.4c-0.6,0.5-1.23,0.98-1.9,1.45c-0.6,0.33-1.23,0.65-1.9,0.95c-0.9,0.37-1.77,0.65-2.6,0.85
					c-1.93,0.4-3.9,0.4-5.9,0h-0.05c-0.63-0.2-1.23-0.38-1.8-0.55c-0.1-0.03-0.2-0.08-0.3-0.15c-1.53-0.57-2.88-1.37-4.05-2.4h-0.05
					c-1.43-1.3-2.6-2.95-3.5-4.95c-0.7-1.7-1.08-3.38-1.15-5.05C105.98,119.45,106.3,117.63,107,115.8z M113.15,98.15
					c-1,0.27-2,0.63-3,1.1c-4.67,1.87-8.28,4.82-10.85,8.85c-0.23,0.37-0.47,0.75-0.7,1.15c-0.47,0.97-0.92,1.92-1.35,2.85
					c-2.4,6.07-2.3,12.08,0.3,18.05c1.47,3.47,3.53,6.32,6.2,8.55c1.93,1.7,4.23,3.1,6.9,4.2c0.17,0.1,0.32,0.17,0.45,0.2h0.05
					c4.63,1.7,9.22,2.02,13.75,0.95c0.07-0.07,0.12-0.07,0.15,0h0.05c0.07-0.07,0.12-0.1,0.15-0.1c0.13-0.07,0.25-0.12,0.35-0.15
					c1.17-0.27,2.32-0.68,3.45-1.25h0.05c2.5-0.97,4.72-2.28,6.65-3.95c2.47-2.17,4.4-4.87,5.8-8.1c0.13-0.27,0.25-0.52,0.35-0.75
					c0.1-0.2,0.17-0.4,0.2-0.6c2.3-5.87,2.17-11.7-0.4-17.5c-2.2-5.03-5.67-8.83-10.4-11.4c-0.03,0-0.07,0-0.1,0
					c-0.83-0.5-1.72-0.95-2.65-1.35C123.35,96.97,118.22,96.72,113.15,98.15z M109.6,98.15c1.1-0.4,2.18-0.77,3.25-1.1
					c5.4-1.53,10.77-1.23,16.1,0.9c1,0.33,1.95,0.77,2.85,1.3c4.97,2.7,8.62,6.7,10.95,12c2.63,6.07,2.78,12.15,0.45,18.25
					c-0.1,0.23-0.17,0.45-0.2,0.65c-0.17,0.23-0.28,0.48-0.35,0.75v0.1c-1.5,3.3-3.53,6.12-6.1,8.45c-2,1.67-4.35,3.07-7.05,4.2
					c-1.2,0.5-2.42,0.92-3.65,1.25h-0.2l-0.05,0.05c-0.1,0.03-0.2,0.05-0.3,0.05h-0.05c-4.8,1.17-9.63,0.88-14.5-0.85
					c-0.17-0.07-0.33-0.13-0.5-0.2c-2.8-1.07-5.22-2.55-7.25-4.45c-2.8-2.33-4.95-5.28-6.45-8.85c-2.8-6.33-2.92-12.65-0.35-18.95
					c0.4-1.03,0.87-2.02,1.4-2.95c0.27-0.47,0.5-0.88,0.7-1.25C101,103.3,104.77,100.18,109.6,98.15z M150,107.65
					c-2.97-6.9-7.68-12.07-14.15-15.5c-1.23-0.57-2.47-1.1-3.7-1.6c-0.23-0.1-0.48-0.2-0.75-0.3c-6.67-2.47-13.35-2.78-20.05-0.95
					h0.1c-1.43,0.47-2.87,0.97-4.3,1.5c-6.4,2.6-11.33,6.62-14.8,12.05c-1.03,1.67-1.95,3.47-2.75,5.4c-0.9,2.3-1.58,4.57-2.05,6.8
					c-0.93,5.9-0.12,11.83,2.45,17.8c2.03,4.67,4.82,8.55,8.35,11.65c1.77,1.47,3.7,2.72,5.8,3.75c1.27,0.67,2.48,1.27,3.65,1.8
					c3.23,1.27,6.47,2.05,9.7,2.35c3.33,0.27,6.63-0.02,9.9-0.85c1.83-0.5,3.65-1.1,5.45-1.8c3.47-1.47,6.48-3.3,9.05-5.5
					c3.4-2.9,6.05-6.57,7.95-11c0.17-0.33,0.32-0.68,0.45-1.05c0.1-0.27,0.2-0.52,0.3-0.75C153.6,123.45,153.4,115.52,150,107.65z
					 M136.35,91.2c6.7,3.57,11.6,8.92,14.7,16.05c3.47,8.1,3.67,16.3,0.6,24.6c-0.07,0.23-0.17,0.48-0.3,0.75
					c-0.1,0.37-0.23,0.75-0.4,1.15l-0.1,0.05c-1.93,4.47-4.65,8.2-8.15,11.2c-2.63,2.33-5.78,4.27-9.45,5.8
					c-1.83,0.77-3.68,1.38-5.55,1.85c-3.37,0.87-6.82,1.15-10.35,0.85c-3.3-0.33-6.62-1.12-9.95-2.35c-1.3-0.57-2.58-1.18-3.85-1.85
					c-2.13-1.17-4.08-2.52-5.85-4.05c-3.73-3.2-6.63-7.2-8.7-12c-2.7-6.17-3.53-12.3-2.5-18.4c0.43-2.37,1.1-4.7,2-7
					c0.83-1.97,1.78-3.83,2.85-5.6c3.63-5.63,8.73-9.78,15.3-12.45c1.5-0.63,2.97-1.15,4.4-1.55c6.9-1.9,13.78-1.62,20.65,0.85h0.1
					c0.27,0.13,0.52,0.25,0.75,0.35C133.88,89.98,135.15,90.57,136.35,91.2z"/>
			</g>
			<g>
				
					<radialGradient id="SVGID_2_" cx="-1433.8643" cy="2167.0615" r="6.9735" gradientTransform="matrix(-0.3836 0.6338 0.6204 0.3611 -1739.8579 198.332)" gradientUnits="userSpaceOnUse">
					<stop  offset="0" style="stop-color:#000000"/>
					<stop  offset="0.4784" style="stop-color:#000000;stop-opacity:0.7843"/>
					<stop  offset="0.5725" style="stop-color:#000000;stop-opacity:0.5765"/>
					<stop  offset="0.8" style="stop-color:#000000;stop-opacity:0.0275"/>
					<stop  offset="0.8824" style="stop-color:#000000;stop-opacity:0"/>
				</radialGradient>
				<path fill="url(#SVGID_2_)" d="M157.38,75.96c-1.11,0.81-2.31,1.13-3.6,0.95c-1.32-0.17-2.36-0.79-3.11-1.86
					c-0.75-1.07-1-2.27-0.75-3.61c0.22-1.33,0.87-2.41,1.96-3.23c1.09-0.83,2.29-1.15,3.61-0.98c1.29,0.18,2.32,0.81,3.09,1.89
					c0.74,1.09,0.99,2.29,0.75,3.61C159.11,74.08,158.46,75.15,157.38,75.96z"/>
				<g>
					
						<linearGradient id="SVGID_3_" gradientUnits="userSpaceOnUse" x1="-1091.8242" y1="-190.0752" x2="-1089.3983" y2="-195.6358" gradientTransform="matrix(1 0 0 -1 1245.5 -121.5)">
						<stop  offset="0" style="stop-color:#7E8396"/>
						<stop  offset="1" style="stop-color:#FDFDFB"/>
					</linearGradient>
					<path fill="url(#SVGID_3_)" d="M157.7,70.2c0.3,0.77,0.3,1.53,0,2.3s-0.82,1.3-1.55,1.6c-0.77,0.37-1.57,0.4-2.4,0.1
						c-0.8-0.33-1.35-0.88-1.65-1.65c-0.37-0.73-0.4-1.48-0.1-2.25c0.33-0.77,0.9-1.33,1.7-1.7c0.77-0.3,1.53-0.28,2.3,0.05
						C156.8,68.92,157.37,69.43,157.7,70.2z"/>
				</g>
				<g>
					
						<radialGradient id="SVGID_4_" cx="-1329.1445" cy="2227.5391" r="3.4188" gradientTransform="matrix(-0.3802 0.9249 0.9468 0.3729 -2457.8525 470.0867)" gradientUnits="userSpaceOnUse">
						<stop  offset="0" style="stop-color:#FFFFFF"/>
						<stop  offset="0.3333" style="stop-color:#FEFEFE;stop-opacity:0.7961"/>
						<stop  offset="1" style="stop-color:#F6F6F6;stop-opacity:0"/>
					</radialGradient>
					<path fill="url(#SVGID_4_)" d="M155.1,69.3c0.83,0.37,1.43,0.95,1.8,1.75c0.3,0.83,0.3,1.62,0,2.35
						c-0.1,0.43-0.28,0.78-0.55,1.05l-0.5,0.5l-1-0.85l0.5-0.55c0.13-0.17,0.23-0.37,0.3-0.6c0.2-0.4,0.18-0.85-0.05-1.35
						c-0.17-0.43-0.48-0.77-0.95-1c-0.43-0.13-0.9-0.13-1.4,0l-0.6,0.25l-0.5-1.2l0.6-0.35C153.58,69.03,154.37,69.03,155.1,69.3z"
						/>
				</g>
			</g>
			<g>
				
					<radialGradient id="SVGID_5_" cx="-1433.8745" cy="2167.0615" r="6.9783" gradientTransform="matrix(-0.3836 0.6338 0.6204 0.3611 -1739.9077 294.2324)" gradientUnits="userSpaceOnUse">
					<stop  offset="0" style="stop-color:#000000"/>
					<stop  offset="0.4784" style="stop-color:#000000;stop-opacity:0.7843"/>
					<stop  offset="0.5725" style="stop-color:#000000;stop-opacity:0.5765"/>
					<stop  offset="0.8" style="stop-color:#000000;stop-opacity:0.0275"/>
					<stop  offset="0.8824" style="stop-color:#000000;stop-opacity:0"/>
				</radialGradient>
				<path fill="url(#SVGID_5_)" d="M157.33,171.86c-1.11,0.81-2.31,1.13-3.6,0.95c-1.32-0.17-2.36-0.79-3.11-1.85
					c-0.75-1.07-1-2.27-0.75-3.61c0.22-1.33,0.87-2.41,1.96-3.23c1.09-0.83,2.29-1.15,3.61-0.98c1.29,0.18,2.32,0.81,3.09,1.89
					c0.74,1.09,0.99,2.29,0.75,3.61C159.06,169.98,158.41,171.05,157.33,171.86z"/>
				<g>
					
						<linearGradient id="SVGID_6_" gradientUnits="userSpaceOnUse" x1="-1092.3823" y1="-286.8545" x2="-1089.9558" y2="-292.4169" gradientTransform="matrix(1 0 0 -1 1245.5 -121.5)">
						<stop  offset="0" style="stop-color:#7E8396"/>
						<stop  offset="1" style="stop-color:#FDFDFB"/>
					</linearGradient>
					<path fill="url(#SVGID_6_)" d="M155.45,165.45c0.83,0.3,1.4,0.78,1.7,1.45c0.37,0.77,0.37,1.57,0,2.4
						c-0.27,0.77-0.8,1.32-1.6,1.65c-0.77,0.33-1.53,0.33-2.3,0c-0.8-0.3-1.38-0.83-1.75-1.6c-0.33-0.8-0.35-1.58-0.05-2.35
						c0.33-0.73,0.88-1.25,1.65-1.55C153.9,165.12,154.68,165.12,155.45,165.45z"/>
				</g>
				<g>
					
						<radialGradient id="SVGID_7_" cx="-1239.6377" cy="2264.0029" r="3.4197" gradientTransform="matrix(-0.3802 0.9249 0.9468 0.3729 -2458.4463 469.8524)" gradientUnits="userSpaceOnUse">
						<stop  offset="0" style="stop-color:#FFFFFF"/>
						<stop  offset="0.3333" style="stop-color:#FEFEFE;stop-opacity:0.7961"/>
						<stop  offset="1" style="stop-color:#F6F6F6;stop-opacity:0"/>
					</radialGradient>
					<path fill="url(#SVGID_7_)" d="M156.8,167.3h0.05c0.33,0.8,0.33,1.58,0,2.35c-0.13,0.33-0.33,0.65-0.6,0.95l-0.45,0.5l-1-0.85
						l0.45-0.5c0.13-0.17,0.25-0.38,0.35-0.65c0.17-0.4,0.13-0.85-0.1-1.35c-0.17-0.47-0.47-0.78-0.9-0.95
						c-0.47-0.17-0.95-0.18-1.45-0.05l-0.6,0.25l-0.45-1.15l0.6-0.35c0.77-0.27,1.55-0.23,2.35,0.1
						C155.85,165.9,156.43,166.47,156.8,167.3z"/>
				</g>
			</g>
			<g>
				
					<radialGradient id="SVGID_8_" cx="-920.5444" cy="1325.7646" r="84.7587" gradientTransform="matrix(-0.1932 0.9812 0.9796 0.1929 -1298.0718 737.9044)" gradientUnits="userSpaceOnUse">
					<stop  offset="0" style="stop-color:#FFFFFF"/>
					<stop  offset="1" style="stop-color:#FAFAFA;stop-opacity:0"/>
				</radialGradient>
				<path fill="url(#SVGID_8_)" d="M185.6,131.8c3.57-18.07,0.23-34.7-10-49.9c-10.2-15.27-24.28-24.65-42.25-28.15
					c-18-3.43-34.65-0.03-49.95,10.2c-4.77,3.23-8.97,6.85-12.6,10.85c-0.13,0.13-0.3,0.18-0.5,0.15c-0.13,0.03-0.27-0.02-0.4-0.15
					c-0.07-0.13-0.13-0.27-0.2-0.4c0-0.13,0.07-0.27,0.2-0.4c3.7-4,7.97-7.65,12.8-10.95c15.57-10.4,32.52-13.87,50.85-10.4
					c18.23,3.57,32.57,13.12,43,28.65c10.37,15.43,13.73,32.35,10.1,50.75c-3.53,17.63-12.63,31.63-27.3,42
					c-0.13,0.1-0.27,0.15-0.4,0.15c-0.17-0.1-0.32-0.2-0.45-0.3c-0.1-0.13-0.15-0.27-0.15-0.4c0.1-0.17,0.2-0.3,0.3-0.4
					C173.08,162.97,182.07,149.2,185.6,131.8z"/>
			</g>
			<g>
				
					<radialGradient id="SVGID_9_" cx="-2164.2729" cy="-536.8545" r="84.486" gradientTransform="matrix(0.7364 -0.6766 -0.6298 -0.7225 1311.8423 -1744.2109)" gradientUnits="userSpaceOnUse">
					<stop  offset="0" style="stop-color:#FFFFFF"/>
					<stop  offset="1" style="stop-color:#FAFAFA;stop-opacity:0"/>
				</radialGradient>
				<path fill="url(#SVGID_9_)" d="M121,52.7c-0.17,0.07-0.3,0.12-0.4,0.15c-16.93-0.1-31.92,5.83-44.95,17.8
					c-13.5,12.47-20.92,27.77-22.25,45.9c-1.4,18.13,3.63,33.82,15.1,47.05h0.05c7.87,8.97,17.2,15.05,28,18.25v1.1
					c-11.17-3.2-20.8-9.4-28.9-18.6C55.98,150.88,50.87,134.9,52.3,116.4c1.37-18.43,8.92-33.93,22.65-46.5
					c13.23-12.17,28.45-18.2,45.65-18.1c0.13-0.07,0.27-0.03,0.4,0.1c0.1,0.1,0.17,0.27,0.2,0.5C121.2,52.53,121.13,52.63,121,52.7z
					"/>
			</g>
		</g>
	</g>
</g>
</svg>
