<?xml version="1.0" encoding="utf-8"?>
<!-- Generator: Adobe Illustrator 16.0.0, SVG Export Plug-In . SVG Version: 6.00 Build 0)  -->
<!DOCTYPE svg PUBLIC "-//W3C//DTD SVG 1.1//EN" "http://www.w3.org/Graphics/SVG/1.1/DTD/svg11.dtd">
<svg version="1.1" id="Layer_3" xmlns="http://www.w3.org/2000/svg" xmlns:xlink="http://www.w3.org/1999/xlink" x="0px" y="0px"
	 width="239px" height="239px" viewBox="0 0 239 239" enable-background="new 0 0 239 239" xml:space="preserve">
<g>
	
		<radialGradient id="SVGID_1_" cx="117.1631" cy="167.6016" r="9.2963" gradientTransform="matrix(1.0594 0 0 -1.0594 -22.5083 267.5762)" gradientUnits="userSpaceOnUse">
		<stop  offset="0" style="stop-color:#000000;stop-opacity:0.5373"/>
		<stop  offset="0.6471" style="stop-color:#000000;stop-opacity:0.4706"/>
		<stop  offset="0.8824" style="stop-color:#000000;stop-opacity:0.0745"/>
		<stop  offset="1" style="stop-color:#000000;stop-opacity:0"/>
	</radialGradient>
	<path fill="url(#SVGID_1_)" d="M108.56,96.96c-1.91,1.91-4.22,2.86-6.94,2.86c-2.72,0-5.03-0.95-6.94-2.86
		c-1.91-1.91-2.86-4.22-2.86-6.94s0.95-5.03,2.86-6.94c1.91-1.91,4.22-2.86,6.94-2.86c2.72,0,5.03,0.95,6.94,2.86
		c1.91,1.91,2.86,4.22,2.86,6.94S110.46,95.06,108.56,96.96z"/>
	<g>
		<g>
			
				<linearGradient id="SVGID_2_" gradientUnits="userSpaceOnUse" x1="-1173.7319" y1="96.5264" x2="-1158.9561" y2="96.5264" gradientTransform="matrix(0.0829 -0.9966 -0.9966 -0.0829 294.1635 -1058.6322)">
				<stop  offset="0" style="stop-color:#B7B7B7"/>
				<stop  offset="0.2667" style="stop-color:#C9C9C9"/>
				<stop  offset="0.502" style="stop-color:#EBEBEB"/>
				<stop  offset="0.7098" style="stop-color:#C5C5C5"/>
				<stop  offset="1" style="stop-color:#ADADAD"/>
			</linearGradient>
			<path fill="url(#SVGID_2_)" d="M96.33,86.96c1.43-1.43,3.18-2.13,5.25-2.1c2.07-0.03,3.82,0.67,5.25,2.1
				c1.4,1.43,2.12,3.18,2.15,5.25c-0.03,2-0.77,3.72-2.2,5.15c-1.43,1.43-3.17,2.17-5.2,2.2c-2.07-0.03-3.8-0.77-5.2-2.2
				c-1.43-1.43-2.17-3.15-2.2-5.15C94.18,90.14,94.9,88.39,96.33,86.96z"/>
		</g>
		<g>
			
				<radialGradient id="SVGID_3_" cx="-1497.4009" cy="686.6797" r="8.5025" gradientTransform="matrix(-0.7064 -0.7078 0.7064 -0.7049 -1434.575 -483.9048)" gradientUnits="userSpaceOnUse">
				<stop  offset="0" style="stop-color:#FFFFFF"/>
				<stop  offset="0.3333" style="stop-color:#FEFEFE;stop-opacity:0.7961"/>
				<stop  offset="1" style="stop-color:#F6F6F6;stop-opacity:0"/>
			</radialGradient>
			<path fill="url(#SVGID_3_)" d="M103.03,87.06l0.7-1.45l0.75,0.4c0.8,0.3,1.53,0.77,2.2,1.4c1.3,1.3,1.92,2.92,1.85,4.85
				c0,1.9-0.67,3.52-2,4.85c-1.33,1.33-2.92,2.03-4.75,2.1l-0.75-0.05l-0.05-1.55h0.8c1.43-0.03,2.65-0.57,3.65-1.6
				c1.03-1.03,1.53-2.3,1.5-3.8c0.07-1.47-0.4-2.7-1.4-3.7c-0.5-0.47-1.05-0.83-1.65-1.1L103.03,87.06z"/>
		</g>
	</g>
</g>
<g>
	
		<radialGradient id="SVGID_4_" cx="117.1631" cy="167.5996" r="9.2973" gradientTransform="matrix(1.0594 0 0 -1.0594 -22.5083 322.0762)" gradientUnits="userSpaceOnUse">
		<stop  offset="0" style="stop-color:#000000;stop-opacity:0.5333"/>
		<stop  offset="0.6471" style="stop-color:#000000;stop-opacity:0.4706"/>
		<stop  offset="0.8824" style="stop-color:#000000;stop-opacity:0.0706"/>
		<stop  offset="1" style="stop-color:#000000;stop-opacity:0"/>
	</radialGradient>
	<path fill="url(#SVGID_4_)" d="M108.56,151.46c-1.91,1.91-4.22,2.86-6.94,2.86c-2.72,0-5.03-0.95-6.94-2.86
		c-1.91-1.91-2.86-4.22-2.86-6.94c0-2.72,0.95-5.03,2.86-6.94c1.91-1.91,4.22-2.86,6.94-2.86c2.72,0,5.03,0.95,6.94,2.86
		c1.91,1.91,2.86,4.22,2.86,6.94C111.42,147.24,110.46,149.56,108.56,151.46z"/>
	<g>
		<g>
			
				<linearGradient id="SVGID_5_" gradientUnits="userSpaceOnUse" x1="-1228.0435" y1="92.0088" x2="-1213.2686" y2="92.0088" gradientTransform="matrix(0.0829 -0.9966 -0.9966 -0.0829 294.1635 -1058.6322)">
				<stop  offset="0" style="stop-color:#B7B7B7"/>
				<stop  offset="0.2667" style="stop-color:#C9C9C9"/>
				<stop  offset="0.502" style="stop-color:#EBEBEB"/>
				<stop  offset="0.7098" style="stop-color:#C5C5C5"/>
				<stop  offset="1" style="stop-color:#ADADAD"/>
			</linearGradient>
			<path fill="url(#SVGID_5_)" d="M94.18,146.71c0-2.07,0.72-3.82,2.15-5.25c1.43-1.43,3.18-2.13,5.25-2.1
				c2.07-0.03,3.82,0.67,5.25,2.1c1.4,1.43,2.12,3.18,2.15,5.25c-0.03,2-0.77,3.72-2.2,5.15c-1.43,1.43-3.17,2.17-5.2,2.2
				c-2.07-0.03-3.8-0.77-5.2-2.2C94.95,150.42,94.21,148.71,94.18,146.71z"/>
		</g>
		<g>
			
				<radialGradient id="SVGID_6_" cx="-1535.9795" cy="725.1748" r="8.5045" gradientTransform="matrix(-0.7064 -0.7078 0.7064 -0.7049 -1489.0183 -429.5728)" gradientUnits="userSpaceOnUse">
				<stop  offset="0" style="stop-color:#FFFFFF"/>
				<stop  offset="0.3333" style="stop-color:#FEFEFE;stop-opacity:0.7961"/>
				<stop  offset="1" style="stop-color:#F6F6F6;stop-opacity:0"/>
			</radialGradient>
			<path fill="url(#SVGID_6_)" d="M103.03,141.55l0.7-1.45l0.75,0.4c0.8,0.3,1.53,0.77,2.2,1.4c1.3,1.3,1.92,2.92,1.85,4.85
				c0,1.9-0.67,3.52-2,4.85s-2.92,2.03-4.75,2.1l-0.75-0.05l-0.05-1.55h0.8c1.43-0.03,2.65-0.57,3.65-1.6
				c1.03-1.03,1.53-2.3,1.5-3.8c0.07-1.47-0.4-2.7-1.4-3.7c-0.5-0.47-1.05-0.83-1.65-1.1L103.03,141.55z"/>
		</g>
	</g>
</g>
</svg>
