<?xml version="1.0" encoding="utf-8"?>
<!-- Generator: Adobe Illustrator 16.0.0, SVG Export Plug-In . SVG Version: 6.00 Build 0)  -->
<!DOCTYPE svg PUBLIC "-//W3C//DTD SVG 1.1//EN" "http://www.w3.org/Graphics/SVG/1.1/DTD/svg11.dtd">
<svg version="1.1" id="Layer_1" xmlns="http://www.w3.org/2000/svg" xmlns:xlink="http://www.w3.org/1999/xlink" x="0px" y="0px"
	 width="60px" height="52px" viewBox="0 0 60 52" enable-background="new 0 0 60 52" xml:space="preserve">
<g>
	<g>
		<radialGradient id="SVGID_1_" cx="34.0996" cy="26.2002" r="23.6625" gradientUnits="userSpaceOnUse">
			<stop  offset="0" style="stop-color:#000000"/>
			<stop  offset="1" style="stop-color:#000000;stop-opacity:0"/>
		</radialGradient>
		<path fill-rule="evenodd" clip-rule="evenodd" fill="url(#SVGID_1_)" d="M26,4c2.8-1.1,5.8-1.6,9-1.6S41.3,3,44.2,4
			c1,0.4,1.9,0.9,2.8,1.5c1.9,1,3.6,2.4,5.2,4c0.8,0.8,1.5,1.6,2.1,2.4c3.3,4.2,5,9.1,5,14.6c0,5.6-1.7,10.5-5,14.7
			c-0.5,0.6-1,1.2-1.5,1.8c-0.2,0.2-0.3,0.5-0.5,0.7c-1.6,1.6-3.3,2.9-5.2,4c-3.5,2-7.5,3-11.9,3c-6.6,0-12.3-2.3-17-7
			c-0.2-0.2-0.4-0.4-0.6-0.7c-1.5-1.6-2.8-3.3-3.8-5.1c-0.3-0.6-0.6-1.2-0.9-1.9c-0.5-1.3-0.9-2.6-1.2-4c-0.6-1.9-0.9-3.9-0.9-6.1
			c0-3.3,0.7-6.3,2.1-9.1c0.3-0.4,0.5-0.8,0.8-1.2l0-0.2c0-0.1,0-0.1,0.1-0.1c1.1-2.1,2.6-4,4.3-5.8C20.5,7,23.1,5.2,26,4z"/>
	</g>
	<g>
		<g>
			<g>
				<radialGradient id="SVGID_2_" cx="30.25" cy="24.8999" r="19.9125" gradientUnits="userSpaceOnUse">
					<stop  offset="0" style="stop-color:#333333"/>
					<stop  offset="0.3059" style="stop-color:#000000"/>
					<stop  offset="0.549" style="stop-color:#666666"/>
					<stop  offset="0.7882" style="stop-color:#999999"/>
					<stop  offset="1" style="stop-color:#CCCCCC"/>
				</radialGradient>
				<path fill-rule="evenodd" clip-rule="evenodd" fill="url(#SVGID_2_)" d="M3.7,14.4c-0.3,0.5-0.6,1-0.8,1.6
					c-1.2,2.9-1.8,6-1.8,9.4c0,1.9,0.2,3.7,0.6,5.4c-0.6-1.9-0.9-3.9-0.9-6.1c0-3.3,0.7-6.3,2.1-9.1C3.2,15.2,3.4,14.8,3.7,14.4z
					 M22.9,4.8c4.8,0.4,9,2.3,12.4,5.8c0.7,0.7,1.3,1.3,1.8,2c2.8,3.5,4.2,7.6,4.2,12.2c0,4.7-1.4,8.8-4.2,12.3
					c-0.5,0.7-1.1,1.3-1.8,2c-1.1,1.1-2.3,2.1-3.6,2.9c-2.7,1.6-5.6,2.6-8.8,2.9c-3.2-0.3-6.1-1.2-8.8-2.9c-1.3-0.8-2.5-1.8-3.7-2.9
					c-4-3.9-5.9-8.7-5.9-14.3c0-5.5,2-10.2,5.9-14.2C13.9,7.1,18.1,5.1,22.9,4.8z M24.5,29c0.3,0.5,0.7,1,1.1,1.5
					c0.2,0.2,0.5,0.4,0.7,0.6c1.4,1.1,3.1,1.7,5,1.7c2.2,0,4.2-0.8,5.8-2.3l0-0.1c1.5-1.6,2.3-3.5,2.3-5.7c0-2.1-0.8-4-2.3-5.6
					l0-0.1c-1.6-1.6-3.5-2.4-5.8-2.4c-1.6,0-3.1,0.5-4.4,1.4c-0.4,0.3-0.9,0.6-1.3,1c-0.6,0.6-1.1,1.3-1.6,2.1
					c-0.9,0.1-1.6,0.5-2.3,1.1C21,23,20.6,24,20.6,25s0.4,2,1.1,2.9C22.5,28.6,23.4,29,24.5,29z M18.1,25.7l0.4-0.1l0-1.7
					C14,23.3,10.1,22.7,7,22.2C6.6,22.1,6.3,22,6,22c-0.6,1.2-0.7,2.4-0.3,3.7H18.1z"/>
				<radialGradient id="SVGID_3_" cx="24.2998" cy="24.7998" r="42.0072" gradientUnits="userSpaceOnUse">
					<stop  offset="0.1608" style="stop-color:#666666"/>
					<stop  offset="0.4549" style="stop-color:#666666"/>
					<stop  offset="0.5098" style="stop-color:#FFFFFF"/>
					<stop  offset="0.5843" style="stop-color:#999999"/>
				</radialGradient>
				<path fill-rule="evenodd" clip-rule="evenodd" fill="url(#SVGID_3_)" d="M1.7,30.8c-0.4-1.7-0.6-3.5-0.6-5.4
					c0-3.4,0.6-6.5,1.8-9.4c0.2-0.6,0.5-1.1,0.8-1.6l0-0.2c0-0.1,0-0.1,0-0.2c1.1-2.1,2.6-4,4.4-5.8c2.4-2.5,5.1-4.3,8-5.4
					C19,1.8,22,1.2,25.2,1.2s6.3,0.5,9,1.6c1,0.4,2,0.9,2.8,1.4c1.9,1,3.6,2.4,5.2,4c0.8,0.8,1.5,1.6,2.1,2.4
					c3.3,4.2,4.9,9.1,4.9,14.6c0,5.6-1.6,10.5-4.9,14.7c-0.5,0.6-1,1.2-1.6,1.8c-0.2,0.2-0.3,0.5-0.5,0.7c-1.6,1.6-3.3,2.9-5.2,4
					c-3.5,2-7.5,3-11.9,3c-6.6,0-12.3-2.3-17.1-7c-0.2-0.2-0.4-0.4-0.6-0.7c-1.5-1.6-2.8-3.3-3.8-5.1c-0.3-0.6-0.6-1.2-0.9-1.9
					C2.4,33.5,2,32.2,1.7,30.8z M22.9,4.8c-4.8,0.4-9,2.3-12.5,5.8c-4,3.9-5.9,8.7-5.9,14.2c0,5.6,2,10.3,5.9,14.3
					c1.2,1.1,2.4,2.1,3.7,2.9c2.7,1.6,5.6,2.6,8.8,2.9c0.6,0.1,1.2,0.1,1.8,0.1c3.9,0,7.5-1,10.6-3c0.6-0.4,1.2-0.8,1.8-1.2
					c0.7-0.5,1.4-1.1,2-1.7c2.7-2.7,4.5-5.8,5.4-9.3c0.4-1.6,0.6-3.3,0.6-5c0-1.7-0.2-3.3-0.6-4.9c-0.8-3.4-2.6-6.5-5.4-9.3
					c-0.6-0.6-1.3-1.1-2-1.6c-3.6-2.8-7.7-4.2-12.4-4.2C24.1,4.7,23.5,4.7,22.9,4.8z"/>
				<radialGradient id="SVGID_4_" cx="32.1504" cy="25.9502" r="9.925" gradientUnits="userSpaceOnUse">
					<stop  offset="3.921569e-002" style="stop-color:#39322A"/>
					<stop  offset="1" style="stop-color:#40292B"/>
				</radialGradient>
				<path fill-rule="evenodd" clip-rule="evenodd" fill="url(#SVGID_4_)" d="M31.9,26h0.4h0.5c-0.5-0.6-0.5-1.2,0-2h-0.9l-2-0.5
					c-1.5-0.7-2.3-1.1-2.4-1.1l0-0.1c-0.1-0.1-0.3-0.3-0.4-0.4c-0.7-0.6-1.6-0.9-2.5-0.9c-0.2,0-0.4,0-0.6,0.1
					c0.4-0.7,0.9-1.4,1.6-2.1c0.4-0.4,0.8-0.8,1.3-1c1.3-0.9,2.8-1.4,4.4-1.4c2.2,0,4.2,0.8,5.8,2.4l0,0.1c1.5,1.6,2.3,3.5,2.3,5.6
					c0,2.2-0.8,4.1-2.3,5.7l0,0.1c-1.6,1.5-3.5,2.3-5.8,2.3c-1.9,0-3.6-0.6-5-1.7c-0.2-0.2-0.5-0.4-0.7-0.6c-0.5-0.5-0.9-1-1.1-1.5
					c0.1,0,0.2,0,0.2,0c0.9,0,1.7-0.3,2.4-0.8c0.1-0.1,0.2-0.2,0.3-0.3c0,0,0.1,0,0.1,0l0.1-0.2c0.1-0.1,0.1-0.2,0.3-0.3
					c0.5-0.4,1.1-0.7,1.9-1h0c0.6-0.2,1-0.4,1.3-0.4c0,0,0-0.1,0-0.1v0.1c0.1,0,0.3-0.1,0.5-0.2C31.6,26,31.8,26,31.9,26z M28.5,24
					c-0.1,0-0.2,0-0.3,0C28.3,24,28.4,24,28.5,24L28.5,24z"/>
				<path fill-rule="evenodd" clip-rule="evenodd" d="M32.3,26h-0.4v-2h0.9c-0.5,0.7-0.5,1.4,0,2H32.3z"/>
				<line fill-rule="evenodd" clip-rule="evenodd" fill="none" x1="32.3" y1="26" x2="31.9" y2="26"/>
				<path fill-rule="evenodd" clip-rule="evenodd" fill="none" d="M18.1,25.7H5.6C5.3,24.4,5.4,23.2,6,22c0.3,0,0.7,0.1,1.1,0.2
					c3.1,0.5,6.9,1,11.5,1.8l0,1.7L18.1,25.7z"/>
			</g>
		</g>
		<g>
			
				<radialGradient id="SVGID_5_" cx="24.8999" cy="25.3501" r="21.1875" fx="23.4043" fy="25.3501" gradientTransform="matrix(1 0 0 0.9876 0 0.3141)" gradientUnits="userSpaceOnUse">
				<stop  offset="0" style="stop-color:#333333"/>
				<stop  offset="0.8863" style="stop-color:#000000"/>
				<stop  offset="1" style="stop-color:#CCCCCC"/>
			</radialGradient>
			<path fill-rule="evenodd" clip-rule="evenodd" fill="url(#SVGID_5_)" d="M37.1,7.6c1.2,0.7,2.4,1.6,3.5,2.7
				c1.6,1.5,2.8,3.2,3.8,4.9c1.6,2.8,2.4,6,2.4,9.5c0,3.4-0.8,6.6-2.4,9.5c-1,1.7-2.2,3.3-3.8,4.8c-1.1,1.1-2.3,2-3.5,2.8
				C33.7,44,29.9,45,25.6,45c-5.9,0-10.9-2-15-6c-4.1-3.9-6.1-8.7-6.1-14.3c0-5.6,2-10.4,6.1-14.4c4.1-4,9.1-6,15-6
				C29.9,4.4,33.7,5.5,37.1,7.6z"/>
		</g>
		<g>
			<radialGradient id="SVGID_6_" cx="25.1499" cy="25.5" r="16.225" gradientUnits="userSpaceOnUse">
				<stop  offset="0" style="stop-color:#D9D9D9"/>
				<stop  offset="1" style="stop-color:#848484"/>
			</radialGradient>
			<path fill-rule="evenodd" clip-rule="evenodd" fill="url(#SVGID_6_)" d="M36.1,14.5c3,3.1,4.6,6.8,4.6,11c0,4.3-1.5,8-4.6,11
				c-3,3.1-6.7,4.6-11,4.6c-4.3,0-8-1.5-11.1-4.6c-3-3-4.5-6.7-4.5-11c0-4.3,1.5-8,4.5-11c3.1-3,6.8-4.5,11.1-4.5
				C29.4,10,33.1,11.5,36.1,14.5z"/>
		</g>
		<g>
			<linearGradient id="SVGID_7_" gradientUnits="userSpaceOnUse" x1="25.2251" y1="7.9375" x2="25.2251" y2="24.8625">
				<stop  offset="0" style="stop-color:#FFFFFF"/>
				<stop  offset="1" style="stop-color:#FFFFFF;stop-opacity:0"/>
			</linearGradient>
			<path fill-rule="evenodd" clip-rule="evenodd" fill="url(#SVGID_7_)" d="M25.2,24.1c-2.4,0-4.4-0.6-6.1-1.9
				c-1.6-1.2-2.4-2.6-2.4-4.2c0-1.7,0.8-3.1,2.4-4.3c1.7-1.2,3.7-1.8,6.1-1.8c2.3,0,4.3,0.6,6,1.8c1.7,1.2,2.5,2.6,2.5,4.3
				c0,1.6-0.9,3-2.5,4.2C29.5,23.5,27.5,24.1,25.2,24.1z"/>
		</g>
	</g>
</g>
</svg>
