<?xml version="1.0" encoding="utf-8"?>
<!-- Generator: Adobe Illustrator 16.0.0, SVG Export Plug-In . SVG Version: 6.00 Build 0)  -->
<!DOCTYPE svg PUBLIC "-//W3C//DTD SVG 1.1//EN" "http://www.w3.org/Graphics/SVG/1.1/DTD/svg11.dtd">
<svg version="1.1" xmlns="http://www.w3.org/2000/svg" xmlns:xlink="http://www.w3.org/1999/xlink" x="0px" y="0px" width="144px"
	 height="62px" viewBox="0 0 144 62" enable-background="new 0 0 144 62" xml:space="preserve">
<g id="Layer_7">
</g>
<g id="Layer_6">
	<g>
		<g>
			
				<radialGradient id="SVGID_1_" cx="88.9004" cy="30.8501" r="63.4875" gradientTransform="matrix(1 0 0 0.3702 0 19.4309)" gradientUnits="userSpaceOnUse">
				<stop  offset="0" style="stop-color:#B53999;stop-opacity:0.2471"/>
				<stop  offset="0.4275" style="stop-color:#B53999;stop-opacity:0.2471"/>
				<stop  offset="1" style="stop-color:#B53999;stop-opacity:0"/>
			</radialGradient>
			<path fill-rule="evenodd" clip-rule="evenodd" fill="url(#SVGID_1_)" d="M139.5,30.5c-0.3,8-5.9,15.5-16.8,22.5
				c-10.9,7-27.2,9.4-48.8,7.2c-21.6-2.2-39.1-5.8-52.5-10.8C8.1,44.6,1.5,38.6,1.5,31.6c0-7,6.6-13,19.9-18
				C34.8,8.7,51.8,4.8,72.3,1.8c20.6-3,37-0.9,49.2,6.1C133.8,14.9,139.8,22.5,139.5,30.5z"/>
		</g>
		<g>
			
				<radialGradient id="SVGID_2_" cx="118.8252" cy="30.5" r="23.1997" gradientTransform="matrix(1 0 0 1.0145 0 -0.4435)" gradientUnits="userSpaceOnUse">
				<stop  offset="0" style="stop-color:#B53999"/>
				<stop  offset="0.6039" style="stop-color:#B83C9C;stop-opacity:0.8196"/>
				<stop  offset="1" style="stop-color:#CD52AD;stop-opacity:0"/>
			</radialGradient>
			<path fill-rule="evenodd" clip-rule="evenodd" fill="url(#SVGID_2_)" d="M141.5,30.5c0,6.4-2.2,11.8-6.7,16.3
				c-4.4,4.5-9.8,6.8-16,6.8c-6.3,0-11.6-2.3-16-6.8c-4.4-4.5-6.6-9.9-6.6-16.3c0-6.4,2.2-11.8,6.6-16.3c4.4-4.5,9.8-6.7,16-6.7
				c6.3,0,11.7,2.2,16,6.7C139.3,18.7,141.5,24.1,141.5,30.5z"/>
		</g>
	</g>
</g>
</svg>
