<?xml version="1.0" encoding="utf-8"?>
<!-- Generator: Adobe Illustrator 16.0.0, SVG Export Plug-In . SVG Version: 6.00 Build 0)  -->
<!DOCTYPE svg PUBLIC "-//W3C//DTD SVG 1.1//EN" "http://www.w3.org/Graphics/SVG/1.1/DTD/svg11.dtd">
<svg version="1.1" id="Layer_3" xmlns="http://www.w3.org/2000/svg" xmlns:xlink="http://www.w3.org/1999/xlink" x="0px" y="0px"
	 width="236.53px" height="112.33px" viewBox="0 -26.58 236.53 112.33" enable-background="new 0 -26.58 236.53 112.33"
	 xml:space="preserve">
<g>
	<g>
		<g>
			
				<radialGradient id="SVGID_1_" cx="-432.3325" cy="2743.7461" r="21.2634" gradientTransform="matrix(-4.371139e-008 1 0.261 1.140967e-008 -712.9446 460.2897)" gradientUnits="userSpaceOnUse">
				<stop  offset="0" style="stop-color:#B28E55"/>
				<stop  offset="1" style="stop-color:#1E1710"/>
			</radialGradient>
			<path fill="url(#SVGID_1_)" d="M8.38,25.86c0.07,1.1,0.1,2.27,0.1,3.5s-0.03,2.4-0.1,3.5c-0.2,2.2-0.55,4.17-1.05,5.9
				c-0.8,2.53-1.77,3.8-2.9,3.8c-1.1,0-2.05-1.27-2.85-3.8c-0.77-2.6-1.15-5.73-1.15-9.4c0-3.67,0.38-6.77,1.15-9.3
				c0.8-2.6,1.75-3.9,2.85-3.9c1.13,0,2.1,1.3,2.9,3.9C7.82,21.75,8.18,23.69,8.38,25.86z"/>
		</g>
		<g>
			
				<linearGradient id="SVGID_2_" gradientUnits="userSpaceOnUse" x1="-833.5049" y1="-381.9277" x2="-833.5049" y2="-403.9269" gradientTransform="matrix(1 0 0 -1 857.5 -364.8701)">
				<stop  offset="0" style="stop-color:#2F2F2F"/>
				<stop  offset="0.0941" style="stop-color:#6A6A6A"/>
				<stop  offset="0.1725" style="stop-color:#575757"/>
				<stop  offset="0.2667" style="stop-color:#373737"/>
				<stop  offset="0.3647" style="stop-color:#7A7A7A"/>
				<stop  offset="0.5059" style="stop-color:#FFFFFF"/>
				<stop  offset="0.6039" style="stop-color:#484849"/>
				<stop  offset="0.7216" style="stop-color:#000000"/>
				<stop  offset="0.8549" style="stop-color:#5E5E5E"/>
				<stop  offset="1" style="stop-color:#000000"/>
			</linearGradient>
			<path fill="url(#SVGID_2_)" d="M44.47,40.36h-39c-2.6-6.77-2.6-14.08,0-21.95h39V40.36z"/>
		</g>
		<g>
			
				<radialGradient id="SVGID_3_" cx="-432.5337" cy="2194.4336" r="8.4625" gradientTransform="matrix(-4.371139e-008 1 0.3501 1.530221e-008 -765.3 461.9401)" gradientUnits="userSpaceOnUse">
				<stop  offset="0" style="stop-color:#F3EEE7"/>
				<stop  offset="1" style="stop-color:#E6DCD2;stop-opacity:0"/>
			</radialGradient>
			<path fill="url(#SVGID_3_)" d="M4.97,17.36c0.13-0.03,0.27-0.02,0.4,0.05c0.13,0.1,0.22,0.2,0.25,0.3c0,0.17-0.05,0.3-0.15,0.4
				c-0.37,0.6-0.72,1.45-1.05,2.55c-0.37,1.3-0.67,2.8-0.9,4.5c-0.1,1.33-0.15,2.77-0.15,4.3c0,1.17,0.03,2.28,0.1,3.35
				c0.17,2.07,0.48,3.88,0.95,5.45v0.05c0.33,1.1,0.68,1.95,1.05,2.55c0.1,0.07,0.15,0.17,0.15,0.3c-0.03,0.13-0.12,0.25-0.25,0.35
				c-0.13,0.07-0.27,0.1-0.4,0.1c-0.13-0.07-0.25-0.15-0.35-0.25c-0.4-0.63-0.78-1.57-1.15-2.8c-0.53-1.63-0.88-3.5-1.05-5.6
				c-0.07-1.13-0.1-2.3-0.1-3.5c0-1.57,0.05-3.05,0.15-4.45c0.23-1.73,0.57-3.28,1-4.65c0.37-1.2,0.75-2.13,1.15-2.8
				C4.72,17.42,4.84,17.36,4.97,17.36z"/>
		</g>
		<g>
			
				<linearGradient id="SVGID_4_" gradientUnits="userSpaceOnUse" x1="-831.7275" y1="-396.1445" x2="-820.9326" y2="-393.9801" gradientTransform="matrix(1 0 0 -1 857.5 -364.8701)">
				<stop  offset="0" style="stop-color:#000000"/>
				<stop  offset="1" style="stop-color:#000000;stop-opacity:0"/>
			</linearGradient>
			<path fill="url(#SVGID_4_)" d="M38.97,39.76l-0.25,0.4h-6.05c-0.13-0.47-0.28-0.98-0.45-1.55c-0.7-2.67-1.05-5.88-1.05-9.65
				c-0.07-3.77,0.27-6.97,1-9.6c0.1-0.3,0.18-0.6,0.25-0.9h6.55V39.76z"/>
			<path fill-opacity="0.498" d="M28.22,19.65c0.13-0.47,0.27-0.88,0.4-1.25h3.15c-1.87,8.3-1.77,15.57,0.3,21.8l6.9,0.05v0.1h-10.2
				c-0.17-0.43-0.33-0.92-0.5-1.45c-0.7-2.67-1.05-5.88-1.05-9.65C27.16,25.46,27.49,22.25,28.22,19.65z"/>
		</g>
		<g>
			
				<linearGradient id="SVGID_5_" gradientUnits="userSpaceOnUse" x1="-826.3208" y1="-380.52" x2="-826.3208" y2="-407.7202" gradientTransform="matrix(1 0 0 -1 857.5 -364.8701)">
				<stop  offset="0" style="stop-color:#D3D3D3"/>
				<stop  offset="0.0941" style="stop-color:#3C3C3C"/>
				<stop  offset="0.3059" style="stop-color:#AEAEAE"/>
				<stop  offset="1" style="stop-color:#000000"/>
			</linearGradient>
			<path fill="url(#SVGID_5_)" d="M27.93,29.25c-0.03-3.8,0.3-7,1-9.6c0.7-2.67,1.65-4,2.85-4c1.03,0,1.92,0.92,2.65,2.75h-1.9
				c-1.9,8.3-1.82,15.57,0.25,21.8l1.65,0.05c-0.77,1.73-1.65,2.6-2.65,2.6c-1.2,0-2.13-1.32-2.8-3.95
				C28.28,36.24,27.93,33.02,27.93,29.25z"/>
		</g>
		
			<radialGradient id="SVGID_6_" cx="-3370.4268" cy="-1206.6279" r="9.7246" gradientTransform="matrix(-4.577637e-005 -0.572 -0.2683 -1.015945e-005 -294.5067 -1897.6401)" gradientUnits="userSpaceOnUse">
			<stop  offset="0" style="stop-color:#FFFFFF"/>
			<stop  offset="0.1725" style="stop-color:#FFFFFF;stop-opacity:0.8588"/>
			<stop  offset="0.3412" style="stop-color:#FFFFFF;stop-opacity:0.498"/>
			<stop  offset="0.4941" style="stop-color:#FFFFFF;stop-opacity:0.251"/>
			<stop  offset="0.6392" style="stop-color:#FFFFFF;stop-opacity:0.0627"/>
			<stop  offset="0.7686" style="stop-color:#FFFFFF;stop-opacity:0.0275"/>
			<stop  offset="1" style="stop-color:#FFFFFF;stop-opacity:0"/>
		</radialGradient>
		<path fill="url(#SVGID_6_)" d="M31.77,30.25c0,1.43-0.23,2.63-0.68,3.6c-0.46,0.99-1.02,1.49-1.69,1.49s-1.24-0.5-1.69-1.49
			c-0.46-0.97-0.69-2.17-0.69-3.6s0.23-2.64,0.68-3.63c0.46-0.99,1.02-1.49,1.69-1.49s1.24,0.5,1.69,1.49
			C31.54,27.61,31.77,28.82,31.77,30.25z"/>
		
			<radialGradient id="SVGID_7_" cx="-3866.626" cy="-1814.0493" r="9.7249" gradientTransform="matrix(2.482786e-004 -0.4438 -0.2082 -1.164783e-004 -339.1292 -1686.5701)" gradientUnits="userSpaceOnUse">
			<stop  offset="0" style="stop-color:#FFFFFF"/>
			<stop  offset="0.102" style="stop-color:#FFFFFF;stop-opacity:0.8588"/>
			<stop  offset="0.2824" style="stop-color:#FFFFFF;stop-opacity:0.498"/>
			<stop  offset="0.4431" style="stop-color:#FFFFFF;stop-opacity:0.251"/>
			<stop  offset="0.6392" style="stop-color:#FFFFFF;stop-opacity:0.0627"/>
			<stop  offset="0.7686" style="stop-color:#FFFFFF;stop-opacity:0.0275"/>
			<stop  offset="1" style="stop-color:#FFFFFF;stop-opacity:0"/>
		</radialGradient>
		<path fill="url(#SVGID_7_)" d="M39.44,29.66c0,1.11-0.18,2.04-0.53,2.8c-0.35,0.77-0.79,1.15-1.31,1.15s-0.96-0.39-1.31-1.15
			c-0.35-0.75-0.53-1.69-0.53-2.8c0-1.11,0.18-2.05,0.53-2.82s0.79-1.15,1.31-1.15s0.96,0.39,1.31,1.15
			C39.27,27.61,39.44,28.55,39.44,29.66z"/>
		
			<radialGradient id="SVGID_8_" cx="-3866.6265" cy="-1814.0625" r="9.7282" gradientTransform="matrix(2.482786e-004 -0.4438 -0.2082 -1.164783e-004 -340.1282 -1686.2703)" gradientUnits="userSpaceOnUse">
			<stop  offset="0" style="stop-color:#FFFFFF"/>
			<stop  offset="0.102" style="stop-color:#FFFFFF;stop-opacity:0.8588"/>
			<stop  offset="0.2824" style="stop-color:#FFFFFF;stop-opacity:0.498"/>
			<stop  offset="0.4431" style="stop-color:#FFFFFF;stop-opacity:0.251"/>
			<stop  offset="0.6392" style="stop-color:#FFFFFF;stop-opacity:0.0627"/>
			<stop  offset="0.7686" style="stop-color:#FFFFFF;stop-opacity:0.0275"/>
			<stop  offset="1" style="stop-color:#FFFFFF;stop-opacity:0"/>
		</radialGradient>
		<path fill="url(#SVGID_8_)" d="M38.44,29.96c0,1.11-0.18,2.04-0.53,2.8c-0.35,0.77-0.79,1.15-1.31,1.15s-0.96-0.39-1.31-1.15
			c-0.35-0.75-0.53-1.69-0.53-2.8s0.18-2.05,0.53-2.82s0.79-1.15,1.31-1.15s0.96,0.39,1.31,1.15
			C38.27,27.91,38.44,28.85,38.44,29.96z"/>
		
			<radialGradient id="SVGID_9_" cx="-3866.627" cy="-1814.0635" r="9.7298" gradientTransform="matrix(2.482786e-004 -0.4438 -0.2082 -1.164783e-004 -341.1282 -1686.5203)" gradientUnits="userSpaceOnUse">
			<stop  offset="0" style="stop-color:#FFFFFF"/>
			<stop  offset="0.102" style="stop-color:#FFFFFF;stop-opacity:0.8588"/>
			<stop  offset="0.2824" style="stop-color:#FFFFFF;stop-opacity:0.498"/>
			<stop  offset="0.4431" style="stop-color:#FFFFFF;stop-opacity:0.251"/>
			<stop  offset="0.6392" style="stop-color:#FFFFFF;stop-opacity:0.0627"/>
			<stop  offset="0.7686" style="stop-color:#FFFFFF;stop-opacity:0.0275"/>
			<stop  offset="1" style="stop-color:#FFFFFF;stop-opacity:0"/>
		</radialGradient>
		<path fill="url(#SVGID_9_)" d="M37.44,29.71c0,1.11-0.18,2.04-0.53,2.8c-0.35,0.77-0.79,1.15-1.31,1.15s-0.96-0.39-1.31-1.15
			c-0.35-0.75-0.53-1.69-0.53-2.8s0.18-2.05,0.53-2.82s0.79-1.15,1.31-1.15s0.96,0.39,1.31,1.15C37.27,27.66,37.44,28.6,37.44,29.71
			z"/>
	</g>
	
		<radialGradient id="SVGID_10_" cx="-892.0806" cy="-260.1768" r="25.1471" gradientTransform="matrix(1.4932 -3.051758e-005 4.577637e-005 -1.1286 1500.2461 -264.3777)" gradientUnits="userSpaceOnUse">
		<stop  offset="0" style="stop-color:#000000;stop-opacity:0.549"/>
		<stop  offset="0.3098" style="stop-color:#000000;stop-opacity:0.5294"/>
		<stop  offset="0.5333" style="stop-color:#000000;stop-opacity:0.2"/>
		<stop  offset="0.702" style="stop-color:#000000;stop-opacity:0"/>
		<stop  offset="1" style="stop-color:#000000;stop-opacity:0"/>
	</radialGradient>
	<path fill="url(#SVGID_10_)" d="M168.18,57.5c-10.3,0-19.11-2.76-26.43-8.29c-7.27-5.49-10.9-12.13-10.9-19.92
		s3.63-14.45,10.9-19.98c7.32-5.49,16.13-8.24,26.43-8.24s19.09,2.75,26.36,8.24c7.32,5.53,10.97,12.19,10.97,19.98
		s-3.66,14.43-10.98,19.92C187.27,54.73,178.48,57.5,168.18,57.5z"/>
	<g>
		<g>
			<g>
				<path d="M178.13,17.46c1.27,8.4,1.27,16.4,0,24c-0.1,0.43-0.23,0.75-0.4,0.95l-0.05,0.05h-0.75v-0.05l-55.65,0.05H71.93h-2.75
					h-1h-2.4l-8.9-0.05h-3.5h-7.05h-1.85c-0.6-0.07-1.07-0.37-1.4-0.9c-0.1-0.17-0.22-0.48-0.35-0.95c-2.23-7.63-2.23-15.13,0-22.5
					c0.57-1.27,1.28-1.9,2.15-1.9h1.45h7.05h3.5l8.9,0.05h2.4h1h2.75l49.35,0.05h55.8c-0.03,0.03-0.05,0.08-0.05,0.15
					c0.07-0.1,0.15-0.15,0.25-0.15C177.61,16.25,177.89,16.65,178.13,17.46z"/>
			</g>
			
				<radialGradient id="SVGID_11_" cx="-3551.9258" cy="1041.1426" r="23.9484" gradientTransform="matrix(-1.678092e-004 -0.5189 5.2351 -1.700000e-003 -5346.1025 -1812.3848)" gradientUnits="userSpaceOnUse">
				<stop  offset="0" style="stop-color:#FFFFFF;stop-opacity:0.6"/>
				<stop  offset="0.1686" style="stop-color:#FFFFFF;stop-opacity:0.4"/>
				<stop  offset="0.2824" style="stop-color:#FFFFFF;stop-opacity:0.298"/>
				<stop  offset="0.4431" style="stop-color:#FFFFFF;stop-opacity:0.1255"/>
				<stop  offset="0.6039" style="stop-color:#FFFFFF;stop-opacity:0.0627"/>
				<stop  offset="0.7686" style="stop-color:#FFFFFF;stop-opacity:0.0275"/>
				<stop  offset="1" style="stop-color:#FFFFFF;stop-opacity:0"/>
			</radialGradient>
			<path fill="url(#SVGID_11_)" d="M105.28,38.15c26.84-0.01,50.57-0.57,71.19-1.68V21.38c-20.62-1.11-44.35-1.66-71.19-1.65
				c-24.05,0.01-45.58,0.46-64.6,1.34l0.01,15.79C59.7,37.73,81.23,38.16,105.28,38.15z"/>
			<g>
				
					<radialGradient id="SVGID_12_" cx="-328.4189" cy="912.7676" r="9.9367" gradientTransform="matrix(5.031447e-005 1 -1.3145 -5.031447e-005 1377.7924 357.5226)" gradientUnits="userSpaceOnUse">
					<stop  offset="0" style="stop-color:#FFFFFF"/>
					<stop  offset="1" style="stop-color:#F9F9F9;stop-opacity:0"/>
				</radialGradient>
				<path fill="url(#SVGID_12_)" d="M177.63,16.25c0.07-0.1,0.15-0.13,0.25-0.1c0.1,0.07,0.18,0.13,0.25,0.2s0.07,0.15,0,0.25
					c-0.1,0.47-0.22,1.62-0.35,3.45c-0.1,2.47-0.15,5.47-0.15,9c0,3.53,0.05,6.57,0.15,9.1c0.13,2.2,0.2,3.32,0.2,3.35
					c0.1,0,0.18,0.03,0.25,0.1c0.07,0.1,0.1,0.2,0.1,0.3s-0.03,0.18-0.1,0.25c-0.07,0.1-0.15,0.15-0.25,0.15
					c-0.47,0-0.77-1.38-0.9-4.15c-0.17-2.47-0.23-5.5-0.2-9.1c-0.03-3.53,0.03-6.55,0.2-9.05c0.1-1.9,0.22-3.1,0.35-3.6
					C177.46,16.31,177.52,16.25,177.63,16.25z"/>
			</g>
		</g>
		<g>
			<g>
				
					<linearGradient id="SVGID_13_" gradientUnits="userSpaceOnUse" x1="-351.3398" y1="1868.3867" x2="-317.6882" y2="1868.3867" gradientTransform="matrix(-8.200000e-003 1 1 8.200000e-003 -1737.5966 349.817)">
					<stop  offset="0" style="stop-color:#7B7C7C"/>
					<stop  offset="0.0627" style="stop-color:#000000"/>
					<stop  offset="1" style="stop-color:#000000"/>
				</linearGradient>
				<path fill="url(#SVGID_13_)" d="M151.27,13.31c0.03,0.07,0.08,0.12,0.15,0.15c0.2,0.23,0.42,0.43,0.65,0.6
					c1.07,1.17,1.7,2.13,1.9,2.9c0,0.07,0,0.12,0,0.15c0.13,0.93,0.35,1.98,0.65,3.15c0.23,1.03,0.7,2.02,1.4,2.95
					c0.03,0.13,0.1,0.25,0.2,0.35c0.47,0.83,0.83,1.7,1.1,2.6c0.33,1,0.53,2.02,0.6,3.05c0,0.03,0,0.08,0,0.15
					c-0.1,1.8-0.67,3.62-1.7,5.45c-0.1,0.13-0.17,0.25-0.2,0.35c-0.3,0.43-0.57,0.88-0.8,1.35c-0.27,0.5-0.47,1.07-0.6,1.7
					c-0.3,1.13-0.52,2.15-0.65,3.05c-0.1,0.83-0.82,1.92-2.15,3.25c-0.17,0.17-0.33,0.33-0.5,0.5l-34.55,0.05
					c-0.47-0.43-1.08-0.97-1.85-1.6c0-0.03-0.02-0.08-0.05-0.15c-0.2-0.13-0.38-0.28-0.55-0.45c-0.4-0.37-0.72-0.7-0.95-1
					c-0.03-0.03-0.07-0.08-0.1-0.15c-0.1-0.17-0.17-0.32-0.2-0.45c-0.13-0.9-0.33-1.92-0.6-3.05c-0.23-1.03-0.7-2.05-1.4-3.05
					c-0.03-0.07-0.07-0.12-0.1-0.15c-0.03-0.07-0.07-0.13-0.1-0.2c-1.03-1.83-1.6-3.65-1.7-5.45c0-0.07,0-0.12,0-0.15
					c0-0.07,0-0.12,0-0.15c0.1-1.8,0.67-3.63,1.7-5.5c0.03-0.03,0.07-0.08,0.1-0.15c0.03-0.07,0.07-0.13,0.1-0.2h0.05
					c0.3-0.47,0.55-0.9,0.75-1.3c0.27-0.53,0.47-1.08,0.6-1.65c0.13-0.57,0.25-1.1,0.35-1.6c0.13-0.57,0.22-1.08,0.25-1.55
					c0.03-0.07,0.07-0.13,0.1-0.2c0-0.03,0-0.08,0-0.15c0.23-0.63,0.77-1.4,1.6-2.3c0.1-0.1,0.2-0.23,0.3-0.4
					c0.23-0.17,0.47-0.38,0.7-0.65l0.05-0.1h0.85h0.15h0.9h32.75H151.27L151.27,13.31z"/>
			</g>
			<g>
				
					<linearGradient id="SVGID_14_" gradientUnits="userSpaceOnUse" x1="-833.5332" y1="-429.1641" x2="-729.896" y2="-429.1641" gradientTransform="matrix(0.9992 -0.0389 -0.0389 -0.9992 892.3374 -429.8505)">
					<stop  offset="0" style="stop-color:#000000"/>
					<stop  offset="0.4745" style="stop-color:#000000;stop-opacity:0"/>
					<stop  offset="1" style="stop-color:#000000"/>
				</linearGradient>
				<path fill="url(#SVGID_14_)" d="M151.27,13.31c0.03,0.07,0.08,0.12,0.15,0.15c0.2,0.23,0.42,0.43,0.65,0.6
					c1.07,1.17,1.7,2.13,1.9,2.9c0,0.07,0,0.12,0,0.15c0.13,0.93,0.35,1.98,0.65,3.15c0.23,1.03,0.7,2.02,1.4,2.95
					c0.03,0.13,0.1,0.25,0.2,0.35c0.47,0.83,0.83,1.7,1.1,2.6c0.33,1,0.53,2.02,0.6,3.05c0,0.03,0,0.08,0,0.15
					c-0.1,1.8-0.67,3.62-1.7,5.45c-0.1,0.13-0.17,0.25-0.2,0.35c-0.3,0.43-0.57,0.88-0.8,1.35c-0.27,0.5-0.47,1.07-0.6,1.7
					c-0.3,1.13-0.52,2.15-0.65,3.05c-0.1,0.83-0.82,1.92-2.15,3.25c-0.17,0.17-0.33,0.33-0.5,0.5l-34.55,0.05
					c-0.47-0.43-1.08-0.97-1.85-1.6c0-0.03-0.02-0.08-0.05-0.15c-0.2-0.13-0.38-0.28-0.55-0.45c-0.4-0.37-0.72-0.7-0.95-1
					c-0.03-0.03-0.07-0.08-0.1-0.15c-0.1-0.17-0.17-0.32-0.2-0.45c-0.13-0.9-0.33-1.92-0.6-3.05c-0.23-1.03-0.7-2.05-1.4-3.05
					c-0.03-0.07-0.07-0.12-0.1-0.15c-0.03-0.07-0.07-0.13-0.1-0.2c-1.03-1.83-1.6-3.65-1.7-5.45c0-0.07,0-0.12,0-0.15
					c0-0.07,0-0.12,0-0.15c0.1-1.8,0.67-3.63,1.7-5.5c0.03-0.03,0.07-0.08,0.1-0.15c0.03-0.07,0.07-0.13,0.1-0.2h0.05
					c0.3-0.47,0.55-0.9,0.75-1.3c0.27-0.53,0.47-1.08,0.6-1.65c0.13-0.57,0.25-1.1,0.35-1.6c0.13-0.57,0.22-1.08,0.25-1.55
					c0.03-0.07,0.07-0.13,0.1-0.2c0-0.03,0-0.08,0-0.15c0.23-0.63,0.77-1.4,1.6-2.3c0.1-0.1,0.2-0.23,0.3-0.4
					c0.23-0.17,0.47-0.38,0.7-0.65l0.05-0.1h0.85h0.15h0.9h32.75H151.27L151.27,13.31z"/>
			</g>
			
				<radialGradient id="SVGID_15_" cx="-3356.1265" cy="1166.0273" r="23.9352" gradientTransform="matrix(-4.577637e-005 -0.5783 2.4199 1.700000e-003 -2686.9844 -1913.4551)" gradientUnits="userSpaceOnUse">
				<stop  offset="0" style="stop-color:#FFFFFF;stop-opacity:0.6"/>
				<stop  offset="0.1686" style="stop-color:#FFFFFF;stop-opacity:0.4"/>
				<stop  offset="0.2824" style="stop-color:#FFFFFF;stop-opacity:0.298"/>
				<stop  offset="0.4431" style="stop-color:#FFFFFF;stop-opacity:0.1098"/>
				<stop  offset="0.6039" style="stop-color:#FFFFFF;stop-opacity:0.0627"/>
				<stop  offset="0.7686" style="stop-color:#FFFFFF;stop-opacity:0.0275"/>
				<stop  offset="1" style="stop-color:#FFFFFF;stop-opacity:0"/>
			</radialGradient>
			<path fill="url(#SVGID_15_)" d="M135,39.64c12.41,0.01,23.38-0.6,32.91-1.83V21c-9.53-1.25-20.5-1.88-32.91-1.89
				c-11.12-0.01-21.07,0.48-29.86,1.45v17.59C113.93,39.14,123.88,39.63,135,39.64z"/>
			<g>
				
					<radialGradient id="SVGID_16_" cx="-342.0337" cy="752.1104" r="2.3367" gradientTransform="matrix(2.139038e-004 1 -1 -2.139038e-004 903.8046 357.8026)" gradientUnits="userSpaceOnUse">
					<stop  offset="0" style="stop-color:#FFFFFF"/>
					<stop  offset="1" style="stop-color:#F9F9F9;stop-opacity:0"/>
				</radialGradient>
				<path fill="url(#SVGID_16_)" d="M150.47,13.75c1.23,0.47,2.15,1.58,2.75,3.35c0,0.07-0.02,0.13-0.05,0.2
					c-0.03,0.07-0.08,0.12-0.15,0.15c-0.07,0-0.13,0-0.2,0c-0.07-0.07-0.1-0.12-0.1-0.15c-0.53-1.6-1.35-2.6-2.45-3
					c-0.1-0.07-0.15-0.13-0.15-0.2c-0.03-0.07-0.03-0.12,0-0.15c0-0.1,0.03-0.17,0.1-0.2S150.38,13.72,150.47,13.75z"/>
				
					<radialGradient id="SVGID_17_" cx="-331.8564" cy="756.3018" r="3.8378" gradientTransform="matrix(1.302932e-004 1 -1 -1.302932e-004 912.2174 357.6632)" gradientUnits="userSpaceOnUse">
					<stop  offset="0" style="stop-color:#FFFFFF"/>
					<stop  offset="1" style="stop-color:#F9F9F9;stop-opacity:0"/>
				</radialGradient>
				<path fill="url(#SVGID_17_)" d="M156.97,30.81c-0.03,0.1-0.08,0.12-0.15,0.05c-0.1,0-0.17-0.03-0.2-0.1
					c-0.03-0.03-0.05-0.08-0.05-0.15c0.37-2.7-0.43-5.35-2.4-7.95c-0.03-0.1-0.05-0.17-0.05-0.2c0-0.1,0.05-0.17,0.15-0.2
					c0-0.07,0.07-0.08,0.2-0.05c0.03,0.03,0.08,0.07,0.15,0.1c2.03,2.77,2.87,5.55,2.5,8.35C157.09,30.72,157.04,30.77,156.97,30.81
					z"/>
			</g>
		</g>
		<g>
			<path d="M171.13,15.5h0.85c0.03,0.03,0.07,0.08,0.1,0.15c0.07,0.07,0.13,0.17,0.2,0.3c0.03,0.03,0.05,0.07,0.05,0.1
				c0.13,0.23,0.25,0.48,0.35,0.75c-0.37-0.37-0.75-0.5-1.15-0.4c-0.23,0.3-0.42,0.62-0.55,0.95c-1.27,8.23-1.2,16.5,0.2,24.8
				l1.2-0.2c0-0.03,0.02-0.05,0.05-0.05v0.05l0.6-0.1c-0.27,0.13-0.47,0.25-0.6,0.35c-0.07,0.2-0.28,0.47-0.65,0.8
				c-0.07,0.07-0.12,0.12-0.15,0.15c-0.1,0.1-0.2,0.17-0.3,0.2h-0.15c-1.13-2.87-1.72-6.13-1.75-9.8c0-3.67,0.05-7.12,0.15-10.35
				C169.71,19.97,170.22,17.4,171.13,15.5z"/>
			
				<linearGradient id="SVGID_18_" gradientUnits="userSpaceOnUse" x1="-340.3052" y1="1822.5332" x2="-312.17" y2="1822.5332" gradientTransform="matrix(0.0506 0.9987 1.0013 8.378989e-005 -1641.6711 355.2201)">
				<stop  offset="0" style="stop-color:#1F2B27"/>
				<stop  offset="0.1333" style="stop-color:#26262B"/>
				<stop  offset="0.2392" style="stop-color:#6D6C72"/>
				<stop  offset="0.3333" style="stop-color:#555657"/>
				<stop  offset="0.4275" style="stop-color:#464B45"/>
				<stop  offset="0.6039" style="stop-color:#161616"/>
				<stop  offset="0.7412" style="stop-color:#101010"/>
				<stop  offset="0.8314" style="stop-color:#65656D"/>
				<stop  offset="0.9098" style="stop-color:#3B3F42"/>
				<stop  offset="1" style="stop-color:#000000"/>
			</linearGradient>
			<path fill="url(#SVGID_18_)" d="M171.18,43.36h-3.6h-0.1h-2.05h-1c-0.47,0.03-0.93-0.25-1.4-0.85c-1.77-8.13-1.77-16.83,0-26.1
				c0.27-0.57,0.75-0.87,1.45-0.9h6.65c-0.9,1.9-1.42,4.47-1.55,7.7c-0.1,3.23-0.15,6.68-0.15,10.35
				C169.46,37.22,170.04,40.49,171.18,43.36z"/>
		</g>
		<g>
			
				<radialGradient id="SVGID_19_" cx="-328.0649" cy="782.9951" r="14.6516" gradientTransform="matrix(3.412969e-005 1 -1.0299 -3.412969e-005 972.7183 357.4977)" gradientUnits="userSpaceOnUse">
				<stop  offset="0" style="stop-color:#737374;stop-opacity:0.4314"/>
				<stop  offset="0.4902" style="stop-color:#737374"/>
				<stop  offset="0.898" style="stop-color:#6F6F6F;stop-opacity:0.498"/>
				<stop  offset="1" style="stop-color:#696969;stop-opacity:0"/>
			</radialGradient>
			<path fill="url(#SVGID_19_)" d="M169.93,18.15c-0.07,0.03-0.12,0.05-0.15,0.05h-6.15c-0.1,0-0.17-0.02-0.2-0.05
				c-0.07-0.07-0.1-0.13-0.1-0.2c0-0.1,0.03-0.17,0.1-0.2c0.03-0.07,0.1-0.1,0.2-0.1h6.15c0.03,0,0.08,0.03,0.15,0.1
				c0.07,0.03,0.1,0.1,0.1,0.2C170.02,18.02,169.99,18.09,169.93,18.15z M170.27,16.56c0.07,0.03,0.1,0.1,0.1,0.2
				c0,0.07-0.03,0.13-0.1,0.2c-0.07,0.03-0.13,0.05-0.2,0.05h-6.25c-0.07,0-0.13-0.02-0.2-0.05c-0.03-0.07-0.05-0.13-0.05-0.2
				c0-0.1,0.02-0.17,0.05-0.2c0.07-0.07,0.13-0.1,0.2-0.1h6.25C170.14,16.46,170.21,16.49,170.27,16.56z M169.68,19.36
				c-0.07,0.07-0.13,0.1-0.2,0.1h-6.1c-0.07,0-0.13-0.03-0.2-0.1c-0.07-0.07-0.1-0.13-0.1-0.2c0-0.07,0.03-0.12,0.1-0.15
				c0.07-0.1,0.13-0.15,0.2-0.15h6.1c0.07,0,0.13,0.05,0.2,0.15c0.07,0.03,0.1,0.08,0.1,0.15
				C169.77,19.22,169.74,19.29,169.68,19.36z M169.47,20.61c-0.07,0-0.13,0-0.2,0h-6.1c-0.07,0-0.12,0-0.15,0
				c-0.07-0.1-0.1-0.17-0.1-0.2c0-0.1,0.03-0.18,0.1-0.25c0.03-0.03,0.08-0.05,0.15-0.05h6.1c0.07,0,0.13,0.02,0.2,0.05
				c0.07,0.07,0.1,0.15,0.1,0.25C169.58,20.44,169.54,20.5,169.47,20.61z M169.43,21.61c0,0.07-0.03,0.13-0.1,0.2
				c-0.07,0-0.13,0-0.2,0h-6.1c-0.07,0-0.13,0-0.2,0c-0.07-0.07-0.1-0.13-0.1-0.2c0-0.07,0.03-0.13,0.1-0.2
				c0.07-0.07,0.13-0.1,0.2-0.1h6.1c0.07,0,0.13,0.03,0.2,0.1C169.39,21.47,169.43,21.54,169.43,21.61z M169.27,22.81
				c0,0.03-0.02,0.08-0.05,0.15c-0.1,0.07-0.18,0.1-0.25,0.1h-6.1c-0.07,0-0.12-0.03-0.15-0.1c-0.1-0.07-0.15-0.12-0.15-0.15
				c0-0.1,0.05-0.18,0.15-0.25c0.03-0.03,0.08-0.05,0.15-0.05h6.1c0.07,0,0.15,0.02,0.25,0.05
				C169.26,22.62,169.27,22.71,169.27,22.81z M169.22,23.96c0,0.1-0.05,0.18-0.15,0.25c-0.03,0.03-0.1,0.05-0.2,0.05h-6.15
				c-0.03,0-0.08-0.02-0.15-0.05c-0.07-0.07-0.1-0.15-0.1-0.25c0-0.03,0.03-0.1,0.1-0.2c0.07,0,0.12,0,0.15,0h6.15
				c0.1,0,0.17,0,0.2,0C169.18,23.86,169.22,23.92,169.22,23.96z M169.02,25c0.03,0.07,0.05,0.13,0.05,0.2
				c0,0.07-0.02,0.13-0.05,0.2c-0.07,0.07-0.15,0.1-0.25,0.1h-6.1c-0.07,0-0.13-0.03-0.2-0.1s-0.1-0.13-0.1-0.2
				c0-0.07,0.03-0.13,0.1-0.2c0.07-0.03,0.13-0.05,0.2-0.05h6.1C168.88,24.96,168.96,24.97,169.02,25z M168.93,26.21
				c0.1,0.07,0.15,0.13,0.15,0.2c0,0.07-0.05,0.13-0.15,0.2c-0.03,0.07-0.1,0.1-0.2,0.1h-6.15c-0.07,0-0.13-0.03-0.2-0.1
				c-0.07-0.07-0.1-0.13-0.1-0.2c0-0.07,0.03-0.13,0.1-0.2c0.07-0.03,0.13-0.05,0.2-0.05h6.15
				C168.83,26.15,168.89,26.17,168.93,26.21z M168.93,27.81c-0.03,0.1-0.1,0.15-0.2,0.15h-6.15c-0.1,0-0.17-0.05-0.2-0.15
				c-0.1-0.03-0.15-0.1-0.15-0.2c0-0.03,0.05-0.1,0.15-0.2c0.03-0.03,0.1-0.05,0.2-0.05h6.15c0.1,0,0.17,0.02,0.2,0.05
				c0.07,0.1,0.1,0.17,0.1,0.2C169.02,27.71,168.99,27.77,168.93,27.81z M162.38,30.25c-0.1-0.03-0.15-0.1-0.15-0.2
				c0-0.07,0.05-0.12,0.15-0.15c0-0.07,0.05-0.1,0.15-0.1h6.2c0.03,0,0.08,0.03,0.15,0.1c0.07,0.03,0.1,0.08,0.1,0.15
				c0,0.1-0.03,0.17-0.1,0.2c-0.07,0.07-0.12,0.1-0.15,0.1h-6.2C162.43,30.36,162.38,30.32,162.38,30.25z M162.38,28.65
				c0-0.07,0.05-0.1,0.15-0.1h6.2c0.03,0,0.08,0.03,0.15,0.1c0.07,0.03,0.1,0.1,0.1,0.2c0,0.07-0.03,0.12-0.1,0.15
				c-0.07,0.07-0.12,0.1-0.15,0.1h-6.2c-0.1,0-0.15-0.03-0.15-0.1c-0.1-0.03-0.15-0.08-0.15-0.15
				C162.22,28.75,162.27,28.69,162.38,28.65z M162.58,31h6.15c0.1,0,0.17,0.03,0.2,0.1c0.07,0.03,0.1,0.1,0.1,0.2
				c0,0.07-0.03,0.12-0.1,0.15c-0.03,0.07-0.1,0.1-0.2,0.1h-6.15c-0.1,0-0.17-0.03-0.2-0.1c-0.1-0.03-0.15-0.08-0.15-0.15
				c0-0.1,0.05-0.17,0.15-0.2C162.41,31.04,162.47,31,162.58,31z M162.58,32.21h6.15c0.1,0,0.17,0.03,0.2,0.1
				c0.1,0.03,0.15,0.1,0.15,0.2c0,0.07-0.05,0.13-0.15,0.2c-0.03,0.03-0.1,0.05-0.2,0.05h-6.15c-0.07,0-0.13-0.02-0.2-0.05
				c-0.07-0.07-0.1-0.13-0.1-0.2c0-0.1,0.03-0.17,0.1-0.2C162.44,32.24,162.51,32.21,162.58,32.21z M162.47,33.96
				c-0.07-0.1-0.1-0.18-0.1-0.25c0-0.07,0.03-0.12,0.1-0.15c0.07-0.1,0.13-0.15,0.2-0.15h6.1c0.1,0,0.18,0.05,0.25,0.15
				c0.03,0.03,0.05,0.08,0.05,0.15c0,0.07-0.02,0.15-0.05,0.25c-0.07,0.03-0.15,0.05-0.25,0.05h-6.1
				C162.61,34,162.54,33.99,162.47,33.96z M162.72,36.4c-0.1-0.07-0.15-0.13-0.15-0.2c0-0.07,0.05-0.13,0.15-0.2
				c0.03-0.07,0.08-0.1,0.15-0.1h6.1c0.07,0,0.15,0.03,0.25,0.1c0.03,0.07,0.05,0.13,0.05,0.2c0,0.07-0.02,0.13-0.05,0.2
				c-0.1,0.07-0.18,0.1-0.25,0.1h-6.1C162.81,36.5,162.76,36.47,162.72,36.4z M162.47,35c0-0.1,0.03-0.17,0.1-0.2
				c0.07-0.07,0.12-0.1,0.15-0.1h6.15c0.1,0,0.17,0.03,0.2,0.1c0.1,0.03,0.15,0.1,0.15,0.2c0,0.07-0.05,0.12-0.15,0.15
				c-0.03,0.1-0.1,0.15-0.2,0.15h-6.15c-0.03,0-0.08-0.05-0.15-0.15C162.51,35.12,162.47,35.07,162.47,35z M162.72,37.46
				c0-0.13,0.03-0.2,0.1-0.2c0.07-0.1,0.13-0.15,0.2-0.15h6.1c0.07,0,0.13,0.05,0.2,0.15c0.07,0,0.1,0.07,0.1,0.2
				c0,0.07-0.03,0.12-0.1,0.15c-0.07,0.07-0.13,0.1-0.2,0.1h-6.1c-0.07,0-0.13-0.03-0.2-0.1C162.76,37.57,162.72,37.52,162.72,37.46
				z M163.27,38.36h6c0.1,0,0.18,0.03,0.25,0.1c0.03,0.03,0.05,0.1,0.05,0.2c0,0.07-0.02,0.13-0.05,0.2
				c-0.07,0.03-0.15,0.05-0.25,0.05h-6c-0.1,0-0.18-0.02-0.25-0.05c-0.03-0.07-0.05-0.13-0.05-0.2c0-0.1,0.02-0.17,0.05-0.2
				C163.09,38.39,163.18,38.36,163.27,38.36z M163.18,40.06c-0.03-0.07-0.05-0.13-0.05-0.2c0-0.07,0.02-0.13,0.05-0.2
				c0.07-0.07,0.15-0.1,0.25-0.1h6.1c0.03,0,0.08,0.03,0.15,0.1c0.07,0.07,0.1,0.13,0.1,0.2c0,0.07-0.03,0.13-0.1,0.2
				c-0.07,0.03-0.12,0.05-0.15,0.05h-6.1C163.33,40.11,163.24,40.09,163.18,40.06z M170.27,42.06c0.07,0.07,0.1,0.12,0.1,0.15
				c0,0.07-0.03,0.15-0.1,0.25c-0.07,0.03-0.13,0.05-0.2,0.05h-6.15c-0.1,0-0.18-0.02-0.25-0.05c-0.03-0.1-0.05-0.18-0.05-0.25
				c0-0.03,0.02-0.08,0.05-0.15c0.07-0.07,0.15-0.1,0.25-0.1h6.15C170.14,41.95,170.21,41.99,170.27,42.06z M170.02,41.01
				c0,0.07-0.03,0.13-0.1,0.2c-0.07,0.03-0.12,0.05-0.15,0.05h-6.15c-0.07,0-0.13-0.02-0.2-0.05c-0.07-0.07-0.1-0.13-0.1-0.2
				c0-0.03,0.03-0.07,0.1-0.1c0.07-0.07,0.13-0.1,0.2-0.1h6.15c0.03,0,0.08,0.03,0.15,0.1C169.99,40.94,170.02,40.97,170.02,41.01z"
				/>
		</g>
		<g>
			
				<linearGradient id="SVGID_20_" gradientUnits="userSpaceOnUse" x1="-675.3115" y1="2129.0625" x2="-650.0212" y2="2129.0625" gradientTransform="matrix(-0.263 0.9648 0.9534 0.3049 -2115.1826 15.8362)">
				<stop  offset="0" style="stop-color:#000000"/>
				<stop  offset="1" style="stop-color:#000000;stop-opacity:0.498"/>
			</linearGradient>
			<path fill="url(#SVGID_20_)" d="M103.63,18.15V40.1l-1.6,1.7H73.97l-1.6-1.7c2.5-7.47,2.5-14.78,0-21.95l1.6-1.7h28.05
				L103.63,18.15z"/>
		</g>
		<g>
			<g>
				
					<linearGradient id="SVGID_21_" gradientUnits="userSpaceOnUse" x1="-777.6304" y1="-436.1387" x2="-749.3049" y2="-436.1387" gradientTransform="matrix(1 1.600000e-003 1.600000e-003 -1 855.9836 -362.2078)">
					<stop  offset="0" style="stop-color:#151717"/>
					<stop  offset="0.2824" style="stop-color:#FFFFFF"/>
					<stop  offset="0.3373" style="stop-color:#E7E9E8"/>
					<stop  offset="0.4471" style="stop-color:#B4B8B9"/>
					<stop  offset="0.6275" style="stop-color:#FFFFFF"/>
					<stop  offset="0.7412" style="stop-color:#889297"/>
					<stop  offset="1" style="stop-color:#434D4F"/>
				</linearGradient>
				<path fill="url(#SVGID_21_)" d="M106.38,67.95v0.6v5.65v0.9c0,0.07,0,0.12,0,0.15v0.05c-0.1,0.7-1.15,1.2-3.15,1.5
					c-6.07,0.67-11.95,0.85-17.65,0.55c-2.17-0.1-4.3-0.27-6.4-0.5c-0.13-0.03-0.25-0.05-0.35-0.05v-0.15h-0.55
					c-1.07-0.27-1.6-0.57-1.6-0.9l-0.05-7.25v-0.55c0.13,0.23,1.57,0.43,4.3,0.6c1,0.07,2.02,0.12,3.05,0.15
					c2.07,0.07,4.33,0.12,6.8,0.15c0.23,0,0.47,0,0.7,0c4.1,0,7.6-0.1,10.5-0.3C104.84,68.39,106.31,68.19,106.38,67.95z"/>
				
					<linearGradient id="SVGID_22_" gradientUnits="userSpaceOnUse" x1="-897.354" y1="-453.8516" x2="-865.3696" y2="-453.8516" gradientTransform="matrix(0.9997 -0.0242 -0.0817 -0.9983 932.951 -406.4303)">
					<stop  offset="0" style="stop-color:#000000"/>
					<stop  offset="1" style="stop-color:#8C8E8E"/>
				</linearGradient>
				<path fill="url(#SVGID_22_)" d="M106.38,67.95c-0.07,0.23-1.53,0.43-4.4,0.6c-2.9,0.2-6.4,0.3-10.5,0.3c-0.23,0-0.47,0-0.7,0
					c-2.47-0.03-4.73-0.08-6.8-0.15c-1.03-0.03-2.05-0.08-3.05-0.15c-2.73-0.17-4.17-0.37-4.3-0.6c-0.03,0-0.05-0.02-0.05-0.05
					l0.05-0.05c0.1-0.1,0.38-0.18,0.85-0.25c0.73-0.13,1.88-0.25,3.45-0.35c1-0.03,2.03-0.08,3.1-0.15h0.05v1.1
					c2.23,0.2,4.48,0.3,6.75,0.3c0.2,0,0.4,0,0.6,0c2.1,0,4.25-0.1,6.45-0.3v-1.1c1.5,0,2.87,0.05,4.1,0.15
					c1.6,0.1,2.75,0.22,3.45,0.35C105.99,67.74,106.31,67.86,106.38,67.95z"/>
				
					<linearGradient id="SVGID_23_" gradientUnits="userSpaceOnUse" x1="-766.3804" y1="-427.3018" x2="-752.7543" y2="-427.3018" gradientTransform="matrix(1 5.100000e-003 5.100000e-003 -1 852.7697 -356.4592)">
					<stop  offset="0" style="stop-color:#B0B7BA"/>
					<stop  offset="0.2392" style="stop-color:#B4B8B9"/>
					<stop  offset="0.4235" style="stop-color:#FFFFFF"/>
					<stop  offset="0.5333" style="stop-color:#FFFFFF"/>
					<stop  offset="0.8" style="stop-color:#889297"/>
					<stop  offset="1" style="stop-color:#161B1B"/>
				</linearGradient>
				<path fill="url(#SVGID_23_)" d="M84.07,67.11l0.05-1.65c0.17,0.07,0.82,0.13,1.95,0.2c1.37,0.07,3.02,0.1,4.95,0.1
					c1.9,0,3.52-0.03,4.85-0.1c1.2-0.07,1.87-0.13,2-0.2v1.65v1.1c-2.2,0.2-4.35,0.3-6.45,0.3c-0.2,0-0.4,0-0.6,0
					c-2.27,0-4.52-0.1-6.75-0.3V67.11z"/>
				
					<linearGradient id="SVGID_24_" gradientUnits="userSpaceOnUse" x1="-568.3418" y1="1814.7129" x2="-56.3786" y2="1814.7129" gradientTransform="matrix(2.444988e-004 1 1 7.610558e-004 -1723.6604 356.7331)">
					<stop  offset="0" style="stop-color:#000000"/>
					<stop  offset="1" style="stop-color:#8C8E8E"/>
				</linearGradient>
				<path fill="url(#SVGID_24_)" d="M84.13,65.45c-0.03,0-0.05-0.02-0.05-0.05v-0.05c0-0.1,0.67-0.15,2-0.15
					c1.37-0.1,3.02-0.15,4.95-0.15c1.9,0,3.52,0.05,4.85,0.15c1.2,0,1.87,0.05,2,0.15v0.1c-0.13,0.07-0.8,0.13-2,0.2
					c-1.33,0.07-2.95,0.1-4.85,0.1c-1.93,0-3.58-0.03-4.95-0.1C84.94,65.59,84.29,65.52,84.13,65.45z"/>
			</g>
			<g>
				<path fill-opacity="0.2471" d="M76.68,68.11c0.23,0.03,0.43,0.07,0.6,0.1v8.05c-0.23-0.1-0.43-0.17-0.6-0.2V68.11z M78.22,68.26
					c0.17,0.03,0.35,0.07,0.55,0.1v8.25c-0.23-0.03-0.42-0.07-0.55-0.1V68.26z M82.93,68.61c0.17,0.03,0.37,0.05,0.6,0.05v8.55
					c-0.23-0.03-0.43-0.05-0.6-0.05V68.61z M79.88,68.4c0.17,0,0.33,0.02,0.5,0.05v8.4c-0.17,0-0.33-0.02-0.5-0.05V68.4z
					 M81.28,68.51c0.2,0,0.38,0.02,0.55,0.05v8.5c-0.17-0.03-0.35-0.05-0.55-0.05V68.51z M89.13,68.81c0.17,0,0.33,0.02,0.5,0.05
					v8.65c-0.17-0.03-0.33-0.05-0.5-0.05V68.81z M86.03,68.7c0.2,0.03,0.38,0.05,0.55,0.05v8.6c-0.17,0-0.35,0-0.55,0V68.7z
					 M84.43,68.7c0.17,0,0.33,0,0.5,0v8.6c-0.17,0-0.33-0.02-0.5-0.05V68.7z M87.53,68.81c0.17,0,0.35,0,0.55,0v8.6
					c-0.2,0-0.38,0-0.55,0V68.81z M90.53,68.86c0.2,0,0.38,0,0.55,0v8.65c-0.17,0-0.35,0-0.55,0V68.86z M92.18,68.86
					c0.2,0,0.4,0,0.6,0v8.65c-0.2,0-0.4,0-0.6,0V68.86z M93.68,68.86c0.17-0.03,0.35-0.05,0.55-0.05v8.65c-0.2,0-0.38,0-0.55,0
					V68.86z M96.68,68.76c0.2,0,0.4-0.02,0.6-0.05v8.6c-0.2,0-0.4,0.02-0.6,0.05V68.76z M95.28,68.81c0.17,0,0.33,0,0.5,0v8.6
					c-0.17,0-0.33,0-0.5,0V68.81z M98.32,68.7c0.17,0,0.35,0,0.55,0v8.5c-0.2,0.03-0.38,0.05-0.55,0.05V68.7z M103.13,68.45
					c0.17-0.03,0.35-0.05,0.55-0.05v8.25c-0.2,0.03-0.38,0.08-0.55,0.15V68.45z M101.47,68.56c0.17,0,0.37-0.02,0.6-0.05v8.45
					c-0.03,0-0.08,0-0.15,0c-0.13,0-0.28,0-0.45,0V68.56L101.47,68.56z M99.78,68.65c0.2,0,0.38,0,0.55,0v8.45
					c-0.17,0-0.35,0.02-0.55,0.05V68.65z M104.57,76.45v-8.1c0.2,0,0.38-0.03,0.55-0.1v8.1C104.96,76.42,104.78,76.45,104.57,76.45z
					"/>
				<g>
					<path fill="#BA6565" fill-opacity="0.451" d="M76.47,75.51l0.05,0.25c-0.03,0-0.05-0.05-0.05-0.15
						C76.47,75.57,76.47,75.54,76.47,75.51z"/>
				</g>
			</g>
			<g>
				<path fill="#FFFFFF" fill-opacity="0.451" d="M105.78,76.11c-0.13,0-0.3,0.05-0.5,0.15c-0.03,0-0.05-0.02-0.05-0.05v-7.35
					c0.07,0,0.13,0,0.2,0c0.13,0,0.25,0,0.35,0L105.78,76.11L105.78,76.11z M94.88,69.4v8c-0.2,0-0.4,0-0.6,0v-7.95
					C94.47,69.42,94.68,69.4,94.88,69.4z M99.53,69.31v7.8c-0.17,0.03-0.35,0.05-0.55,0.05v-7.85
					C99.18,69.31,99.36,69.31,99.53,69.31z M95.88,69.4c0.17,0,0.35,0,0.55,0v7.9c-0.2,0-0.38,0.02-0.55,0.05V69.4z M97.32,69.36
					c0.2,0,0.38,0,0.55,0v7.9c-0.17,0-0.35,0.02-0.55,0.05V69.36z M103.72,69.01c0.2,0,0.4-0.02,0.6-0.05v7.6
					c-0.2,0.03-0.37,0.08-0.5,0.15c-0.07-0.03-0.1-0.07-0.1-0.1V69.01z M102.07,69.15c0.23-0.03,0.43-0.07,0.6-0.1v7.8
					c-0.17,0-0.37,0.02-0.6,0.05V69.15z M100.43,69.26c0.17-0.03,0.37-0.05,0.6-0.05v7.8c-0.23,0-0.43,0.02-0.6,0.05V69.26z
					 M85.03,69.36c0.2,0,0.4,0.02,0.6,0.05v7.95c-0.2-0.03-0.4-0.05-0.6-0.05V69.36z M87.22,69.4v8.05
					c-0.2-0.03-0.38-0.05-0.55-0.05v-8C86.84,69.4,87.03,69.4,87.22,69.4z M90.28,69.45v8.05c-0.17,0-0.35,0-0.55,0v-8.05
					C89.93,69.45,90.11,69.45,90.28,69.45z M91.78,69.45v8.05c-0.2,0-0.38,0-0.55,0v-8.05h0.15C91.51,69.45,91.64,69.45,91.78,69.45
					z M92.82,69.45c0.2,0,0.38,0,0.55,0v8c-0.17,0-0.35,0.02-0.55,0.05V69.45z M88.68,69.45v8.05c-0.2,0-0.38-0.02-0.55-0.05v-8
					C88.29,69.45,88.47,69.45,88.68,69.45z M82.53,69.26v7.9c-0.2,0-0.38-0.02-0.55-0.05v-7.85C82.14,69.26,82.32,69.26,82.53,69.26
					z M80.47,69.15c0.2,0,0.38,0,0.55,0V77c-0.17,0-0.35-0.02-0.55-0.05V69.15z M84.13,69.36v7.95c-0.17-0.03-0.35-0.05-0.55-0.05
					v-7.95C83.78,69.31,83.96,69.32,84.13,69.36z M77.93,68.9v7.6c0,0.03,0,0.07,0,0.1c-0.23-0.1-0.42-0.17-0.55-0.2v-7.55
					C77.54,68.86,77.72,68.87,77.93,68.9z M79.18,76.86c-0.13-0.03-0.25-0.05-0.35-0.05v-7.8c0.2,0.03,0.4,0.05,0.6,0.05v7.8
					C79.32,76.86,79.24,76.86,79.18,76.86z"/>
			</g>
			<g>
				
					<linearGradient id="SVGID_25_" gradientUnits="userSpaceOnUse" x1="-760.209" y1="-400.0615" x2="-755.7079" y2="-400.0615" gradientTransform="matrix(1 6.800000e-003 6.800000e-003 -1 851.1646 -353.6382)">
					<stop  offset="0" style="stop-color:#727B81"/>
					<stop  offset="0.2039" style="stop-color:#FFFFFF"/>
					<stop  offset="0.4431" style="stop-color:#A9AEB2"/>
					<stop  offset="0.5882" style="stop-color:#798086"/>
					<stop  offset="0.7529" style="stop-color:#969EA3"/>
					<stop  offset="1" style="stop-color:#6B777B"/>
				</linearGradient>
				<path fill="url(#SVGID_25_)" d="M93.57,17.06l-0.25,47.65c-0.03,0.03-0.08,0.1-0.15,0.2c-0.17,0.1-0.4,0.2-0.7,0.3
					c-0.53,0.23-1.22,0.35-2.05,0.35c-0.8,0-1.52-0.12-2.15-0.35c-0.1-0.03-0.22-0.08-0.35-0.15l0.05-48.1L93.57,17.06z"/>
			</g>
			<g>
				
					<radialGradient id="SVGID_26_" cx="-289.6772" cy="942.0908" r="8.1499" gradientTransform="matrix(1.500000e-003 1 -1.8021 -1.500000e-003 1789.6191 359.6307)" gradientUnits="userSpaceOnUse">
					<stop  offset="0" style="stop-color:#FFFFFF"/>
					<stop  offset="1" style="stop-color:#FFFFFF;stop-opacity:0"/>
				</radialGradient>
				<path fill="url(#SVGID_26_)" d="M106.22,68.76c-0.1,0.03-0.23,0.07-0.4,0.1c-9.73,0.87-19.38,0.85-28.95-0.05
					c-0.13-0.03-0.25-0.07-0.35-0.1c-0.07-0.1-0.08-0.2-0.05-0.3c0.03-0.03,0.1-0.08,0.2-0.15c0.13-0.07,0.28-0.08,0.45-0.05
					c9.4,0.87,18.92,0.87,28.55,0c0.17,0,0.32,0.03,0.45,0.1c0.1,0.07,0.15,0.12,0.15,0.15C106.34,68.56,106.32,68.65,106.22,68.76z
					"/>
				
					<radialGradient id="SVGID_27_" cx="-282.0767" cy="941.7275" r="8.15" gradientTransform="matrix(1.500000e-003 1 -1.8021 -1.500000e-003 1788.6055 359.6297)" gradientUnits="userSpaceOnUse">
					<stop  offset="0" style="stop-color:#000000;stop-opacity:0.2902"/>
					<stop  offset="1" style="stop-color:#FFFFFF;stop-opacity:0"/>
				</radialGradient>
				<path fill="url(#SVGID_27_)" d="M104.93,76.2c0.03,0.07,0.02,0.15-0.05,0.25c-0.1,0.07-0.22,0.12-0.35,0.15
					c-9.07,1.23-18.07,1.22-27-0.05c-0.17,0-0.28-0.05-0.35-0.15c-0.07-0.1-0.08-0.17-0.05-0.2c0.03-0.1,0.12-0.18,0.25-0.25
					c0.13-0.03,0.27-0.03,0.4,0c8.77,1.27,17.58,1.27,26.45,0c0.17-0.03,0.33,0,0.5,0.1C104.82,76.09,104.89,76.14,104.93,76.2z"/>
				
					<radialGradient id="SVGID_28_" cx="-293.2451" cy="941.0107" r="3.9494" gradientTransform="matrix(1.265823e-004 1 -1.8006 -3.200000e-003 1785.2615 361.9796)" gradientUnits="userSpaceOnUse">
					<stop  offset="0" style="stop-color:#FFFFFF"/>
					<stop  offset="1" style="stop-color:#FFFFFF;stop-opacity:0"/>
				</radialGradient>
				<path fill="url(#SVGID_28_)" d="M98.03,65.7c0,0.1-0.05,0.18-0.15,0.25c-0.1,0.07-0.22,0.1-0.35,0.1
					c-4.27,0.37-8.62,0.38-13.05,0.05c-0.17,0-0.3-0.03-0.4-0.1s-0.13-0.15-0.1-0.25c0-0.07,0.08-0.13,0.25-0.2
					c0.1-0.03,0.23-0.05,0.4-0.05c4.33,0.33,8.58,0.32,12.75-0.05c0.13-0.03,0.27-0.02,0.4,0.05C97.91,65.54,97.99,65.61,98.03,65.7
					z"/>
			</g>
		</g>
		<g>
			<g>
				
					<linearGradient id="SVGID_29_" gradientUnits="userSpaceOnUse" x1="-1417.4102" y1="2520.9648" x2="-1341.8647" y2="2520.9648" gradientTransform="matrix(-0.8088 0.5881 0.7096 0.7204 -2790.1907 -992.7177)">
					<stop  offset="0" style="stop-color:#B0B7BA"/>
					<stop  offset="0.2392" style="stop-color:#B4B8B9"/>
					<stop  offset="0.4235" style="stop-color:#FFFFFF"/>
					<stop  offset="0.8" style="stop-color:#889297"/>
					<stop  offset="0.902" style="stop-color:#6B757A"/>
					<stop  offset="0.9608" style="stop-color:#646F75"/>
				</linearGradient>
				<polygon fill="url(#SVGID_29_)" points="104.82,38.96 77.32,38.96 75.78,37.65 75.78,20.56 77.32,19.21 104.82,19.21 
					106.43,20.61 106.43,37.71 				"/>
			</g>
			<g>
				
					<radialGradient id="SVGID_30_" cx="-338.105" cy="769.1299" r="16.8771" gradientTransform="matrix(2.962963e-005 1 -1.163 -2.962963e-005 984.5072 357.4845)" gradientUnits="userSpaceOnUse">
					<stop  offset="0" style="stop-color:#FFFFFF"/>
					<stop  offset="1" style="stop-color:#FFFFFF;stop-opacity:0"/>
				</radialGradient>
				<path fill="url(#SVGID_30_)" d="M77.53,19.5h-0.05c-0.03,0-0.07-0.02-0.1-0.05c-0.03-0.03-0.05-0.07-0.05-0.1l0.05-0.05v-0.05
					c0.03-0.03,0.07-0.05,0.1-0.05h27.1c0.07,0,0.12,0.02,0.15,0.05s0.05,0.07,0.05,0.1c0,0.03-0.02,0.07-0.05,0.1
					c-0.03,0.03-0.08,0.05-0.15,0.05H77.53z"/>
				
					<radialGradient id="SVGID_31_" cx="-337.7324" cy="757.9453" r="1.4879" gradientTransform="matrix(3.361345e-004 1 -1.1681 -3.361345e-004 962.0234 357.9459)" gradientUnits="userSpaceOnUse">
					<stop  offset="0" style="stop-color:#FFFFFF"/>
					<stop  offset="1" style="stop-color:#FFFFFF;stop-opacity:0"/>
				</radialGradient>
				<path fill="url(#SVGID_31_)" d="M77.38,19.31l-0.05,0.05c0,0.03,0.02,0.07,0.05,0.1c0.03,0.03,0.07,0.05,0.1,0.05h0.05l-1.4,1.2
					v-0.15h-0.05c0-0.07-0.02-0.1-0.05-0.1h-0.05L77.38,19.31z"/>
				
					<radialGradient id="SVGID_32_" cx="-330.6777" cy="754.9775" r="8.4253" gradientTransform="matrix(5.934718e-005 1 -1.1632 -5.934718e-005 953.9841 357.5293)" gradientUnits="userSpaceOnUse">
					<stop  offset="0" style="stop-color:#FFFFFF"/>
					<stop  offset="1" style="stop-color:#FFFFFF;stop-opacity:0"/>
				</radialGradient>
				<path fill="url(#SVGID_32_)" d="M75.97,20.46h0.05c0.03,0,0.05,0.03,0.05,0.1h0.05v0.15v16.5l-0.05,0.1
					c0,0.03-0.02,0.05-0.05,0.05c-0.07,0-0.1-0.02-0.1-0.05v-16.8L75.97,20.46z"/>
			</g>
			<g>
				
					<radialGradient id="SVGID_33_" cx="-337.6299" cy="964.8252" r="4.7993" gradientTransform="matrix(1.041667e-004 1 -1.9323 -1.041667e-004 1957.73 357.5882)" gradientUnits="userSpaceOnUse">
					<stop  offset="0" style="stop-color:#FFFFFF"/>
					<stop  offset="0.4078" style="stop-color:#FFFFFF;stop-opacity:0.8863"/>
					<stop  offset="0.4784" style="stop-color:#FFFFFF;stop-opacity:0.8941"/>
					<stop  offset="1" style="stop-color:#FFFFFF;stop-opacity:0"/>
				</radialGradient>
				<path fill="url(#SVGID_33_)" d="M106.18,20.25l-25.7-0.05c-0.1,0-0.18-0.03-0.25-0.1c-0.1-0.1-0.15-0.18-0.15-0.25
					c0-0.1,0.05-0.2,0.15-0.3c0.07-0.1,0.15-0.15,0.25-0.15h24.65L106.18,20.25z"/>
				
					<radialGradient id="SVGID_34_" cx="-328.937" cy="784.6963" r="7.8544" gradientTransform="matrix(6.369427e-005 1 -1.1624 -6.369427e-005 1017.9882 357.5399)" gradientUnits="userSpaceOnUse">
					<stop  offset="0" style="stop-color:#FFFFFF"/>
					<stop  offset="1" style="stop-color:#FFFFFF;stop-opacity:0"/>
				</radialGradient>
				<path fill="url(#SVGID_34_)" d="M105.82,20.61c0.1,0,0.2,0.07,0.3,0.2c0.03,0.07,0.05,0.15,0.05,0.25v15.05
					c0,0.1-0.02,0.2-0.05,0.3c-0.1,0.07-0.2,0.1-0.3,0.1c-0.1-0.03-0.18-0.08-0.25-0.15c-0.07-0.1-0.1-0.2-0.1-0.3V21
					c0-0.1,0.03-0.18,0.1-0.25C105.64,20.62,105.72,20.57,105.82,20.61z"/>
			</g>
			<g>
				<g>
					<path fill-opacity="0.2431" d="M79.78,28.36c0.33,0.3,0.5,0.68,0.5,1.15c0,0.47-0.17,0.85-0.5,1.15c-0.3,0.33-0.67,0.5-1.1,0.5
						c-0.47,0-0.87-0.17-1.2-0.5c-0.3-0.3-0.45-0.68-0.45-1.15c0-0.47,0.15-0.85,0.45-1.15c0.33-0.3,0.73-0.45,1.2-0.45
						C79.11,27.9,79.47,28.06,79.78,28.36z"/>
				</g>
				<g>
					
						<radialGradient id="SVGID_35_" cx="-328.938" cy="678.8203" r="2.1253" gradientTransform="matrix(2.352941e-004 1 -1 -2.352942e-004 757.2174 357.8057)" gradientUnits="userSpaceOnUse">
						<stop  offset="0" style="stop-color:#CCCBCB"/>
						<stop  offset="1" style="stop-color:#000000"/>
					</radialGradient>
					<path fill="url(#SVGID_35_)" d="M80.22,27.75c0.3,0.37,0.45,0.77,0.45,1.2c0,0.47-0.15,0.87-0.45,1.2
						c-0.33,0.3-0.73,0.45-1.2,0.45s-0.87-0.15-1.2-0.45c-0.27-0.33-0.4-0.73-0.4-1.2c0-0.43,0.13-0.83,0.4-1.2
						c0.33-0.27,0.73-0.4,1.2-0.4C79.49,27.36,79.89,27.49,80.22,27.75z"/>
				</g>
			</g>
			<g>
				<g>
					<path fill-opacity="0.2431" d="M101.68,28.36c0.3-0.3,0.7-0.45,1.2-0.45c0.43,0,0.82,0.15,1.15,0.45
						c0.33,0.3,0.5,0.68,0.5,1.15c0,0.47-0.17,0.85-0.5,1.15c-0.33,0.33-0.72,0.5-1.15,0.5c-0.5,0-0.9-0.17-1.2-0.5
						c-0.3-0.3-0.45-0.68-0.45-1.15C101.22,29.04,101.38,28.65,101.68,28.36z"/>
				</g>
				<g>
					
						<radialGradient id="SVGID_36_" cx="-328.9443" cy="702.9707" r="2.1243" gradientTransform="matrix(2.352941e-004 1 -1 -2.352942e-004 805.5201 357.8174)" gradientUnits="userSpaceOnUse">
						<stop  offset="0" style="stop-color:#CCCBCB"/>
						<stop  offset="1" style="stop-color:#000000"/>
					</radialGradient>
					<path fill="url(#SVGID_36_)" d="M102.07,27.75c0.33-0.27,0.73-0.4,1.2-0.4c0.43,0,0.82,0.13,1.15,0.4
						c0.33,0.37,0.5,0.77,0.5,1.2c0,0.47-0.17,0.87-0.5,1.2c-0.33,0.3-0.72,0.45-1.15,0.45c-0.47,0-0.87-0.15-1.2-0.45
						c-0.3-0.33-0.45-0.73-0.45-1.2C101.63,28.52,101.78,28.12,102.07,27.75z"/>
				</g>
			</g>
		</g>
	</g>
	<g>
		
			<radialGradient id="SVGID_37_" cx="-824.8774" cy="-381.5264" r="1.3999" gradientTransform="matrix(1 0 0 -1 857.5 -364.8701)" gradientUnits="userSpaceOnUse">
			<stop  offset="0" style="stop-color:#FFFFFF"/>
			<stop  offset="1" style="stop-color:#E6DCD2;stop-opacity:0"/>
		</radialGradient>
		<path fill="url(#SVGID_37_)" d="M33.82,17.31c0,0.07-0.03,0.12-0.1,0.15c-0.03,0.07-0.1,0.08-0.2,0.05c-0.07,0-0.12-0.03-0.15-0.1
			c-0.63-0.83-1.18-1.2-1.65-1.1c-0.1,0-0.17,0-0.2,0c-0.07-0.07-0.12-0.12-0.15-0.15c0-0.1,0-0.18,0-0.25
			c0.03-0.07,0.08-0.1,0.15-0.1c0.73-0.27,1.5,0.17,2.3,1.3C33.86,17.17,33.86,17.24,33.82,17.31z"/>
		
			<radialGradient id="SVGID_38_" cx="-824.8276" cy="-382.9766" r="0.9371" gradientTransform="matrix(1 0 0 -1 857.5 -364.8701)" gradientUnits="userSpaceOnUse">
			<stop  offset="0" style="stop-color:#FFFFFF;stop-opacity:0.6706"/>
			<stop  offset="1" style="stop-color:#E6DCD2;stop-opacity:0"/>
		</radialGradient>
		<path fill="url(#SVGID_38_)" d="M32.22,18.56c-0.03-0.03-0.08-0.05-0.15-0.05v-0.05l-0.05-0.05c-0.03-0.1-0.03-0.17,0-0.2
			c0.2-0.37,0.42-0.57,0.65-0.6c0.3-0.03,0.58,0.1,0.85,0.4c0.07,0.03,0.1,0.1,0.1,0.2c0,0.03-0.03,0.1-0.1,0.2c-0.03,0-0.1,0-0.2,0
			c-0.03,0-0.1,0-0.2,0c-0.1-0.2-0.22-0.3-0.35-0.3c-0.1,0.03-0.2,0.13-0.3,0.3c-0.03,0.07-0.08,0.12-0.15,0.15
			C32.29,18.56,32.26,18.56,32.22,18.56z"/>
		
			<linearGradient id="SVGID_39_" gradientUnits="userSpaceOnUse" x1="-826.0874" y1="-383.0283" x2="-826.0874" y2="-402.1273" gradientTransform="matrix(1 0 0 -1 857.5 -364.8701)">
			<stop  offset="0" style="stop-color:#FFFFFF;stop-opacity:0"/>
			<stop  offset="0.5412" style="stop-color:#FFFFFF"/>
			<stop  offset="1" style="stop-color:#E6DCD2;stop-opacity:0"/>
		</linearGradient>
		<path fill="url(#SVGID_39_)" d="M32.22,18.56l0.05,0.05c0.03,0.07,0.03,0.13,0,0.2c-1.37,5.5-1.6,11.55-0.7,18.15
			c0.03,0.07,0.02,0.13-0.05,0.2c0,0.03-0.05,0.07-0.15,0.1c-0.07,0.03-0.13,0-0.2-0.1c-0.03,0-0.07-0.05-0.1-0.15
			c-0.9-6.7-0.67-12.8,0.7-18.3c0.03-0.07,0.08-0.12,0.15-0.15c0.07-0.07,0.12-0.1,0.15-0.1v0.05
			C32.14,18.5,32.19,18.52,32.22,18.56z"/>
		
			<radialGradient id="SVGID_40_" cx="-824.7285" cy="-405.1279" r="1.0505" gradientTransform="matrix(1 0 0 -1 857.5 -364.8701)" gradientUnits="userSpaceOnUse">
			<stop  offset="0" style="stop-color:#FFFFFF;stop-opacity:0.2824"/>
			<stop  offset="1" style="stop-color:#E6DCD2;stop-opacity:0"/>
		</radialGradient>
		<path fill="url(#SVGID_40_)" d="M32.07,38c0.07,0.03,0.1,0.08,0.1,0.15c0.23,1.13,0.43,1.82,0.6,2.05c0.2,0.2,0.43,0.25,0.7,0.15
			c0.07-0.03,0.13-0.03,0.2,0c0.07,0,0.12,0.05,0.15,0.15c0,0.03,0,0.1,0,0.2c-0.03,0.07-0.08,0.12-0.15,0.15
			c-0.5,0.13-0.92,0.03-1.25-0.3c-0.23-0.27-0.48-1.03-0.75-2.3c-0.03-0.07-0.02-0.13,0.05-0.2c0-0.07,0.05-0.1,0.15-0.1
			C31.94,37.92,32.01,37.94,32.07,38z"/>
	</g>
</g>
</svg>
