<?xml version="1.0" encoding="utf-8"?>
<!-- Generator: Adobe Illustrator 16.0.0, SVG Export Plug-In . SVG Version: 6.00 Build 0)  -->
<!DOCTYPE svg PUBLIC "-//W3C//DTD SVG 1.1//EN" "http://www.w3.org/Graphics/SVG/1.1/DTD/svg11.dtd">
<svg version="1.1" id="Layer_1" xmlns="http://www.w3.org/2000/svg" xmlns:xlink="http://www.w3.org/1999/xlink" x="0px" y="0px"
	 width="128.27px" height="119.25px" viewBox="108.27 23.25 128.27 119.25" enable-background="new 108.27 23.25 128.27 119.25"
	 xml:space="preserve">
<g id="Layer_3">
	<g id="Layer_1_1_">
		<g>
			<g>
				<g>
					<g>
						<g>
							
								<linearGradient id="SVGID_1_" gradientUnits="userSpaceOnUse" x1="-3699.5195" y1="-1788.292" x2="-3684.136" y2="-1788.292" gradientTransform="matrix(-0.9997 0.026 -0.0433 -0.9992 -3613.3967 -1653.071)">
								<stop  offset="0" style="stop-color:#000000"/>
								<stop  offset="1" style="stop-color:#8C8E8E"/>
							</linearGradient>
							<path fill="url(#SVGID_1_)" d="M157.13,38.48v-0.85c-1.03-0.17-2.13-0.25-3.3-0.25c-0.1,0-0.18,0-0.25,0
								c-1.03-0.03-2.05,0.02-3.05,0.15v0.85c-0.73,0-1.4-0.02-2-0.05c-0.77-0.1-1.32-0.2-1.65-0.3c-0.27-0.07-0.4-0.15-0.4-0.25
								c0-0.17,0.68-0.32,2.05-0.45c1.4-0.17,3.05-0.22,4.95-0.15c0.13,0,0.25,0,0.35,0c1.2,0,2.32,0.02,3.35,0.05
								c0.5,0.07,0.97,0.12,1.4,0.15c1.37,0.17,2.07,0.35,2.1,0.55c-0.03,0.13-0.17,0.22-0.4,0.25c-0.37,0.1-0.93,0.17-1.7,0.2
								c-0.43,0-0.9,0.03-1.4,0.1H157.13z"/>
							
								<linearGradient id="SVGID_2_" gradientUnits="userSpaceOnUse" x1="-3788.0244" y1="-1736.9663" x2="-3774.3484" y2="-1736.9663" gradientTransform="matrix(-0.9999 -0.0112 0.0112 -0.9999 -3607.9587 -1744.979)">
								<stop  offset="0" style="stop-color:#151717"/>
								<stop  offset="0.2824" style="stop-color:#FFFFFF"/>
								<stop  offset="0.3373" style="stop-color:#E7E9E8"/>
								<stop  offset="0.4471" style="stop-color:#B4B8B9"/>
								<stop  offset="0.6275" style="stop-color:#FFFFFF"/>
								<stop  offset="0.7412" style="stop-color:#889297"/>
								<stop  offset="1" style="stop-color:#434D4F"/>
							</linearGradient>
							<path fill="url(#SVGID_2_)" d="M146.47,37.78v-0.45l-0.09-4.35l0.1-0.65c0-0.07,0-0.12,0-0.15c0.03-0.6,0.53-0.98,1.5-1.15
								c2.87-0.53,5.68-0.68,8.45-0.45c1.07,0.1,2.1,0.27,3.1,0.5c0.07,0.07,0.13,0.1,0.2,0.1v0.1h0.25c0.5,0.2,0.75,0.42,0.75,0.65
								l-0.05,5.55v0.45c-0.03-0.2-0.73-0.38-2.1-0.55c-0.43-0.03-0.9-0.08-1.4-0.15c-1.03-0.03-2.15-0.05-3.35-0.05
								c-0.1,0-0.22,0-0.35,0c-1.9-0.07-3.55-0.02-4.95,0.15C147.16,37.46,146.47,37.61,146.47,37.78z"/>
							
								<linearGradient id="SVGID_3_" gradientUnits="userSpaceOnUse" x1="-3780.3818" y1="-1730.8545" x2="-3773.8311" y2="-1730.8545" gradientTransform="matrix(-0.9998 -0.0191 8.400000e-003 -1 -3607.99 -1764.4636)">
								<stop  offset="0" style="stop-color:#B0B7BA"/>
								<stop  offset="0.2392" style="stop-color:#B4B8B9"/>
								<stop  offset="0.4235" style="stop-color:#FFFFFF"/>
								<stop  offset="0.5333" style="stop-color:#FFFFFF"/>
								<stop  offset="0.8" style="stop-color:#889297"/>
								<stop  offset="1" style="stop-color:#161B1B"/>
							</linearGradient>
							<path fill="url(#SVGID_3_)" d="M157.13,38.48v1.25c-0.1-0.07-0.43-0.12-1-0.15c-0.63-0.07-1.42-0.1-2.35-0.1
								c-0.93-0.03-1.73-0.03-2.4,0c-0.53,0.07-0.82,0.12-0.85,0.15v-1.25v-0.85c1-0.13,2.02-0.18,3.05-0.15c0.07,0,0.15,0,0.25,0
								c1.17,0,2.27,0.08,3.3,0.25V38.48z"/>
							
								<linearGradient id="SVGID_4_" gradientUnits="userSpaceOnUse" x1="-4314.8667" y1="1201.7129" x2="-3922.1885" y2="1201.7129" gradientTransform="matrix(9.500000e-003 -1 1 9.500000e-003 -1008.9005 -4075.1011)">
								<stop  offset="0" style="stop-color:#000000"/>
								<stop  offset="1" style="stop-color:#8C8E8E"/>
							</linearGradient>
							<path fill="url(#SVGID_4_)" d="M150.53,39.63c0.03-0.03,0.32-0.08,0.85-0.15c0.67-0.03,1.47-0.03,2.4,0
								c0.93,0,1.72,0.03,2.35,0.1c0.57,0.03,0.9,0.08,1,0.15v0.05c0,0.13-0.33,0.2-1,0.2c-0.63,0.1-1.42,0.15-2.35,0.15
								c-0.93-0.07-1.73-0.15-2.4-0.25c-0.53,0-0.82-0.05-0.85-0.15V39.63z"/>
						</g>
						<g>
							<path fill-opacity="0.2471" d="M153.97,37.18c-0.1,0-0.17,0-0.2,0l0.05-6.6c0.07,0,0.13,0,0.2,0L153.97,37.18z M149.38,30.73
								c0.1,0,0.18,0,0.25,0l-0.1,6.5c-0.07,0-0.13,0-0.2,0L149.38,30.73z M150.88,30.58c0.07,0,0.13,0,0.2,0v6.6
								c-0.1,0-0.18,0-0.25,0L150.88,30.58z M152.97,30.58c0.07,0,0.17,0,0.3,0l-0.05,6.6c-0.13,0-0.23,0-0.3,0L152.97,30.58z
								 M152.28,30.43c0.1,0,0.2,0.05,0.3,0.15l-0.1,6.6c-0.07-0.07-0.17-0.1-0.3-0.1L152.28,30.43z M151.47,30.58
								c0.13,0,0.22,0,0.25,0v6.5c-0.1,0-0.22,0-0.35,0L151.47,30.58z M150.07,30.73c0.1-0.1,0.18-0.15,0.25-0.15l-0.05,6.6
								c-0.1,0-0.18,0-0.25,0L150.07,30.73z M157.47,30.73c0.07,0,0.15,0,0.25,0v6.6c-0.13,0-0.25,0-0.35,0L157.47,30.73z
								 M155.97,30.58c0.07,0,0.17,0,0.3,0l-0.1,6.65c-0.1,0-0.18,0-0.25,0L155.97,30.58z M158.22,30.88c0.1,0,0.2,0.02,0.3,0.05
								l-0.05,6.45c-0.13,0-0.23,0-0.3,0L158.22,30.88z M155.28,30.58c0.1,0,0.2,0,0.3,0l-0.1,6.6c-0.07,0-0.17,0-0.3,0
								L155.28,30.58z M154.47,30.58c0.07,0,0.15,0,0.25,0v6.6c-0.13,0-0.25,0-0.35,0L154.47,30.58z M156.78,30.73
								c0.1,0,0.18,0,0.25,0l-0.05,6.5c-0.1,0-0.2,0-0.3,0L156.78,30.73z M148.63,30.88c0.07,0,0.13,0,0.2,0l-0.05,6.45
								c-0.1,0-0.2,0-0.3,0l0.05-6.45H148.63z M147.03,31.28c0.1,0,0.22,0,0.35,0l-0.1,6.2c-0.07,0-0.17,0.02-0.3,0.05L147.03,31.28
								z M147.72,31.08c0.1-0.03,0.22-0.05,0.35-0.05l-0.1,6.35c-0.1,0-0.18,0-0.25,0V31.08z M159.18,31.08l-0.05,6.4
								c-0.07,0-0.13,0-0.2,0v-6.45C159.03,31.03,159.11,31.05,159.18,31.08z M160.43,31.58c0.13,0.03,0.22,0.08,0.25,0.15
								l-0.05,6.05c-0.07-0.03-0.15-0.05-0.25-0.05L160.43,31.58z M159.72,31.28c0.07,0,0.15,0,0.25,0l-0.1,6.45
								c-0.03-0.07-0.1-0.1-0.2-0.1L159.72,31.28z"/>
							<g>
								<path fill="#BA6565" fill-opacity="0.451" d="M160.78,32.08v-0.15c0.07,0,0.1,0.03,0.1,0.1
									C160.88,32.06,160.84,32.08,160.78,32.08z"/>
							</g>
						</g>
						<g>
							<path fill="#FFFFFF" fill-opacity="0.451" d="M160.38,31.43l-0.05,5.8c-0.07,0-0.15-0.02-0.25-0.05l0.1-5.9
								C160.24,31.38,160.31,31.43,160.38,31.43z M159.53,31.08c0.07,0.07,0.12,0.1,0.15,0.1l-0.05,5.9c-0.1,0-0.18,0-0.25,0l0.05-6
								C159.46,31.08,159.49,31.08,159.53,31.08z M146.97,31.43l-0.04,5.65h-0.05c-0.1,0-0.17,0-0.2,0l0.05-5.5
								C146.82,31.48,146.91,31.43,146.97,31.43z M148.28,30.93c0.03,0,0.12,0,0.25,0l-0.06,5.95c-0.13,0-0.23,0-0.3,0L148.28,30.93
								z M147.43,31.18c0.1,0,0.2-0.03,0.3-0.1l-0.1,5.8c-0.07,0.1-0.15,0.15-0.25,0.15L147.43,31.18z M154.38,30.58l-0.05,6.15
								c-0.07,0-0.13,0-0.2,0l0.05-6.15C154.24,30.58,154.31,30.58,154.38,30.58z M155.97,30.58l-0.05,6.15c-0.13,0-0.23,0-0.3,0
								v-6.15C155.72,30.58,155.84,30.58,155.97,30.58z M158.63,30.88c0.1,0.03,0.2,0.05,0.3,0.05l-0.1,5.95c-0.07,0-0.15,0-0.25,0
								L158.63,30.88z M157.38,30.73l-0.05,6c-0.07,0-0.13,0-0.2,0l0.05-6C157.24,30.73,157.31,30.73,157.38,30.73z M156.68,30.73
								l-0.05,6c-0.1,0-0.18,0-0.25,0l0.05-6.15C156.49,30.58,156.57,30.63,156.68,30.73z M155.28,30.58l-0.1,6.15
								c-0.1,0-0.2,0-0.3,0l0.05-6.15C155.03,30.58,155.14,30.58,155.28,30.58z M158.18,30.88l-0.05,6c-0.07,0-0.15,0-0.25,0
								l0.05-6.15C158.03,30.73,158.11,30.78,158.18,30.88z M153.78,30.58l-0.1,6.15h-0.05c-0.1,0-0.18,0-0.25,0l0.1-6.15
								C153.54,30.58,153.64,30.58,153.78,30.58z M149.03,30.88c0.1-0.1,0.2-0.15,0.3-0.15l-0.1,6c-0.07,0-0.15,0-0.25,0
								L149.03,30.88z M149.78,30.73c0.07,0,0.15,0,0.25,0l-0.05,6c-0.13,0-0.22,0-0.25,0L149.78,30.73z M150.57,30.58
								c0.1,0,0.18,0,0.25,0l-0.1,6.15c-0.07,0-0.13,0-0.2,0L150.57,30.58z M151.22,30.58c0.1,0,0.18,0,0.25,0l-0.1,6
								c-0.07,0.1-0.13,0.15-0.2,0.15L151.22,30.58z M151.93,30.58c0.13,0,0.25,0,0.35,0l-0.1,6c-0.07,0-0.15,0-0.25,0V30.58z
								 M152.68,30.58c0.07,0,0.17,0,0.3,0l-0.05,6.15c-0.13,0-0.23,0-0.3,0L152.68,30.58z"/>
						</g>
						<g>
							
								<linearGradient id="SVGID_5_" gradientUnits="userSpaceOnUse" x1="-3775.7207" y1="-1723.5059" x2="-3773.5698" y2="-1723.5059" gradientTransform="matrix(-0.9994 -0.0349 6.600000e-003 -1.0004 -3607.2646 -1803.4832)">
								<stop  offset="0" style="stop-color:#727B81"/>
								<stop  offset="0.2039" style="stop-color:#FFFFFF"/>
								<stop  offset="0.4431" style="stop-color:#A9AEB2"/>
								<stop  offset="0.5882" style="stop-color:#798086"/>
								<stop  offset="0.7529" style="stop-color:#969EA3"/>
								<stop  offset="1" style="stop-color:#6B777B"/>
							</linearGradient>
							<path fill="url(#SVGID_5_)" d="M155.07,39.98c0.07,0.03,0.13,0.05,0.2,0.05l-0.2,25.1l-2.65,0.1l0.25-24.85l0.05-0.15
								c0.1-0.13,0.2-0.22,0.3-0.25c0.3-0.23,0.63-0.35,1-0.35C154.46,39.63,154.81,39.75,155.07,39.98z"/>
						</g>
						<g>
							
								<radialGradient id="SVGID_6_" cx="-4095.6079" cy="-642.8462" r="6.2615" gradientTransform="matrix(9.300000e-003 -1 -1.1297 -0.0105 -534.3224 -4070.7495)" gradientUnits="userSpaceOnUse">
								<stop  offset="0" style="stop-color:#000000;stop-opacity:0.2902"/>
								<stop  offset="1" style="stop-color:#FFFFFF;stop-opacity:0"/>
							</radialGradient>
							<path fill="url(#SVGID_6_)" d="M160.53,31.63c0,0.07-0.05,0.12-0.15,0.15c-0.03,0-0.08,0-0.15,0c-4.27-1-8.53-1.05-12.8-0.15
								c-0.03,0-0.08-0.02-0.15-0.05c-0.07,0-0.1-0.05-0.1-0.15s0.02-0.15,0.05-0.15c0-0.07,0.05-0.1,0.15-0.1
								c4.3-0.93,8.62-0.9,12.95,0.1c0.07,0,0.13,0.05,0.2,0.15C160.56,31.53,160.56,31.6,160.53,31.63z"/>
							
								<radialGradient id="SVGID_7_" cx="-4101.4082" cy="-643.041" r="6.2628" gradientTransform="matrix(9.300000e-003 -1 -1.1297 -0.0105 -534.7385 -4070.7534)" gradientUnits="userSpaceOnUse">
								<stop  offset="0" style="stop-color:#FFFFFF"/>
								<stop  offset="1" style="stop-color:#FFFFFF;stop-opacity:0"/>
							</radialGradient>
							<path fill="url(#SVGID_7_)" d="M160.43,37.73c-4.53-0.67-9.1-0.73-13.7-0.2c-0.07,0-0.12,0-0.15,0
								c-0.07-0.03-0.1-0.08-0.1-0.15c0-0.03,0-0.08,0-0.15c0.07-0.03,0.13-0.08,0.2-0.15c4.63-0.63,9.27-0.58,13.9,0.15
								c0.07,0.07,0.12,0.12,0.15,0.15c0.03,0.07,0.03,0.12,0,0.15c0,0.07-0.02,0.13-0.05,0.2
								C160.61,37.73,160.53,37.73,160.43,37.73z"/>
							
								<radialGradient id="SVGID_8_" cx="-4103.125" cy="-644.7197" r="3.0395" gradientTransform="matrix(9.600000e-003 -1 -1.1275 -0.0108 -533.7243 -4070.5781)" gradientUnits="userSpaceOnUse">
								<stop  offset="0" style="stop-color:#FFFFFF"/>
								<stop  offset="1" style="stop-color:#FFFFFF;stop-opacity:0"/>
							</radialGradient>
							<path fill="url(#SVGID_8_)" d="M150.63,39.18c2.03-0.23,4.13-0.2,6.3,0.1c0.07,0,0.13,0.02,0.2,0.05
								c0.07,0.07,0.08,0.12,0.05,0.15c0,0.07-0.05,0.12-0.15,0.15c-0.03,0.07-0.1,0.1-0.2,0.1c-2.1-0.27-4.13-0.3-6.1-0.1
								c-0.07,0-0.12,0-0.15,0c-0.1-0.03-0.15-0.08-0.15-0.15c-0.03-0.1,0-0.17,0.1-0.2C150.56,39.28,150.59,39.25,150.63,39.18z"/>
						</g>
					</g>
					<g>
						
							<linearGradient id="SVGID_9_" gradientUnits="userSpaceOnUse" x1="-1213.3604" y1="1547.9375" x2="-1208.4855" y2="1547.9375" gradientTransform="matrix(0.9999 0.0103 0.0233 1.0003 1328.7972 -1473.6875)">
							<stop  offset="0" style="stop-color:#727B81"/>
							<stop  offset="0.2039" style="stop-color:#FFFFFF"/>
							<stop  offset="0.4431" style="stop-color:#A9AEB2"/>
							<stop  offset="0.5882" style="stop-color:#798086"/>
							<stop  offset="0.7529" style="stop-color:#969EA3"/>
							<stop  offset="1" style="stop-color:#6B777B"/>
						</linearGradient>
						<path fill="url(#SVGID_9_)" d="M151.07,52.53c0.07-0.47,0.28-0.82,0.65-1.05c0.13-0.03,0.23-0.05,0.3-0.05
							c0.17-0.07,0.37-0.1,0.6-0.1c0.77,0.2,1.53,0.2,2.3,0c0.17,0,0.32,0.03,0.45,0.1c0.23,0.1,0.45,0.23,0.65,0.4
							c0.3,0.2,0.5,0.48,0.6,0.85l-0.15,19.15c-0.07,0.57-0.3,0.92-0.7,1.05c-1.43,0.37-2.83,0.37-4.2,0
							c-0.4-0.17-0.6-0.52-0.6-1.05L151.07,52.53z"/>
					</g>
					<g>
						
							<radialGradient id="SVGID_10_" cx="-4114.0039" cy="693.9053" r="1.1254" gradientTransform="matrix(0.0222 -0.9998 2.1328 0.0222 -1234.9496 -4077.2241)" gradientUnits="userSpaceOnUse">
							<stop  offset="0" style="stop-color:#000000"/>
							<stop  offset="1" style="stop-color:#040404;stop-opacity:0"/>
						</radialGradient>
						<path fill="url(#SVGID_10_)" d="M155.28,52.03c-1.1,0.53-2.22,0.57-3.35,0.1c-0.8-0.07-0.77-0.3,0.1-0.7
							c0.17-0.1,0.35-0.13,0.55-0.1c0.8,0.2,1.58,0.18,2.35-0.05c0.13,0.03,0.25,0.08,0.35,0.15C155.94,51.8,155.94,52,155.28,52.03
							z"/>
					</g>
					<g>
						<g>
							<path fill="#FFFFFF" d="M159.68,33.98l-3.5,1.4c0.53-1.03,0.57-2.1,0.1-3.2L159.68,33.98z"/>
						</g>
						<g>
							<path d="M159.32,34.18l-3,1.3c0.47-0.9,0.48-1.83,0.05-2.8L159.32,34.18z"/>
						</g>
					</g>
					<g>
						<g>
							<path fill="#FFFFFF" d="M151.93,35.48l-3.5-1.5l3.5-1.75C151.36,33.33,151.36,34.41,151.93,35.48z"/>
						</g>
						<g>
							<path d="M151.72,35.53l-2.94-1.25l2.95-1.45C151.29,33.73,151.29,34.63,151.72,35.53z"/>
						</g>
					</g>
				</g>
				<g>
					<g>
						
							<linearGradient id="SVGID_11_" gradientUnits="userSpaceOnUse" x1="-4637.3809" y1="77.46" x2="-4625.2847" y2="77.46" gradientTransform="matrix(-0.5209 -0.8536 0.7925 -0.621 -2340.5535 -3782.6523)">
							<stop  offset="0" style="stop-color:#151717"/>
							<stop  offset="0.2824" style="stop-color:#FFFFFF"/>
							<stop  offset="0.3373" style="stop-color:#E7E9E8"/>
							<stop  offset="0.4471" style="stop-color:#B4B8B9"/>
							<stop  offset="0.6275" style="stop-color:#FFFFFF"/>
							<stop  offset="0.7412" style="stop-color:#889297"/>
							<stop  offset="1" style="stop-color:#434D4F"/>
						</linearGradient>
						<path fill="url(#SVGID_11_)" d="M132.57,115.38c-0.1,0.1,0.12,0.75,0.65,1.95c0.5,1.07,1.22,2.33,2.15,3.8
							c0.03,0.13,0.1,0.22,0.2,0.25c0.57,0.93,1.08,1.73,1.55,2.4c0.27,0.43,0.52,0.8,0.75,1.1c0.73,0.93,1.17,1.4,1.3,1.4
							l-0.3,0.25l-3.75,2.8c-0.17,0.17-0.43,0.12-0.8-0.15l-0.15-0.25h-0.05c-0.03-0.03-0.08-0.05-0.15-0.05
							c-0.57-0.7-1.12-1.4-1.65-2.1c-1.43-2-2.65-4.23-3.65-6.7c-0.27-0.8-0.22-1.38,0.15-1.75c0.03,0,0.07-0.03,0.1-0.1l0.4-0.3
							l2.95-2.35L132.57,115.38z"/>
						
							<linearGradient id="SVGID_12_" gradientUnits="userSpaceOnUse" x1="-4635.8931" y1="156.2031" x2="-4622.1802" y2="156.2031" gradientTransform="matrix(-0.4904 -0.8715 0.8221 -0.5782 -2262.0835 -3822.1411)">
							<stop  offset="0" style="stop-color:#000000"/>
							<stop  offset="1" style="stop-color:#8C8E8E"/>
						</linearGradient>
						<path fill="url(#SVGID_12_)" d="M139.18,126.28c-0.13,0-0.57-0.47-1.3-1.4c-0.23-0.3-0.48-0.67-0.75-1.1
							c-0.47-0.67-0.98-1.47-1.55-2.4c-0.1-0.03-0.17-0.12-0.2-0.25c-0.93-1.47-1.65-2.73-2.15-3.8c-0.53-1.2-0.75-1.85-0.65-1.95
							c0.1,0,0.22,0.1,0.35,0.3c0.23,0.2,0.55,0.57,0.95,1.1c0.33,0.4,0.67,0.87,1,1.4l-0.65,0.45c0.43,0.83,0.88,1.62,1.35,2.35
							c0.03,0.1,0.08,0.18,0.15,0.25c0.47,0.83,1.03,1.63,1.7,2.4l0.55-0.45c0.23,0.4,0.43,0.78,0.6,1.15c0.3,0.63,0.5,1.1,0.6,1.4
							c0.07,0.23,0.08,0.4,0.05,0.5h-0.05V126.28L139.18,126.28z"/>
						
							<linearGradient id="SVGID_13_" gradientUnits="userSpaceOnUse" x1="-2841.4204" y1="-2258.3057" x2="-2504.1338" y2="-2258.3057" gradientTransform="matrix(-0.7877 0.6161 -0.5247 -0.8591 -3142.7288 -181.4442)">
							<stop  offset="0" style="stop-color:#000000"/>
							<stop  offset="1" style="stop-color:#8C8E8E"/>
						</linearGradient>
						<path fill="url(#SVGID_13_)" d="M138.78,122.48c-0.07-0.07-0.23-0.28-0.5-0.65c-0.33-0.47-0.72-1.05-1.15-1.75
							c-0.47-0.67-0.82-1.25-1.05-1.75c-0.23-0.47-0.35-0.75-0.35-0.85c0.1,0,0.28,0.2,0.55,0.6c0.33,0.47,0.75,1.03,1.25,1.7
							c0.4,0.7,0.72,1.32,0.95,1.85c0.3,0.5,0.43,0.78,0.4,0.85H138.78L138.78,122.48z"/>
						
							<linearGradient id="SVGID_14_" gradientUnits="userSpaceOnUse" x1="-4634.3999" y1="71.9863" x2="-4628.585" y2="71.9863" gradientTransform="matrix(-0.5246 -0.8514 0.7892 -0.6254 -2350.043 -3777.6777)">
							<stop  offset="0" style="stop-color:#B0B7BA"/>
							<stop  offset="0.2392" style="stop-color:#B4B8B9"/>
							<stop  offset="0.4235" style="stop-color:#FFFFFF"/>
							<stop  offset="0.5333" style="stop-color:#FFFFFF"/>
							<stop  offset="0.8" style="stop-color:#889297"/>
							<stop  offset="1" style="stop-color:#161B1B"/>
						</linearGradient>
						<path fill="url(#SVGID_14_)" d="M137.97,123.18l-0.55,0.45c-0.67-0.77-1.23-1.57-1.7-2.4c-0.07-0.07-0.12-0.15-0.15-0.25
							c-0.47-0.73-0.92-1.52-1.35-2.35l0.65-0.45l0.85-0.7c0,0.1,0.12,0.38,0.35,0.85c0.23,0.5,0.58,1.08,1.05,1.75
							c0.43,0.7,0.82,1.28,1.15,1.75c0.27,0.37,0.43,0.58,0.5,0.65L137.97,123.18z"/>
					</g>
					<g>
						<path fill-opacity="0.2471" d="M132.97,116.78l-4.25,3.3c-0.03-0.07-0.05-0.12-0.05-0.15l4.25-3.3
							C132.96,116.66,132.97,116.71,132.97,116.78z M132.78,116.23l-4.25,3.35c0-0.17-0.02-0.28-0.05-0.35l4.15-3.25
							C132.69,116.05,132.74,116.13,132.78,116.23z M139.03,126.23l-4.05,3.15c-0.07,0-0.15-0.05-0.25-0.15l4.2-3.15
							C138.96,126.18,138.99,126.23,139.03,126.23z M136.32,122.63l-4.45,3.45c-0.03-0.13-0.08-0.22-0.15-0.25l4.5-3.45
							C136.26,122.45,136.29,122.53,136.32,122.63z M135.97,122.03l-4.45,3.5c-0.07-0.07-0.12-0.12-0.15-0.15l4.4-3.55
							C135.88,121.9,135.94,121.96,135.97,122.03z M135.22,120.93l-4.45,3.5c-0.03-0.1-0.08-0.18-0.15-0.25l4.45-3.5
							C135.11,120.75,135.16,120.83,135.22,120.93z M135.57,121.48l-4.44,3.5c-0.03-0.07-0.07-0.12-0.1-0.15l4.4-3.5
							C135.46,121.36,135.51,121.41,135.57,121.48z M134.88,120.38l-4.4,3.5c-0.03-0.07-0.08-0.15-0.15-0.25l4.55-3.5
							C134.88,120.23,134.88,120.31,134.88,120.38z M133.88,118.63l-4.35,3.45c-0.07-0.1-0.1-0.2-0.1-0.3l4.35-3.4
							C133.81,118.45,133.84,118.53,133.88,118.63z M134.22,119.23l-4.4,3.4c-0.03-0.07-0.07-0.12-0.1-0.15l4.4-3.4
							C134.16,119.15,134.19,119.2,134.22,119.23z M134.57,119.78l-4.45,3.4c-0.03-0.07-0.08-0.12-0.15-0.15l4.55-3.4
							C134.53,119.7,134.54,119.75,134.57,119.78z M133.63,118.08l-4.35,3.4c-0.03-0.07-0.07-0.15-0.1-0.25l4.35-3.4
							C133.59,117.96,133.63,118.05,133.63,118.08z M133.32,117.48l-4.35,3.3c-0.03-0.07-0.05-0.12-0.05-0.15v-0.1l4.3-3.3
							C133.26,117.33,133.29,117.41,133.32,117.48z M132.43,126.98l4.45-3.5c0.07,0.07,0.1,0.12,0.1,0.15l-4.35,3.5
							C132.59,127.1,132.53,127.05,132.43,126.98z M133.28,127.98l4.4-3.4c0.07,0.03,0.13,0.08,0.2,0.15l-4.4,3.45
							C133.44,128.05,133.38,127.98,133.28,127.98z M132.88,127.38l4.45-3.45c0,0.13,0.03,0.22,0.1,0.25l-4.35,3.45
							C132.97,127.56,132.91,127.48,132.88,127.38z M132.07,126.38l4.45-3.45c0.07,0.07,0.1,0.15,0.1,0.25l-4.4,3.4
							C132.19,126.48,132.14,126.41,132.07,126.38z M138.22,125.28l-4.35,3.35c-0.07-0.1-0.13-0.15-0.2-0.15l4.35-3.45
							C138.09,125.1,138.16,125.18,138.22,125.28z M138.63,125.73l-4.25,3.35c-0.03-0.03-0.1-0.08-0.2-0.15l4.3-3.35
							C138.54,125.65,138.59,125.7,138.63,125.73z"/>
					</g>
					<g>
						<path fill="#FFFFFF" fill-opacity="0.451" d="M132.28,115.98c-0.03,0.07-0.03,0.12,0,0.15l0.05,0.1l-3.8,2.95
							c0-0.1,0-0.2,0-0.3L132.28,115.98z M132.57,116.78l-3.95,3v0.1c-0.07-0.1-0.1-0.18-0.1-0.25l3.9-3
							C132.49,116.66,132.54,116.71,132.57,116.78z M133.82,119.23l-4.05,3.15c-0.03-0.03-0.08-0.08-0.15-0.15l4.05-3.15
							C133.74,119.15,133.79,119.2,133.82,119.23z M135.32,121.83c0.03,0.07,0.07,0.13,0.1,0.2l-4.1,3.25
							c-0.07-0.07-0.12-0.12-0.15-0.15L135.32,121.83z M135.72,122.38c0,0.07,0.05,0.15,0.15,0.25l-4.15,3.25
							c-0.07-0.1-0.13-0.17-0.2-0.2L135.72,122.38z M134.07,119.78l-4.1,3.15c-0.03-0.03-0.07-0.08-0.1-0.15l4.1-3.15
							C133.97,119.7,134.01,119.75,134.07,119.78z M134.78,120.93l-4.15,3.25c0-0.1-0.03-0.18-0.1-0.25l4.15-3.25
							C134.71,120.75,134.74,120.83,134.78,120.93z M134.53,120.38l-4.2,3.2c-0.03-0.07-0.08-0.15-0.15-0.25l4.15-3.2
							C134.39,120.23,134.46,120.31,134.53,120.38z M135.03,121.33c0.03,0.03,0.07,0.08,0.1,0.15l-4.1,3.25
							c-0.03-0.07-0.08-0.12-0.15-0.15L135.03,121.33z M132.88,117.48l-4,3.05c-0.03-0.07-0.08-0.17-0.15-0.3l4.05-3.1
							C132.78,117.26,132.81,117.38,132.88,117.48z M133.22,118.08l-4,3.05c0,0.07-0.02,0.1-0.05,0.1c0-0.1-0.05-0.2-0.15-0.3
							l4.05-3.1C133.14,117.96,133.19,118.05,133.22,118.08z M133.47,118.63l-4.05,3.15c0-0.1-0.03-0.18-0.1-0.25l4-3.15
							C133.39,118.45,133.44,118.53,133.47,118.63z M133.28,127.98c-0.07-0.1-0.12-0.17-0.15-0.2l4-3.2
							c0.07,0.03,0.13,0.12,0.2,0.25L133.28,127.98z M133.53,128.23l4-3.1c0.1,0.03,0.15,0.12,0.15,0.25l-4.05,3.1
							C133.63,128.38,133.59,128.3,133.53,128.23z M132.78,127.48c0-0.07-0.02-0.15-0.05-0.25l4.05-3.2c0,0.1,0.03,0.15,0.1,0.15
							L132.78,127.48z M132.43,126.93c0-0.07-0.03-0.12-0.1-0.15l4.1-3.2c0.07,0.03,0.13,0.08,0.2,0.15L132.43,126.93z
							 M132.03,126.38c-0.03-0.1-0.07-0.15-0.1-0.15l4.15-3.3c0,0.07,0.03,0.15,0.1,0.25L132.03,126.38z M138.13,125.83l-4,3.1
							c-0.03-0.03-0.08-0.05-0.15-0.05v-0.1l4-3.1C138.04,125.71,138.09,125.76,138.13,125.83z M134.38,129.18h0.05l3.95-3.1
							c0.03,0.1,0.07,0.17,0.1,0.2l-3.9,3.05C134.54,129.33,134.47,129.28,134.38,129.18z"/>
					</g>
					<g>
						
							<linearGradient id="SVGID_15_" gradientUnits="userSpaceOnUse" x1="-4630.7061" y1="78.9512" x2="-4628.7974" y2="78.9512" gradientTransform="matrix(-0.5241 -0.8517 0.7953 -0.6157 -2348.1621 -3777.3525)">
							<stop  offset="0" style="stop-color:#727B81"/>
							<stop  offset="0.2039" style="stop-color:#FFFFFF"/>
							<stop  offset="0.4431" style="stop-color:#A9AEB2"/>
							<stop  offset="0.5882" style="stop-color:#798086"/>
							<stop  offset="0.7529" style="stop-color:#969EA3"/>
							<stop  offset="1" style="stop-color:#6B777B"/>
						</linearGradient>
						<path fill="url(#SVGID_15_)" d="M145.43,115.23l-7.45,5.85c0-0.07-0.03-0.12-0.1-0.15c-0.2-0.17-0.38-0.4-0.55-0.7
							c-0.17-0.3-0.28-0.57-0.35-0.8c-0.07-0.13-0.13-0.22-0.2-0.25v-0.1l7.45-5.9L145.43,115.23z"/>
					</g>
					<g>
						
							<linearGradient id="SVGID_16_" gradientUnits="userSpaceOnUse" x1="-4635.5479" y1="105.5547" x2="-4630.5781" y2="105.5547" gradientTransform="matrix(-0.5182 -0.8553 0.7918 -0.623 -2333.9905 -3787.042)">
							<stop  offset="0" style="stop-color:#727B81"/>
							<stop  offset="0.2039" style="stop-color:#FFFFFF"/>
							<stop  offset="0.4431" style="stop-color:#A9AEB2"/>
							<stop  offset="0.5882" style="stop-color:#798086"/>
							<stop  offset="0.7529" style="stop-color:#969EA3"/>
							<stop  offset="1" style="stop-color:#6B777B"/>
						</linearGradient>
						<path fill="url(#SVGID_16_)" d="M141.78,113.73c0-0.37,0.15-0.7,0.45-1l13.7-10.75c0.4-0.27,0.75-0.27,1.05,0
							c1.07,1.03,1.83,2.25,2.3,3.65h0.05c0.07,0.47-0.07,0.83-0.4,1.1l-13.9,10.9c-0.43,0.27-0.83,0.27-1.2,0
							c-0.03-0.07-0.12-0.12-0.25-0.15c-0.1-0.17-0.22-0.33-0.35-0.5c-0.3-0.77-0.75-1.43-1.35-2c0-0.17-0.02-0.3-0.05-0.4
							C141.76,114.31,141.74,114.03,141.78,113.73z"/>
					</g>
					<g>
						
							<radialGradient id="SVGID_17_" cx="-2675.874" cy="-1312.5791" r="1.0321" gradientTransform="matrix(-0.7867 0.6173 -1.2225 -2.0213 -3567.1084 -885.1824)" gradientUnits="userSpaceOnUse">
							<stop  offset="0" style="stop-color:#000000"/>
							<stop  offset="1" style="stop-color:#040404;stop-opacity:0"/>
						</radialGradient>
						<path fill="url(#SVGID_17_)" d="M141.88,114.98c0-0.17-0.02-0.3-0.05-0.4c-0.07-0.77,0.1-0.9,0.5-0.4
							c0.9,0.73,1.52,1.7,1.85,2.9c0.4,0.73,0.2,0.87-0.6,0.4c-0.1-0.17-0.22-0.33-0.35-0.5
							C142.93,116.21,142.47,115.55,141.88,114.98z"/>
					</g>
					<g>
						
							<radialGradient id="SVGID_18_" cx="-2655.5815" cy="-2029.6846" r="5.3683" gradientTransform="matrix(-0.787 0.617 -0.61 -0.9965 -3192.478 -263.1132)" gradientUnits="userSpaceOnUse">
							<stop  offset="0" style="stop-color:#FFFFFF"/>
							<stop  offset="1" style="stop-color:#FFFFFF;stop-opacity:0"/>
						</radialGradient>
						<path fill="url(#SVGID_18_)" d="M132.32,115.58c0.07,0,0.1,0.03,0.1,0.1c0.07,0,0.12,0.05,0.15,0.15
							c1.67,3.8,3.78,7.23,6.35,10.3c0.03,0.07,0.05,0.12,0.05,0.15c0.03,0.07,0.03,0.12,0,0.15c-0.03,0.1-0.07,0.13-0.1,0.1
							c-0.1,0-0.17-0.03-0.2-0.1c-2.6-3.1-4.73-6.58-6.4-10.45c-0.03-0.03-0.05-0.12-0.05-0.25
							C132.26,115.7,132.29,115.65,132.32,115.58z"/>
						
							<radialGradient id="SVGID_19_" cx="-2655.0781" cy="-2030.7969" r="2.6007" gradientTransform="matrix(-0.7883 0.6153 -0.6105 -0.995 -3195.6541 -266.8584)" gradientUnits="userSpaceOnUse">
							<stop  offset="0" style="stop-color:#FFFFFF"/>
							<stop  offset="1" style="stop-color:#FFFFFF;stop-opacity:0"/>
						</radialGradient>
						<path fill="url(#SVGID_19_)" d="M135.43,117.68c0-0.1,0.05-0.15,0.15-0.15c0.03-0.03,0.08-0.03,0.15,0
							c0.03,0,0.08,0.03,0.15,0.1c0.73,1.67,1.67,3.23,2.8,4.7c0.03,0.03,0.05,0.08,0.05,0.15c0,0.03-0.02,0.08-0.05,0.15
							c-0.03,0.07-0.07,0.1-0.1,0.1c-0.1,0-0.17-0.03-0.2-0.1c-1.17-1.47-2.15-3.07-2.95-4.8
							C135.39,117.8,135.39,117.75,135.43,117.68z"/>
						
							<radialGradient id="SVGID_20_" cx="-2650.542" cy="-2029.9072" r="5.3568" gradientTransform="matrix(-0.787 0.617 -0.61 -0.9965 -3192.4956 -263.1425)" gradientUnits="userSpaceOnUse">
							<stop  offset="0" style="stop-color:#000000;stop-opacity:0.2902"/>
							<stop  offset="1" style="stop-color:#FFFFFF;stop-opacity:0"/>
						</radialGradient>
						<path fill="url(#SVGID_20_)" d="M128.63,119.23c0.03,0,0.07,0,0.1,0c0.1,0.07,0.15,0.13,0.15,0.2c1.33,3.7,3.3,6.9,5.9,9.6
							c0.07,0.03,0.1,0.08,0.1,0.15c0,0.03-0.03,0.08-0.1,0.15c0,0.03-0.03,0.05-0.1,0.05c-0.07,0-0.12-0.02-0.15-0.05
							c-2.67-2.77-4.68-6.02-6.05-9.75c0.03-0.07,0.05-0.15,0.05-0.25L128.63,119.23z"/>
					</g>
				</g>
				<g>
					
						<linearGradient id="SVGID_21_" gradientUnits="userSpaceOnUse" x1="-1157.9746" y1="1516.1201" x2="-1157.9746" y2="1622.1951" gradientTransform="matrix(1 0 0 1 1326.5 -1499.125)">
						<stop  offset="0" style="stop-color:#3D5956"/>
						<stop  offset="1" style="stop-color:#000000"/>
					</linearGradient>
					<polygon fill="url(#SVGID_21_)" points="190.77,49.98 190.72,122.93 146.28,122.93 146.32,49.98 					"/>
				</g>
				<g>
					
						<linearGradient id="SVGID_22_" gradientUnits="userSpaceOnUse" x1="-1173.0186" y1="-1500.9858" x2="-1082.1829" y2="-1500.9858" gradientTransform="matrix(-0.0641 0.9979 -0.9856 -0.2561 -1407.199 826.6383)">
						<stop  offset="0" style="stop-color:#8CCFC5"/>
						<stop  offset="0.7294" style="stop-color:#6DA49B"/>
						<stop  offset="1" style="stop-color:#385852"/>
					</linearGradient>
					<path fill="url(#SVGID_22_)" d="M167.22,59.73c3.1,0,5.75,2.2,7.95,6.6c2.17,4.47,3.25,9.8,3.25,16v6.15
						c0,6.3-1.08,11.65-3.25,16.05c-2.2,4.43-4.85,6.65-7.95,6.65h-45.44c-3.1,0-5.75-2.22-7.95-6.65c-2.2-4.4-3.3-9.75-3.3-16.05
						v-6.15c0-6.2,1.1-11.53,3.3-16c2.2-4.4,4.85-6.6,7.95-6.6H167.22z"/>
				</g>
			</g>
		</g>
	</g>
</g>
<g id="Layer_2">
</g>
</svg>
