<?xml version="1.0" encoding="utf-8"?>
<!-- Generator: Adobe Illustrator 16.0.0, SVG Export Plug-In . SVG Version: 6.00 Build 0)  -->
<!DOCTYPE svg PUBLIC "-//W3C//DTD SVG 1.1//EN" "http://www.w3.org/Graphics/SVG/1.1/DTD/svg11.dtd">
<svg version="1.1" id="Layer_1" xmlns="http://www.w3.org/2000/svg" xmlns:xlink="http://www.w3.org/1999/xlink" x="0px" y="0px"
	 width="239px" height="239px" viewBox="0 0 239 239" enable-background="new 0 0 239 239" xml:space="preserve">
<g id="Layer_1_1_">
	<g>
		<g>
			<g>
				
					<linearGradient id="SVGID_1_" gradientUnits="userSpaceOnUse" x1="-776.9126" y1="953.3809" x2="-418.9962" y2="737.6376" gradientTransform="matrix(1 0 0 1 763.5 -753.5)">
					<stop  offset="0" style="stop-color:#181B18"/>
					<stop  offset="0.3333" style="stop-color:#2C2E2C"/>
					<stop  offset="0.5373" style="stop-color:#474948"/>
					<stop  offset="0.7569" style="stop-color:#464847"/>
					<stop  offset="1" style="stop-color:#585A59"/>
				</linearGradient>
				<path fill="url(#SVGID_1_)" d="M95.6,18.35l0.15,33.5l48.15-0.1L143.8,18.5c-7.8-2.27-16.08-3.38-24.85-3.35
					C110.72,15.22,102.93,16.28,95.6,18.35z M200.15,39.3c22.13,22.03,33.199,48.73,33.199,80.1c0.07,31.37-10.979,58.1-33.149,80.2
					c-22.13,22.2-48.87,33.32-80.2,33.351S61.9,221.93,39.7,199.8c-22.07-22.1-33.12-48.83-33.15-80.2
					c0-31.37,11.03-58.07,33.1-80.1C61.78,17.2,88.5,6.03,119.8,6C151.13,5.97,177.92,17.07,200.15,39.3z M119.1,224.05
					c8.77,0,17.07-1.13,24.9-3.399V187.55l-48.2,0.101V221C103.13,223.03,110.9,224.05,119.1,224.05z"/>
			</g>
			<g>
				<path fill="#515151" d="M11.75,113.5l9.05,0.2l0.1-3.4l1.25,0.05l-0.15,8.1h-1.2v-3.4l-9.05-0.1V113.5z M11.45,121l10.25-1.2
					l0.65,4.5c0.07,0.9,0.07,1.57,0,2c-0.13,0.5-0.43,0.92-0.9,1.25c-0.43,0.33-0.93,0.55-1.5,0.65c-0.67,0.03-1.28-0.15-1.85-0.55
					c-0.53-0.4-0.97-1.021-1.3-1.851c-0.13,0.3-0.27,0.57-0.4,0.8c-0.27,0.4-0.67,0.801-1.2,1.2l-2.65,2.15l-0.2-1.7l1.95-1.6
					c0.6-0.431,1.05-0.82,1.35-1.15c0.27-0.27,0.5-0.52,0.7-0.75c0.03-0.17,0.07-0.37,0.1-0.6c0.07-0.17,0.05-0.431-0.05-0.801
					l-0.2-1.55l-4.55,0.601L11.45,121z M34.05,76.55c0,0.63-0.15,1.25-0.45,1.85c-0.37,0.67-0.82,1.2-1.35,1.6
					c-0.5,0.4-1,0.65-1.5,0.75c-0.63,0.03-1.2-0.05-1.7-0.25l0.5-1.25c0.63,0.23,1.17,0.23,1.6,0c0.5-0.2,0.93-0.65,1.3-1.35
					c0.37-0.77,0.5-1.37,0.4-1.8c-0.13-0.43-0.4-0.75-0.8-0.95c-0.33-0.17-0.68-0.18-1.05-0.05c-0.3,0.07-0.82,0.55-1.55,1.45
					c-0.7,0.87-1.22,1.43-1.55,1.7c-0.57,0.47-1.1,0.72-1.6,0.75s-1-0.08-1.5-0.35c-0.47-0.23-0.87-0.57-1.2-1
					c-0.3-0.53-0.45-1.13-0.45-1.8c0.03-0.63,0.23-1.27,0.6-1.9c0.4-0.87,0.87-1.5,1.4-1.9c0.53-0.43,1.12-0.68,1.75-0.75
					c0.67-0.07,1.32,0.03,1.95,0.3l-0.45,1.15c-0.5-0.13-0.95-0.18-1.35-0.15c-0.4,0.03-0.8,0.22-1.2,0.55
					c-0.37,0.33-0.72,0.75-1.05,1.25c-0.17,0.5-0.3,0.98-0.4,1.45c0,0.4,0.07,0.73,0.2,1s0.37,0.48,0.7,0.65
					c0.3,0.13,0.62,0.18,0.95,0.15c0.27-0.1,0.58-0.3,0.95-0.6c0.17-0.2,0.57-0.67,1.2-1.4c0.63-0.7,1.13-1.18,1.5-1.45
					c0.43-0.37,0.9-0.55,1.4-0.55c0.4-0.03,0.85,0.07,1.35,0.3c0.43,0.17,0.78,0.48,1.05,0.95C33.97,75.4,34.08,75.95,34.05,76.55z
					 M21.1,79.25l9.65,3.9l-1.5,3.6c-0.27,0.63-0.5,1.1-0.7,1.4c-0.27,0.47-0.62,0.78-1.05,0.95c-0.3,0.27-0.7,0.43-1.2,0.5
					c-0.5,0-1-0.1-1.5-0.3c-0.8-0.3-1.38-0.83-1.75-1.6c-0.27-0.8-0.12-1.87,0.45-3.2l1-2.4l-3.9-1.6L21.1,79.25z M17.8,89.9
					l-1.95,6l-1.2-0.4l2.45-7.25l9.8,3.2l-2.3,6.95L23.5,98l1.85-5.65l-3-0.95l-1.85,5.3l-1.15-0.3L21.2,91L17.8,89.9z M24.55,85.05
					c-0.3,0.8-0.37,1.43-0.2,1.9c0.13,0.43,0.47,0.77,1,1c0.4,0.2,0.78,0.25,1.15,0.15c0.4-0.03,0.72-0.22,0.95-0.55
					c0.13-0.17,0.33-0.52,0.6-1.05l1-2.45l-3.4-1.5L24.55,85.05z M13.9,103.6c-0.13,0.73,0,1.42,0.4,2.05
					c0.4,0.53,1.02,0.95,1.85,1.25l-0.5,1.35c-1.1-0.43-1.9-1.07-2.4-1.9c-0.47-0.8-0.65-1.73-0.55-2.8c0.17-1.1,0.5-1.95,1-2.55
					c0.6-0.6,1.35-1.02,2.25-1.25c0.93-0.3,1.9-0.38,2.9-0.25c1.03,0.17,1.92,0.48,2.65,0.95c0.73,0.53,1.25,1.2,1.55,2
					c0.33,0.83,0.45,1.68,0.35,2.55c-0.17,1-0.57,1.83-1.2,2.5c-0.6,0.53-1.38,0.9-2.35,1.1l-0.2-1.35c0.77-0.13,1.38-0.4,1.85-0.8
					c0.37-0.37,0.6-0.92,0.7-1.65c0.13-0.73,0.02-1.4-0.35-2c-0.3-0.6-0.75-1.05-1.35-1.35c-0.63-0.3-1.25-0.48-1.85-0.55
					c-0.9-0.13-1.67-0.13-2.3,0c-0.77,0.2-1.33,0.53-1.7,1C14.22,102.4,13.97,102.97,13.9,103.6z M18.9,126.65
					c0.27,0.13,0.58,0.18,0.95,0.149c0.43-0.1,0.78-0.3,1.05-0.6c0.27-0.47,0.37-1.05,0.3-1.75l-0.4-3.2l-3.4,0.35l0.35,2.95
					c0.1,0.601,0.23,1.08,0.4,1.45C18.32,126.27,18.57,126.48,18.9,126.65z M20.9,132.2c-0.7-0.601-1.82-0.82-3.35-0.65
					c-1.27,0.2-2.23,0.681-2.9,1.45c-0.6,0.7-0.82,1.57-0.65,2.6c0.13,1,0.6,1.78,1.4,2.351c0.8,0.569,1.85,0.75,3.15,0.55
					c0.8-0.03,1.5-0.28,2.1-0.75c0.63-0.3,1.08-0.75,1.35-1.35c0.27-0.53,0.33-1.15,0.2-1.851C22.07,133.58,21.63,132.8,20.9,132.2z
					 M14.9,131.1c0.73-0.43,1.57-0.75,2.5-0.949c1.67-0.17,3.03,0.149,4.1,0.949c1.1,0.771,1.73,1.87,1.9,3.301
					c0.13,0.93,0.02,1.819-0.35,2.649c-0.33,0.8-0.88,1.45-1.65,1.95c-0.77,0.47-1.65,0.78-2.65,0.95c-1.03,0.13-2,0.03-2.9-0.3
					c-0.9-0.301-1.62-0.82-2.15-1.551c-0.5-0.67-0.82-1.47-0.95-2.399c-0.13-0.97,0-1.83,0.4-2.601
					C13.52,132.27,14.1,131.6,14.9,131.1z M27.65,149.85l-9.85,3.101l-0.45-1.2l8.2-2.65L16.4,148.9l-0.4-1.15l7.4-5.45l-8.3,2.65
					l-0.45-1.2l9.9-3.15l0.7,1.95l-6.3,4.45c-0.57,0.47-0.98,0.77-1.25,0.9c0.33,0,0.88,0.05,1.65,0.149l7.75,0.101L27.65,149.85z
					 M19.1,155.8l9.5-4l2.95,6.851L30.4,159.1l-2.4-5.55l-2.9,1.2l2.3,5.25l-1.15,0.5L24,155.25l-3.3,1.35l2.5,5.801l-1.15,0.449
					L19.1,155.8z M32.25,159.8l4.3,7.05l-1.1,0.65l-1.75-2.95l-7.85,4.7l-0.7-1.2l7.9-4.75l-1.75-2.8L32.25,159.8z M37.7,177.55
					l-3.45-4.5l-2.8,2l3.8,5.101l-0.95,0.75l-4.7-6.2l8.25-6.101l4.55,5.851l-1,0.649l-3.65-4.75l-2.55,1.95l3.45,4.5L37.7,177.55z
					 M42.15,181.85l-1.1-1.199l-3.5,3.1l-0.85-1.1l7.8-6.75l3.1,3.399c0.57,0.771,0.95,1.37,1.15,1.8c0.17,0.5,0.17,0.98,0,1.45
					c-0.13,0.53-0.45,1-0.95,1.4c-0.5,0.5-1.1,0.72-1.8,0.649c-0.7-0.029-1.45-0.38-2.25-1.05c0.13,0.4,0.2,0.72,0.2,0.95
					c0,0.57-0.08,1.17-0.25,1.8l-1,3.101l-1.15-1.301l0.75-2.35c0.2-0.7,0.35-1.25,0.45-1.65c0.03-0.43,0.03-0.779,0-1.05
					c-0.03-0.2-0.08-0.399-0.15-0.6C42.47,182.32,42.32,182.12,42.15,181.85z M46.65,180.1L44.5,177.7l-2.65,2.2l2,2.149
					c0.43,0.5,0.83,0.82,1.2,0.95c0.3,0.17,0.62,0.25,0.95,0.25c0.33-0.03,0.62-0.18,0.85-0.45c0.4-0.33,0.63-0.7,0.7-1.1
					C47.48,181.23,47.18,180.7,46.65,180.1z"/>
			</g>
			<g>
				<path d="M34.8,74.75c0.27,0.5,0.4,1.02,0.4,1.55c-0.03,0.67-0.18,1.3-0.45,1.9c-0.37,0.7-0.82,1.25-1.35,1.65
					c-0.5,0.43-1,0.67-1.5,0.7c-0.63,0.03-1.22-0.05-1.75-0.25l0.55-1.25c0.57,0.23,1.1,0.27,1.6,0.1c0.5-0.23,0.93-0.72,1.3-1.45
					c0.33-0.7,0.47-1.3,0.4-1.8c-0.13-0.47-0.4-0.8-0.8-1c-0.33-0.13-0.68-0.13-1.05,0c-0.3,0.13-0.82,0.6-1.55,1.4
					c-0.7,0.93-1.22,1.53-1.55,1.8c-0.57,0.37-1.1,0.62-1.6,0.75c-0.5,0.07-1-0.03-1.5-0.3c-0.47-0.23-0.87-0.6-1.2-1.1
					c-0.27-0.5-0.42-1.08-0.45-1.75c0.03-0.63,0.23-1.28,0.6-1.95c0.4-0.8,0.87-1.45,1.4-1.95c0.53-0.4,1.15-0.63,1.85-0.7
					c0.6-0.07,1.22,0.05,1.85,0.35l-0.45,1.15c-0.53-0.23-1-0.3-1.4-0.2C27.78,72.5,27.4,72.7,27,73c-0.37,0.3-0.72,0.7-1.05,1.2
					c-0.2,0.47-0.33,0.95-0.4,1.45c0,0.4,0.07,0.75,0.2,1.05c0.13,0.23,0.37,0.43,0.7,0.6c0.3,0.13,0.58,0.18,0.85,0.15
					c0.27-0.1,0.62-0.3,1.05-0.6c0.17-0.2,0.57-0.65,1.2-1.35c0.63-0.73,1.12-1.23,1.45-1.5c0.47-0.3,0.92-0.48,1.35-0.55
					c0.5-0.03,0.95,0.03,1.35,0.2C34.27,73.95,34.63,74.32,34.8,74.75z M18.95,89.7L17,95.75l-1.15-0.4l2.35-7.25l9.95,3.15
					l-2.4,6.95l-1.15-0.4l1.9-5.65l-3-0.9l-1.8,5.35l-1.2-0.4l1.85-5.4L18.95,89.7z M22.2,79.05l9.7,4l-1.55,3.55
					c-0.27,0.6-0.48,1.05-0.65,1.35c-0.3,0.47-0.65,0.8-1.05,1c-0.33,0.23-0.73,0.37-1.2,0.4c-0.5,0-1-0.08-1.5-0.25
					c-0.77-0.3-1.35-0.83-1.75-1.6c-0.3-0.77-0.17-1.8,0.4-3.1l1.05-2.45l-3.95-1.6L22.2,79.05z M25.7,84.85
					c-0.3,0.77-0.38,1.4-0.25,1.9c0.17,0.5,0.5,0.85,1,1.05c0.43,0.2,0.83,0.25,1.2,0.15c0.4-0.1,0.72-0.28,0.95-0.55
					c0.17-0.17,0.37-0.55,0.6-1.15l1.1-2.4l-3.5-1.4L25.7,84.85z M24.2,102.25c0.33,0.8,0.45,1.65,0.35,2.55
					c-0.13,1.03-0.52,1.87-1.15,2.5c-0.63,0.6-1.47,0.98-2.5,1.15l-0.1-1.35c0.8-0.17,1.42-0.45,1.85-0.85
					c0.37-0.37,0.6-0.88,0.7-1.55c0.1-0.83-0.02-1.53-0.35-2.1c-0.3-0.6-0.75-1.05-1.35-1.35c-0.63-0.27-1.28-0.45-1.95-0.55
					c-0.87-0.13-1.63-0.13-2.3,0c-0.7,0.23-1.23,0.6-1.6,1.1c-0.4,0.43-0.65,0.97-0.75,1.6c-0.1,0.77,0.02,1.45,0.35,2.05
					c0.4,0.57,1.03,0.98,1.9,1.25l-0.5,1.35c-1.13-0.4-1.93-1.03-2.4-1.9c-0.47-0.8-0.65-1.73-0.55-2.8c0.17-1.1,0.52-1.93,1.05-2.5
					c0.57-0.63,1.3-1.08,2.2-1.35c0.93-0.23,1.87-0.3,2.8-0.2c1.07,0.13,1.98,0.47,2.75,1C23.35,100.8,23.87,101.45,24.2,102.25z
					 M12.75,114.75v-1.35l9.25,0.1v-3.35h1.25l-0.1,8.15l-1.3-0.15l0.15-3.3L12.75,114.75z M23.4,126.25c-0.1,0.4-0.37,0.77-0.8,1.1
					c-0.4,0.33-0.9,0.57-1.5,0.7c-0.7,0.07-1.35-0.1-1.95-0.5c-0.5-0.47-0.88-1.149-1.15-2.05c-0.17,0.4-0.32,0.7-0.45,0.9
					c-0.27,0.399-0.67,0.8-1.2,1.199L13.7,129.7l-0.2-1.65l1.95-1.649c0.6-0.37,1.05-0.721,1.35-1.051c0.27-0.3,0.47-0.569,0.6-0.8
					c0.1-0.17,0.15-0.37,0.15-0.6c0.03-0.17,0.03-0.431,0-0.8l-0.2-1.551l-4.6,0.601l-0.2-1.351l10.3-1.25l0.55,4.5
					C23.53,125,23.53,125.72,23.4,126.25z M18.55,121.45l0.35,2.899c0.03,0.631,0.12,1.12,0.25,1.45c0.2,0.3,0.47,0.5,0.8,0.601
					c0.33,0.17,0.65,0.25,0.95,0.25c0.5-0.101,0.87-0.32,1.1-0.65c0.3-0.43,0.42-1,0.35-1.7l-0.4-3.3L18.55,121.45z M18.7,131.35
					c-1.27,0.2-2.23,0.681-2.9,1.45c-0.6,0.771-0.83,1.63-0.7,2.601c0.13,1,0.62,1.779,1.45,2.35c0.8,0.57,1.83,0.78,3.1,0.65
					c0.83-0.101,1.55-0.351,2.15-0.75c0.63-0.37,1.08-0.851,1.35-1.45c0.23-0.53,0.32-1.13,0.25-1.8c-0.17-1-0.62-1.78-1.35-2.351
					C21.35,131.42,20.23,131.18,18.7,131.35z M16,130.9c0.77-0.5,1.62-0.82,2.55-0.95c1.63-0.17,3,0.149,4.1,0.95
					c1.1,0.77,1.73,1.869,1.9,3.3c0.13,0.93,0.02,1.819-0.35,2.649c-0.33,0.801-0.88,1.45-1.65,1.95c-0.77,0.53-1.67,0.83-2.7,0.9
					c-1,0.17-1.95,0.1-2.85-0.2c-0.9-0.33-1.6-0.85-2.1-1.55c-0.53-0.7-0.87-1.5-1-2.4c-0.13-1,0-1.88,0.4-2.649
					C14.67,132.07,15.23,131.4,16,130.9z M28.8,149.65l-9.85,3.149l-0.45-1.2l8.2-2.699l-9.15-0.2l-0.4-1.101l7.4-5.5l-8.35,2.7
					l-0.4-1.149l9.85-3.25l0.65,1.949l-6.25,4.551c-0.6,0.33-1.03,0.619-1.3,0.85c0.37,0,0.95,0.03,1.75,0.1l7.75,0.051L28.8,149.65
					z M29.15,153.35l-2.85,1.2l2.25,5.2l-1.15,0.45l-2.3-5.15l-3.25,1.351l2.5,5.8l-1.15,0.45l-3.05-7.051l9.6-4l2.95,6.851
					l-1.15,0.5L29.15,153.35z M33.4,159.7l4.3,6.95l-1,0.649l-1.85-2.95l-7.85,4.7l-0.7-1.2l7.9-4.649l-1.85-3L33.4,159.7z
					 M38.85,177.35l-3.5-4.55l-2.8,2.101l3.85,5.05l-1,0.7l-4.65-6.051l8.2-6.3l4.6,5.95l-1,0.75l-3.7-4.8l-2.5,1.899l3.45,4.5
					L38.85,177.35z M38.65,183.45l-0.8-0.9l7.8-6.85l3.1,3.45c0.57,0.67,0.95,1.25,1.15,1.75c0.17,0.47,0.17,0.97,0,1.5
					c-0.13,0.529-0.43,0.979-0.9,1.35c-0.53,0.43-1.15,0.65-1.85,0.65c-0.7,0-1.45-0.33-2.25-1c0.13,0.369,0.2,0.68,0.2,0.949
					c0,0.53-0.12,1.12-0.35,1.75l-0.9,3.15L42.7,188l0.7-2.45c0.2-0.77,0.37-1.3,0.5-1.6c0.03-0.47,0.03-0.8,0-1
					c-0.03-0.271-0.08-0.48-0.15-0.65c-0.13-0.17-0.28-0.399-0.45-0.7l-1.15-1.1L38.65,183.45z M48.6,181.5c0-0.47-0.27-1-0.8-1.6
					l-2.15-2.45l-2.55,2.25l1.85,2.2c0.47,0.47,0.88,0.77,1.25,0.899c0.3,0.229,0.62,0.32,0.95,0.25c0.3-0.03,0.58-0.17,0.85-0.399
					C48.4,182.35,48.6,181.97,48.6,181.5z"/>
			</g>
		</g>
		<g>
			<g>
				
					<linearGradient id="SVGID_2_" gradientUnits="userSpaceOnUse" x1="-669.3623" y1="788.3994" x2="-618.1363" y2="788.3994" gradientTransform="matrix(1 0 0 1 763.5 -753.5)">
					<stop  offset="0" style="stop-color:#FBFBFB"/>
					<stop  offset="0.3608" style="stop-color:#858B93"/>
					<stop  offset="1" style="stop-color:#797979"/>
				</linearGradient>
				<path fill="url(#SVGID_2_)" d="M94.05,18.6c7.87-2.23,16.13-3.35,24.8-3.35c9.37-0.03,18.18,1.17,26.45,3.6L145.4,54.4
					l-51.2,0.15L94.05,18.6z M95.55,19.55l0.1,33.5l48.2-0.1l-0.1-33.25c-7.83-2.23-16.13-3.33-24.9-3.3
					C110.62,16.43,102.85,17.48,95.55,19.55z"/>
				
					<linearGradient id="SVGID_3_" gradientUnits="userSpaceOnUse" x1="-681.9502" y1="793.7793" x2="-605.5" y2="793.7793" gradientTransform="matrix(1 -3.271181e-004 0 1 763.5 -753.9471)">
					<stop  offset="0" style="stop-color:#F0F0F0"/>
					<stop  offset="0.0431" style="stop-color:#8C8C8C"/>
					<stop  offset="0.5373" style="stop-color:#919191"/>
					<stop  offset="1" style="stop-color:#BEBEBE"/>
				</linearGradient>
				<path fill="url(#SVGID_3_)" d="M94.05,18.6l0.15,35.95l51.2-0.15L145.3,18.85c-8.27-2.43-17.08-3.63-26.45-3.6
					C110.18,15.25,101.92,16.37,94.05,18.6z M157.9,14.4l0.1,57.8l-76.35,0.15l-0.1-58.4c11.53-4.07,23.88-6.13,37.05-6.2
					C132.67,7.68,145.77,9.9,157.9,14.4z"/>
			</g>
			<g>
				
					<linearGradient id="SVGID_4_" gradientUnits="userSpaceOnUse" x1="-678.9487" y1="804.4277" x2="-659.1022" y2="793.946" gradientTransform="matrix(1 0 0 1 763.5 -753.5)">
					<stop  offset="0" style="stop-color:#FBFBFB"/>
					<stop  offset="1" style="stop-color:#FFFFFF;stop-opacity:0"/>
				</linearGradient>
				<path fill="url(#SVGID_4_)" d="M95.6,25.3c1.53,12.37,9.03,21.6,22.5,27.7l-22.45,0.05L95.6,25.3z"/>
				
					<linearGradient id="SVGID_5_" gradientUnits="userSpaceOnUse" x1="-611.4766" y1="774.3184" x2="-635.4843" y2="793.6122" gradientTransform="matrix(1 0 0 1 763.5 -753.5)">
					<stop  offset="0" style="stop-color:#FBFBFB"/>
					<stop  offset="1" style="stop-color:#FFFFFF;stop-opacity:0"/>
				</linearGradient>
				<path fill="url(#SVGID_5_)" d="M143.85,52.95H135.9l-10.5-36.3c6.369,0.37,12.479,1.38,18.35,3.05L143.85,52.95z"/>
			</g>
			<g>
				<g>
					<path fill-opacity="0.2431" d="M149.4,35.35c0.47-0.4,1-0.63,1.6-0.7c0.63,0,1.17,0.23,1.6,0.7c0.4,0.53,0.601,1.13,0.601,1.8
						s-0.2,1.2-0.601,1.6c-0.43,0.57-0.97,0.85-1.6,0.85c-0.6,0-1.13-0.25-1.6-0.75c-0.431-0.47-0.65-1.03-0.65-1.7
						C148.72,36.48,148.93,35.88,149.4,35.35z"/>
				</g>
				<g>
					
						<radialGradient id="SVGID_6_" cx="-429.5869" cy="-158.564" r="3.1629" gradientTransform="matrix(0.0041 1 -0.9368 0.0038 5.6118 465.8453)" gradientUnits="userSpaceOnUse">
						<stop  offset="0" style="stop-color:#FFFFFF"/>
						<stop  offset="0.1961" style="stop-color:#9D9D9D"/>
						<stop  offset="1" style="stop-color:#000000"/>
					</radialGradient>
					<path fill="url(#SVGID_6_)" d="M151.25,33.65c0.63,0,1.2,0.27,1.7,0.8c0.43,0.47,0.649,1.03,0.649,1.7
						c0,0.7-0.22,1.28-0.649,1.75c-0.47,0.43-1.03,0.68-1.7,0.75c-0.53,0-1.02-0.27-1.45-0.8c-0.47-0.47-0.7-1.03-0.7-1.7
						c-0.029-0.73,0.2-1.32,0.7-1.75C150.2,33.93,150.68,33.68,151.25,33.65z"/>
				</g>
			</g>
			<g>
				<g>
					<path fill-opacity="0.2431" d="M86.55,35.45c0.47-0.4,0.98-0.62,1.55-0.65c0.67,0,1.23,0.22,1.7,0.65
						c0.4,0.53,0.62,1.13,0.65,1.8c0,0.7-0.22,1.25-0.65,1.65c-0.47,0.53-1,0.8-1.6,0.8c-0.63,0-1.18-0.25-1.65-0.75
						c-0.43-0.43-0.65-1-0.65-1.7C85.9,36.58,86.12,35.98,86.55,35.45z"/>
				</g>
				<g>
					
						<radialGradient id="SVGID_7_" cx="-492.438" cy="-158.4146" r="3.1625" gradientTransform="matrix(0.0041 1 -0.9368 0.0038 -56.8414 528.8444)" gradientUnits="userSpaceOnUse">
						<stop  offset="0" style="stop-color:#FFFFFF"/>
						<stop  offset="0.1961" style="stop-color:#9D9D9D"/>
						<stop  offset="1" style="stop-color:#000000"/>
					</radialGradient>
					<path fill="url(#SVGID_7_)" d="M88.5,33.75c0.63,0,1.2,0.28,1.7,0.85c0.4,0.43,0.6,0.98,0.6,1.65c0.03,0.73-0.17,1.32-0.6,1.75
						c-0.43,0.47-1,0.72-1.7,0.75c-0.57,0-1.1-0.27-1.6-0.8c-0.47-0.47-0.7-1.03-0.7-1.7c0-0.7,0.23-1.28,0.7-1.75
						C87.33,34.07,87.87,33.82,88.5,33.75z"/>
				</g>
			</g>
			<g>
				
					<linearGradient id="SVGID_8_" gradientUnits="userSpaceOnUse" x1="-2041.1475" y1="-929.0845" x2="-1999.5266" y2="-929.0845" gradientTransform="matrix(-0.9893 0.146 -0.0845 -0.9984 -1957.3612 -612.9456)">
					<stop  offset="0" style="stop-color:#FFFFFF"/>
					<stop  offset="1" style="stop-color:#FBFBFB;stop-opacity:0"/>
				</linearGradient>
				<path fill="url(#SVGID_8_)" d="M98.3,19.7c0.1-0.13,0.22-0.23,0.35-0.3c14.03-3.57,28.13-3.62,42.3-0.15
					c0.13,0,0.229,0.08,0.3,0.25c0.13,0.1,0.18,0.23,0.15,0.4c0,0.17-0.08,0.33-0.25,0.5c-0.131,0.07-0.271,0.08-0.4,0.05
					c-14-3.47-27.97-3.38-41.9,0.25c-0.13,0-0.27-0.02-0.4-0.05c-0.1-0.13-0.17-0.28-0.2-0.45C98.32,20.03,98.33,19.87,98.3,19.7z"
					/>
			</g>
		</g>
		<g>
			<g>
				
					<linearGradient id="SVGID_9_" gradientUnits="userSpaceOnUse" x1="-681.9126" y1="952.2969" x2="-605.5132" y2="952.2969" gradientTransform="matrix(1 -1.635373e-004 0 1 763.5 -753.7244)">
					<stop  offset="0" style="stop-color:#F0F0F0"/>
					<stop  offset="0.0431" style="stop-color:#8C8C8C"/>
					<stop  offset="0.5373" style="stop-color:#919191"/>
					<stop  offset="1" style="stop-color:#BEBEBE"/>
				</linearGradient>
				<path fill="url(#SVGID_9_)" d="M81.7,224.95V166.5l76.399-0.15v57.9c-12.13,4.47-25.229,6.72-39.3,6.75
					C105.63,230.93,93.27,228.92,81.7,224.95z M119.05,223.5c9.33,0.03,18.13-1.2,26.4-3.7v-35.5l-51.2,0.101v35.8
					C102.12,222.37,110.38,223.47,119.05,223.5z"/>
				
					<linearGradient id="SVGID_10_" gradientUnits="userSpaceOnUse" x1="-669.3125" y1="957.4004" x2="-618.1123" y2="957.4004" gradientTransform="matrix(1 0 0 1 763.5 -753.5)">
					<stop  offset="0" style="stop-color:#FBFBFB"/>
					<stop  offset="0.3608" style="stop-color:#858B93"/>
					<stop  offset="1" style="stop-color:#797979"/>
				</linearGradient>
				<path fill="url(#SVGID_10_)" d="M119.05,222.3c8.771,0,17.05-1.13,24.851-3.399V185.8L95.75,185.9v33.35
					C103.02,221.28,110.78,222.3,119.05,222.3z M119.05,223.5c-8.67-0.03-16.93-1.13-24.8-3.3v-35.8l51.2-0.101v35.5
					C137.18,222.3,128.38,223.53,119.05,223.5z"/>
			</g>
			<g>
				
					<linearGradient id="SVGID_11_" gradientUnits="userSpaceOnUse" x1="-2582.0244" y1="-336.6909" x2="-2551.2224" y2="-336.6909" gradientTransform="matrix(-0.7795 -0.6264 0.6264 -0.7795 -1649.6948 -1661.9717)">
					<stop  offset="0" style="stop-color:#FBFBFB"/>
					<stop  offset="1" style="stop-color:#FFFFFF;stop-opacity:0"/>
				</linearGradient>
				<path fill="url(#SVGID_11_)" d="M135.95,185.8h7.95V218.9c-5.83,1.699-11.931,2.75-18.301,3.149L135.95,185.8z"/>
				
					<linearGradient id="SVGID_12_" gradientUnits="userSpaceOnUse" x1="-305.1377" y1="507.9258" x2="-282.6934" y2="507.9258" gradientTransform="matrix(0.8843 0.467 -0.467 0.8843 591.6061 -118.7664)">
					<stop  offset="0" style="stop-color:#FBFBFB"/>
					<stop  offset="1" style="stop-color:#FFFFFF;stop-opacity:0"/>
				</linearGradient>
				<path fill="url(#SVGID_12_)" d="M95.75,213.6V185.9l22.45-0.051C104.7,191.95,97.22,201.2,95.75,213.6z"/>
			</g>
			<g>
				<g>
					<path fill-opacity="0.2431" d="M149.45,199.8c0.5-0.5,1.03-0.75,1.6-0.75c0.63,0,1.181,0.28,1.65,0.851
						c0.399,0.399,0.6,0.93,0.6,1.6s-0.2,1.25-0.6,1.75c-0.47,0.43-1.021,0.65-1.65,0.65c-0.569,0-1.1-0.221-1.6-0.65
						c-0.47-0.5-0.67-1.08-0.601-1.75C148.85,200.83,149.05,200.27,149.45,199.8z"/>
				</g>
				<g>
					
						<radialGradient id="SVGID_13_" cx="-2349.4004" cy="-44.7666" r="3.1624" gradientTransform="matrix(0.0041 -1 -0.9368 -0.0038 120.1557 -2146.5662)" gradientUnits="userSpaceOnUse">
						<stop  offset="0" style="stop-color:#FFFFFF"/>
						<stop  offset="0.1961" style="stop-color:#9D9D9D"/>
						<stop  offset="1" style="stop-color:#000000"/>
					</radialGradient>
					<path fill="url(#SVGID_13_)" d="M149.85,200.8c0.431-0.53,0.931-0.77,1.5-0.7c0.67,0,1.221,0.23,1.65,0.7
						c0.47,0.47,0.7,1.021,0.7,1.65c0,0.7-0.23,1.28-0.7,1.75c-0.5,0.53-1.05,0.78-1.65,0.75c-0.6,0-1.1-0.25-1.5-0.75
						c-0.5-0.47-0.729-1.03-0.699-1.7C149.15,201.83,149.38,201.27,149.85,200.8z"/>
				</g>
			</g>
			<g>
				<g>
					<path fill-opacity="0.2431" d="M88.2,204.05c-0.6,0-1.12-0.229-1.55-0.7c-0.47-0.5-0.7-1.08-0.7-1.75s0.23-1.22,0.7-1.649
						c0.43-0.5,0.97-0.75,1.6-0.75s1.17,0.271,1.6,0.8c0.47,0.4,0.7,0.93,0.7,1.6c-0.07,0.67-0.3,1.25-0.7,1.75
						C89.42,203.82,88.87,204.05,88.2,204.05z"/>
				</g>
				<g>
					
						<radialGradient id="SVGID_14_" cx="-2349.7573" cy="-107.6631" r="3.1622" gradientTransform="matrix(0.0041 -1 -0.9368 -0.0038 -1.6627 -2147.0642)" gradientUnits="userSpaceOnUse">
						<stop  offset="0" style="stop-color:#FFFFFF"/>
						<stop  offset="0.1961" style="stop-color:#9D9D9D"/>
						<stop  offset="1" style="stop-color:#000000"/>
					</radialGradient>
					<path fill="url(#SVGID_14_)" d="M88.6,205.05c-0.63,0-1.18-0.25-1.65-0.75c-0.43-0.43-0.65-1-0.65-1.7
						c0-0.67,0.22-1.22,0.65-1.649c0.5-0.53,1.05-0.78,1.65-0.75c0.67,0,1.22,0.25,1.65,0.75c0.47,0.43,0.67,0.97,0.6,1.6
						c0,0.73-0.2,1.32-0.6,1.75C89.78,204.83,89.23,205.08,88.6,205.05z"/>
				</g>
			</g>
			<g>
				
					<linearGradient id="SVGID_15_" gradientUnits="userSpaceOnUse" x1="-2193.8096" y1="-915.1582" x2="-2152.189" y2="-915.1582" gradientTransform="matrix(-0.9893 -0.146 0.0845 -0.9984 -1952.3914 -1011.9452)">
					<stop  offset="0" style="stop-color:#FFFFFF"/>
					<stop  offset="1" style="stop-color:#FBFBFB;stop-opacity:0"/>
				</linearGradient>
				<path fill="url(#SVGID_15_)" d="M99.05,218.1c13.93,3.601,27.9,3.62,41.9,0.051c0.13,0,0.271,0.07,0.399,0.199
					c0.131,0.101,0.2,0.23,0.2,0.4c0.07,0.13,0.03,0.25-0.1,0.35c-0.07,0.17-0.17,0.271-0.3,0.301
					c-14.2,3.529-28.32,3.52-42.351-0.051c-0.13-0.069-0.23-0.13-0.3-0.199V219c0.03-0.13,0-0.28-0.1-0.45
					c0.07-0.1,0.13-0.25,0.2-0.45C98.73,218.03,98.88,218.03,99.05,218.1z"/>
			</g>
		</g>
		<g>
			<g>
				
					<linearGradient id="SVGID_16_" gradientUnits="userSpaceOnUse" x1="-700.396" y1="863.2393" x2="-484.835" y2="900.5607" gradientTransform="matrix(1 0 0 1 763.5 -753.5)">
					<stop  offset="0" style="stop-color:#6E6E6E"/>
					<stop  offset="1" style="stop-color:#B8C2B7"/>
				</linearGradient>
				<path fill="url(#SVGID_16_)" d="M145.95,56.1c17.33,6.87,29.67,18.95,37,36.25c7.2,17.23,7.22,34.6,0.05,52.1
					c-7.17,17.569-19.4,30.08-36.7,37.55c-17.399,7.6-34.8,7.95-52.2,1.05c-17.33-6.899-29.6-18.979-36.8-36.25
					c-7.23-17.17-7.28-34.53-0.15-52.1c7.13-17.53,19.37-30.07,36.7-37.6C111.15,49.6,128.52,49.27,145.95,56.1z"/>
			</g>
			<g>
				<path fill="#FFFFFF" fill-opacity="0.498" d="M107.85,114.65c0.63-0.9,1.33-1.7,2.1-2.4c1.23-1.1,2.63-2,4.2-2.7
					c0.67-0.27,1.33-0.47,2-0.6c2.73-0.77,5.52-0.6,8.35,0.5c0.6,0.2,1.15,0.47,1.65,0.8c2.67,1.37,4.63,3.47,5.899,6.3
					c1.431,3.33,1.5,6.67,0.2,10c-0.03,0.07-0.07,0.17-0.1,0.3c-0.07,0.131-0.121,0.28-0.15,0.45c-0.2,0.4-0.4,0.8-0.6,1.2
					c-0.67,1.3-1.601,2.42-2.801,3.35c-0.529,0.5-1.13,0.971-1.8,1.4c-0.569,0.37-1.2,0.7-1.899,1c-0.471,0.2-0.931,0.38-1.4,0.55
					v-0.05c-2.3,0.67-4.58,0.75-6.85,0.25c-0.63-0.13-1.27-0.32-1.9-0.55c-0.1,0-0.22-0.03-0.35-0.101
					c-1.43-0.6-2.73-1.399-3.9-2.399c-1.47-1.3-2.63-2.88-3.5-4.75c-0.7-1.67-1.07-3.32-1.1-4.95c-0.1-1.77,0.22-3.53,0.95-5.3
					C107.12,116.18,107.45,115.42,107.85,114.65z M110.35,112.7c-0.7,0.67-1.3,1.45-1.8,2.35c-0.47,0.67-0.83,1.37-1.1,2.1
					c-0.63,1.67-0.92,3.35-0.85,5.05c0.03,1.569,0.37,3.13,1,4.7c0.8,1.77,1.9,3.279,3.3,4.55c1.13,0.97,2.42,1.729,3.85,2.3
					c0.1,0.07,0.18,0.1,0.25,0.1c0.6,0.131,1.22,0.32,1.85,0.551c2.13,0.43,4.28,0.319,6.45-0.351c0.431-0.13,0.88-0.28,1.351-0.45
					c0.629-0.3,1.229-0.58,1.8-0.85c0.7-0.4,1.28-0.85,1.75-1.35c1.1-0.9,1.97-1.98,2.6-3.25c0.2-0.37,0.37-0.75,0.5-1.15
					c0.07-0.13,0.13-0.25,0.2-0.35c0.07-0.131,0.1-0.271,0.1-0.4c1.271-3.13,1.2-6.25-0.199-9.35c-1.17-2.8-3.03-4.85-5.601-6.15
					c-0.03,0-0.079,0-0.149,0c-0.37-0.27-0.82-0.47-1.351-0.6c-2.63-1.13-5.32-1.32-8.05-0.55c-0.6,0.13-1.22,0.33-1.85,0.6v-0.05
					C112.87,110.82,111.52,111.67,110.35,112.7z M109.3,99.3c1.43-0.63,2.85-1.08,4.25-1.35c4.93-1.17,9.88-0.8,14.851,1.1
					c1.029,0.4,1.979,0.82,2.85,1.25h0.05c4.9,2.7,8.5,6.67,10.8,11.9c2.67,6.07,2.82,12.13,0.45,18.2
					c-0.069,0.199-0.149,0.369-0.25,0.5c-0.1,0.33-0.18,0.63-0.25,0.899c-1.5,3.37-3.55,6.15-6.149,8.351
					c-1.93,1.729-4.25,3.149-6.95,4.25c-0.9,0.33-1.771,0.649-2.601,0.949c-0.129,0-0.229,0-0.3,0c-0.069,0-0.13,0-0.2,0
					c-0.129,0.101-0.279,0.181-0.449,0.25c-5,1.301-10.021,1.03-15.05-0.8c-0.13-0.03-0.28-0.1-0.45-0.2
					c-2.7-1.029-5.08-2.479-7.15-4.35c-2.77-2.27-4.9-5.2-6.4-8.8c-2.77-6.271-2.88-12.521-0.35-18.75c0.4-1.03,0.87-2.02,1.4-2.95
					c0.23-0.4,0.43-0.77,0.6-1.1C100.77,104.45,104.53,101.33,109.3,99.3z M109.6,99.9h-0.05c-4.63,1.93-8.28,4.95-10.95,9.05
					c-0.17,0.33-0.38,0.72-0.65,1.15c-0.47,0.93-0.92,1.88-1.35,2.85c-2.43,6.07-2.32,12.17,0.35,18.3c1.47,3.4,3.53,6.25,6.2,8.55
					c2,1.73,4.33,3.15,7,4.25c0.2,0.07,0.38,0.13,0.55,0.2c4.8,1.77,9.63,2,14.5,0.7c0.2,0,0.35-0.07,0.45-0.2
					c0.129-0.03,0.199-0.02,0.199,0.05c0.07-0.069,0.17-0.1,0.301-0.1c0.83-0.3,1.699-0.63,2.6-1c2.57-1.07,4.82-2.42,6.75-4.05
					c2.5-2.2,4.45-4.92,5.85-8.15c0.131-0.27,0.25-0.53,0.351-0.8c0.03-0.17,0.12-0.37,0.25-0.601c2.2-5.93,2.03-11.819-0.5-17.649
					c-2.229-5.07-5.75-8.88-10.55-11.45v-0.05c-0.83-0.47-1.73-0.9-2.7-1.3c-4.83-1.87-9.63-2.23-14.4-1.1
					C112.37,98.82,110.97,99.27,109.6,99.9z M135.85,92.35c6.631,3.47,11.48,8.75,14.551,15.85c3.57,8.13,3.779,16.319,0.649,24.55
					c-0.069,0.2-0.18,0.43-0.35,0.7c-0.13,0.37-0.271,0.729-0.4,1.1c-2,4.5-4.75,8.25-8.25,11.25c-2.63,2.37-5.72,4.28-9.25,5.75
					c-1.47,0.601-2.97,1.101-4.5,1.5c-3.729,1.07-7.479,1.431-11.25,1.101c-3.37-0.301-6.7-1.08-10-2.351
					c-1.2-0.5-2.47-1.08-3.8-1.75c-2.13-1.17-4.1-2.52-5.9-4.05c-3.7-3.1-6.58-7.03-8.65-11.8c-2.63-6.17-3.43-12.3-2.4-18.4
					c0.43-2.33,1.13-4.65,2.1-6.95c0.8-2,1.72-3.83,2.75-5.5c3.6-5.63,8.65-9.75,15.15-12.35c1.87-0.8,3.7-1.43,5.5-1.9
					c6.5-1.57,12.98-1.15,19.45,1.25c0.27,0.13,0.53,0.23,0.8,0.3C133.35,91.12,134.62,91.68,135.85,92.35z M149.7,108.5
					c-2.97-6.97-7.7-12.15-14.2-15.55c-1.2-0.67-2.43-1.25-3.7-1.75c-0.229-0.07-0.479-0.15-0.75-0.25
					c-6.33-2.3-12.68-2.72-19.05-1.25c-1.8,0.47-3.6,1.08-5.4,1.85v0.05c-6.4,2.6-11.35,6.65-14.85,12.15
					c-1.03,1.67-1.95,3.43-2.75,5.3c-0.9,2.3-1.58,4.6-2.05,6.9c-1.03,5.93-0.22,11.899,2.45,17.899c2.07,4.73,4.85,8.631,8.35,11.7
					c1.8,1.53,3.75,2.83,5.85,3.9c1.27,0.63,2.52,1.22,3.75,1.75c3.23,1.27,6.47,2.05,9.7,2.35c3.771,0.271,7.47-0.1,11.101-1.1
					c1.5-0.47,2.93-1.021,4.3-1.65c3.569-1.43,6.63-3.27,9.2-5.5c3.399-2.93,6.069-6.58,8-10.95c0.13-0.399,0.27-0.77,0.399-1.1
					c0.17-0.27,0.3-0.53,0.4-0.8C153.42,124.42,153.17,116.43,149.7,108.5z M138.45,73.5c13.3,5.23,22.75,14.28,28.35,27.15
					c5.63,12.93,5.78,25.9,0.45,38.9c-0.1,0.3-0.23,0.58-0.4,0.851c-0.1,0.27-0.18,0.529-0.25,0.8
					c-2.77,6.17-6.449,11.479-11.05,15.95c-4.399,4.229-9.7,7.649-15.899,10.25c-2.33,0.93-4.67,1.72-7,2.35
					c-10.771,2.93-21.63,2.25-32.601-2.05c-13.2-5.2-22.62-14.28-28.25-27.25c-5.6-12.931-5.75-25.88-0.45-38.85
					c1.2-3.03,2.63-5.8,4.3-8.3c5.43-8.77,13.18-15.229,23.25-19.4c2.7-1.13,5.38-2.03,8.05-2.7
					C117.42,68.57,127.92,69.33,138.45,73.5z M166.15,100.95c-5.57-12.63-14.87-21.57-27.9-26.8c-10.4-4.13-20.77-4.9-31.1-2.3
					c-2.63,0.67-5.27,1.55-7.9,2.65C89.22,78.67,81.53,85.02,76.2,93.55c-1.57,2.57-2.98,5.33-4.25,8.3
					c-5.23,12.8-5.05,25.6,0.55,38.4c5.47,12.73,14.73,21.68,27.8,26.85c10.8,4.271,21.521,4.92,32.15,1.95
					c2.33-0.6,4.649-1.38,6.95-2.35c6.1-2.57,11.319-5.931,15.649-10.101c4.5-4.399,8.12-9.63,10.851-15.699
					c0.13-0.23,0.25-0.48,0.35-0.75c0.13-0.271,0.25-0.53,0.35-0.801C171.83,126.48,171.68,113.68,166.15,100.95z M147.6,89.05
					c4.67,3.97,8.301,9,10.9,15.1c4.7,10.67,4.85,21.38,0.45,32.15c-0.13,0.47-0.33,0.92-0.601,1.351
					c-4.33,10.029-11.729,17.25-22.199,21.649c-1.83,0.771-3.721,1.42-5.65,1.95c-8.97,2.5-18,1.95-27.1-1.65
					c-1.6-0.67-3.2-1.38-4.8-2.149c0-0.07-0.02-0.101-0.05-0.101l-0.05-0.1c-8.37-4.43-14.55-11.13-18.55-20.1
					c-0.4-1.03-0.75-2.07-1.05-3.101c-3.43-9.7-3.22-19.42,0.65-29.15c1.03-2.53,2.23-4.87,3.6-7c4.57-7.17,11-12.45,19.3-15.85
					c2.3-0.97,4.55-1.73,6.75-2.3c8.63-2.13,17.28-1.48,25.95,1.95C139.92,83.53,144.07,85.98,147.6,89.05z M157.9,104.35
					c-2.57-5.93-6.15-10.85-10.75-14.75c-3.471-3-7.551-5.43-12.25-7.3c-8.5-3.33-17-3.98-25.5-1.95c-2.2,0.63-4.42,1.42-6.65,2.35
					c-8.23,3.33-14.57,8.53-19,15.6c-1.3,2.13-2.47,4.42-3.5,6.85c-3.87,9.57-4.12,19.13-0.75,28.7c0.37,1,0.75,2.021,1.15,3.051
					c3.9,8.8,9.95,15.399,18.15,19.8c0.07,0.069,0.12,0.12,0.15,0.149c1.53,0.771,3.12,1.471,4.75,2.101
					c8.83,3.53,17.729,4.05,26.7,1.55c1.869-0.5,3.68-1.13,5.449-1.9c10.271-4.27,17.57-11.33,21.9-21.199
					c0.17-0.471,0.35-0.92,0.55-1.351C162.63,125.45,162.5,114.88,157.9,104.35z M141.85,66.1c-12.229-4.87-24.419-5.75-36.55-2.65
					c-3.07,0.77-6.15,1.8-9.25,3.1C81.65,72.62,71.3,82.63,65,96.6c-0.27,0.63-0.57,1.28-0.9,1.95c-6,15.1-5.78,30.101,0.65,45
					C71.22,158.48,82.1,168.97,97.4,175c12.5,4.97,25.02,5.73,37.55,2.3c2.729-0.729,5.45-1.68,8.149-2.85
					c11.67-4.83,20.67-12.271,27-22.3c1.93-3,3.58-6.221,4.95-9.65c6.17-15.13,6-30.13-0.5-45C168.02,82.67,157.12,72.2,141.85,66.1
					z M95.8,65.95c3.13-1.33,6.23-2.4,9.3-3.2c12.27-3.1,24.6-2.2,37,2.7c15.471,6.13,26.48,16.72,33.051,31.75
					c6.6,15.1,6.77,30.28,0.5,45.55c-1.37,3.5-3.051,6.75-5.051,9.75c-6.369,10.2-15.42,17.75-27.149,22.65
					c-2.8,1.17-5.58,2.1-8.351,2.8c-12.629,3.47-25.28,2.7-37.95-2.3c-15.5-6.101-26.52-16.73-33.05-31.9
					c-6.57-15.07-6.77-30.22-0.6-45.45c0.27-0.63,0.55-1.27,0.85-1.9C70.68,82.23,81.17,72.08,95.8,65.95z"/>
			</g>
			<g>
				<path fill="#272727" d="M139,72.35c13.37,5.3,22.85,14.38,28.45,27.25c5.6,13,5.729,26.05,0.399,39.15
					c-0.1,0.3-0.22,0.57-0.35,0.8v0.05c-0.13,0.271-0.23,0.521-0.3,0.75L167.1,140.4c-2.699,6.13-6.399,11.449-11.1,15.949
					c-4.27,4.271-9.53,7.681-15.8,10.25c-2.73,1.17-5.45,2.051-8.15,2.65c-10.5,2.67-21.07,1.93-31.7-2.2
					C87.08,161.78,77.63,152.65,72,139.65c-5.6-13.03-5.75-26.05-0.45-39.05c1.23-3,2.67-5.8,4.3-8.4
					c5.43-8.7,13.25-15.18,23.45-19.45c2.33-0.97,4.65-1.78,6.95-2.45C117.12,67.4,128.03,68.08,139,72.35z M158.15,103.55
					c-2.57-5.9-6.15-10.8-10.75-14.7c-3.4-3-7.45-5.43-12.15-7.3c-8.87-3.47-17.68-4-26.45-1.6c-1.83,0.57-3.65,1.23-5.45,2
					c-8.17,3.33-14.5,8.52-19,15.55c-1.37,2.1-2.53,4.37-3.5,6.8c-3.8,9.57-4.03,19.101-0.7,28.601c0.33,0.97,0.72,1.93,1.15,2.899
					c3.87,8.771,9.87,15.37,18,19.8c0.1,0.03,0.17,0.07,0.2,0.101c1.53,0.77,3.08,1.47,4.65,2.1c8.5,3.4,16.97,4.03,25.4,1.9
					c2.271-0.53,4.5-1.271,6.7-2.2c10.23-4.27,17.45-11.32,21.65-21.15c0.27-0.43,0.479-0.88,0.649-1.35
					C162.82,124.47,162.68,113.98,158.15,103.55z M148.25,88c4.67,3.97,8.33,9,11,15.1c4.67,10.73,4.77,21.52,0.3,32.35
					c-0.13,0.47-0.33,0.93-0.6,1.399c-4.37,10.07-11.78,17.301-22.25,21.7c-2.3,0.931-4.57,1.681-6.8,2.25
					c-8.67,2.17-17.38,1.55-26.15-1.85c-1.63-0.67-3.23-1.431-4.8-2.3c-0.03,0-0.08-0.021-0.15-0.051l-0.05-0.1
					c-8.4-4.47-14.57-11.2-18.5-20.2c-0.47-1.03-0.85-2.05-1.15-3.05c-3.47-9.8-3.25-19.58,0.65-29.35c1.03-2.5,2.23-4.83,3.6-7
					c4.57-7.23,11.07-12.57,19.5-16c1.93-0.83,3.82-1.48,5.65-1.95c9.07-2.53,18.12-2,27.15,1.6C140.45,82.42,144.65,84.9,148.25,88
					z M104.7,63.05c-2.73,0.7-5.43,1.62-8.1,2.75c-14.43,6.07-24.77,16.08-31,30.05c-0.27,0.63-0.53,1.27-0.8,1.9
					c-6.07,14.97-5.88,29.9,0.55,44.8c6.4,14.83,17.25,25.28,32.55,31.351c12.13,4.8,24.22,5.63,36.25,2.5
					c3.199-0.771,6.319-1.801,9.35-3.101c11.57-4.83,20.5-12.229,26.8-22.2c1.931-3.029,3.58-6.25,4.95-9.649
					c6.13-15.03,5.98-29.97-0.45-44.8c-6.5-14.8-17.399-25.22-32.7-31.25C129.57,60.4,117.1,59.62,104.7,63.05z M96.15,64.7
					c2.77-1.1,5.52-2.03,8.25-2.8c12.63-3.37,25.331-2.55,38.1,2.45c15.6,6.1,26.72,16.72,33.35,31.85
					c6.57,15.13,6.73,30.35,0.5,45.649c-1.43,3.5-3.1,6.78-5,9.851c-6.5,10.2-15.619,17.771-27.35,22.7
					c-3.2,1.3-6.37,2.35-9.5,3.149c-12.33,3.13-24.67,2.25-37-2.649c-15.6-6.101-26.65-16.75-33.15-31.95
					c-6.6-15.13-6.83-30.33-0.7-45.6c0.3-0.63,0.6-1.3,0.9-2C70.92,81.18,81.45,70.97,96.15,64.7z M138.6,73.4
					c-10.729-4.23-21.43-4.9-32.1-2c-2.23,0.63-4.5,1.42-6.8,2.35c-9.93,4.17-17.57,10.52-22.9,19.05c-1.57,2.53-2.97,5.27-4.2,8.2
					c-5.17,12.73-4.98,25.47,0.55,38.2c5.43,12.67,14.65,21.6,27.65,26.8c10.37,4.07,20.671,4.8,30.9,2.2
					c2.7-0.67,5.38-1.57,8.05-2.7c6.07-2.47,11.23-5.78,15.5-9.95c4.53-4.37,8.15-9.569,10.85-15.6c0.131-0.271,0.25-0.53,0.351-0.8
					v-0.101c0.13-0.2,0.271-0.43,0.399-0.7c5.2-12.869,5.03-25.63-0.5-38.3C160.85,87.45,151.6,78.57,138.6,73.4z M110.95,111.95
					v-0.05c-0.67,0.7-1.27,1.47-1.8,2.3c-0.4,0.67-0.77,1.37-1.1,2.1c-0.6,1.63-0.88,3.28-0.85,4.95c0.03,1.57,0.4,3.1,1.1,4.6h-0.1
					c0.87,1.801,1.95,3.33,3.25,4.601v-0.101c1.13,0.931,2.38,1.7,3.75,2.301c0.1,0,0.2,0,0.3,0v0.05c0.57,0.2,1.15,0.38,1.75,0.55
					c1.8,0.4,3.6,0.4,5.4,0c0.729-0.17,1.52-0.43,2.35-0.8c0.63-0.271,1.22-0.55,1.75-0.851c0.63-0.47,1.22-0.899,1.75-1.3
					l0.05-0.05c1-0.87,1.82-1.9,2.45-3.1c0.17-0.4,0.33-0.78,0.5-1.15c0.07-0.17,0.12-0.33,0.15-0.5
					c0.029-0.03,0.08-0.12,0.149-0.25c1.271-3.1,1.22-6.18-0.149-9.25c-1.17-2.67-3-4.63-5.5-5.9h-0.101
					c-0.43-0.3-0.899-0.53-1.399-0.7c-2.601-1.07-5.25-1.25-7.95-0.55c-0.3,0.1-0.62,0.22-0.95,0.35c-0.3,0.03-0.57,0.1-0.8,0.2
					C113.42,110.03,112.08,110.88,110.95,111.95z M107,115.8c0.37-0.7,0.75-1.42,1.15-2.15c0.63-1,1.33-1.85,2.1-2.55
					c1.23-1.1,2.63-1.98,4.2-2.65c0.3-0.13,0.58-0.25,0.85-0.35l0.05-0.05c0.37-0.1,0.75-0.18,1.15-0.25h-0.05
					c2.87-0.77,5.729-0.6,8.6,0.5c0.601,0.2,1.13,0.47,1.601,0.8c2.77,1.43,4.8,3.58,6.1,6.45c1.37,3.37,1.4,6.73,0.1,10.101
					c-0.029,0.13-0.05,0.25-0.05,0.35c-0.1,0.13-0.17,0.28-0.2,0.45c-0.17,0.47-0.369,0.85-0.6,1.149v0.101
					c-0.73,1.33-1.65,2.47-2.75,3.399c-0.6,0.5-1.23,0.98-1.9,1.45c-0.6,0.33-1.229,0.65-1.899,0.95
					c-0.9,0.37-1.771,0.65-2.601,0.85c-1.93,0.4-3.899,0.4-5.899,0h-0.05c-0.63-0.199-1.23-0.38-1.8-0.55
					c-0.1-0.03-0.2-0.08-0.3-0.149c-1.53-0.57-2.88-1.37-4.05-2.4h-0.05c-1.43-1.3-2.6-2.95-3.5-4.95c-0.7-1.7-1.08-3.38-1.15-5.05
					C105.98,119.45,106.3,117.63,107,115.8z M113.15,98.15c-1,0.27-2,0.63-3,1.1c-4.67,1.87-8.28,4.82-10.85,8.85
					c-0.23,0.37-0.47,0.75-0.7,1.15c-0.47,0.97-0.92,1.92-1.35,2.85c-2.4,6.07-2.3,12.08,0.3,18.05c1.47,3.47,3.53,6.319,6.2,8.55
					c1.93,1.7,4.23,3.1,6.9,4.2c0.17,0.1,0.32,0.17,0.45,0.199h0.05c4.63,1.7,9.22,2.021,13.75,0.95c0.07-0.069,0.119-0.069,0.149,0
					h0.05c0.07-0.069,0.121-0.1,0.15-0.1c0.13-0.07,0.25-0.12,0.35-0.15c1.17-0.27,2.32-0.68,3.45-1.25h0.05
					c2.5-0.97,4.721-2.28,6.65-3.95c2.471-2.17,4.4-4.869,5.8-8.1c0.13-0.27,0.25-0.52,0.351-0.75c0.1-0.2,0.17-0.4,0.199-0.6
					c2.301-5.87,2.17-11.7-0.399-17.5c-2.2-5.03-5.67-8.83-10.4-11.4c-0.03,0-0.069,0-0.1,0c-0.83-0.5-1.72-0.95-2.65-1.35
					C123.35,96.97,118.22,96.72,113.15,98.15z M109.6,98.15c1.1-0.4,2.18-0.77,3.25-1.1c5.4-1.53,10.77-1.23,16.1,0.9
					c1,0.33,1.95,0.77,2.85,1.3c4.97,2.7,8.62,6.7,10.95,12c2.63,6.07,2.78,12.15,0.45,18.25c-0.101,0.23-0.17,0.45-0.2,0.65
					c-0.17,0.229-0.28,0.479-0.35,0.75v0.1c-1.5,3.3-3.53,6.12-6.101,8.45c-2,1.67-4.35,3.069-7.05,4.2
					c-1.2,0.5-2.42,0.92-3.65,1.25h-0.199l-0.051,0.05c-0.1,0.03-0.199,0.05-0.3,0.05h-0.05c-4.8,1.17-9.63,0.88-14.5-0.85
					c-0.17-0.07-0.33-0.131-0.5-0.2c-2.8-1.07-5.22-2.55-7.25-4.45c-2.8-2.33-4.95-5.28-6.45-8.85c-2.8-6.33-2.92-12.65-0.35-18.95
					c0.4-1.03,0.87-2.02,1.4-2.95c0.27-0.47,0.5-0.88,0.7-1.25C101,103.3,104.77,100.18,109.6,98.15z M150,107.65
					c-2.97-6.9-7.68-12.07-14.15-15.5c-1.229-0.57-2.47-1.1-3.699-1.6c-0.23-0.1-0.48-0.2-0.75-0.3
					c-6.67-2.47-13.351-2.78-20.05-0.95h0.1c-1.43,0.47-2.87,0.97-4.3,1.5c-6.4,2.6-11.33,6.62-14.8,12.05
					c-1.03,1.67-1.95,3.47-2.75,5.4c-0.9,2.3-1.58,4.57-2.05,6.8c-0.93,5.9-0.12,11.83,2.45,17.8c2.03,4.67,4.82,8.551,8.35,11.65
					c1.77,1.47,3.7,2.72,5.8,3.75c1.27,0.67,2.48,1.27,3.65,1.8c3.23,1.271,6.47,2.05,9.7,2.351c3.33,0.27,6.63-0.021,9.9-0.851
					c1.83-0.5,3.649-1.1,5.449-1.8c3.471-1.47,6.48-3.3,9.051-5.5c3.399-2.9,6.05-6.57,7.949-11c0.17-0.33,0.32-0.68,0.45-1.05
					c0.101-0.271,0.2-0.521,0.3-0.75C153.6,123.45,153.4,115.52,150,107.65z M136.35,91.2c6.7,3.57,11.601,8.92,14.7,16.05
					c3.47,8.1,3.67,16.3,0.601,24.6c-0.07,0.23-0.17,0.48-0.301,0.75c-0.1,0.37-0.229,0.75-0.399,1.15l-0.101,0.05
					c-1.93,4.47-4.649,8.2-8.149,11.2c-2.63,2.33-5.78,4.27-9.45,5.8c-1.83,0.771-3.68,1.38-5.55,1.851
					c-3.37,0.869-6.82,1.149-10.35,0.85c-3.3-0.33-6.62-1.12-9.95-2.35c-1.3-0.57-2.58-1.181-3.85-1.851
					c-2.13-1.17-4.08-2.52-5.85-4.05c-3.73-3.2-6.63-7.2-8.7-12c-2.7-6.17-3.53-12.3-2.5-18.4c0.43-2.37,1.1-4.7,2-7
					c0.83-1.97,1.78-3.83,2.85-5.6c3.63-5.63,8.73-9.78,15.3-12.45c1.5-0.63,2.97-1.15,4.4-1.55c6.9-1.9,13.78-1.62,20.65,0.85h0.1
					c0.271,0.13,0.521,0.25,0.75,0.35C133.88,89.98,135.15,90.57,136.35,91.2z"/>
			</g>
			<g>
				
					<radialGradient id="SVGID_17_" cx="-961.5762" cy="-838.2437" r="6.9727" gradientTransform="matrix(-0.3836 0.6338 -0.6204 -0.3611 -734.29 378.8324)" gradientUnits="userSpaceOnUse">
					<stop  offset="0" style="stop-color:#000000"/>
					<stop  offset="0.4784" style="stop-color:#000000;stop-opacity:0.7843"/>
					<stop  offset="0.5725" style="stop-color:#000000;stop-opacity:0.5765"/>
					<stop  offset="0.8" style="stop-color:#000000;stop-opacity:0.0275"/>
					<stop  offset="0.8824" style="stop-color:#000000;stop-opacity:0"/>
				</radialGradient>
				<path fill="url(#SVGID_17_)" d="M157.38,75.96c-1.11,0.81-2.31,1.13-3.6,0.95c-1.32-0.17-2.36-0.79-3.11-1.86
					c-0.75-1.07-1-2.27-0.75-3.61c0.221-1.33,0.87-2.41,1.96-3.23c1.09-0.83,2.29-1.15,3.61-0.98c1.29,0.18,2.32,0.81,3.09,1.89
					c0.74,1.09,0.99,2.29,0.75,3.61C159.109,74.08,158.46,75.15,157.38,75.96z"/>
				<g>
					
						<linearGradient id="SVGID_18_" gradientUnits="userSpaceOnUse" x1="-609.8242" y1="822.0752" x2="-607.3984" y2="827.6358" gradientTransform="matrix(1 0 0 1 763.5 -753.5)">
						<stop  offset="0" style="stop-color:#7E8396"/>
						<stop  offset="1" style="stop-color:#FDFDFB"/>
					</linearGradient>
					<path fill="url(#SVGID_18_)" d="M157.7,70.2c0.3,0.77,0.3,1.53,0,2.3s-0.82,1.3-1.55,1.6c-0.771,0.37-1.57,0.4-2.4,0.1
						c-0.8-0.33-1.35-0.88-1.65-1.65c-0.369-0.73-0.399-1.48-0.1-2.25c0.33-0.77,0.9-1.33,1.7-1.7c0.77-0.3,1.53-0.28,2.3,0.05
						C156.8,68.92,157.37,69.43,157.7,70.2z"/>
				</g>
				<g>
					
						<radialGradient id="SVGID_19_" cx="-849.8057" cy="-1047.3291" r="3.4188" gradientTransform="matrix(-0.3802 0.9249 -0.9468 -0.3729 -1158.1846 466.8464)" gradientUnits="userSpaceOnUse">
						<stop  offset="0" style="stop-color:#FFFFFF"/>
						<stop  offset="0.3333" style="stop-color:#FEFEFE;stop-opacity:0.7961"/>
						<stop  offset="1" style="stop-color:#F6F6F6;stop-opacity:0"/>
					</radialGradient>
					<path fill="url(#SVGID_19_)" d="M155.1,69.3c0.83,0.37,1.431,0.95,1.801,1.75c0.3,0.83,0.3,1.62,0,2.35
						c-0.101,0.43-0.28,0.78-0.551,1.05l-0.5,0.5l-1-0.85l0.5-0.55c0.131-0.17,0.23-0.37,0.301-0.6c0.199-0.4,0.18-0.85-0.051-1.35
						c-0.17-0.43-0.479-0.77-0.949-1c-0.43-0.13-0.9-0.13-1.4,0l-0.6,0.25l-0.5-1.2l0.6-0.35C153.58,69.03,154.37,69.03,155.1,69.3z
						"/>
				</g>
			</g>
			<g>
				
					<radialGradient id="SVGID_20_" cx="-961.5874" cy="-838.2432" r="6.9783" gradientTransform="matrix(-0.3836 0.6338 -0.6204 -0.3611 -734.3398 474.7328)" gradientUnits="userSpaceOnUse">
					<stop  offset="0" style="stop-color:#000000"/>
					<stop  offset="0.4784" style="stop-color:#000000;stop-opacity:0.7843"/>
					<stop  offset="0.5725" style="stop-color:#000000;stop-opacity:0.5765"/>
					<stop  offset="0.8" style="stop-color:#000000;stop-opacity:0.0275"/>
					<stop  offset="0.8824" style="stop-color:#000000;stop-opacity:0"/>
				</radialGradient>
				<path fill="url(#SVGID_20_)" d="M157.33,171.859c-1.11,0.811-2.311,1.131-3.6,0.951c-1.32-0.17-2.36-0.791-3.11-1.851
					c-0.75-1.069-1-2.271-0.75-3.61c0.22-1.33,0.87-2.41,1.96-3.229c1.09-0.83,2.29-1.15,3.609-0.979
					c1.291,0.18,2.32,0.81,3.091,1.89c0.739,1.09,0.989,2.29,0.75,3.61C159.061,169.98,158.41,171.05,157.33,171.859z"/>
				<g>
					
						<linearGradient id="SVGID_21_" gradientUnits="userSpaceOnUse" x1="-610.3818" y1="918.8545" x2="-607.9556" y2="924.416" gradientTransform="matrix(1 0 0 1 763.5 -753.5)">
						<stop  offset="0" style="stop-color:#7E8396"/>
						<stop  offset="1" style="stop-color:#FDFDFB"/>
					</linearGradient>
					<path fill="url(#SVGID_21_)" d="M155.45,165.45c0.83,0.3,1.399,0.78,1.7,1.45c0.369,0.77,0.369,1.569,0,2.399
						c-0.271,0.771-0.801,1.32-1.601,1.65c-0.771,0.329-1.53,0.329-2.3,0c-0.8-0.3-1.38-0.83-1.75-1.601
						c-0.33-0.8-0.35-1.58-0.05-2.35c0.329-0.73,0.88-1.25,1.649-1.55C153.9,165.12,154.68,165.12,155.45,165.45z"/>
				</g>
				<g>
					
						<radialGradient id="SVGID_22_" cx="-760.2983" cy="-1083.7935" r="3.4197" gradientTransform="matrix(-0.3802 0.9249 -0.9468 -0.3729 -1158.7783 466.6121)" gradientUnits="userSpaceOnUse">
						<stop  offset="0" style="stop-color:#FFFFFF"/>
						<stop  offset="0.3333" style="stop-color:#FEFEFE;stop-opacity:0.7961"/>
						<stop  offset="1" style="stop-color:#F6F6F6;stop-opacity:0"/>
					</radialGradient>
					<path fill="url(#SVGID_22_)" d="M156.8,167.3h0.05c0.33,0.8,0.33,1.58,0,2.351c-0.13,0.33-0.33,0.649-0.6,0.949l-0.45,0.5
						l-1-0.85l0.45-0.5c0.13-0.17,0.25-0.38,0.35-0.65c0.17-0.399,0.131-0.85-0.1-1.35c-0.17-0.47-0.47-0.78-0.9-0.95
						c-0.47-0.17-0.949-0.18-1.449-0.05L152.55,167l-0.45-1.15l0.601-0.35c0.771-0.27,1.55-0.23,2.35,0.1
						C155.85,165.9,156.43,166.47,156.8,167.3z"/>
				</g>
			</g>
			<g>
				
					<radialGradient id="SVGID_23_" cx="-487.3984" cy="-181.5718" r="84.7587" gradientTransform="matrix(-0.1932 0.9812 -0.9796 -0.1929 -93.537 533.6164)" gradientUnits="userSpaceOnUse">
					<stop  offset="0" style="stop-color:#FFFFFF"/>
					<stop  offset="1" style="stop-color:#FAFAFA;stop-opacity:0"/>
				</radialGradient>
				<path fill="url(#SVGID_23_)" d="M185.6,131.8c3.57-18.07,0.23-34.7-10-49.9C165.4,66.63,151.32,57.25,133.35,53.75
					c-18-3.43-34.649-0.03-49.95,10.2c-4.77,3.23-8.97,6.85-12.6,10.85c-0.13,0.13-0.3,0.18-0.5,0.15c-0.13,0.03-0.27-0.02-0.4-0.15
					c-0.07-0.13-0.13-0.27-0.2-0.4c0-0.13,0.07-0.27,0.2-0.4c3.7-4,7.97-7.65,12.8-10.95c15.57-10.4,32.52-13.87,50.85-10.4
					c18.23,3.57,32.57,13.12,43,28.65c10.37,15.43,13.73,32.35,10.101,50.75c-3.53,17.63-12.631,31.63-27.301,42
					c-0.129,0.101-0.27,0.15-0.399,0.15c-0.17-0.101-0.32-0.2-0.45-0.3c-0.1-0.131-0.15-0.271-0.15-0.4
					c0.101-0.17,0.2-0.3,0.301-0.4C173.08,162.97,182.07,149.2,185.6,131.8z"/>
			</g>
			<g>
				
					<radialGradient id="SVGID_24_" cx="-1455.1113" cy="1101.3936" r="84.4859" gradientTransform="matrix(0.7364 -0.6766 0.6298 0.7225 434.0682 -1672.2722)" gradientUnits="userSpaceOnUse">
					<stop  offset="0" style="stop-color:#FFFFFF"/>
					<stop  offset="1" style="stop-color:#FAFAFA;stop-opacity:0"/>
				</radialGradient>
				<path fill="url(#SVGID_24_)" d="M121,52.7c-0.17,0.07-0.3,0.12-0.4,0.15c-16.93-0.1-31.919,5.83-44.95,17.8
					c-13.5,12.47-20.92,27.77-22.25,45.9c-1.4,18.13,3.63,33.82,15.1,47.05h0.05c7.87,8.971,17.2,15.051,28,18.25v1.101
					c-11.17-3.2-20.8-9.4-28.9-18.601C55.98,150.88,50.87,134.9,52.3,116.4c1.37-18.43,8.92-33.93,22.65-46.5
					C88.18,57.73,103.4,51.7,120.6,51.8c0.131-0.07,0.271-0.03,0.4,0.1c0.1,0.1,0.17,0.27,0.2,0.5
					C121.2,52.53,121.13,52.63,121,52.7z"/>
			</g>
		</g>
	</g>
</g>
<g id="Layer_2">
	<g>
		<g>
			<path fill="#252624" d="M108.67,14.35c-0.97-1.8-1.48-2.7-2.55-4.47c0.29-0.06,0.44-0.09,0.73-0.14
				c0.51,0.88,0.76,1.32,1.24,2.21c0.33,0.61,0.62,1.16,0.84,1.7c0.01,0,0.01,0,0.01,0c0.04-0.58,0.15-1.22,0.27-1.88
				c0.19-1,0.29-1.51,0.51-2.51c0.29-0.04,0.44-0.06,0.73-0.1c-0.5,2.03-0.71,3.05-1.09,5.08
				C109.08,14.28,108.94,14.31,108.67,14.35z"/>
			<path fill="#252624" d="M111.52,12.28c0.12,0.85,0.72,1.13,1.36,1.06c0.46-0.05,0.73-0.15,0.96-0.27
				c0.06,0.18,0.09,0.27,0.15,0.44c-0.22,0.12-0.59,0.271-1.15,0.32c-1.08,0.11-1.81-0.5-1.95-1.54s0.41-1.96,1.49-2.07
				c1.21-0.13,1.62,0.86,1.67,1.5c0.01,0.13,0,0.23,0,0.3C113.03,12.1,112.53,12.15,111.52,12.28z M113.4,11.62
				c-0.03-0.4-0.27-1.02-1.02-0.94c-0.68,0.07-0.9,0.7-0.9,1.14C112.24,11.73,112.62,11.69,113.4,11.62z"/>
			<path fill="#252624" d="M114.83,11.19c-0.03-0.41-0.06-0.76-0.1-1.09c0.24-0.02,0.35-0.02,0.59-0.04
				c0.02,0.27,0.04,0.41,0.06,0.68c0.01,0,0.02,0,0.03,0c0.14-0.48,0.53-0.8,0.99-0.81c0.08,0,0.13,0,0.19,0.01
				c0.01,0.24,0.01,0.36,0.02,0.6c-0.07-0.01-0.14-0.02-0.23-0.01c-0.47,0.02-0.8,0.38-0.86,0.86c-0.01,0.09-0.02,0.19-0.01,0.3
				c0.04,0.74,0.06,1.12,0.1,1.86c-0.25,0.01-0.38,0.02-0.63,0.04C114.93,12.63,114.89,12.15,114.83,11.19z"/>
			<path fill="#252624" d="M117.33,10.93c-0.01-0.36-0.03-0.66-0.06-0.95c0.24-0.01,0.36-0.01,0.6-0.01
				c0.02,0.23,0.03,0.35,0.05,0.58c0.01,0,0.01,0,0.01,0c0.18-0.33,0.61-0.67,1.22-0.66c0.52,0,1.31,0.31,1.28,1.51
				c-0.02,0.83-0.029,1.25-0.06,2.09c-0.261-0.01-0.38-0.01-0.64-0.01c0.01-0.81,0.02-1.21,0.03-2.01c0.01-0.56-0.21-1.04-0.84-1.04
				c-0.44,0-0.78,0.31-0.89,0.65c-0.03,0.08-0.04,0.19-0.04,0.3c0.01,0.84,0.02,1.26,0.03,2.1c-0.26,0-0.38,0.01-0.64,0.01
				C117.37,12.46,117.36,11.95,117.33,10.93z"/>
			<path fill="#252624" d="M122.391,9.08c-0.011,0.21-0.19,0.38-0.461,0.36c-0.24-0.01-0.399-0.19-0.39-0.41
				c0.01-0.22,0.2-0.39,0.45-0.38C122.25,8.68,122.4,8.86,122.391,9.08z M121.43,13.51c0.061-1.4,0.09-2.09,0.15-3.49
				c0.27,0.01,0.41,0.02,0.68,0.03c-0.08,1.4-0.109,2.09-0.189,3.49C121.811,13.53,121.68,13.52,121.43,13.51z"/>
			<path fill="#252624" d="M123.609,12.01c-0.049,0.86,0.48,1.25,1.121,1.32c0.459,0.05,0.739,0,1-0.07
				c0.02,0.19,0.029,0.28,0.06,0.46c-0.24,0.07-0.63,0.14-1.19,0.09c-1.08-0.11-1.68-0.85-1.6-1.9c0.08-1.05,0.79-1.84,1.87-1.73
				c1.21,0.12,1.41,1.16,1.34,1.8c-0.021,0.13-0.04,0.23-0.06,0.29C125.13,12.14,124.62,12.09,123.609,12.01z M125.58,11.74
				c0.05-0.4-0.061-1.05-0.82-1.12c-0.68-0.06-1.02,0.5-1.109,0.94C124.43,11.62,124.811,11.66,125.58,11.74z"/>
			<path fill="#252624" d="M127.08,11.61c0.061-0.41,0.1-0.76,0.12-1.08c0.239,0.03,0.35,0.05,0.59,0.08
				c-0.03,0.27-0.05,0.41-0.08,0.68c0.01,0,0.021,0,0.03,0c0.229-0.44,0.68-0.67,1.13-0.6c0.08,0.01,0.13,0.03,0.19,0.05
				c-0.041,0.24-0.061,0.35-0.101,0.59c-0.069-0.03-0.13-0.04-0.22-0.06c-0.471-0.08-0.86,0.21-1.01,0.67
				c-0.03,0.08-0.061,0.18-0.07,0.29c-0.11,0.74-0.16,1.11-0.27,1.84c-0.25-0.04-0.381-0.05-0.631-0.09
				C126.88,13.04,126.95,12.56,127.08,11.61z"/>
			<path fill="#252624" d="M131.07,10.56c-0.01,0-0.01,0-0.01,0c-0.381,0.1-0.57,0.16-0.951,0.27c-0.02-0.2-0.02-0.3-0.039-0.5
				c0.479-0.14,0.71-0.2,1.199-0.33c0.23,0.05,0.351,0.07,0.58,0.12c-0.379,1.84-0.58,2.76-0.959,4.59
				c-0.24-0.05-0.36-0.08-0.61-0.12C130.6,12.97,130.75,12.16,131.07,10.56z"/>
		</g>
	</g>
	
		<image overflow="visible" enable-background="new    " width="237" height="236" xlink:href="7A0676D5.jpg"  transform="matrix(0.7485 0 0 0.7485 -7603.813 -7604.1895)">
	</image>
	
		<image overflow="visible" enable-background="new    " width="237" height="236" xlink:href="7A0676D7.jpg"  transform="matrix(0.7485 0 0 0.7485 -7603.813 -7604.1895)">
	</image>
	<g>
		<path fill="#2B2B2B" d="M151.47,17.36h-0.03l-1.729,0.94l-0.26-1.03l2.18-1.17h1.15v9.98h-1.3v-8.72H151.47z"/>
	</g>
	<g>
		<path fill="#2B2B2B" d="M148.87,220.08v-0.83l1.06-1.03c2.551-2.43,3.7-3.71,3.711-5.22c0-1.01-0.49-1.95-1.98-1.95
			c-0.91,0-1.66,0.46-2.12,0.841l-0.431-0.951c0.69-0.58,1.671-1.01,2.82-1.01c2.15,0,3.051,1.471,3.051,2.9
			c0,1.84-1.33,3.33-3.44,5.359l-0.8,0.74v0.03h4.48v1.12H148.87z"/>
	</g>
	<g>
		<g>
			<path fill="#2B2B2B" d="M105.7,229.84c-0.3-2.35-0.43-3.529-0.64-5.87c0.26,0.04,0.38,0.07,0.64,0.11
				c0.1,1.15,0.16,1.73,0.28,2.89c0.09,0.79,0.17,1.5,0.2,2.181c0.01,0,0.01,0,0.01,0c0.23-0.631,0.54-1.311,0.86-2.021
				c0.48-1.069,0.71-1.61,1.17-2.68c0.25,0.03,0.38,0.05,0.64,0.08c-0.93,2.18-1.42,3.27-2.46,5.42
				C106.13,229.9,105.98,229.88,105.7,229.84z"/>
			<path fill="#2B2B2B" d="M109.03,228.35c-0.1,1,0.41,1.48,1.06,1.541c0.46,0.039,0.75-0.021,1-0.121
				c0.03,0.221,0.04,0.33,0.07,0.541c-0.24,0.1-0.64,0.199-1.21,0.14c-1.1-0.11-1.66-1.011-1.51-2.24
				c0.15-1.22,0.86-2.12,1.85-2.021c1.11,0.11,1.31,1.301,1.25,2.051c-0.01,0.15-0.04,0.27-0.05,0.34
				C110.51,228.51,110.01,228.46,109.03,228.35z M110.94,228.01c0.05-0.47-0.06-1.22-0.76-1.29c-0.63-0.06-0.98,0.591-1.08,1.101
				C109.84,227.91,110.21,227.95,110.94,228.01z"/>
			<path fill="#2B2B2B" d="M112.36,227.75c0.03-0.48,0.05-0.891,0.06-1.27c0.22,0.01,0.32,0.02,0.54,0.039
				c-0.01,0.32-0.02,0.48-0.03,0.801c0.01,0,0.02,0,0.03,0c0.19-0.54,0.58-0.86,0.99-0.84c0.07,0,0.12,0.01,0.17,0.029
				c-0.01,0.28-0.02,0.42-0.03,0.7c-0.06-0.021-0.13-0.03-0.21-0.04c-0.44-0.02-0.77,0.36-0.89,0.91c-0.021,0.1-0.04,0.22-0.05,0.35
				c-0.05,0.87-0.08,1.311-0.13,2.18c-0.26-0.02-0.39-0.02-0.65-0.039C112.25,229.43,112.28,228.87,112.36,227.75z"/>
			<path fill="#2B2B2B" d="M114.73,227.7c0.02-0.42,0.02-0.771,0.01-1.11c0.22,0.01,0.33,0.01,0.55,0.02
				c0.01,0.271,0.01,0.41,0.01,0.681c0.01,0,0.01,0,0.01,0c0.18-0.38,0.59-0.75,1.15-0.74c0.47,0.011,1.2,0.351,1.21,1.75
				c0,0.979,0,1.46,0,2.44c-0.26,0-0.39,0-0.65,0c0.01-0.94,0.01-1.42,0.02-2.36c0-0.66-0.2-1.21-0.79-1.22
				c-0.41-0.01-0.73,0.34-0.86,0.74c-0.03,0.09-0.05,0.22-0.05,0.34c-0.03,0.979-0.04,1.479-0.07,2.46
				c-0.26-0.011-0.39-0.011-0.65-0.021C114.67,229.49,114.69,228.9,114.73,227.7z"/>
			<path fill="#2B2B2B" d="M119.34,225.48c0.01,0.25-0.14,0.459-0.38,0.459c-0.22,0-0.37-0.199-0.38-0.449
				c0-0.26,0.15-0.471,0.37-0.471C119.19,225.02,119.33,225.22,119.34,225.48z M118.74,230.73c-0.021-1.631-0.04-2.45-0.06-4.09
				c0.25,0,0.37-0.011,0.62-0.011c0.04,1.63,0.06,2.45,0.1,4.09C119.13,230.72,119,230.72,118.74,230.73z"/>
			<path fill="#2B2B2B" d="M120.76,228.76c0.061,1,0.631,1.4,1.28,1.36c0.46-0.03,0.74-0.14,0.97-0.28
				c0.061,0.21,0.09,0.32,0.15,0.53c-0.221,0.13-0.6,0.3-1.17,0.33c-1.11,0.06-1.801-0.75-1.84-1.98
				c-0.041-1.229,0.529-2.22,1.52-2.28c1.11-0.06,1.49,1.08,1.551,1.83c0.01,0.15,0,0.271,0,0.351
				C122.24,228.689,121.75,228.72,120.76,228.76z M122.6,228.13c-0.02-0.47-0.25-1.19-0.949-1.149
				c-0.631,0.029-0.881,0.729-0.9,1.25C121.49,228.2,121.859,228.18,122.6,228.13z"/>
			<path fill="#2B2B2B" d="M123.96,227.66c-0.04-0.48-0.08-0.891-0.14-1.27c0.22-0.021,0.32-0.031,0.539-0.051
				c0.041,0.32,0.061,0.48,0.101,0.79c0.01,0,0.021,0,0.03,0c0.109-0.56,0.439-0.94,0.85-0.979c0.07-0.01,0.12,0,0.18,0.01
				c0.03,0.279,0.041,0.42,0.07,0.699c-0.07-0.01-0.13-0.01-0.21,0c-0.44,0.051-0.71,0.471-0.75,1.031c0,0.1-0.01,0.219,0,0.35
				c0.08,0.869,0.12,1.3,0.2,2.17c-0.26,0.02-0.391,0.04-0.641,0.06C124.1,229.34,124.05,228.78,123.96,227.66z"/>
			<path fill="#2B2B2B" d="M127.97,230.04c-0.02-0.181-0.03-0.271-0.06-0.45c0.17-0.25,0.26-0.38,0.43-0.63
				c1.02-1.49,1.42-2.29,1.29-3.101c-0.09-0.549-0.39-1.02-1.06-0.92c-0.41,0.061-0.711,0.36-0.891,0.601
				c-0.109-0.2-0.16-0.3-0.26-0.49c0.27-0.36,0.67-0.649,1.18-0.729c0.961-0.15,1.5,0.58,1.631,1.35c0.17,1-0.291,1.92-1.121,3.17
				c-0.129,0.18-0.189,0.28-0.319,0.46c0,0.011,0,0.011,0,0.011c0.851-0.131,1.28-0.19,2.13-0.341c0.04,0.24,0.061,0.36,0.11,0.61
				C129.811,229.78,129.2,229.88,127.97,230.04z"/>
		</g>
	</g>
</g>
</svg>
