<?xml version="1.0" encoding="utf-8"?>
<!-- Generator: Adobe Illustrator 16.0.0, SVG Export Plug-In . SVG Version: 6.00 Build 0)  -->
<!DOCTYPE svg PUBLIC "-//W3C//DTD SVG 1.1//EN" "http://www.w3.org/Graphics/SVG/1.1/DTD/svg11.dtd">
<svg version="1.1" id="GROUP_1" xmlns="http://www.w3.org/2000/svg" xmlns:xlink="http://www.w3.org/1999/xlink" x="0px" y="0px"
	 width="1550.7px" height="1550.7px" viewBox="0 0 1550.7 1550.7" enable-background="new 0 0 1550.7 1550.7" xml:space="preserve">
<g id="Layer_14">
</g>
<g id="Layer_3">
</g>
<g id="Layer_5">
</g>
<g id="Sample_lines" display="none">
</g>
<g id="Big_line">
</g>
<g id="Small_line">
</g>
<g id="Medium_line_1_">
</g>
<g id="Layer_6">
</g>
<g id="Sample_line_vernier" display="none">
</g>
<g id="big_line_vernier">
	<g>
		<line fill="none" stroke="#231F20" stroke-width="2" stroke-miterlimit="10" x1="844.7" y1="169.8" x2="841.3" y2="199.6"/>
		<line fill="none" stroke="#231F20" stroke-width="2" stroke-miterlimit="10" x1="792.6" y1="196.1" x2="793.5" y2="166.1"/>
		<line fill="none" stroke="#231F20" stroke-width="2" stroke-miterlimit="10" x1="743.7" y1="196.7" x2="742.1" y2="166.7"/>
		<line fill="none" stroke="#231F20" stroke-width="2" stroke-miterlimit="10" x1="690.9" y1="171.7" x2="695" y2="202.4"/>
		<line fill="none" stroke="#231F20" stroke-width="2" stroke-miterlimit="10" x1="709.4" y1="1351.1" x2="706" y2="1380.9"/>
		<line fill="none" stroke="#231F20" stroke-width="2" stroke-miterlimit="10" x1="758.2" y1="1354.7" x2="757.3" y2="1384.7"/>
		<line fill="none" stroke="#231F20" stroke-width="2" stroke-miterlimit="10" x1="808.7" y1="1384.1" x2="807.1" y2="1354.2"/>
		<line fill="none" stroke="#231F20" stroke-width="2" stroke-miterlimit="10" x1="859.9" y1="1379.2" x2="855.8" y2="1349.5"/>
	</g>
</g>
<g id="medium_line_vernier">
	<g>
		<line fill="none" stroke="#231F20" stroke-miterlimit="10" x1="832.9" y1="185.6" x2="834.5" y2="168.7"/>
		<line fill="none" stroke="#231F20" stroke-miterlimit="10" x1="822.9" y1="184.7" x2="824.3" y2="167.8"/>
		<line fill="none" stroke="#231F20" stroke-miterlimit="10" x1="812.9" y1="184" x2="814" y2="167.1"/>
		<line fill="none" stroke="#231F20" stroke-miterlimit="10" x1="803" y1="183.4" x2="803.7" y2="166.5"/>
		<line fill="none" stroke="#231F20" stroke-miterlimit="10" x1="783" y1="182.8" x2="783.2" y2="165.9"/>
		<line fill="none" stroke="#231F20" stroke-miterlimit="10" x1="773" y1="182.8" x2="772.9" y2="165.8"/>
		<line fill="none" stroke="#231F20" stroke-miterlimit="10" x1="763" y1="182.9" x2="762.6" y2="166"/>
		<line fill="none" stroke="#231F20" stroke-miterlimit="10" x1="753" y1="183.2" x2="752.4" y2="166.2"/>
		<line fill="none" stroke="#231F20" stroke-miterlimit="10" x1="733" y1="184.3" x2="731.8" y2="167.4"/>
		<line fill="none" stroke="#231F20" stroke-miterlimit="10" x1="723.1" y1="185" x2="721.6" y2="168.2"/>
		<line fill="none" stroke="#231F20" stroke-miterlimit="10" x1="713.1" y1="186" x2="711.3" y2="169.2"/>
		<line fill="none" stroke="#231F20" stroke-miterlimit="10" x1="701.1" y1="170.3" x2="703.2" y2="187.1"/>
		<line fill="none" stroke="#231F20" stroke-miterlimit="10" x1="717.9" y1="1365.2" x2="716.3" y2="1382"/>
		<line fill="none" stroke="#231F20" stroke-miterlimit="10" x1="726.5" y1="1382.9" x2="727.9" y2="1366"/>
		<line fill="none" stroke="#231F20" stroke-miterlimit="10" x1="737.8" y1="1366.8" x2="736.8" y2="1383.7"/>
		<line fill="none" stroke="#231F20" stroke-miterlimit="10" x1="747.8" y1="1367.3" x2="747" y2="1384.3"/>
		<line fill="none" stroke="#231F20" stroke-miterlimit="10" x1="767.8" y1="1368" x2="767.6" y2="1384.9"/>
		<line fill="none" stroke="#231F20" stroke-miterlimit="10" x1="777.8" y1="1368" x2="777.9" y2="1385"/>
		<line fill="none" stroke="#231F20" stroke-miterlimit="10" x1="787.8" y1="1367.9" x2="788.2" y2="1384.9"/>
		<line fill="none" stroke="#231F20" stroke-miterlimit="10" x1="797.8" y1="1367.6" x2="798.5" y2="1384.6"/>
		<line fill="none" stroke="#231F20" stroke-miterlimit="10" x1="817.8" y1="1366.6" x2="819" y2="1383.5"/>
		<line fill="none" stroke="#231F20" stroke-miterlimit="10" x1="827.8" y1="1365.8" x2="829.3" y2="1382.7"/>
		<line fill="none" stroke="#231F20" stroke-miterlimit="10" x1="837.7" y1="1364.8" x2="839.5" y2="1381.7"/>
		<line fill="none" stroke="#231F20" stroke-miterlimit="10" x1="849.7" y1="1380.5" x2="847.7" y2="1363.7"/>
	</g>
</g>
<g id="small_line_vernier">
	<g>
		<line fill="none" stroke="#231F20" stroke-miterlimit="10" x1="711.9" y1="1374.3" x2="711.1" y2="1381.5"/>
		<line fill="none" stroke="#231F20" stroke-miterlimit="10" x1="721.4" y1="1382.5" x2="722" y2="1375.3"/>
		<line fill="none" stroke="#231F20" stroke-miterlimit="10" x1="732.2" y1="1376.1" x2="731.6" y2="1383.3"/>
		<line fill="none" stroke="#231F20" stroke-miterlimit="10" x1="742.3" y1="1376.8" x2="741.9" y2="1384"/>
		<line fill="none" stroke="#231F20" stroke-miterlimit="10" x1="752.5" y1="1377.3" x2="752.2" y2="1384.5"/>
		<line fill="none" stroke="#231F20" stroke-miterlimit="10" x1="762.6" y1="1377.6" x2="762.5" y2="1384.8"/>
		<line fill="none" stroke="#231F20" stroke-miterlimit="10" x1="772.8" y1="1377.7" x2="772.7" y2="1385"/>
		<line fill="none" stroke="#231F20" stroke-miterlimit="10" x1="782.9" y1="1377.7" x2="783" y2="1384.9"/>
		<line fill="none" stroke="#231F20" stroke-miterlimit="10" x1="793.1" y1="1377.5" x2="793.3" y2="1384.8"/>
		<line fill="none" stroke="#231F20" stroke-miterlimit="10" x1="803.3" y1="1377.1" x2="803.6" y2="1384.4"/>
		<line fill="none" stroke="#231F20" stroke-miterlimit="10" x1="813.4" y1="1376.6" x2="813.9" y2="1383.8"/>
		<line fill="none" stroke="#231F20" stroke-miterlimit="10" x1="823.6" y1="1375.9" x2="824.1" y2="1383.1"/>
		<line fill="none" stroke="#231F20" stroke-miterlimit="10" x1="833.7" y1="1375" x2="834.4" y2="1382.2"/>
		<line fill="none" stroke="#231F20" stroke-miterlimit="10" x1="843.8" y1="1374" x2="844.6" y2="1381.2"/>
		<line fill="none" stroke="#231F20" stroke-miterlimit="10" x1="854.8" y1="1379.9" x2="853.9" y2="1372.7"/>
		<line fill="none" stroke="#231F20" stroke-miterlimit="10" x1="838.8" y1="176.4" x2="839.6" y2="169.2"/>
		<line fill="none" stroke="#231F20" stroke-miterlimit="10" x1="828.7" y1="175.5" x2="829.4" y2="168.2"/>
		<line fill="none" stroke="#231F20" stroke-miterlimit="10" x1="818.6" y1="174.6" x2="819.1" y2="167.4"/>
		<line fill="none" stroke="#231F20" stroke-miterlimit="10" x1="808.5" y1="174" x2="808.9" y2="166.8"/>
		<line fill="none" stroke="#231F20" stroke-miterlimit="10" x1="798.3" y1="173.5" x2="798.6" y2="166.3"/>
		<line fill="none" stroke="#231F20" stroke-miterlimit="10" x1="788.2" y1="173.2" x2="788.3" y2="166"/>
		<line fill="none" stroke="#231F20" stroke-miterlimit="10" x1="778" y1="173.1" x2="778.1" y2="165.8"/>
		<line fill="none" stroke="#231F20" stroke-miterlimit="10" x1="767.9" y1="173.1" x2="767.8" y2="165.9"/>
		<line fill="none" stroke="#231F20" stroke-miterlimit="10" x1="757.7" y1="173.3" x2="757.5" y2="166.1"/>
		<line fill="none" stroke="#231F20" stroke-miterlimit="10" x1="747.6" y1="173.7" x2="747.2" y2="166.5"/>
		<line fill="none" stroke="#231F20" stroke-miterlimit="10" x1="737.4" y1="174.2" x2="737" y2="167"/>
		<line fill="none" stroke="#231F20" stroke-miterlimit="10" x1="727.3" y1="175" x2="726.7" y2="167.7"/>
		<line fill="none" stroke="#231F20" stroke-miterlimit="10" x1="717.2" y1="175.8" x2="716.5" y2="168.6"/>
		<line fill="none" stroke="#231F20" stroke-miterlimit="10" x1="707.1" y1="176.9" x2="706.2" y2="169.7"/>
		<line fill="none" stroke="#231F20" stroke-miterlimit="10" x1="696" y1="171" x2="697" y2="178.1"/>
	</g>
</g>
<g id="Layer_17" display="none">
</g>
<g id="Guides">
</g>
<g id="Layer_18">
	
		<text transform="matrix(-0.9938 0.1114 -0.1114 -0.9938 859.1699 1327.8232)" font-family="'MyriadPro-Regular'" font-size="26.6099">0</text>
	
		<text transform="matrix(-0.999 4.521715e-002 -4.521715e-002 -0.999 819.6953 1331.3555)" font-family="'MyriadPro-Regular'" font-size="26.6099">10</text>
	
		<text transform="matrix(-0.9988 -4.993485e-002 4.993485e-002 -0.9988 771.7959 1334.4043)" font-family="'MyriadPro-Regular'" font-size="26.6099">20</text>
	
		<text transform="matrix(-0.9941 -0.1086 0.1086 -0.9941 723.0713 1330.4512)" font-family="'MyriadPro-Regular'" font-size="26.6099">30</text>
</g>
<g id="Layer_16">
	<text transform="matrix(0.9935 -0.1141 0.1141 0.9935 690.5664 224.1738)" font-family="'MyriadPro-Regular'" font-size="26.6099">0</text>
	
		<text transform="matrix(0.9988 -4.791987e-002 4.791987e-002 0.9988 730.0596 219.5205)" font-family="'MyriadPro-Regular'" font-size="26.6099">10</text>
	
		<text transform="matrix(0.9989 4.723191e-002 -4.723191e-002 0.9989 777.9893 216.3701)" font-family="'MyriadPro-Regular'" font-size="26.6099">20</text>
	<text transform="matrix(0.9944 0.1059 -0.1059 0.9944 826.7686 220.1704)" font-family="'MyriadPro-Regular'" font-size="26.6099">30</text>
</g>
</svg>
